<?xml version="1.0" encoding="UTF-8" standalone="no"?>
<svg
   xmlns:dc="http://purl.org/dc/elements/1.1/"
   xmlns:cc="http://creativecommons.org/ns#"
   xmlns:rdf="http://www.w3.org/1999/02/22-rdf-syntax-ns#"
   xmlns:svg="http://www.w3.org/2000/svg"
   xmlns="http://www.w3.org/2000/svg"
   id="svg259"
   height="6.5855436mm"
   width="9.0101995mm"
   version="1.0">
  <metadata
     id="metadata263">
    <rdf:RDF>
      <cc:Work
         rdf:about="">
        <dc:format>image/svg+xml</dc:format>
        <dc:type
           rdf:resource="http://purl.org/dc/dcmitype/StillImage" />
        <dc:title></dc:title>
      </cc:Work>
    </rdf:RDF>
  </metadata>
  <defs
     id="defs253">
    <pattern
       y="0"
       x="0"
       height="6"
       width="6"
       patternUnits="userSpaceOnUse"
       id="WMFhbasepattern" />
  </defs>
  <path
     id="path255"
     d="M 30.536954,0 H 3.3574661 3.1975868 2.877828 2.5580694 L 2.2383108,0.15955285 1.918552,0.31910569 1.5987933,0.47865852 1.2790346,0.63821142 1.1191553,0.79776422 0.79939665,1.1168699 0.63951735,1.2764227 0.47963805,1.5955284 0.31975867,1.9146341 0.15987933,2.2337398 0,2.5528455 v 0.3191057 0.3191057 0.1595528 18.0294723 0.159553 0.478658 0.319106 l 0.15987933,0.319105 0.15987934,0.319106 0.15987938,0.159553 0.1598793,0.319106 0.1598793,0.319105 0.31975865,0.159553 0.1598793,0.159553 0.3197587,0.319106 0.3197587,0.159553 h 0.3197588 l 0.3197586,0.159552 H 2.877828 l 0.3197588,0.159553 h 0.1598793 27.1794879 0.159879 l 0.479638,-0.159553 h 0.319759 l 0.319758,-0.159552 h 0.319759 l 0.159879,-0.159553 0.319759,-0.319106 0.319759,-0.159553 0.159879,-0.159553 0.159879,-0.319105 0.319759,-0.319106 0.159879,-0.159553 v -0.319106 l 0.15988,-0.319105 v -0.319106 l 0.159879,-0.478658 V 21.380082 3.3506097 3.1910569 L 33.89442,2.8719512 V 2.5528455 L 33.73454,2.2337398 V 1.9146341 L 33.574661,1.5955284 33.254902,1.2764227 33.095023,1.1168699 32.935144,0.79776422 32.615385,0.63821142 32.295626,0.47865852 32.135747,0.31910569 31.815988,0.15955285 31.49623,0 H 31.176471 30.696833 Z M 12.470589,19.305895 V 5.4247967 l 12.950226,6.8607723 z"
     style="fill:#46a0d5;fill-opacity:1;fill-rule:evenodd;stroke:none" />
  <path
     id="path257"
     d="M 12.630468,19.305895 25.580694,12.285569 12.630468,5.4247967 Z"
     style="fill:#6bb6e3;fill-opacity:1;fill-rule:evenodd;stroke:none" />
</svg>
