<?xml version="1.0" encoding="UTF-8" standalone="no"?>
<svg
   xmlns:dc="http://purl.org/dc/elements/1.1/"
   xmlns:cc="http://creativecommons.org/ns#"
   xmlns:rdf="http://www.w3.org/1999/02/22-rdf-syntax-ns#"
   xmlns:svg="http://www.w3.org/2000/svg"
   xmlns="http://www.w3.org/2000/svg"
   id="svg203"
   height="6.5873232mm"
   width="9.0086613mm"
   version="1.0">
  <metadata
     id="metadata207">
    <rdf:RDF>
      <cc:Work
         rdf:about="">
        <dc:format>image/svg+xml</dc:format>
        <dc:type
           rdf:resource="http://purl.org/dc/dcmitype/StillImage" />
        <dc:title></dc:title>
      </cc:Work>
    </rdf:RDF>
  </metadata>
  <defs
     id="defs193">
    <pattern
       y="0"
       x="0"
       height="6"
       width="6"
       patternUnits="userSpaceOnUse"
       id="WMFhbasepattern" />
  </defs>
  <path
     id="path195"
     d="M 30.515152,0 H 3.3727273 3.2121213 2.8909091 2.569697 L 2.2484849,0.15959596 1.9272728,0.3191919 1.6060606,0.4787879 1.2848485,0.6383838 1.1242425,0.7979798 0.80303026,1.1171717 0.64242426,1.2767677 0.48181816,1.5959596 0.32121212,1.9151515 0.16060606,2.2343434 0,2.5535354 v 0.3191919 0.3191919 0.1595959 18.0343429 0.159596 0.478788 0.319192 l 0.16060606,0.319192 0.16060606,0.319192 0.16060604,0.159596 0.1606061,0.319192 0.160606,0.319192 0.32121224,0.159596 0.160606,0.159596 0.3212121,0.319192 0.3212122,0.159596 h 0.3212121 l 0.3212121,0.159596 h 0.3212121 l 0.3212122,0.159595 h 0.160606 27.1424247 0.321212 l 0.321212,-0.159595 h 0.321212 L 31.8,24.577778 h 0.321212 l 0.160606,-0.159596 0.321213,-0.319192 0.321212,-0.159596 0.160606,-0.159596 0.160606,-0.319192 0.321212,-0.319192 0.160606,-0.159596 v -0.319192 l 0.160606,-0.319192 v -0.319192 l 0.160606,-0.478788 V 21.385858 3.3515151 3.1919192 L 33.887879,2.8727273 V 2.5535354 L 33.727273,2.2343434 V 1.9151515 L 33.566667,1.5959596 33.245455,1.2767677 33.084849,1.1171717 32.924243,0.7979798 32.603031,0.6383838 32.281818,0.4787879 32.121212,0.3191919 31.8,0.15959596 31.478788,0 H 31.157576 30.836364 Z M 12.527273,19.311111 V 5.4262626 l 13.009091,6.8626264 z"
     style="fill:#46a0d5;fill-opacity:1;fill-rule:evenodd;stroke:none" />
  <path
     id="path197"
     d="M 10.439394,5.1070707 V 21.864646 H 26.981818 V 5.1070707 Z"
     style="fill:#46a0d5;fill-opacity:1;fill-rule:evenodd;stroke:none" />
  <path
     id="path199"
     d="M 10.118182,5.5858586 V 19.311111 H 23.930303 V 5.5858586 Z"
     style="fill:#ffffff;fill-opacity:1;fill-rule:evenodd;stroke:none" />
  <path
     id="path201"
     d="m 15.09697,3.989899 v 17.874747 h 3.533333 V 3.989899 Z"
     style="fill:#46a0d5;fill-opacity:1;fill-rule:evenodd;stroke:none" />
</svg>
