<?xml version="1.0" encoding="UTF-8" standalone="no"?>
<svg
   xmlns:dc="http://purl.org/dc/elements/1.1/"
   xmlns:cc="http://creativecommons.org/ns#"
   xmlns:rdf="http://www.w3.org/1999/02/22-rdf-syntax-ns#"
   xmlns:svg="http://www.w3.org/2000/svg"
   xmlns="http://www.w3.org/2000/svg"
   id="svg220"
   height="6.5855436mm"
   width="9.0086613mm"
   version="1.0">
  <metadata
     id="metadata224">
    <rdf:RDF>
      <cc:Work
         rdf:about="">
        <dc:format>image/svg+xml</dc:format>
        <dc:type
           rdf:resource="http://purl.org/dc/dcmitype/StillImage" />
        <dc:title></dc:title>
      </cc:Work>
    </rdf:RDF>
  </metadata>
  <defs
     id="defs210">
    <pattern
       y="0"
       x="0"
       height="6"
       width="6"
       patternUnits="userSpaceOnUse"
       id="WMFhbasepattern" />
  </defs>
  <path
     id="path212"
     d="M 30.515152,0 H 3.3727273 3.2121213 2.8909091 2.569697 L 2.2484849,0.15955285 1.9272728,0.31910569 1.6060606,0.47865852 1.2848485,0.63821142 1.1242425,0.79776422 0.80303026,1.1168699 0.64242426,1.2764227 0.48181816,1.5955284 0.32121212,1.9146341 0.16060606,2.2337398 0,2.5528455 v 0.3191057 0.3191057 0.1595528 18.0294723 0.159553 0.478658 0.319106 l 0.16060606,0.319105 0.16060606,0.319106 0.16060604,0.159553 0.1606061,0.319106 0.160606,0.319105 0.32121224,0.159553 0.160606,0.159553 0.3212121,0.319106 0.3212122,0.159553 h 0.3212121 l 0.3212121,0.159552 h 0.3212121 l 0.3212122,0.159553 h 0.160606 27.1424247 0.321212 l 0.321212,-0.159553 h 0.321212 L 31.8,24.571139 h 0.321212 l 0.160606,-0.159553 0.321213,-0.319106 0.321212,-0.159553 0.160606,-0.159553 0.160606,-0.319105 0.321212,-0.319106 0.160606,-0.159553 v -0.319106 l 0.160606,-0.319105 v -0.319106 l 0.160606,-0.478658 V 21.380082 3.3506097 3.1910569 L 33.887879,2.8719512 V 2.5528455 L 33.727273,2.2337398 V 1.9146341 L 33.566667,1.5955284 33.245455,1.2764227 33.084849,1.1168699 32.924243,0.79776422 32.603031,0.63821142 32.281818,0.47865852 32.121212,0.31910569 31.8,0.15955285 31.478788,0 H 31.157576 30.836364 Z M 12.527273,19.305895 V 5.4247967 l 13.009091,6.8607723 z"
     style="fill:#46a0d5;fill-opacity:1;fill-rule:evenodd;stroke:none" />
  <path
     id="path214"
     d="M 10.439394,5.105691 V 21.85874 H 26.981818 V 5.105691 Z"
     style="fill:#46a0d5;fill-opacity:1;fill-rule:evenodd;stroke:none" />
  <path
     id="path216"
     d="M 10.118182,5.5843496 V 19.305895 H 23.930303 V 5.5843496 Z"
     style="fill:#4a4a4b;fill-opacity:1;fill-rule:evenodd;stroke:none" />
  <path
     id="path218"
     d="M 15.09697,4.148374 V 21.85874 h 3.533333 V 4.148374 Z"
     style="fill:#46a0d5;fill-opacity:1;fill-rule:evenodd;stroke:none" />
</svg>
