<?xml version="1.0" encoding="UTF-8" standalone="no"?>
<svg
   xmlns:dc="http://purl.org/dc/elements/1.1/"
   xmlns:cc="http://creativecommons.org/ns#"
   xmlns:rdf="http://www.w3.org/1999/02/22-rdf-syntax-ns#"
   xmlns:svg="http://www.w3.org/2000/svg"
   xmlns="http://www.w3.org/2000/svg"
   id="svg160"
   height="6.5873232mm"
   width="9.0101995mm"
   version="1.0">
  <metadata
     id="metadata164">
    <rdf:RDF>
      <cc:Work
         rdf:about="">
        <dc:format>image/svg+xml</dc:format>
        <dc:type
           rdf:resource="http://purl.org/dc/dcmitype/StillImage" />
        <dc:title></dc:title>
      </cc:Work>
    </rdf:RDF>
  </metadata>
  <defs
     id="defs154">
    <pattern
       y="0"
       x="0"
       height="6"
       width="6"
       patternUnits="userSpaceOnUse"
       id="WMFhbasepattern" />
  </defs>
  <path
     id="path156"
     d="m 3.3574661,0 h 27.1794879 0.159879 0.479638 0.319759 l 0.319758,0.15959596 0.319759,0.15959594 0.159879,0.159596 0.319759,0.1595959 0.319759,0.159596 0.159879,0.3191919 0.159879,0.159596 0.319759,0.3191919 0.159879,0.3191919 v 0.3191919 l 0.15988,0.319192 v 0.3191919 l 0.159879,0.3191919 v 0.1595959 18.0343429 0.159596 l -0.159879,0.478788 v 0.319192 l -0.15988,0.319192 v 0.319192 l -0.159879,0.159596 -0.319759,0.319192 -0.159879,0.319192 -0.159879,0.159596 -0.319759,0.159596 -0.319759,0.319192 -0.159879,0.159596 h -0.319759 l -0.319758,0.159596 h -0.319759 l -0.479638,0.159595 H 30.536954 3.3574661 3.1975868 L 2.877828,24.737374 H 2.5580694 L 2.2383108,24.577778 H 1.918552 L 1.5987933,24.418182 1.2790346,24.09899 1.1191553,23.939394 0.79939665,23.779798 0.63951735,23.460606 0.47963805,23.141414 0.31975867,22.981818 0.15987933,22.662626 0,22.343434 V 22.024242 21.545454 21.385858 3.3515151 3.1919192 2.8727273 2.5535354 L 0.15987933,2.2343434 0.31975867,1.9151515 0.47963805,1.5959596 0.63951735,1.2767677 0.79939665,1.1171717 1.1191553,0.7979798 1.2790346,0.6383838 1.5987933,0.4787879 1.918552,0.3191919 2.2383108,0.15959596 2.5580694,0 H 2.877828 3.1975868 Z M 21.423831,19.311111 V 5.4262626 L 8.4736048,12.288889 Z"
     style="fill:#46a0d5;fill-opacity:1;fill-rule:evenodd;stroke:none" />
  <path
     id="path158"
     d="M 21.583711,19.311111 8.4736048,12.288889 21.583711,5.4262626 Z"
     style="fill:#4a4a4b;fill-opacity:1;fill-rule:evenodd;stroke:none" />
</svg>
