<?xml version="1.0" encoding="UTF-8" standalone="no"?>
<svg
   xmlns:dc="http://purl.org/dc/elements/1.1/"
   xmlns:cc="http://creativecommons.org/ns#"
   xmlns:rdf="http://www.w3.org/1999/02/22-rdf-syntax-ns#"
   xmlns:svg="http://www.w3.org/2000/svg"
   xmlns="http://www.w3.org/2000/svg"
   id="svg147"
   height="6.62749mm"
   width="9.0101995mm"
   version="1.0">
  <metadata
     id="metadata151">
    <rdf:RDF>
      <cc:Work
         rdf:about="">
        <dc:format>image/svg+xml</dc:format>
        <dc:type
           rdf:resource="http://purl.org/dc/dcmitype/StillImage" />
        <dc:title></dc:title>
      </cc:Work>
    </rdf:RDF>
  </metadata>
  <defs
     id="defs141">
    <pattern
       y="0"
       x="0"
       height="6"
       width="6"
       patternUnits="userSpaceOnUse"
       id="WMFhbasepattern" />
  </defs>
  <path
     id="path143"
     d="m 3.3574661,0 h 27.1794879 0.159879 0.479638 0.319759 l 0.319758,0.16056911 0.319759,0.1605691 0.159879,0.16056907 0.319759,0.1605691 0.319759,0.1605692 0.159879,0.32113822 0.159879,0.1605691 0.319759,0.3211382 0.159879,0.3211382 v 0.3211382 l 0.15988,0.3211382 v 0.3211382 l 0.159879,0.3211382 V 3.3719512 21.516261 21.67683 l -0.159879,0.481707 v 0.321138 l -0.15988,0.321138 v 0.321139 l -0.159879,0.160569 -0.319759,0.321138 -0.159879,0.321138 -0.159879,0.160569 -0.319759,0.160569 -0.319759,0.321139 -0.159879,0.160569 h -0.319759 l -0.319758,0.160569 h -0.319759 l -0.479638,0.160569 H 30.536954 3.3574661 3.1975868 L 2.877828,24.888212 H 2.5580694 L 2.2383108,24.727643 H 1.918552 L 1.5987933,24.567074 1.2790346,24.245935 1.1191553,24.085366 0.79939665,23.924797 0.63951735,23.603659 0.47963805,23.282521 0.31975867,23.121952 0.15987933,22.800813 0,22.479675 V 22.158537 21.67683 21.516261 3.3719512 3.2113821 2.8902439 2.5691057 L 0.15987933,2.2479675 0.31975867,1.9268293 0.47963805,1.6056911 0.63951735,1.2845529 0.79939665,1.1239838 1.1191553,0.80284558 1.2790346,0.64227638 1.5987933,0.48170728 1.918552,0.32113821 2.2383108,0.16056911 2.5580694,0 H 2.877828 3.1975868 Z M 21.423831,19.428862 V 5.4593496 L 8.4736048,12.363822 Z"
     style="fill:#46a0d5;fill-opacity:1;fill-rule:evenodd;stroke:none" />
  <path
     id="path145"
     d="M 21.583711,19.428862 8.4736048,12.363822 21.583711,5.4593496 Z"
     style="fill:#ffffff;fill-opacity:1;fill-rule:evenodd;stroke:none" />
</svg>
