<?xml version="1.0" encoding="UTF-8" standalone="no"?>
<svg
   xmlns:dc="http://purl.org/dc/elements/1.1/"
   xmlns:cc="http://creativecommons.org/ns#"
   xmlns:rdf="http://www.w3.org/1999/02/22-rdf-syntax-ns#"
   xmlns:svg="http://www.w3.org/2000/svg"
   xmlns="http://www.w3.org/2000/svg"
   id="svg173"
   height="6.5855436mm"
   width="8.9678984mm"
   version="1.0">
  <metadata
     id="metadata177">
    <rdf:RDF>
      <cc:Work
         rdf:about="">
        <dc:format>image/svg+xml</dc:format>
        <dc:type
           rdf:resource="http://purl.org/dc/dcmitype/StillImage" />
        <dc:title></dc:title>
      </cc:Work>
    </rdf:RDF>
  </metadata>
  <defs
     id="defs167">
    <pattern
       y="0"
       x="0"
       height="6"
       width="6"
       patternUnits="userSpaceOnUse"
       id="WMFhbasepattern" />
  </defs>
  <path
     id="path169"
     d="m 3.3574661,0 h 27.0196079 0.319759 0.319759 0.319758 l 0.319759,0.15955285 0.319759,0.15955284 0.159879,0.15955283 0.319759,0.1595529 0.319758,0.1595528 0.15988,0.31910568 0.159879,0.1595528 0.319759,0.3191057 0.159879,0.3191057 v 0.3191057 l 0.159879,0.3191057 v 0.3191057 l 0.15988,0.3191057 v 0.1595528 18.0294723 0.159553 l -0.15988,0.478658 v 0.319106 l -0.159879,0.319105 v 0.319106 l -0.159879,0.159553 -0.319759,0.319106 -0.159879,0.319105 -0.15988,0.159553 -0.319758,0.159553 -0.319759,0.319106 -0.159879,0.159553 h -0.319759 l -0.319759,0.159552 h -0.319758 l -0.319759,0.159553 H 30.377074 3.3574661 3.1975868 L 2.877828,24.730691 H 2.5580694 L 2.2383108,24.571139 H 1.918552 L 1.5987933,24.411586 1.2790346,24.09248 1.1191553,23.932927 0.79939665,23.773374 0.63951735,23.454269 0.47963805,23.135163 0.31975867,22.97561 0.15987933,22.656504 0,22.337399 V 22.018293 21.539635 21.380082 3.3506097 3.1910569 2.8719512 2.5528455 L 0.15987933,2.2337398 0.31975867,1.9146341 0.47963805,1.5955284 0.63951735,1.2764227 0.79939665,1.1168699 1.1191553,0.79776422 1.2790346,0.63821142 1.5987933,0.47865852 1.918552,0.31910569 2.2383108,0.15955285 2.5580694,0 H 2.877828 3.1975868 Z M 21.423831,19.305895 V 5.4247967 L 8.4736048,12.285569 Z"
     style="fill:#46a0d5;fill-opacity:1;fill-rule:evenodd;stroke:none" />
  <path
     id="path171"
     d="M 21.423831,19.305895 8.4736048,12.285569 21.423831,5.4247967 Z"
     style="fill:#6bb6e3;fill-opacity:1;fill-rule:evenodd;stroke:none" />
</svg>
