<?xml version="1.0" encoding="UTF-8" standalone="no"?>
<svg
   xmlns:dc="http://purl.org/dc/elements/1.1/"
   xmlns:cc="http://creativecommons.org/ns#"
   xmlns:rdf="http://www.w3.org/1999/02/22-rdf-syntax-ns#"
   xmlns:svg="http://www.w3.org/2000/svg"
   xmlns="http://www.w3.org/2000/svg"
   id="svg246"
   height="6.5450969mm"
   width="8.9678984mm"
   version="1.0">
  <metadata
     id="metadata250">
    <rdf:RDF>
      <cc:Work
         rdf:about="">
        <dc:format>image/svg+xml</dc:format>
        <dc:type
           rdf:resource="http://purl.org/dc/dcmitype/StillImage" />
        <dc:title></dc:title>
      </cc:Work>
    </rdf:RDF>
  </metadata>
  <defs
     id="defs240">
    <pattern
       y="0"
       x="0"
       height="6"
       width="6"
       patternUnits="userSpaceOnUse"
       id="WMFhbasepattern" />
  </defs>
  <path
     id="path242"
     d="M 30.377074,0 H 3.3574661 3.1975868 2.877828 2.5580694 L 2.2383108,0.15959596 1.918552,0.3191919 1.5987933,0.4787879 1.2790346,0.6383838 1.1191553,0.7979798 0.79939665,1.1171717 0.63951735,1.2767677 0.47963805,1.5959596 0.31975867,1.9151515 0.15987933,2.2343434 0,2.3939394 v 0.4787879 0.3191919 0.1595959 17.8747469 0.319192 0.319192 0.319192 l 0.15987933,0.319192 0.15987934,0.319192 0.15987938,0.159596 0.1598793,0.319192 0.1598793,0.319192 0.31975865,0.159596 0.1598793,0.159596 0.3197587,0.319192 0.3197587,0.159596 h 0.3197588 l 0.3197586,0.159596 H 2.877828 l 0.3197588,0.159596 h 0.1598793 27.0196079 0.319759 l 0.319759,-0.159596 h 0.319758 l 0.319759,-0.159596 h 0.319759 l 0.159879,-0.159596 0.319759,-0.319192 0.319758,-0.159596 0.15988,-0.159596 0.159879,-0.319192 0.319759,-0.319192 0.159879,-0.159596 V 22.50303 l 0.159879,-0.319192 v -0.319192 l 0.15988,-0.319192 V 21.226262 3.3515151 3.1919192 L 33.73454,2.8727273 V 2.3939394 L 33.574661,2.2343434 V 1.9151515 L 33.414782,1.5959596 33.095023,1.2767677 32.935144,1.1171717 32.775264,0.7979798 32.455506,0.6383838 32.135747,0.4787879 31.975868,0.3191919 31.656109,0.15959596 31.33635,0 H 31.016592 30.696833 Z M 12.470589,19.151515 V 5.4262626 l 12.950226,6.8626264 z"
     style="fill:#46a0d5;fill-opacity:1;fill-rule:evenodd;stroke:none" />
  <path
     id="path244"
     d="M 12.470589,19.311111 25.420815,12.288889 12.470589,5.4262626 Z"
     style="fill:#4a4a4b;fill-opacity:1;fill-rule:evenodd;stroke:none" />
</svg>
