<?xml version="1.0" encoding="UTF-8" standalone="no"?>
<svg
   xmlns:dc="http://purl.org/dc/elements/1.1/"
   xmlns:cc="http://creativecommons.org/ns#"
   xmlns:rdf="http://www.w3.org/1999/02/22-rdf-syntax-ns#"
   xmlns:svg="http://www.w3.org/2000/svg"
   xmlns="http://www.w3.org/2000/svg"
   id="svg233"
   height="6.5873232mm"
   width="9.0101995mm"
   version="1.0">
  <metadata
     id="metadata237">
    <rdf:RDF>
      <cc:Work
         rdf:about="">
        <dc:format>image/svg+xml</dc:format>
        <dc:type
           rdf:resource="http://purl.org/dc/dcmitype/StillImage" />
        <dc:title></dc:title>
      </cc:Work>
    </rdf:RDF>
  </metadata>
  <defs
     id="defs227">
    <pattern
       y="0"
       x="0"
       height="6"
       width="6"
       patternUnits="userSpaceOnUse"
       id="WMFhbasepattern" />
  </defs>
  <path
     id="path229"
     d="M 30.536954,0 H 3.3574661 3.1975868 2.877828 2.5580694 L 2.2383108,0.15959596 1.918552,0.3191919 1.5987933,0.4787879 1.2790346,0.6383838 1.1191553,0.7979798 0.79939665,1.1171717 0.63951735,1.2767677 0.47963805,1.5959596 0.31975867,1.9151515 0.15987933,2.2343434 0,2.5535354 v 0.3191919 0.3191919 0.1595959 18.0343429 0.159596 0.478788 0.319192 l 0.15987933,0.319192 0.15987934,0.319192 0.15987938,0.159596 0.1598793,0.319192 0.1598793,0.319192 0.31975865,0.159596 0.1598793,0.159596 0.3197587,0.319192 0.3197587,0.159596 h 0.3197588 l 0.3197586,0.159596 H 2.877828 l 0.3197588,0.159595 h 0.1598793 27.1794879 0.159879 l 0.479638,-0.159595 h 0.319759 l 0.319758,-0.159596 h 0.319759 l 0.159879,-0.159596 0.319759,-0.319192 0.319759,-0.159596 0.159879,-0.159596 0.159879,-0.319192 0.319759,-0.319192 0.159879,-0.159596 v -0.319192 l 0.15988,-0.319192 v -0.319192 l 0.159879,-0.478788 V 21.385858 3.3515151 3.1919192 L 33.89442,2.8727273 V 2.5535354 L 33.73454,2.2343434 V 1.9151515 L 33.574661,1.5959596 33.254902,1.2767677 33.095023,1.1171717 32.935144,0.7979798 32.615385,0.6383838 32.295626,0.4787879 32.135747,0.3191919 31.815988,0.15959596 31.49623,0 H 31.176471 30.696833 Z M 12.470589,19.311111 V 5.4262626 l 12.950226,6.8626264 z"
     style="fill:#46a0d5;fill-opacity:1;fill-rule:evenodd;stroke:none" />
  <path
     id="path231"
     d="M 12.470589,19.311111 25.580694,12.288889 12.470589,5.4262626 Z"
     style="fill:#ffffff;fill-opacity:1;fill-rule:evenodd;stroke:none" />
</svg>
