<?xml version="1.0" encoding="UTF-8" standalone="no"?>
<svg
   xmlns:dc="http://purl.org/dc/elements/1.1/"
   xmlns:cc="http://creativecommons.org/ns#"
   xmlns:rdf="http://www.w3.org/1999/02/22-rdf-syntax-ns#"
   xmlns:svg="http://www.w3.org/2000/svg"
   xmlns="http://www.w3.org/2000/svg"
   id="svg274"
   height="6.625946mm"
   width="8.9678984mm"
   version="1.0">
  <metadata
     id="metadata278">
    <rdf:RDF>
      <cc:Work
         rdf:about="">
        <dc:format>image/svg+xml</dc:format>
        <dc:type
           rdf:resource="http://purl.org/dc/dcmitype/StillImage" />
        <dc:title></dc:title>
      </cc:Work>
    </rdf:RDF>
  </metadata>
  <defs
     id="defs266">
    <pattern
       y="0"
       x="0"
       height="6"
       width="6"
       patternUnits="userSpaceOnUse"
       id="WMFhbasepattern" />
  </defs>
  <path
     id="path268"
     d="M 30.377074,0 H 3.3574661 3.1975868 2.877828 2.5580694 L 2.2383108,0.1605317 1.918552,0.32106339 1.5987933,0.48159511 1.2790346,0.64212681 1.1191553,0.80265851 0.79939665,1.1237219 0.63951735,1.2842536 0.47963805,1.605317 0.31975867,1.9263804 0.15987933,2.2474438 0,2.5685071 v 0.3210634 0.3210634 0.1605317 18.1400814 0.160532 0.481595 0.321063 l 0.15987933,0.321064 0.15987934,0.321063 0.15987938,0.160532 0.1598793,0.321063 0.1598793,0.321064 0.31975865,0.160531 0.1598793,0.160532 0.3197587,0.321063 0.3197587,0.160532 h 0.3197588 l 0.3197586,0.160532 H 2.877828 l 0.3197588,0.160532 h 0.1598793 27.0196079 0.319759 l 0.319759,-0.160532 h 0.319758 l 0.319759,-0.160532 h 0.319759 l 0.159879,-0.160532 0.319759,-0.321063 0.319758,-0.160532 0.15988,-0.160531 0.159879,-0.321064 0.319759,-0.321063 0.159879,-0.160532 v -0.321063 l 0.159879,-0.321064 v -0.321063 l 0.15988,-0.481595 V 21.511247 3.3711656 3.2106339 L 33.73454,2.8895705 V 2.5685071 L 33.574661,2.2474438 V 1.9263804 L 33.414782,1.605317 33.095023,1.2842536 32.935144,1.1237219 32.775264,0.80265851 32.455506,0.64212681 32.135747,0.48159511 31.975868,0.32106339 31.656109,0.1605317 31.33635,0 H 31.016592 30.696833 Z M 12.470589,19.424335 V 5.4580777 L 25.420815,12.36094 Z"
     style="fill:#46a0d5;fill-opacity:1;fill-rule:evenodd;stroke:none" />
  <path
     id="path270"
     d="M 10.392157,5.1370143 V 21.992842 H 26.859729 V 5.1370143 Z"
     style="fill:#46a0d5;fill-opacity:1;fill-rule:evenodd;stroke:none" />
  <path
     id="path272"
     d="M 10.072399,5.4580777 V 19.424335 H 23.822021 V 5.4580777 Z"
     style="fill:#ffffff;fill-opacity:1;fill-rule:evenodd;stroke:none" />
</svg>
