<?xml version="1.0" encoding="utf-8"?>
<!-- Generator: Adobe Illustrator 16.0.0, SVG Export Plug-In . SVG Version: 6.00 Build 0)  -->
<!DOCTYPE svg PUBLIC "-//W3C//DTD SVG 1.1//EN" "http://www.w3.org/Graphics/SVG/1.1/DTD/svg11.dtd">
<svg version="1.1" id="Layer_1" xmlns="http://www.w3.org/2000/svg" xmlns:xlink="http://www.w3.org/1999/xlink" x="0px" y="0px"
	 width="50px" height="50px" viewBox="0 0 50 50" enable-background="new 0 0 50 50" xml:space="preserve">
<path fill="#A9A8A8" d="M50,50H0V0h50V50z M0.98,49.02H49.02V0.98H0.98V49.02z"/>
<g>
	<g>
		<path fill="#595959" d="M6.482,42.99L6.935,7.444l36.574,10.617V42.92L6.482,42.99z M7.974,8.849L7.552,41.931l34.899-0.066
			V18.855L7.974,8.849z"/>
		<rect x="5.275" y="5.998" fill="#FFFFFF" width="4.37" height="4.104"/>
		<path fill="#404040" d="M9.955,10.514h-4.99V5.587h4.99V10.514z M6.023,9.457h2.876V6.644H6.023V9.457z"/>
		<rect x="5.11" y="39.61" fill="#FFFFFF" width="4.37" height="4.104"/>
		<rect x="40.319" y="39.61" fill="#FFFFFF" width="4.371" height="4.104"/>
		<rect x="40.319" y="16.337" fill="#FFFFFF" width="4.371" height="4.104"/>
		<path fill="#404040" d="M9.955,44.13h-4.99v-4.927h4.99V44.13z M6.023,43.073h2.876v-2.811H6.023V43.073z"/>
		<path fill="#404040" d="M44.969,44.13H40.04v-4.927h4.929V44.13z M41.1,43.073h2.812v-2.811H41.1V43.073z"/>
		<path fill="#404040" d="M44.969,20.852H40.04v-4.925h4.929V20.852z M41.1,19.794h2.812v-2.811H41.1V19.794z"/>
	</g>
	<g>
		<rect x="12.354" y="24.854" fill="#4C5156" width="1.205" height="4.171"/>
		<rect x="17.927" y="24.854" fill="#4C5156" width="1.959" height="5.316"/>
		<rect x="24.104" y="24.854" fill="#4C5156" width="1.204" height="4.171"/>
		<rect x="29.676" y="24.854" fill="#4C5156" width="1.958" height="5.316"/>
		<rect x="36.004" y="24.854" fill="#4C5156" width="1.204" height="4.171"/>
		<path fill="#4C5156" d="M44.59,36.425H5.574V23.811H44.59V36.425z M7.683,34.862h34.798v-9.696H7.683V34.862z"/>
	</g>
</g>
</svg>
