<?xml version="1.0" encoding="utf-8"?>
<!-- Generator: Adobe Illustrator 16.0.0, SVG Export Plug-In . SVG Version: 6.00 Build 0)  -->
<!DOCTYPE svg PUBLIC "-//W3C//DTD SVG 1.1//EN" "http://www.w3.org/Graphics/SVG/1.1/DTD/svg11.dtd">
<svg version="1.1" xmlns="http://www.w3.org/2000/svg" xmlns:xlink="http://www.w3.org/1999/xlink" x="0px" y="0px" width="50px"
	 height="50px" viewBox="0 0 50 50" enable-background="new 0 0 50 50" xml:space="preserve">
<g id="Layer_1">
	<path fill="#A9A8A8" d="M50,50H0V0h50V50z M0.98,49.02H49.02V0.98H0.98V49.02z"/>
	<g>
		<path fill="#4C5156" d="M17.354,45.093c-3.341,0-6.48-1.3-8.844-3.663c-4.876-4.875-4.876-12.811,0.002-17.687
			c0.019-0.021,0.041-0.041,0.063-0.061l0.106-0.112L27.461,4.793l17.686,17.686l-19.19,19.192l-0.004-0.004
			C23.623,43.879,20.582,45.093,17.354,45.093z M9.873,23.986l-0.381,0.395c-0.035,0.038-0.074,0.073-0.116,0.106
			c-0.021,0.02-0.041,0.037-0.06,0.058c-2.15,2.148-3.333,5.005-3.333,8.042c0,3.036,1.181,5.894,3.329,8.04
			c2.148,2.147,5.003,3.33,8.042,3.33s5.892-1.183,8.04-3.33c0.024-0.025,0.045-0.049,0.067-0.073
			c0.028-0.034,0.057-0.066,0.088-0.1l0.414-0.433l0.018,0.019l17.561-17.562L27.461,6.398L9.873,23.986z"/>
		
			<rect x="7.46" y="30.057" transform="matrix(0.7071 0.7071 -0.7071 0.7071 27.3969 -4.8919)" fill="#4C5156" width="24.287" height="1.135"/>
	</g>
</g>
<g id="Layer_2">
	<path fill="#5D9BD3" d="M50,50H0V0h50V50z M1.98,48.02H48.02V1.98H1.98V48.02z"/>
</g>
</svg>
