<?xml version="1.0" encoding="utf-8"?>
<!-- Generator: Adobe Illustrator 16.0.0, SVG Export Plug-In . SVG Version: 6.00 Build 0)  -->
<!DOCTYPE svg PUBLIC "-//W3C//DTD SVG 1.1//EN" "http://www.w3.org/Graphics/SVG/1.1/DTD/svg11.dtd">
<svg version="1.1" xmlns="http://www.w3.org/2000/svg" xmlns:xlink="http://www.w3.org/1999/xlink" x="0px" y="0px" width="50px"
	 height="50px" viewBox="0 0 50 50" enable-background="new 0 0 50 50" xml:space="preserve">
<g id="Layer_1">
	<path fill="#A9A8A8" d="M50,50H0V0h50V50z M0.98,49.02H49.02V0.98H0.98V49.02z"/>
	<g>
		<rect x="11.898" y="30.545" fill="#4C5156" width="1.249" height="4.319"/>
		<rect x="17.672" y="30.545" fill="#4C5156" width="2.027" height="5.507"/>
		<rect x="24.068" y="30.545" fill="#4C5156" width="1.247" height="4.319"/>
		<rect x="29.84" y="30.545" fill="#4C5156" width="2.028" height="5.507"/>
		<rect x="36.393" y="30.545" fill="#4C5156" width="1.248" height="4.319"/>
		
			<rect x="8.227" y="12.005" transform="matrix(1 0.0029 -0.0029 1 0.0371 -0.0712)" fill="#4C5156" width="32.138" height="1.248"/>
		<g>
			<path fill="#4C5156" d="M33.628,12.663v0.514H9.685l3.935,3.59l-0.171,0.341l-8.38-4.275l8.551-3.932l0.17,0.17l-4.105,3.592
				H33.628z"/>
		</g>
		<g>
			<path fill="#4C5156" d="M17.554,12.663v0.514h22.744l-3.762,3.59l0.169,0.171l8.04-4.105L36.536,8.73l-0.171,0.171l3.933,3.59
				H17.554V12.663z"/>
		</g>
		<path fill="#4C5156" d="M45.285,42.53H4.877V29.465h40.408V42.53z M7.063,40.909h36.038v-10.04H7.063V40.909z"/>
		<rect x="4.366" y="7.091" fill="#4C5156" width="1.024" height="18.137"/>
		<rect x="44.773" y="7.091" fill="#4C5156" width="1.023" height="18.137"/>
	</g>
</g>
<g id="Layer_2" display="none">
	<path display="inline" fill="#5D9BD3" d="M50,50H0V0h50V50z M1.98,48.02H48.02V1.98H1.98V48.02z"/>
</g>
</svg>
