<?xml version="1.0" encoding="utf-8"?>
<!-- Generator: Adobe Illustrator 16.0.0, SVG Export Plug-In . SVG Version: 6.00 Build 0)  -->
<!DOCTYPE svg PUBLIC "-//W3C//DTD SVG 1.1//EN" "http://www.w3.org/Graphics/SVG/1.1/DTD/svg11.dtd">
<svg version="1.1" xmlns="http://www.w3.org/2000/svg" xmlns:xlink="http://www.w3.org/1999/xlink" x="0px" y="0px" width="50px"
	 height="50px" viewBox="0 0 50 50" enable-background="new 0 0 50 50" xml:space="preserve">
<g id="Layer_1">
	<path fill="#A9A8A8" d="M50,50H0V0h50V50z M0.98,49.02H49.02V0.98H0.98V49.02z"/>
	<g>
		<rect x="4.321" y="24.418" fill="#595959" width="41.271" height="1.049"/>
		<rect x="24.414" y="4.325" fill="#595959" width="1.049" height="41.271"/>
		<g>
			<circle fill="#575757" cx="24.939" cy="25.386" r="5.321"/>
			<path fill="#404040" d="M24.939,31.229c-3.222,0-5.844-2.621-5.844-5.842c0-3.224,2.622-5.846,5.844-5.846
				c3.223,0,5.845,2.622,5.845,5.846C30.784,28.607,28.162,31.229,24.939,31.229z M24.939,20.59c-2.643,0-4.795,2.151-4.795,4.796
				c0,2.643,2.152,4.795,4.795,4.795c2.645,0,4.795-2.152,4.795-4.795C29.734,22.741,27.584,20.59,24.939,20.59z"/>
		</g>
	</g>
</g>
<g id="Layer_2">
	<path fill="#5D9BD3" d="M50,50H0V0h50V50z M1.98,48.02H48.02V1.98H1.98V48.02z"/>
</g>
</svg>
