<?xml version="1.0" encoding="utf-8"?>
<!-- Generator: Adobe Illustrator 16.0.0, SVG Export Plug-In . SVG Version: 6.00 Build 0)  -->
<!DOCTYPE svg PUBLIC "-//W3C//DTD SVG 1.1//EN" "http://www.w3.org/Graphics/SVG/1.1/DTD/svg11.dtd">
<svg version="1.1" xmlns="http://www.w3.org/2000/svg" xmlns:xlink="http://www.w3.org/1999/xlink" x="0px" y="0px" width="50px"
	 height="50px" viewBox="0 0 50 50" enable-background="new 0 0 50 50" xml:space="preserve">
<g id="Layer_1">
	<path fill="#A9A8A8" d="M50,50H0V0h50V50z M0.98,49.02H49.02V0.98H0.98V49.02z"/>
	<g>
		<g>
			<rect x="8.914" y="30.023" fill="#4C5156" width="0.63" height="2.861"/>
			<rect x="11.831" y="30.023" fill="#4C5156" width="1.023" height="3.646"/>
			<rect x="15.061" y="30.023" fill="#4C5156" width="0.63" height="2.861"/>
			<rect x="17.978" y="30.023" fill="#4C5156" width="1.025" height="3.646"/>
			<rect x="21.288" y="30.023" fill="#4C5156" width="0.629" height="2.861"/>
			<path fill="#4C5156" d="M25.779,37.96H5.366v-8.651h20.413V37.96z M6.471,36.886h18.205v-6.646H6.471V36.886z"/>
		</g>
		<path fill="#595959" d="M25.241,45.75C13.806,45.75,4.5,36.458,4.5,25.04c0-11.421,9.306-20.712,20.741-20.712
			c11.438,0,20.743,9.291,20.743,20.712C45.984,36.458,36.68,45.75,25.241,45.75z M25.241,5.343
			c-10.877,0-19.724,8.835-19.724,19.697c0,10.858,8.847,19.694,19.724,19.694s19.727-8.836,19.727-19.694
			C44.968,14.179,36.118,5.343,25.241,5.343z"/>
		<g>
			<path fill="#4C5156" d="M19.519,25.726v0.338H7.597l1.958,1.788L9.47,28.023l-4.173-2.127l4.257-1.959l0.087,0.085l-1.958,1.713
				L19.519,25.726z"/>
		</g>
		<g>
			<path fill="#4C5156" d="M11.513,25.81v0.255h11.326l-1.874,1.788l0.085,0.088l4.003-2.044l-4.089-2.044l-0.084,0.085l1.958,1.789
				H11.513V25.81z"/>
		</g>
	</g>
</g>
<g id="Layer_2">
	<path fill="#5D9BD3" d="M50,50H0V0h50V50z M1.98,48.02H48.02V1.98H1.98V48.02z"/>
</g>
</svg>
