<?xml version="1.0" encoding="utf-8"?>
<!-- Generator: Adobe Illustrator 16.0.0, SVG Export Plug-In . SVG Version: 6.00 Build 0)  -->
<!DOCTYPE svg PUBLIC "-//W3C//DTD SVG 1.1//EN" "http://www.w3.org/Graphics/SVG/1.1/DTD/svg11.dtd">
<svg version="1.1" id="Layer_1" xmlns="http://www.w3.org/2000/svg" xmlns:xlink="http://www.w3.org/1999/xlink" x="0px" y="0px"
	 width="70px" height="65px" viewBox="0 0 70 65" enable-background="new 0 0 70 65" xml:space="preserve">
<rect x="-0.3" y="-0.3" fill="#767676" width="70.7" height="65.5"/>
<g>
	<rect x="-0.1" opacity="0.9" fill="#7A7B7B" enable-background="new    " width="70.3" height="1.1"/>
	<rect x="69.1" opacity="0.9" fill="#7A7B7B" enable-background="new    " width="1.1" height="65"/>
</g>
<rect x="2.1" y="2.1" fill="#767676" width="65.9" height="60.9"/>
<g>
	<path fill="#4D9ED6" d="M23.6,50.8c-0.2,0.1-0.5,0.1-0.9,0.1C22.4,51,22,51,21.5,51s-0.9,0-1.4,0.1s-1,0-1.4,0v-5.3h2.7v-2.3h-2.7
		v-1.5h4.2v5.2h-2.7v2.4c0.2,0,0.5,0,0.8,0s0.6,0,0.9,0c0.3,0,0.6,0,0.9-0.1c0.3,0,0.6-0.1,0.9-0.2V50.8z M25.9,53.1h-1.4V47h-1.2
		v-1.5h1.2V41h1.4V53.1z M28.1,53.5h-1.4V40.9h1.4V53.5z"/>
	<path fill="#4D9ED6" d="M36.6,46.5c0,0.6-0.1,1.3-0.2,1.8c-0.1,0.6-0.3,1.1-0.6,1.5c-0.3,0.4-0.6,0.8-1,1c-0.4,0.2-0.9,0.4-1.4,0.4
		c-0.5,0-1-0.1-1.4-0.4s-0.7-0.6-1-1c-0.3-0.4-0.5-0.9-0.6-1.5c-0.1-0.6-0.2-1.2-0.2-1.8c0-0.6,0.1-1.3,0.2-1.8
		c0.1-0.6,0.3-1.1,0.6-1.5c0.3-0.4,0.6-0.8,1-1c0.4-0.2,0.9-0.4,1.4-0.4c0.5,0,1,0.1,1.4,0.4c0.4,0.2,0.7,0.6,1,1
		c0.3,0.4,0.4,0.9,0.6,1.5C36.5,45.3,36.6,45.9,36.6,46.5z M35.1,46.5c0-0.4,0-0.8-0.1-1.1c-0.1-0.4-0.2-0.7-0.3-1s-0.3-0.6-0.5-0.8
		c-0.2-0.2-0.5-0.3-0.7-0.3c-0.3,0-0.5,0.1-0.8,0.3c-0.2,0.2-0.4,0.4-0.5,0.8c-0.1,0.3-0.3,0.7-0.3,1s-0.1,0.8-0.1,1.1
		c0,0.4,0,0.8,0.1,1.2s0.2,0.7,0.3,1c0.1,0.3,0.3,0.6,0.5,0.8c0.2,0.2,0.5,0.3,0.7,0.3s0.5-0.1,0.7-0.3c0.2-0.2,0.4-0.4,0.5-0.8
		c0.1-0.3,0.2-0.6,0.3-1C35.1,47.3,35.1,46.9,35.1,46.5z M39.6,53.5h-1.4V40.9h1.4V53.5z"/>
	<path fill="#4D9ED6" d="M48.3,47c0,0.5-0.1,0.9-0.2,1.3c-0.1,0.6-0.3,1.1-0.6,1.5c-0.3,0.4-0.6,0.8-1,1c-0.4,0.2-0.9,0.4-1.4,0.4
		s-1-0.1-1.4-0.4c-0.4-0.2-0.7-0.6-1-1c-0.3-0.4-0.5-0.9-0.6-1.5c-0.1-0.6-0.2-1.2-0.2-1.8c0-0.6,0.1-1.3,0.2-1.8
		c0.1-0.6,0.3-1.1,0.6-1.5c0.3-0.4,0.6-0.8,1-1c0.4-0.2,0.9-0.4,1.4-0.4c0.5,0,1,0.1,1.4,0.4c0.4,0.2,0.7,0.6,1,1
		c0.3,0.4,0.4,0.9,0.6,1.5c0.1,0.3,0.1,0.6,0.1,0.8h1.7v-4.7h1.4v12.6h-1.4V47H48.3z M46.9,46.5c0-0.4,0-0.8-0.1-1.1s-0.2-0.7-0.3-1
		c-0.1-0.3-0.3-0.6-0.5-0.8c-0.2-0.2-0.5-0.3-0.7-0.3c-0.3,0-0.5,0.1-0.8,0.3c-0.2,0.2-0.4,0.4-0.5,0.8c-0.1,0.3-0.3,0.7-0.3,1
		s-0.1,0.8-0.1,1.1c0,0.4,0,0.8,0.1,1.2s0.2,0.7,0.3,1c0.1,0.3,0.3,0.6,0.5,0.8c0.2,0.2,0.5,0.3,0.7,0.3c0.3,0,0.5-0.1,0.7-0.3
		c0.2-0.2,0.4-0.4,0.5-0.8c0.1-0.3,0.2-0.6,0.3-1S46.9,46.9,46.9,46.5z"/>
</g>
<g>
	<g>
		<polygon fill="#4C9DD6" points="39.5,36.7 15.5,31.5 29.5,23.8 53.4,28.8 		"/>
		<path fill="#757577" d="M39.5,36.7L39.5,36.7l-24.1-5.2l0.1-0.1l14-7.6l0,0l24,5l-0.1,0.1L39.5,36.7z M15.7,31.4l23.9,5.2
			l13.7-7.8l-23.7-5L15.7,31.4z"/>
	</g>
	<g>
		<polygon fill="#4C9DD6" points="39.5,30.3 15.5,25 29.5,17.4 53.4,22.4 		"/>
		<path fill="#757577" d="M39.5,30.3L39.5,30.3l-24.1-5.2l0.1-0.1l14-7.6l0,0l24,5l-0.1,0.1L39.5,30.3z M15.7,25l23.9,5.2l13.7-7.8
			l-23.7-5L15.7,25z"/>
	</g>
	<g>
		<polygon fill="#4C9DD6" points="40.8,23.2 16.8,18 30.8,10.3 54.6,15.3 		"/>
		<path fill="#757577" d="M40.8,23.2L40.8,23.2L16.6,18l0.1-0.1l14-7.6l0,0l24,5l-0.1,0.1L40.8,23.2z M16.9,17.9l23.9,5.2l13.7-7.8
			l-23.7-5L16.9,17.9z"/>
	</g>
</g>
</svg>
