<?xml version="1.0" encoding="utf-8"?>
<!-- Generator: Adobe Illustrator 16.0.0, SVG Export Plug-In . SVG Version: 6.00 Build 0)  -->
<!DOCTYPE svg PUBLIC "-//W3C//DTD SVG 1.1//EN" "http://www.w3.org/Graphics/SVG/1.1/DTD/svg11.dtd">
<svg version="1.1" id="Layer_1" xmlns="http://www.w3.org/2000/svg" xmlns:xlink="http://www.w3.org/1999/xlink" x="0px" y="0px"
	 width="70px" height="65px" viewBox="0 0 70 65" enable-background="new 0 0 70 65" xml:space="preserve">
<g>
	<rect x="-0.3" y="-0.3" fill="#767676" width="70.7" height="65.5"/>
	<g>
		<rect x="-0.1" opacity="0.9" fill="#7A7B7B" enable-background="new    " width="70.3" height="1.1"/>
		<rect x="69.1" opacity="0.9" fill="#7A7B7B" enable-background="new    " width="1.1" height="65"/>
	</g>
	<rect x="2.1" y="2.1" fill="#767676" width="65.9" height="60.9"/>
	<g enable-background="new    ">
		<path fill="#FFFFFF" d="M27.4,53.5h-1.4v-2.7h-6.8v-1.4h3.4v-1h-4.7V47h10.8v1.3H24v1h3.3V53.5z M19.3,46.2v-5h1.4v1.2h5.1v-1.2
			h1.4v5H19.3z M25.9,44.8v-1.1h-5.1v1.1H25.9z"/>
		<path fill="#FFFFFF" d="M36,50.9h-5.7v-8.6H36V50.9z M34.6,49.4v-5.7h-2.9v5.7H34.6z M37.6,40.9H39v4.8h1.7v1.5H39v6.3h-1.4V40.9z
			"/>
		<path fill="#FFFFFF" d="M41.4,51.8v-1.4h7.4c0.2-1,0.3-2.1,0.4-3.1c0,0-0.1,0-0.2,0c-0.2,0-0.5,0.1-0.6,0.1c-0.1,0-0.1,0-0.1,0
			c-0.2,0-0.3,0-0.5,0s-0.3,0-0.5,0c-0.2,0-0.4,0-0.6,0c-0.2,0-0.5,0-0.9,0c-0.4,0-0.8,0-1.3,0c-0.5,0-1.1,0-1.9,0v-1.5h1.9
			c0.6,0,1,0,1.5,0s0.8,0,1.1,0s0.6,0,0.8,0c0.2,0,0.5,0,0.7-0.1c0.2,0,0.4,0,0.6-0.1c0.1,0,0.2,0,0.3,0c0-0.7,0.1-1.5,0.1-2.2h-6.8
			v-1.5H51c0,0.7,0,1.4-0.1,2.2c0,0.8-0.1,1.5-0.1,2.3c-0.1,0.8-0.1,1.5-0.2,2.2c-0.1,0.6-0.2,1.1-0.3,1.6h1.9v1.4H41.4z"/>
	</g>
	<g>
		<path fill="#FFFFFF" d="M48.1,19c-0.2-0.5-0.6-0.9-1.2-1l-7.3-1l-3.3-6.6c-0.2-0.5-0.7-0.8-1.3-0.8c0,0,0,0,0,0
			c-0.6,0-1.1,0.3-1.3,0.8L30.4,17l-7.2,1.1c-0.6,0.1-1,0.5-1.2,1c-0.2,0.5,0,1.1,0.4,1.5l5.3,5.1l-1.2,7.2
			c-0.1,0.6,0.1,1.1,0.6,1.4c0.3,0.2,0.6,0.3,0.9,0.3c0.2,0,0.5-0.1,0.7-0.2l6.5-3.4l0,0l6.5,3.4c0.5,0.3,1.1,0.2,1.6-0.1
			c0.5-0.3,0.7-0.9,0.6-1.5l-1.3-7.2l5.2-5.1C48.1,20.1,48.2,19.5,48.1,19z"/>
	</g>
</g>
</svg>
