<?xml version="1.0" encoding="utf-8"?>
<!-- Generator: Adobe Illustrator 16.0.0, SVG Export Plug-In . SVG Version: 6.00 Build 0)  -->
<!DOCTYPE svg PUBLIC "-//W3C//DTD SVG 1.1//EN" "http://www.w3.org/Graphics/SVG/1.1/DTD/svg11.dtd">
<svg version="1.1" id="Layer_1" xmlns="http://www.w3.org/2000/svg" xmlns:xlink="http://www.w3.org/1999/xlink" x="0px" y="0px"
	 width="70px" height="65px" viewBox="0 0 70 65" enable-background="new 0 0 70 65" xml:space="preserve">
<g>
	<g>
		<rect x="-0.15" y="-0.25" fill="#3185C6" width="70.701" height="65.5"/>
		<g>
			<rect x="1.15" y="0.95" opacity="0.9" fill="#489ED3" enable-background="new    " width="68" height="1.1"/>
			<rect x="1.15" y="0.95" opacity="0.9" fill="#489ED3" enable-background="new    " width="1.1" height="63"/>
			<rect x="1.15" y="62.851" opacity="0.9" fill="#489ED3" enable-background="new    " width="68" height="1.1"/>
			<rect x="68.051" y="0.95" opacity="0.9" fill="#489ED3" enable-background="new    " width="1.1" height="63"/>
		</g>
		<rect x="2.25" y="2.05" fill="#3993CA" width="65.9" height="60.9"/>
	</g>
	<g>
		<path fill="#FFFFFF" d="M25.6,49.4c0-0.801-0.1-1.5-0.1-2.2c0-1-0.1-1.9-0.1-2.9h1.4c0,1,0.1,2,0.1,2.9c0,0.7,0,1.5,0.1,2.2
			c0.6,0,1.1,0,1.5,0c0.1-0.801,0.2-1.601,0.3-2.5v-2.7h1.4v2.7c0,0.399-0.1,0.899-0.1,1.399c0,0.3-0.1,0.601-0.1,0.9
			c0.2,0,0.5,0,0.7-0.101c0.3,0,0.5-0.1,0.8-0.1v1.4c-0.5,0.1-1,0.199-1.6,0.199S28.5,50.7,27.6,50.7h-3.3v-1.5h1.3V49.4z
			 M24.5,43.6v-1.5h6.6v1.5H24.5z M32.1,40.9h1.4v4.8h1.7v1.5h-1.7v6.3h-1.4V40.9z"/>
		<path fill="#FFFFFF" d="M42.6,44.2c0,0.5-0.1,0.899-0.3,1.3s-0.399,0.7-0.7,0.9C41.3,46.6,41,46.8,40.6,47
			c-0.399,0.1-0.699,0.2-1.1,0.2S38.8,47.1,38.4,47c-0.4-0.1-0.7-0.3-1-0.6c-0.301-0.2-0.5-0.601-0.7-0.9s-0.3-0.8-0.3-1.3
			s0.1-0.9,0.3-1.3c0.2-0.4,0.399-0.7,0.7-0.9c0.3-0.2,0.6-0.4,1-0.6c0.399-0.101,0.699-0.2,1.1-0.2s0.7,0.1,1.1,0.2
			c0.4,0.1,0.7,0.3,1,0.6c0.301,0.3,0.5,0.6,0.7,0.9C42.5,43.3,42.6,43.7,42.6,44.2z M41.2,44.2c0-0.2,0-0.4-0.101-0.601
			C41,43.4,40.9,43.3,40.7,43.1c-0.2-0.1-0.3-0.199-0.5-0.3c-0.2-0.1-0.4-0.1-0.601-0.1c-0.199,0-0.399,0-0.6,0.1
			c-0.2,0.101-0.4,0.2-0.5,0.3c-0.2,0.101-0.3,0.301-0.4,0.5C38,43.8,38,44,38,44.2s0,0.399,0.1,0.6c0.101,0.2,0.2,0.3,0.4,0.5
			c0.2,0.101,0.3,0.2,0.5,0.3c0.2,0.101,0.4,0.101,0.6,0.101c0.2,0,0.4,0,0.601-0.101c0.2-0.1,0.399-0.199,0.5-0.3
			c0.2-0.1,0.3-0.3,0.399-0.5C41.2,44.6,41.2,44.5,41.2,44.2z M45.9,53.4H38.1V50h6.2v-0.8h-6.2v-1.3h7.7V51.3h-6.2V52H45.9V53.4z
			 M45.8,47.2H44.4v-6.3H45.8V47.2z"/>
	</g>
	<g>
		<g>
			<path fill="#FFFFFF" d="M51.5,17c0,0,0.1-2.1-2.2-2.3c-1.3-0.1-14.2-1-14.2-1v-0.4c0,0,0-0.9-1.1-1.1c-1.1-0.2-3.9-0.3-3.9-0.3
				l-1,0.5l3.1,0.2c0,0,1.2,0,1.3,0.8c0.1,0.7,0.1,1.1,0.1,1.1l14.6,0.9c0,0,2.3,0,2.2,1.7c0,0.9-3.4,14.5-3.4,14.5l-2.3-12.5
				c0,0-0.101-1.5-1.9-1.6c-1.899-0.1-14-0.9-14-0.9s-0.5-2-2-2s-4.9-0.3-4.9-0.3s-1.2-0.1-0.3,2.2l-3.1-0.1l3.3,14.7l25.7,2.2
				L51.5,17z"/>
		</g>
	</g>
</g>
</svg>
