<?xml version="1.0" encoding="utf-8"?>
<!-- Generator: Adobe Illustrator 16.0.0, SVG Export Plug-In . SVG Version: 6.00 Build 0)  -->
<!DOCTYPE svg PUBLIC "-//W3C//DTD SVG 1.1//EN" "http://www.w3.org/Graphics/SVG/1.1/DTD/svg11.dtd">
<svg version="1.1" id="Layer_1" xmlns="http://www.w3.org/2000/svg" xmlns:xlink="http://www.w3.org/1999/xlink" x="0px" y="0px"
	 width="70px" height="65px" viewBox="0 0 70 65" enable-background="new 0 0 70 65" xml:space="preserve">
<rect x="-0.3" y="-0.2" fill="#767676" width="70.7" height="65.5"/>
<g>
	<rect x="-0.2" y="0.1" opacity="0.9" fill="#7A7B7B" enable-background="new    " width="70.3" height="1.1"/>
	<rect x="69.1" y="0.1" opacity="0.9" fill="#7A7B7B" enable-background="new    " width="1.1" height="65"/>
</g>
<rect x="2.1" y="2.1" fill="#767676" width="65.9" height="60.9"/>
<g enable-background="new    ">
	<path fill="#FFFFFF" d="M22.1,47.4h-1.4v-2.5h-1.8c0,0.2-0.1,0.5-0.2,0.7c-0.2,0.4-0.4,0.7-0.6,1c-0.3,0.3-0.6,0.5-1,0.7
		c-0.4,0.2-0.8,0.2-1.2,0.2c-0.4,0-0.8-0.1-1.2-0.2c-0.4-0.2-0.7-0.4-1-0.6c-0.3-0.3-0.5-0.6-0.7-1c-0.2-0.4-0.2-0.8-0.2-1.2
		c0-0.4,0.1-0.9,0.2-1.2c0.2-0.4,0.4-0.7,0.7-1c0.3-0.3,0.6-0.5,1-0.6c0.4-0.2,0.8-0.2,1.2-0.2c0.4,0,0.8,0.1,1.2,0.2
		c0.4,0.2,0.7,0.4,1,0.6c0.3,0.3,0.5,0.6,0.6,1c0,0.1,0.1,0.2,0.1,0.3h1.9v-2.6h1.4V47.4z M17.4,44.4c0-0.2,0-0.5-0.1-0.7
		c-0.1-0.2-0.2-0.4-0.3-0.5c-0.2-0.2-0.3-0.3-0.5-0.4c-0.2-0.1-0.4-0.1-0.6-0.1c-0.2,0-0.4,0-0.6,0.1c-0.2,0.1-0.4,0.2-0.5,0.4
		s-0.3,0.3-0.3,0.5s-0.1,0.4-0.1,0.7c0,0.2,0,0.5,0.1,0.7c0.1,0.2,0.2,0.4,0.3,0.5s0.3,0.3,0.5,0.4c0.2,0.1,0.4,0.1,0.6,0.1
		c0.2,0,0.4,0,0.6-0.1c0.2-0.1,0.4-0.2,0.5-0.4c0.1-0.2,0.3-0.3,0.3-0.5C17.4,44.9,17.4,44.7,17.4,44.4z M22,53.4h-7.6V48h1.4v1.4
		h4.8V48H22V53.4z M20.6,52v-1.2h-4.8V52H20.6z"/>
	<path fill="#FFFFFF" d="M34.7,49.4H30v4.1h-1.5v-4.1h-4.7V48h10.8V49.4z M33.3,46.8h-8v-5.3h8V46.8z M31.9,45.4v-2.4h-5.1v2.4H31.9
		z"/>
	<path fill="#FFFFFF" d="M43.2,47.8c-0.3,0.1-0.7,0.2-1,0.2c-0.3,0.1-0.7,0.1-1.1,0.1c-0.8,0.1-2,0.1-3.6,0.1h-1.7v-1.4h2.3v-2.4
		h1.4v2.4c0.2,0,0.5,0,0.8,0c0.3,0,0.6,0,0.9,0s0.7-0.1,1-0.1s0.7-0.1,1.1-0.2V47.8z M42.7,41.6c0,0.3,0,0.7,0,1.1s-0.1,0.8-0.1,1.2
		c0,0.4-0.1,0.8-0.2,1.2c-0.1,0.4-0.2,0.7-0.3,1.1h-1.4c0.1-0.6,0.2-1.2,0.3-1.7s0.1-1,0.1-1.5h-4.7v-1.4H42.7z M45.4,53.3h-8.1v-4
		h1.4v2.6h6.7V53.3z M45.1,45.8V50h-1.4v-9.1h1.4v3.4h1.7v1.5H45.1z"/>
	<path fill="#FFFFFF" d="M54.8,50.8c-0.3,0.1-0.6,0.1-0.9,0.2c-0.3,0-0.6,0.1-0.8,0.1c-0.5,0-1.1,0.1-1.8,0.1l-3,0v-5.3h4.2v-2.3
		h-4.2v-1.5h5.6v5.2h-4.2v2.4c0.1,0,0.2,0,0.4,0c0.2,0,0.4,0,0.6,0c0.2,0,0.4,0,0.6,0s0.3,0,0.4,0c0.3,0,0.5,0,0.8,0
		c0.2,0,0.5,0,0.7-0.1c0.2,0,0.5-0.1,0.8-0.1c0.3,0,0.5-0.1,0.8-0.1V50.8z M57.3,53.6h-1.4V40.9h1.4V53.6z"/>
</g>
<g>
	<g>
		<path fill="#FFFFFF" d="M51.6,27.3c-0.1,0-0.2,0-0.3-0.1c-0.5-0.2-0.8-0.8-0.6-1.3l1.4-3.9c-0.7-2.3-1.6-4.9-1.8-5.5
			c-0.2-0.2-0.4-0.3-0.7-0.3h-9.9c-0.3,0-0.5-0.1-0.7-0.3l-4-4c-0.4-0.4-0.4-1,0-1.4c0.4-0.4,1-0.4,1.4,0l3.7,3.7h9.5
			c0.8,0,1.6,0.3,2.2,0.9c0.2,0.2,0.6,0.6,2.4,6.6c0.1,0.2,0.1,0.4,0,0.6l-1.5,4.2C52.4,27,52,27.3,51.6,27.3z"/>
		<g>
			<path fill="#FFFFFF" d="M49,37.5c-0.6,0-1-0.5-1-1V15.3c0-0.6,0.5-1,1-1c0.6,0,1,0.5,1,1v21.3C50,37.1,49.5,37.5,49,37.5z"/>
			<path fill="#FFFFFF" d="M46,37.5c-0.6,0-1-0.5-1-1V15.3c0-0.6,0.5-1,1-1c0.6,0,1,0.5,1,1v21.3C47.1,37.1,46.6,37.5,46,37.5z"/>
		</g>
		<rect x="46" y="15.3" fill="#FFFFFF" width="2.9" height="11.1"/>
		<ellipse fill="#FFFFFF" cx="47.4" cy="10.8" rx="2.8" ry="3"/>
	</g>
	<g>
		<path fill="#FFFFFF" d="M40.6,27.9H18.5c-1.5,0-2.6-1.1-2.6-2.4V10.7c0-1.3,1.2-2.4,2.6-2.4h4.8v1.5h-4.8c-0.6,0-1.1,0.4-1.1,0.9
			v14.8c0,0.5,0.5,0.9,1.1,0.9h22.1c0.6,0,1.1-0.4,1.1-0.9V10.7c0-0.5-0.5-0.9-1.1-0.9h-4.8V8.3h4.8c1.4,0,2.6,1.1,2.6,2.4v14.8
			C43.2,26.8,42,27.9,40.6,27.9z"/>
		<rect x="23.2" y="8.3" fill="#FFFFFF" width="12.6" height="1.5"/>
	</g>
	<rect x="28.7" y="27.1" fill="#FFFFFF" width="2" height="4.9"/>
	<rect x="20.4" y="30.9" fill="#FFFFFF" width="19.2" height="1.5"/>
	<rect x="20.7" y="22.4" fill="#FFFFFF" width="16.7" height="0.6"/>
	<rect x="22.7" y="14.9" fill="#FFFFFF" width="2" height="6.2"/>
	<rect x="26.3" y="12.7" fill="#FFFFFF" width="2" height="8.4"/>
	<rect x="30" y="14.9" fill="#FFFFFF" width="2" height="6.2"/>
	<rect x="33.6" y="18.1" fill="#FFFFFF" width="2" height="3"/>
</g>
</svg>
