<?xml version="1.0" encoding="utf-8"?>
<!-- Generator: Adobe Illustrator 16.0.0, SVG Export Plug-In . SVG Version: 6.00 Build 0)  -->
<!DOCTYPE svg PUBLIC "-//W3C//DTD SVG 1.1//EN" "http://www.w3.org/Graphics/SVG/1.1/DTD/svg11.dtd">
<svg version="1.1" id="Layer_1" xmlns="http://www.w3.org/2000/svg" xmlns:xlink="http://www.w3.org/1999/xlink" x="0px" y="0px"
	 width="70px" height="65px" viewBox="0 0 70 65" enable-background="new 0 0 70 65" xml:space="preserve">
<g>
	<rect x="-0.3" y="-0.3" fill="#767676" width="70.7" height="65.5"/>
	<g>
		<rect x="-0.2" opacity="0.9" fill="#7A7B7B" enable-background="new    " width="70.3" height="1.1"/>
		<rect x="69.1" opacity="0.9" fill="#7A7B7B" enable-background="new    " width="1.1" height="65"/>
	</g>
	<rect x="2.1" y="2.1" fill="#767676" width="65.9" height="60.9"/>
	<g enable-background="new    ">
		<path fill="#FFFFFF" d="M28.7,49.3H24v4.1h-1.5v-4.1h-4.7v-1.4h10.8V49.3z M19.1,42.9v-1.4h8.3v1.4h-3.3c0.2,0.5,0.5,1,0.9,1.4
			c0.6,0.6,1.7,1.2,3,1.5l-1,1.2c-0.9-0.3-1.7-0.6-2.4-1.1c-0.5-0.4-1-0.8-1.4-1.4c-0.4,0.5-0.9,1-1.4,1.4c-0.7,0.5-1.5,0.8-2.4,1.1
			l-1-1.2c1.4-0.4,2.4-0.9,3-1.5c0.5-0.5,0.8-1,0.9-1.4H19.1z"/>
		<path fill="#FFFFFF" d="M30.2,43.6v-1.5h4.9v1.5h-1.7v0.5c0,0.5,0,1,0.1,1.6c0.1,0.5,0.2,1.1,0.3,1.6c0.3,1.1,0.9,2,1.8,2.9
			l-1,1.1c-0.2-0.2-0.4-0.4-0.6-0.7c-0.2-0.3-0.4-0.6-0.6-0.9c-0.2-0.3-0.3-0.6-0.5-0.9c-0.1-0.3-0.2-0.5-0.3-0.8
			c-0.2,0.5-0.4,1.1-0.8,1.7c-0.2,0.3-0.4,0.7-0.6,1s-0.4,0.6-0.7,0.9l-1.2-1c0.5-0.5,1-1,1.3-1.6s0.6-1.1,0.7-1.6
			c0.3-1.1,0.5-2.2,0.5-3.3v-0.5H30.2z M37.4,53.1H36v-6.1h-1.5v-1.5H36V41h1.4V53.1z M39.7,53.5h-1.4V40.9h1.4V53.5z"/>
		<path fill="#FFFFFF" d="M42.7,48.1V42h8v1.4h-6.6v3.3h6.7v1.4h-3.3v2.4h4.7v1.4H41.3v-1.4H46v-2.4H42.7z"/>
	</g>
	<g>
		<polygon fill="#FFFFFF" points="15.9,14.9 24.3,10.3 29.6,26.4 17.2,33.6 		"/>
		<polygon fill="#FFFFFF" points="24.8,10.3 32.1,13.7 40.7,29.4 30.2,26.5 		"/>
		<polygon fill="#FFFFFF" points="32.8,13.9 41.4,9.4 54.1,23.2 41.4,29.6 		"/>
		<path fill="#767676" d="M24.7,24.4c-0.2,0.2-0.8,0.4-1.2,0.5c-0.4,0.2-0.6,0.2-0.9,0.2c-0.3,0-0.7,0.1-0.7,0.1l-0.6,0.6
			c0,0-0.3,0.6-0.4,0.9c0,0.3-1.5,0.9-1.5,0.9c-0.3-0.4-0.2-0.9-0.1-1.3c0.1-0.4,0.1-0.7,0.4-1c0.3-0.3,0.1-0.8,0.1-1.1
			c0-0.3,0.1-0.7,0.2-0.9c0.2-0.2-0.1-0.8-0.1-0.8s-0.6-1-0.6-1.3c0-0.3,0.4-1,0.6-1.3c0.2-0.3,0.9-0.8,0.9-0.8s0.5,0.1,0.5-0.3
			c-0.1-0.4,0.3-0.9,0.3-0.9l-0.1-0.7c0,0,0-0.6,0.1-0.8c0.1-0.2,0.2-0.3,0.4-0.4c0.2-0.2,0.3-0.6,0.5-0.8c4.4-2.1,7.7-0.7,7.7-0.7
			l-0.4,1c0,0-0.6-0.3-0.7-0.6c-0.2-0.3-0.3-0.4-0.3-0.4l-0.7,0.1c0,0-0.3,0.2-0.5,0.3c-0.2,0.1-0.2,0.4-0.2,0.4s0.6,0.5,0.7,0.4
			c0.1-0.2,0.1-0.3,0.1-0.3l0.1-0.3c0,0,0.5,0.1,1.5,1c0.9,0.9,0,1.2,0.3,1.7c0.3,0.5-0.9,0.4-1.3,0.5c-0.4,0.2-0.1-0.7-0.1-0.7
			s0.5,0,0.1-0.5c-0.4-0.4-1.3,0.1-1,0.2c0.2,0.1,0.3,0.6,0.1,0.7c-0.2,0.2-0.2,0.1-0.7,0.4S26,18.7,26,18.7s-0.1-0.3-0.2,0
			c-0.1,0.3-0.7,0.7-0.8,0.9c-0.1,0.1-0.3-0.7-0.1-1.1c0.2-0.4-0.5-0.5-0.7-0.6c-0.2-0.1-0.4-0.5-0.3-0.7c0.1-0.3-1.2-0.3-1.5-0.4
			c-0.3-0.1-0.5,0.3,0,0.4c0.5,0.1,0.7,0.5,0.3,0.7c-0.3,0.2-0.5-0.2-0.6,0c-0.1,0.2,0.1,0.7-0.1,1c-0.1,0.3,0.9,0.8,1.2,0.9
			c0.3,0.1,1.2,0.6,1,0.9c-0.2,0.4,0.5,1.1,0.8,1.5c0.2,0.3,0.8,0.8,0.9,1.4C26,24.2,24.9,24.2,24.7,24.4z"/>
		<path fill="#767676" d="M45.2,21.6c1.7,0.2,1.5,1.7,1.5,1.7c0.1,0.7-1.9,2.1-1.9,2.1c-2,2.1-1.8-0.8-1.8-0.8
			c0.1-2.7-1.4-2.3-1.4-2.3c0.1,0,0.2-0.3,0.3-0.3c0.1-0.1,0.3-0.2,0.4-0.3c0.3-0.2,0.6-0.3,0.9-0.5c0.5-0.2,1.2-0.5,1.6-0.1
			C45,21.1,45.1,21.4,45.2,21.6z"/>
		<path fill="#767676" d="M45.1,20.5l-2.4-1.3l1.7-0.7l0-0.9l0-1.3L41.7,15c0,0-0.3,1,0.5,2.1c0,0-0.3,1.3-0.9,1l-1.7-0.9
			c0,0-0.6-0.3-1.5,0.3c-0.9,0.6-2.5,0-2.5,0s0.1-0.9,1.1-1.4l0.8-0.5c0,0-0.2-1,0-1.7c0.2-0.7,0.5-0.1,1.3-0.6
			c0.7-0.6,1.3,1.1,2.4,0.9c1.1-0.2,0.6-0.4,1.3-0.7c0.7-0.4,1.3,0.7,1.3,0.7s0.2,0.1,0.7,0.6C44.9,15.3,45.1,20.5,45.1,20.5z"/>
	</g>
</g>
</svg>
