<?xml version="1.0" encoding="utf-8"?>
<!-- Generator: Adobe Illustrator 16.0.0, SVG Export Plug-In . SVG Version: 6.00 Build 0)  -->
<!DOCTYPE svg PUBLIC "-//W3C//DTD SVG 1.1//EN" "http://www.w3.org/Graphics/SVG/1.1/DTD/svg11.dtd">
<svg version="1.1" id="Layer_1" xmlns="http://www.w3.org/2000/svg" xmlns:xlink="http://www.w3.org/1999/xlink" x="0px" y="0px"
	 width="70px" height="65px" viewBox="0 0 70 65" enable-background="new 0 0 70 65" xml:space="preserve">
<rect x="-0.3" y="-0.3" fill="#3185C6" width="70.7" height="65.5"/>
<g>
	<rect x="1" y="1" opacity="0.9" fill="#489ED3" enable-background="new    " width="68" height="1.1"/>
	<rect x="1" y="1" opacity="0.9" fill="#489ED3" enable-background="new    " width="1.1" height="63"/>
	<rect x="1" y="62.9" opacity="0.9" fill="#489ED3" enable-background="new    " width="68" height="1.1"/>
	<rect x="68" y="1" opacity="0.9" fill="#489ED3" enable-background="new    " width="1.1" height="63"/>
</g>
<rect x="2.1" y="2.1" fill="#3993CA" width="65.9" height="60.9"/>
<g enable-background="new    ">
	<path fill="#FFFFFF" d="M17.1,50.9h-4.7V42h1.4v2.9h1.8V42h1.4V50.9z M15.6,49.4v-3.1h-1.8v3.1H15.6z M21.7,53.5h-1.4v-6.3h-1v5.9
		h-1.4V41h1.4v4.7h1v-4.8h1.4V53.5z"/>
	<path fill="#FFFFFF" d="M30.1,41.7c0,0.4-0.1,0.8-0.2,1.1h1.9v-2h1.4v7.2h-1.4v-1.4h-2.4v-1.4h2.4v-1h-1.9v-1.4
		c-0.2,1-0.7,1.9-1.3,2.6c-0.9,1-2.3,1.8-4.1,2.4l-0.8-1.2c1.7-0.6,2.9-1.2,3.6-1.9c0.3-0.3,0.5-0.6,0.7-0.9
		c0.2-0.3,0.3-0.6,0.3-0.8h-3.9v-1.5H30.1z M25.3,50.9c0-0.5,0.1-1,0.4-1.3s0.6-0.6,1-0.9s0.9-0.4,1.3-0.5c0.5-0.1,0.9-0.1,1.3-0.1
		s0.8,0,1.3,0.1s0.9,0.2,1.3,0.5s0.7,0.5,1,0.9s0.4,0.8,0.4,1.3c0,0.5-0.1,1-0.4,1.3s-0.6,0.6-1,0.9c-0.4,0.2-0.8,0.4-1.3,0.5
		s-0.9,0.1-1.3,0.1s-0.8,0-1.3-0.1c-0.5-0.1-0.9-0.2-1.3-0.5c-0.4-0.2-0.7-0.5-1-0.9S25.3,51.4,25.3,50.9z M29.4,52.3
		c0.2,0,0.5,0,0.7-0.1c0.3,0,0.6-0.1,0.8-0.2c0.3-0.1,0.5-0.2,0.7-0.4c0.2-0.2,0.3-0.4,0.3-0.7c0-0.3-0.1-0.5-0.3-0.7
		c-0.2-0.2-0.4-0.3-0.7-0.4c-0.3-0.1-0.6-0.2-0.8-0.2c-0.3,0-0.5-0.1-0.7-0.1c-0.2,0-0.5,0-0.7,0.1c-0.3,0-0.6,0.1-0.8,0.2
		c-0.3,0.1-0.5,0.3-0.7,0.4c-0.2,0.2-0.3,0.4-0.3,0.7c0,0.3,0.1,0.5,0.3,0.7c0.2,0.2,0.4,0.3,0.7,0.4c0.3,0.1,0.5,0.2,0.8,0.2
		C29,52.3,29.2,52.3,29.4,52.3z"/>
	<path fill="#FFFFFF" d="M41.8,51c-0.5-0.4-1-1-1.6-1.7c-0.2-0.3-0.4-0.6-0.6-0.9s-0.3-0.6-0.4-0.9c-0.1,0.3-0.3,0.6-0.4,0.9
		s-0.4,0.6-0.6,1c-0.6,0.7-1.2,1.3-1.8,1.8l-1-1.1c0.6-0.4,1.2-0.9,1.6-1.4s0.7-1,0.9-1.5c0.2-0.5,0.3-1,0.4-1.5
		c0.1-0.5,0.1-0.9,0.1-1.4v-0.8h-2.3v-1.4h6.2v1.4H40v0.8c0,0.8,0.1,1.7,0.5,2.6c0.3,0.9,1.1,1.9,2.3,2.8L41.8,51z M45,53.5h-1.4
		V40.9H45V53.5z"/>
	<path fill="#FFFFFF" d="M48.3,48.1V42h8v1.4h-6.6v3.3h6.7v1.4h-3.3v2.4h4.7v1.4H46.9v-1.4h4.7v-2.4H48.3z"/>
</g>
<g>
	<rect x="18.7" y="9.6" fill="#FFFFFF" width="32.6" height="24.2"/>
	<path fill="#3993CA" d="M49.1,31.8H20.5V11.9h28.6V31.8z M21.4,30.9h26.7v-18H21.4V30.9z"/>
	<path fill="#3993CA" d="M40.7,18.6c0.3-0.2,1.2-0.4,1.8-0.5c0.6-0.1,0.8-0.2,1.3-0.1c0.4,0.1,0.9-0.1,0.9-0.1l0.9-0.7
		c0,0,0.6-0.7,0.8-1.1c0.1-0.4,2.3-0.9,2.3-0.9c0.3,0.5,0,1.2-0.3,1.7c-0.3,0.5-0.3,0.9-0.9,1.2c-0.5,0.3-0.4,1-0.5,1.4
		c-0.1,0.4-0.3,0.9-0.6,1.1c-0.3,0.2-0.2,1.1-0.2,1.1s0.4,1.4,0.3,1.8c-0.1,0.3-0.8,1.2-1.2,1.6c-0.3,0.4-1.4,0.9-1.4,0.9
		s-0.7-0.2-0.7,0.3c0,0.5-0.7,1.1-0.7,1.1l-0.1,0.9c0,0-0.2,0.8-0.4,1.1c-0.2,0.3-0.4,0.3-0.7,0.5c-0.3,0.2-0.6,0.7-0.9,0.9
		c-6.4,2-10.2-0.3-10.2-0.3l0.9-1.2c0,0,0.6,0.4,0.8,0.8c0.2,0.4,0.3,0.6,0.3,0.6l0.9-0.1c0,0,0.5-0.1,0.7-0.3
		c0.3-0.1,0.4-0.5,0.4-0.5s-0.6-0.8-0.8-0.6c-0.2,0.2-0.2,0.4-0.2,0.4L33,30.1c0,0-0.6-0.3-1.6-1.6c-0.9-1.3,0.3-1.6,0.1-2.3
		c-0.2-0.7,1.3-0.4,1.9-0.5c0.6-0.1-0.1,1-0.1,1s-0.6,0-0.3,0.6c0.3,0.6,1.7,0.1,1.4-0.1c-0.3-0.2-0.2-0.8,0.1-0.9
		c0.3-0.2,0.3-0.2,1.1-0.4c0.8-0.2,1.7,0,1.7,0s0.1,0.4,0.2,0c0.2-0.4,1.1-0.8,1.3-1c0.2-0.2,0.2,0.9-0.3,1.5
		c-0.4,0.5,0.5,0.8,0.8,0.9c0.2,0.2,0.4,0.7,0.2,1c-0.2,0.3,1.4,0.6,1.8,0.7c0.4,0.1,0.7-0.3,0.2-0.6c-0.6-0.2-0.7-0.7-0.2-1
		c0.5-0.2,0.6,0.4,0.8,0.1c0.2-0.3,0.1-0.9,0.4-1.3c0.3-0.4-0.9-1.1-1.3-1.3c-0.4-0.2-1.3-0.9-1-1.4c0.3-0.5-0.3-1.6-0.5-2
		c-0.2-0.5-0.8-1.2-0.7-2C39,18.7,40.4,18.8,40.7,18.6z"/>
	<path fill="#3993CA" d="M26.1,19.6c0.5,0.4,0.8,1,1.5,1.2c0.9,0.3,1.8-0.1,2.4-0.7c1.1-1,1.8-1.9,1.3-3.4c-0.4-1.1-1.6-1.9-1.5-3.2
		c0-0.2,0.1-0.7,0.4-0.7c0,0-8.7-0.5-8.7-0.5l-0.5,7.4c0,0.5,0,1,0.2,1.4c0.2,0.4,0.7,0.6,1.1,0.7c1,0.1,2-0.3,2.3-1.3
		c0.1-0.4,0.1-1.2,0.6-1.4C25.5,19.1,25.8,19.4,26.1,19.6z"/>
	<path fill="#3993CA" d="M26.2,23.5c0,0-3.1,0.4-2.4,1.8c0,0,1,1.6,1.7,1.5c0,0,1.3-0.8,1.2-1.7C26.7,25.2,27.5,23.2,26.2,23.5z"/>
</g>
</svg>
