<?xml version="1.0" encoding="utf-8"?>
<!-- Generator: Adobe Illustrator 16.0.0, SVG Export Plug-In . SVG Version: 6.00 Build 0)  -->
<!DOCTYPE svg PUBLIC "-//W3C//DTD SVG 1.1//EN" "http://www.w3.org/Graphics/SVG/1.1/DTD/svg11.dtd">
<svg version="1.1" id="Layer_1" xmlns="http://www.w3.org/2000/svg" xmlns:xlink="http://www.w3.org/1999/xlink" x="0px" y="0px"
	 width="70px" height="65px" viewBox="0 0 70 65" enable-background="new 0 0 70 65" xml:space="preserve">
<rect x="-0.3" y="-0.3" fill="#3185C6" width="70.7" height="65.5"/>
<g>
	<rect x="1" y="1" opacity="0.9" fill="#489ED3" enable-background="new    " width="68" height="1.1"/>
	<rect x="1" y="1" opacity="0.9" fill="#489ED3" enable-background="new    " width="1.1" height="63"/>
	<rect x="1" y="62.9" opacity="0.9" fill="#489ED3" enable-background="new    " width="68" height="1.1"/>
	<rect x="68" y="1" opacity="0.9" fill="#489ED3" enable-background="new    " width="1.1" height="63"/>
</g>
<rect x="2.1" y="2.1" fill="#3993CA" width="65.9" height="60.9"/>
<g enable-background="new    ">
	<path fill="#FFFFFF" d="M33.9,53.4h-8.3v-2.9h6.7v-0.7h-6.7v-1.2h3.3v-0.8h-4.7v-1.2h10.8v1.2h-4.7v0.8h3.3v2.9h-6.7v0.7h6.8V53.4z
		 M25.5,43.8v-1.3h8.3v1.3h-2.9c0.1,0.1,0.2,0.1,0.3,0.2c0.1,0.1,0.3,0.2,0.5,0.3c0.3,0.2,0.7,0.3,1.1,0.4c0.4,0.1,0.9,0.2,1.6,0.3
		l-0.8,1.2c-0.3,0-0.6-0.1-1-0.2c-0.4-0.1-0.7-0.2-1.1-0.4c-0.4-0.2-0.7-0.3-1.1-0.5c-0.3-0.2-0.6-0.4-0.8-0.6
		c-0.2,0.2-0.4,0.4-0.8,0.6c-0.3,0.2-0.7,0.4-1.1,0.6c-0.4,0.2-0.8,0.3-1.2,0.4s-0.7,0.2-0.9,0.2L24.9,45c0.5-0.1,0.9-0.1,1.3-0.2
		c0.4-0.1,0.7-0.2,1-0.3c0.3-0.1,0.5-0.2,0.7-0.3c0.2-0.1,0.4-0.2,0.5-0.4H25.5z M27.5,41.9v-1.3h4.3v1.3H27.5z"/>
	<path fill="#FFFFFF" d="M43.4,47.8c-0.5,0.1-1.1,0.2-1.8,0.3c-0.4,0-1,0-1.8,0.1c-0.8,0-1.8,0-3,0v-4h3.9v-1.2h-3.9v-1.4h5.3v4
		h-3.9v1.3c0.9,0,1.6,0,2.1,0c0.6,0,1,0,1.3-0.1c0.3,0,0.7-0.1,1-0.1c0.3,0,0.6-0.1,0.8-0.1V47.8z M45.8,53.5h-1.4v-3h-6.5v-1.4h7.9
		V53.5z M42.6,44.8h1.8v-1h-1.8v-1.3h1.8v-1.6h1.4v7.6h-1.4v-2.4h-1.8V44.8z"/>
</g>
<path fill="#EFF3F6" d="M48.1,19.3h-1.2v2.5c0,1.1-1.4,2-3.2,2H26.4c-1.8,0-3.2-0.9-3.2-2v-2.5h-1.2c-2.2,0-4,1.9-4,4.2v5.5
	c0,2.3,1.8,4.2,4,4.2h1.9c0.2-1.3,1.5-2.3,3-2.3h16.2c1.6,0,2.9,1,3,2.3h1.9c2.2,0,4-1.9,4-4.2v-5.5C52.1,21.1,50.3,19.3,48.1,19.3z
	 M46.9,28.1c-0.8,0-1.5-0.7-1.5-1.5c0-0.8,0.7-1.5,1.5-1.5s1.5,0.7,1.5,1.5C48.4,27.4,47.7,28.1,46.9,28.1z M42.8,31.8H27.2
	c-1.1,0-2.1,0.7-2.1,1.6c0,0.9,0.9,1.6,2.1,1.6h15.5c1.1,0,2.1-0.7,2.1-1.6C44.9,32.6,43.9,31.8,42.8,31.8z M27.8,22.3h14.7
	c1.5,0,2.7-0.8,2.7-1.7V10.3c0-0.9-1.2-1.7-2.7-1.7H27.8c-1.5,0-2.7,0.8-2.7,1.7v10.3C25.1,21.5,26.3,22.3,27.8,22.3z M28,11.1h14.2
	c0.5,0,0.9,0.4,0.9,0.9s-0.4,0.9-0.9,0.9H28c-0.5,0-0.9-0.4-0.9-0.9S27.5,11.1,28,11.1z M28,14.4h14.2c0.5,0,0.9,0.4,0.9,0.9
	s-0.4,0.9-0.9,0.9H28c-0.5,0-0.9-0.4-0.9-0.9S27.5,14.4,28,14.4z M28,17.8h14.2c0.5,0,0.9,0.4,0.9,0.9c0,0.5-0.4,0.9-0.9,0.9H28
	c-0.5,0-0.9-0.4-0.9-0.9C27.2,18.2,27.5,17.8,28,17.8z"/>
</svg>
