<?xml version="1.0" encoding="utf-8"?>
<!-- Generator: Adobe Illustrator 16.0.0, SVG Export Plug-In . SVG Version: 6.00 Build 0)  -->
<!DOCTYPE svg PUBLIC "-//W3C//DTD SVG 1.1//EN" "http://www.w3.org/Graphics/SVG/1.1/DTD/svg11.dtd">
<svg version="1.1" id="Layer_1" xmlns="http://www.w3.org/2000/svg" xmlns:xlink="http://www.w3.org/1999/xlink" x="0px" y="0px"
	 width="70px" height="65px" viewBox="0 0 70 65" enable-background="new 0 0 70 65" xml:space="preserve">
<g>
	<rect x="-0.3" y="-0.3" fill="#767676" width="70.7" height="65.5"/>
	<g>
		<rect x="-0.1" opacity="0.9" fill="#7A7B7B" enable-background="new    " width="70.3" height="1.1"/>
		<rect x="69.1" opacity="0.9" fill="#7A7B7B" enable-background="new    " width="1.1" height="65"/>
	</g>
	<rect x="2.1" y="2.1" fill="#767676" width="65.9" height="60.9"/>
	<g>
		<path fill="#4D9ED6" d="M25.6,49.4c0-0.8-0.1-1.5-0.1-2.2c0-1-0.1-1.9-0.1-2.9h1.4c0,1,0.1,2,0.1,2.9c0,0.7,0,1.5,0.1,2.2
			c0.6,0,1.1,0,1.5,0c0.1-0.8,0.2-1.6,0.3-2.5v-2.7h1.4v2.7c0,0.4-0.1,0.9-0.1,1.4c0,0.3-0.1,0.6-0.1,0.9c0.2,0,0.5,0,0.7-0.1
			c0.3,0,0.5-0.1,0.8-0.1v1.4c-0.5,0.1-1,0.2-1.6,0.2c-0.6,0-1.4,0.1-2.3,0.1h-3.3v-1.5H25.6z M24.5,43.6v-1.5h6.6v1.5H24.5z
			 M32.1,40.9h1.4v4.8h1.7v1.5h-1.7v6.3h-1.4V40.9z"/>
		<path fill="#4D9ED6" d="M42.6,44.2c0,0.5-0.1,0.9-0.3,1.3c-0.2,0.4-0.4,0.7-0.7,0.9c-0.3,0.2-0.6,0.4-1,0.6
			c-0.4,0.1-0.7,0.2-1.1,0.2c-0.4,0-0.7-0.1-1.1-0.2c-0.4-0.1-0.7-0.3-1-0.6c-0.3-0.2-0.5-0.6-0.7-0.9s-0.3-0.8-0.3-1.3
			c0-0.5,0.1-0.9,0.3-1.3c0.2-0.4,0.4-0.7,0.7-0.9c0.3-0.2,0.6-0.4,1-0.6c0.4-0.1,0.7-0.2,1.1-0.2c0.4,0,0.7,0.1,1.1,0.2
			c0.4,0.1,0.7,0.3,1,0.6c0.3,0.3,0.5,0.6,0.7,0.9C42.5,43.3,42.6,43.7,42.6,44.2z M41.2,44.2c0-0.2,0-0.4-0.1-0.6s-0.2-0.3-0.4-0.5
			c-0.2-0.1-0.3-0.2-0.5-0.3c-0.2-0.1-0.4-0.1-0.6-0.1c-0.2,0-0.4,0-0.6,0.1c-0.2,0.1-0.4,0.2-0.5,0.3c-0.2,0.1-0.3,0.3-0.4,0.5
			c-0.1,0.2-0.1,0.4-0.1,0.6c0,0.2,0,0.4,0.1,0.6c0.1,0.2,0.2,0.3,0.4,0.5c0.2,0.1,0.3,0.2,0.5,0.3c0.2,0.1,0.4,0.1,0.6,0.1
			c0.2,0,0.4,0,0.6-0.1c0.2-0.1,0.4-0.2,0.5-0.3c0.2-0.1,0.3-0.3,0.4-0.5S41.2,44.5,41.2,44.2z M45.9,53.4h-7.8v-3.4h6.2v-0.8h-6.2
			v-1.3h7.7v3.4h-6.2V52h6.3V53.4z M45.8,47.2h-1.4v-6.3h1.4V47.2z"/>
	</g>
	<g>
		<g>
			<path fill="#4D9ED6" d="M51.5,17c0,0,0.1-2.1-2.2-2.3c-1.3-0.1-14.2-1-14.2-1l0-0.4c0,0,0-0.9-1.1-1.1c-1.1-0.2-3.9-0.3-3.9-0.3
				l-1,0.5l3.1,0.2c0,0,1.2,0,1.3,0.8c0.1,0.7,0.1,1.1,0.1,1.1l14.6,0.9c0,0,2.3,0,2.2,1.7c0,0.9-3.4,14.5-3.4,14.5l-2.3-12.5
				c0,0-0.1-1.5-1.9-1.6c-1.9-0.1-14-0.9-14-0.9s-0.5-2-2-2c-1.5,0-4.9-0.3-4.9-0.3s-1.2-0.1-0.3,2.2l-3.1-0.1l3.3,14.7l25.7,2.2
				L51.5,17z"/>
		</g>
	</g>
</g>
</svg>
