<?xml version="1.0" encoding="utf-8"?>
<!-- Generator: Adobe Illustrator 16.0.0, SVG Export Plug-In . SVG Version: 6.00 Build 0)  -->
<!DOCTYPE svg PUBLIC "-//W3C//DTD SVG 1.1//EN" "http://www.w3.org/Graphics/SVG/1.1/DTD/svg11.dtd">
<svg version="1.1" id="Layer_1" xmlns="http://www.w3.org/2000/svg" xmlns:xlink="http://www.w3.org/1999/xlink" x="0px" y="0px"
	 width="70px" height="65px" viewBox="0 0 70 65" enable-background="new 0 0 70 65" xml:space="preserve">
<g>
	<rect x="-0.3" y="-0.3" fill="#767676" width="70.7" height="65.5"/>
	<g>
		<rect x="-0.1" opacity="0.9" fill="#7A7B7B" enable-background="new    " width="70.3" height="1.1"/>
		<rect x="69.1" opacity="0.9" fill="#7A7B7B" enable-background="new    " width="1.1" height="65"/>
	</g>
	<rect x="2.1" y="2.1" fill="#767676" width="65.9" height="60.9"/>
	<g>
		<path fill="#4D9ED6" d="M30.7,41.7c-0.1,1.5-0.6,2.7-1.5,3.8c-0.9,1-2.3,1.8-4.1,2.4l-0.8-1.2c1.7-0.6,2.9-1.2,3.6-1.9
			c0.3-0.3,0.5-0.6,0.7-0.9s0.3-0.6,0.3-0.8h-3.9v-1.5H30.7z M33.9,53.4h-7.6v-5.1h7.6V53.4z M32.5,51.9v-2.2h-4.8v2.2H32.5z
			 M30.2,44h2.3v-3.1h1.4v6.7h-1.4v-2.1h-2.3V44z"/>
		<path fill="#4D9ED6" d="M41.1,48c-0.2-0.1-0.4-0.3-0.7-0.5c-0.2-0.2-0.4-0.4-0.7-0.6c-0.4-0.4-0.7-0.9-0.9-1.4
			c-0.1,0.3-0.4,0.8-0.7,1.2c-0.2,0.3-0.4,0.5-0.7,0.8c-0.2,0.2-0.5,0.5-0.8,0.7l-1.1-1.1c0.6-0.4,1-0.8,1.4-1.2
			c0.4-0.4,0.6-0.8,0.7-1.2c0.1-0.4,0.2-0.8,0.3-1.2s0.1-0.7,0.1-1v-1.3h1.5v1.3c0,0.6,0.2,1.3,0.5,2.1c0.3,0.8,0.9,1.6,1.9,2.1
			L41.1,48z M45.8,53.5h-1.4v-3.2h-6.8v-1.4h8.2V53.5z M45.8,48.3h-1.4v-3h-0.9v2.9h-1.4V41h1.4v2.8h0.9v-2.9h1.4V48.3z"/>
	</g>
	<g>
		<path fill="#4D9ED6" d="M56.3,28.7H13.8V14.5h42.5V28.7z M14.8,27.7h40.5V15.5H14.8V27.7z"/>
		<g>
			<path fill="#4D9FD8" d="M20.3,19.2h-2.9v-0.6h3.6c0,0.5-0.1,1-0.3,1.6c-0.2,0.6-0.5,1.1-0.8,1.6c-0.3,0.4-0.7,0.8-1.1,1.2
				c-0.5,0.4-0.9,0.7-1.4,1l-0.4-0.5c0.5-0.3,0.9-0.5,1.3-0.9c0.4-0.3,0.8-0.7,1.1-1.1c0.2-0.3,0.4-0.6,0.6-1
				C20.2,20,20.3,19.6,20.3,19.2z M22.7,26.3V18h0.7v2.6H25v0.6h-1.6v5H22.7z"/>
		</g>
		<path fill="#4D9FD8" d="M44.7,26.7c3.2-3.9,3.2-9.7-0.3-13.5C40.6,8.9,34,8.6,29.8,12.4c-4.2,3.8-4.6,10.4-0.7,14.6
			c3.7,4,9.8,4.5,14,1.2c0,0,8.5,9.6,8.7,9.4l1.5-1.4C53.5,36,44.7,26.7,44.7,26.7z M42.4,26.3c-3.4,3.1-8.7,2.9-11.9-0.6
			c-3.1-3.4-2.9-8.8,0.6-11.9c3.4-3.1,8.7-2.8,11.9,0.6C46.1,17.9,45.8,23.2,42.4,26.3z"/>
	</g>
</g>
</svg>
