<?xml version="1.0" encoding="utf-8"?>
<!-- Generator: Adobe Illustrator 16.0.0, SVG Export Plug-In . SVG Version: 6.00 Build 0)  -->
<!DOCTYPE svg PUBLIC "-//W3C//DTD SVG 1.1//EN" "http://www.w3.org/Graphics/SVG/1.1/DTD/svg11.dtd">
<svg version="1.1" id="Layer_1" xmlns="http://www.w3.org/2000/svg" xmlns:xlink="http://www.w3.org/1999/xlink" x="0px" y="0px"
	 width="70px" height="65px" viewBox="0 0 70 65" enable-background="new 0 0 70 65" xml:space="preserve">
<g>
	<rect x="-0.3" y="-0.3" fill="#767676" width="70.7" height="65.5"/>
	<g>
		<rect x="-0.1" opacity="0.9" fill="#7A7B7B" enable-background="new    " width="70.3" height="1.1"/>
		<rect x="69.1" opacity="0.9" fill="#7A7B7B" enable-background="new    " width="1.1" height="65"/>
	</g>
	<rect x="2.1" y="2.1" fill="#767676" width="65.9" height="60.9"/>
	<g>
		<path fill="#4D9ED6" d="M22.1,47.3h-1.4v-2.5h-1.8c0,0.2-0.1,0.5-0.2,0.7c-0.2,0.4-0.4,0.7-0.6,1c-0.3,0.3-0.6,0.5-1,0.7
			c-0.4,0.2-0.8,0.2-1.2,0.2c-0.4,0-0.8-0.1-1.2-0.2c-0.4-0.2-0.7-0.4-1-0.6c-0.3-0.3-0.5-0.6-0.7-1c-0.2-0.4-0.2-0.8-0.2-1.2
			c0-0.4,0.1-0.9,0.2-1.2c0.2-0.4,0.4-0.7,0.7-1s0.6-0.5,1-0.6c0.4-0.2,0.8-0.2,1.2-0.2c0.4,0,0.8,0.1,1.2,0.2
			c0.4,0.2,0.7,0.4,1,0.6c0.3,0.3,0.5,0.6,0.6,1c0,0.1,0.1,0.2,0.1,0.3h1.9v-2.6h1.4V47.3z M17.5,44.4c0-0.2,0-0.5-0.1-0.7
			c-0.1-0.2-0.2-0.4-0.3-0.5c-0.2-0.2-0.3-0.3-0.5-0.4c-0.2-0.1-0.4-0.1-0.6-0.1c-0.2,0-0.4,0-0.6,0.1c-0.2,0.1-0.4,0.2-0.5,0.4
			c-0.1,0.2-0.3,0.3-0.3,0.5c-0.1,0.2-0.1,0.4-0.1,0.7c0,0.2,0,0.5,0.1,0.7c0.1,0.2,0.2,0.4,0.3,0.5c0.1,0.2,0.3,0.3,0.5,0.4
			c0.2,0.1,0.4,0.1,0.6,0.1c0.2,0,0.4,0,0.6-0.1c0.2-0.1,0.4-0.2,0.5-0.4c0.1-0.2,0.3-0.3,0.3-0.5C17.4,44.8,17.5,44.6,17.5,44.4z
			 M22.1,53.4h-7.6V48h1.4v1.4h4.8V48h1.4V53.4z M20.7,51.9v-1.2h-4.8v1.2H20.7z"/>
		<path fill="#4D9ED6" d="M34.8,49.3h-4.7v4.1h-1.5v-4.1H24v-1.4h10.8V49.3z M33.4,46.7h-8v-5.3h8V46.7z M32,45.3v-2.4h-5.1v2.4H32z
			"/>
		<path fill="#4D9ED6" d="M43.3,47.7c-0.3,0.1-0.7,0.2-1,0.2s-0.7,0.1-1.1,0.1c-0.8,0.1-2,0.1-3.6,0.1h-1.7v-1.4h2.3v-2.4h1.4v2.4
			c0.2,0,0.5,0,0.8,0c0.3,0,0.6,0,0.9,0c0.3,0,0.7-0.1,1-0.1c0.3-0.1,0.7-0.1,1-0.2V47.7z M42.8,41.6c0,0.3,0,0.7,0,1.1
			c0,0.4-0.1,0.8-0.1,1.2c0,0.4-0.1,0.8-0.2,1.2c-0.1,0.4-0.2,0.7-0.3,1.1h-1.4c0.1-0.6,0.2-1.2,0.3-1.7c0.1-0.5,0.1-1,0.1-1.5h-4.7
			v-1.4H42.8z M45.4,53.2h-8.1v-4h1.4v2.6h6.7V53.2z M45.2,45.7V50h-1.4v-9.1h1.4v3.4h1.7v1.5H45.2z"/>
		<path fill="#4D9ED6" d="M54.9,50.7c-0.3,0.1-0.6,0.1-0.9,0.2c-0.3,0-0.6,0.1-0.8,0.1c-0.5,0-1.1,0.1-1.8,0.1l-3,0v-5.3h4.2v-2.3
			h-4.2v-1.5H54v5.2h-4.2v2.4c0.1,0,0.2,0,0.4,0c0.2,0,0.4,0,0.6,0c0.2,0,0.4,0,0.6,0c0.2,0,0.3,0,0.4,0c0.3,0,0.5,0,0.8,0
			c0.2,0,0.5,0,0.7-0.1c0.2,0,0.5-0.1,0.8-0.1c0.3,0,0.5-0.1,0.8-0.1V50.7z M57.3,53.5h-1.4V40.9h1.4V53.5z"/>
	</g>
	<g>
		<g>
			<g>
				<path fill="#4D9ED6" d="M51.7,27.2c-0.1,0-0.2,0-0.3-0.1c-0.5-0.2-0.8-0.8-0.6-1.3l1.4-3.9c-0.7-2.3-1.6-4.9-1.8-5.5
					c-0.2-0.2-0.4-0.3-0.7-0.3h-9.9c-0.3,0-0.5-0.1-0.7-0.3l-4-4c-0.4-0.4-0.4-1,0-1.4c0.4-0.4,1-0.4,1.4,0l3.7,3.7h9.5
					c0.8,0,1.6,0.3,2.2,0.9c0.2,0.2,0.6,0.6,2.4,6.6c0.1,0.2,0.1,0.4,0,0.6l-1.5,4.2C52.5,26.9,52.1,27.2,51.7,27.2z"/>
				<g>
					<path fill="#4D9ED6" d="M49,37.5c-0.6,0-1-0.5-1-1V15.2c0-0.6,0.5-1,1-1c0.6,0,1,0.5,1,1v21.3C50.1,37,49.6,37.5,49,37.5z"/>
					<path fill="#4D9ED6" d="M46.1,37.5c-0.6,0-1-0.5-1-1V15.2c0-0.6,0.5-1,1-1c0.6,0,1,0.5,1,1v21.3C47.1,37,46.7,37.5,46.1,37.5z"
						/>
				</g>
				<rect x="46.1" y="15.2" fill="#4D9ED6" width="2.9" height="11.1"/>
				<ellipse fill="#4D9ED6" cx="47.4" cy="10.8" rx="2.8" ry="3"/>
			</g>
			<g>
				<path fill="#4D9ED6" d="M40.7,27.8H18.5c-1.5,0-2.6-1.1-2.6-2.4V10.6c0-1.3,1.2-2.4,2.6-2.4h4.8v1.5h-4.8
					c-0.6,0-1.1,0.4-1.1,0.9v14.8c0,0.5,0.5,0.9,1.1,0.9h22.1c0.6,0,1.1-0.4,1.1-0.9V10.6c0-0.5-0.5-0.9-1.1-0.9h-4.8V8.2h4.8
					c1.4,0,2.6,1.1,2.6,2.4v14.8C43.3,26.7,42.1,27.8,40.7,27.8z"/>
				<rect x="23.3" y="8.2" fill="#4D9ED6" width="12.6" height="1.5"/>
			</g>
			<rect x="28.7" y="27.1" fill="#4D9ED6" width="2" height="4.9"/>
			<rect x="20.4" y="30.8" fill="#4D9ED6" width="19.2" height="1.5"/>
			<rect x="20.8" y="22.3" fill="#4D9ED6" width="16.7" height="0.6"/>
			<rect x="22.7" y="14.9" fill="#4D9ED6" width="2" height="6.2"/>
			<rect x="26.4" y="12.7" fill="#4D9ED6" width="2" height="8.4"/>
			<rect x="30" y="14.9" fill="#4D9ED6" width="2" height="6.2"/>
			<rect x="33.7" y="18.1" fill="#4D9ED6" width="2" height="3"/>
		</g>
	</g>
</g>
</svg>
