<?xml version="1.0" encoding="utf-8"?>
<!-- Generator: Adobe Illustrator 16.0.0, SVG Export Plug-In . SVG Version: 6.00 Build 0)  -->
<!DOCTYPE svg PUBLIC "-//W3C//DTD SVG 1.1//EN" "http://www.w3.org/Graphics/SVG/1.1/DTD/svg11.dtd">
<svg version="1.1" id="Layer_1" xmlns="http://www.w3.org/2000/svg" xmlns:xlink="http://www.w3.org/1999/xlink" x="0px" y="0px"
	 width="70px" height="65px" viewBox="0 0 70 65" enable-background="new 0 0 70 65" xml:space="preserve">
<rect x="-0.3" y="-0.3" fill="#767676" width="70.7" height="65.5"/>
<g>
	<rect x="-0.1" opacity="0.9" fill="#7A7B7B" enable-background="new    " width="70.3" height="1.1"/>
	<rect x="69.1" opacity="0.9" fill="#7A7B7B" enable-background="new    " width="1.104" height="65"/>
</g>
<rect x="2.1" y="2.1" fill="#767676" width="65.9" height="60.9"/>
<text transform="matrix(0.8506 0 0 1 12.4565 52.2207)" fill="#3993CA" font-family="'HUJingo242'" font-size="14.1079">지적통계</text>
<g>
	<g>
		<g>
			<polygon fill="#3993CA" points="42.434,6.255 42.434,7.945 45.467,7.945 38.359,15.053 31.19,7.883 21.578,17.496 22.773,18.691 
				31.19,10.274 38.359,17.443 46.662,9.141 46.662,12.173 48.354,12.173 48.354,6.255 			"/>
		</g>
	</g>
	<g>
		<g>
			<rect x="21.33" y="24.01" fill="#3993CA" width="5.479" height="9.793"/>
		</g>
	</g>
	<g>
		<g>
			<rect x="28.5" y="15.318" fill="#3993CA" width="5.478" height="18.487"/>
		</g>
	</g>
	<g>
		<g>
			<rect x="35.67" y="20.483" fill="#3993CA" width="5.477" height="13.322"/>
		</g>
	</g>
	<g>
		<g>
			<rect x="42.895" y="15.318" fill="#3993CA" width="5.479" height="18.487"/>
		</g>
	</g>
</g>
</svg>
