<?xml version="1.0" encoding="utf-8"?>
<!-- Generator: Adobe Illustrator 19.0.0, SVG Export Plug-In . SVG Version: 6.00 Build 0)  -->
<svg version="1.1" xmlns="http://www.w3.org/2000/svg" xmlns:xlink="http://www.w3.org/1999/xlink" x="0px" y="0px"
	 viewBox="0 0 70.6 65.5" enable-background="new 0 0 70.6 65.5" xml:space="preserve">
<g id="Layer_1">
</g>
<g id="DEM">
	<g id="nov14_x5F_off">
		<rect x="0.1" y="0" fill="#767676" width="70.5" height="65.5"/>
		<g>
			<rect x="0.1" y="0.1" opacity="0.9" fill="#7A7B7B" enable-background="new    " width="70.3" height="1.1"/>
			<rect x="69.4" y="0.1" opacity="0.9" fill="#7A7B7B" enable-background="new    " width="1.1" height="65"/>
		</g>
		<rect x="2.5" y="2.2" fill="#767676" width="65.9" height="60.9"/>
		<text transform="matrix(0.8506 0 0 1 11.9266 52.3417)" fill="#FFFFFF" font-family="'HUJingo242'" font-size="14.1079px">지적원도</text>
		<g>
			<rect x="19.1" y="9.9" fill="#FFFFFF" width="32.6" height="24.2"/>
			<path id="지적_1_" fill="#665D5B" d="M30.6,11.7h-8.9c-0.4,0-0.7,0.3-0.7,0.7v19.2c0,0.4,0.3,0.7,0.7,0.7H49
				c0.4,0,0.7-0.3,0.7-0.7V12.4c0-0.4-0.3-0.7-0.7-0.7h-8.9 M32.8,30.9l2.1-2.1l2.5-1.1l-0.3,3.2H32.8z M29.6,30.9l-2-5.7l5.1-2.2
				l1.1,5l-3,2.9H29.6z M22.4,20.8l3.1,3.7l-3.1,1.4V20.8z M23.7,20.2l5.5-3.4l2.8,4.8l-5.3,2.3L23.7,20.2z M32.4,13.1l-2.6,1.8
				l-1-1.8 M35.4,13.1l5.8,0l0.6,4.6l-8.4,3.4l-2.9-5 M42.6,23.8L35,27.2l-1.1-4.8l8.1-3.3L42.6,23.8z M38.8,27.1l4.1-1.8l0.8,5.6
				h-5.2L38.8,27.1z M43.3,18.6l5-2v8.6L44,23.9L43.3,18.6z M48.3,15l-5.2,2.1l-0.5-4h5.8V15z M32,11.9 M38.8,11.9 M27.1,13.1
				l1.5,2.5l-5.8,3.5l-0.4-0.5v-5.5H27.1z M22.4,27.4l3.9-1.7l1.8,5.2h-5.7V27.4z M45,30.9l-0.7-5.4l4.1,1.2v4.2H45z"/>
		</g>
	</g>
</g>
</svg>
