<?xml version="1.0" encoding="UTF-8" standalone="no"?>
<svg
   xmlns:dc="http://purl.org/dc/elements/1.1/"
   xmlns:cc="http://creativecommons.org/ns#"
   xmlns:rdf="http://www.w3.org/1999/02/22-rdf-syntax-ns#"
   xmlns:svg="http://www.w3.org/2000/svg"
   xmlns="http://www.w3.org/2000/svg"
   id="svg96"
   height="17.476746mm"
   width="18.623201mm"
   version="1.0">
  <metadata
     id="metadata100">
    <rdf:RDF>
      <cc:Work
         rdf:about="">
        <dc:format>image/svg+xml</dc:format>
        <dc:type
           rdf:resource="http://purl.org/dc/dcmitype/StillImage" />
        <dc:title></dc:title>
      </cc:Work>
    </rdf:RDF>
  </metadata>
  <defs
     id="defs52">
    <pattern
       y="0"
       x="0"
       height="6"
       width="6"
       patternUnits="userSpaceOnUse"
       id="WMFhbasepattern" />
  </defs>
  <path
     id="path54"
     d="M 0,0 V 66.05384 H 70.386905 V 0 Z"
     style="fill:#767676;fill-opacity:1;fill-rule:evenodd;stroke:none" />
  <path
     id="path56"
     d="M 0.31994048,0.31987332 V 1.5993666 H 70.226934 V 0.31987332 Z"
     style="fill:#7a7b7b;fill-opacity:1;fill-rule:evenodd;stroke:none" />
  <path
     id="path58"
     d="M 69.107143,0.31987332 V 65.893903 h 0.959821 V 0.31987332 Z"
     style="fill:#7a7b7b;fill-opacity:1;fill-rule:evenodd;stroke:none" />
  <path
     id="path60"
     d="M 2.3995536,2.5589866 V 63.814726 H 67.987351 V 2.5589866 Z"
     style="fill:#767676;fill-opacity:1;fill-rule:evenodd;stroke:none" />
  <path
     id="path62"
     d="m 48.470982,23.190815 5.918899,13.594616 v 0.159937 l 0.15997,0.159936 v 0.159937 l -0.15997,0.159937 v 0.159936 l -0.15997,0.159937 H 54.06994 l -0.15997,0.159937 H 53.75 16.476934 16.316964 l -0.15997,-0.159937 h -0.15997 l -0.15997,-0.159937 v -0.159936 -0.159937 -0.159937 -0.159936 -0.159937 l 5.918898,-13.594616 h 0.159971 v -0.159937 l 0.15997,-0.159936 h 0.15997 0.15997 5.119048 0.15997 l 0.15997,0.159936 h 0.159971 l 0.47991,0.799684 0.479911,0.639746 0.639881,0.47981 0.479911,0.639747 h -6.078869 -0.159971 l -0.15997,0.159937 h -0.15997 v 0.159936 l -0.15997,0.159937 -3.839286,8.956453 H 50.870536 L 46.87128,26.069675 v -0.159937 l -0.159971,-0.159936 h -0.15997 l -0.15997,-0.159937 h -0.15997 -6.078869 l 0.47991,-0.639747 0.639881,-0.47981 0.479911,-0.639746 0.479911,-0.799684 h 0.15997 l 0.15997,-0.159936 h 0.159971 5.119047 0.15997 0.159971 l 0.15997,0.159936 v 0.159937 z m -4.639137,-9.276326 v 0.47981 0.639747 0.639746 l -0.15997,0.47981 -0.15997,0.639747 v 0.47981 l -0.319941,0.799683 -0.47991,0.95962 -0.479911,0.95962 -0.479911,0.799683 -0.639881,0.799684 -0.959821,1.279493 -1.119792,1.279493 -0.639881,0.799683 -0.639881,0.95962 -0.639881,0.95962 -0.639881,1.119557 -0.47991,1.279493 -0.319941,0.639747 v 0.159936 l -0.15997,0.159937 h -0.15997 l -0.159971,0.159937 h -0.15997 l -0.15997,-0.159937 h -0.15997 l -0.159971,-0.159937 v -0.159936 l -0.31994,-0.639747 -0.479911,-1.119556 -0.479911,-0.95962 -0.63988,-0.95962 -0.479911,-0.799684 -0.639881,-0.799683 -0.959822,-1.279493 -1.119791,-1.43943 -0.959822,-1.119557 -0.47991,-0.639746 -0.479911,-0.799684 -0.319941,-0.95962 -0.31994,-0.95962 -0.319941,-0.95962 v -0.479809 l -0.15997,-0.47981 v -1.119557 -0.95962 l 0.15997,-1.119557 0.159971,-0.95962 0.31994,-0.95962 0.319941,-0.9596186 0.47991,-0.7996838 0.479911,-0.7996833 0.639881,-0.7996833 0.639881,-0.6397466 0.799851,-0.6397467 0.799851,-0.4798099 0.799852,-0.3198733 0.799851,-0.3198734 0.959821,-0.3198733 h 0.479911 0.479911 0.959821 0.959821 l 0.959822,0.3198733 0.799851,0.3198734 0.799851,0.4798099 0.799851,0.47981 0.639881,0.47981 0.799852,0.7996833 0.47991,0.6397466 0.639881,0.7996833 0.319941,0.9596198 0.47991,0.7996826 0.159971,0.95962 0.31994,1.119557 v 0.95962 z m -4.159226,0 v -0.159937 -0.639746 -0.47981 l -0.15997,-0.47981 -0.15997,-0.47981 -0.319941,-0.319874 -0.15997,-0.47981 -0.319941,-0.319873 -0.31994,-0.319873 -0.319941,-0.3198736 -0.31994,-0.319873 -0.479911,-0.3198732 -0.479911,-0.1599366 -0.31994,-0.1599367 h -0.479911 l -0.47991,-0.1599366 h -0.159971 -0.31994 L 34.393601,8.9564529 H 33.91369 l -0.31994,0.1599367 -0.479911,0.1599366 -0.31994,0.3198732 -0.479911,0.319873 -0.31994,0.3198736 -0.319941,0.319873 -0.31994,0.319873 -0.159971,0.47981 -0.31994,0.319874 -0.15997,0.47981 -0.159971,0.47981 v 0.47981 0.639746 0.159937 0.319873 0.47981 0.47981 l 0.159971,0.47981 0.15997,0.47981 0.31994,0.47981 0.159971,0.47981 0.31994,0.319873 0.319941,0.319874 0.31994,0.319873 0.479911,0.319873 0.31994,0.159937 0.479911,0.319873 h 0.31994 l 0.479911,0.159937 h 0.479911 0.31994 0.159971 0.47991 l 0.479911,-0.159937 h 0.31994 l 0.479911,-0.319873 0.479911,-0.159937 0.31994,-0.319873 0.319941,-0.319873 0.31994,-0.319874 0.319941,-0.319873 0.15997,-0.47981 0.319941,-0.47981 0.15997,-0.47981 0.15997,-0.47981 v -0.47981 -0.47981 z"
     style="fill:#ffffff;fill-opacity:1;fill-rule:evenodd;stroke:none" />
  <path
     id="path64"
     d="m 39.512649,50.69992 v 2.558987 h 5.119047 V 50.69992 Z M 14.077381,49.900237 h 1.119792 v 3.198733 h 6.71875 v 1.119557 h -7.838542 z m 24.315476,-0.319873 h 7.358631 v 4.7981 h -7.358631 z m -10.078125,-2.87886 h -0.479911 -0.31994 l -0.15997,0.159937 -0.319941,0.159936 -0.15997,0.159937 v 0.159937 l -0.15997,0.159936 v 0.319874 0.159936 l 0.15997,0.159937 v 0.159937 l 0.15997,0.319873 h 0.319941 l 0.15997,0.159937 h 0.31994 0.479911 0.319941 0.31994 l 0.15997,-0.159937 0.319941,-0.159937 0.15997,-0.159936 v -0.159937 l 0.15997,-0.159937 v -0.159936 -0.319874 l -0.15997,-0.159936 v -0.159937 l -0.15997,-0.159937 -0.319941,-0.159936 -0.15997,-0.159937 h -0.31994 z m 0,-1.119557 h 0.479911 l 0.31994,0.159937 0.479911,0.159937 0.479911,0.159936 0.31994,0.319874 0.319941,0.47981 0.15997,0.47981 v 0.47981 0.47981 l -0.15997,0.47981 -0.319941,0.319873 -0.31994,0.319873 -0.159971,0.159937 -0.31994,0.159937 -0.31994,0.159936 h -0.319941 -0.15997 v 0 1.43943 h 0.639881 0.799851 l 1.759673,-0.159937 v 1.119557 l -1.599703,0.159937 -1.759672,0.159936 H 27.674851 26.71503 25.595238 24.475446 v -1.279493 h 3.199405 v -1.43943 0 h -0.15997 -0.319941 l -0.31994,-0.159936 -0.479911,-0.319874 -0.31994,-0.319873 -0.319941,-0.319873 -0.15997,-0.47981 v -0.47981 -0.639747 l 0.15997,-0.319873 0.319941,-0.47981 0.31994,-0.319874 0.479911,-0.159936 0.479911,-0.159937 0.47991,-0.159937 z M 14.077381,45.422011 v 1.91924 h 3.199405 v -1.91924 z m 11.037946,-1.43943 h 6.23884 v 1.119556 h -6.23884 z m 23.835566,-1.119557 h 5.918899 v 1.279493 h -2.399554 v 0.95962 l 0.15997,0.95962 v 0.799684 l 0.319941,0.799683 0.15997,0.639747 0.479911,0.799683 0.31994,0.639747 0.639881,0.479809 0.639881,0.639747 -0.639881,0.95962 -0.479911,-0.319873 -0.47991,-0.47981 -0.319941,-0.47981 -0.47991,-0.47981 -0.319941,-0.639747 -0.31994,-0.47981 -0.159971,-0.639746 -0.15997,-0.639747 v 0.47981 l -0.15997,0.639747 -0.319941,0.639746 -0.31994,0.47981 -0.479911,0.639747 -0.479911,0.639746 -0.47991,0.47981 -0.639881,0.47981 -0.639881,-0.799683 0.799851,-0.799683 0.639881,-0.639747 0.479911,-0.639746 0.31994,-0.799684 0.319941,-0.799683 0.15997,-0.799683 0.15997,-0.95962 v -0.799684 -0.95962 h -2.239583 z m -11.677828,-0.47981 h 5.598959 v 1.119557 h -4.319197 v 1.279493 h 4.159227 v 1.119557 h -4.159227 v 1.279493 h 0.479911 0.639881 1.279762 l 1.279762,-0.159937 h 0.639881 l 0.799851,-0.159936 v 1.119556 l -0.639881,0.159937 -0.799851,0.159937 -1.599703,0.159936 H 39.032738 37.273065 Z M 12.957589,42.223278 h 1.119792 v 2.079176 h 3.199405 v -2.079176 h 1.119791 v 6.397466 h -5.438988 z m 13.59747,-0.319874 h 3.359375 v 1.279493 h -3.359375 z m 29.914435,-0.319873 h 1.119792 V 54.5384 h -1.119792 z m -11.837798,0 h 1.119792 v 2.87886 h 1.599702 v 1.279493 h -1.599702 v 3.038797 h -1.119792 z m -12.157738,0 h 1.119792 v 5.437846 h 1.759673 v 1.279494 H 33.59375 V 54.5384 h -1.119792 z m -11.837797,0 h 1.119791 v 9.436263 h -1.119791 v -3.678543 h -2.079613 v -1.279494 h 2.079613 v -1.279493 h -2.079613 v -1.279493 h 2.079613 z"
     style="fill:#ffffff;fill-opacity:1;fill-rule:evenodd;stroke:none" />
  <path
     id="path66"
     d="m 39.512649,50.69992 v 2.558987 h 5.119047 V 50.69992 h -5.119047"
     style="fill:none;stroke:#ffffff;stroke-width:0.15997024px;stroke-linecap:round;stroke-linejoin:round;stroke-miterlimit:4;stroke-dasharray:none;stroke-opacity:1" />
  <path
     id="path68"
     d="m 14.077381,49.900237 h 1.119792 v 3.198733 h 6.71875 v 1.119557 h -7.838542 v -4.31829"
     style="fill:none;stroke:#ffffff;stroke-width:0.15997024px;stroke-linecap:round;stroke-linejoin:round;stroke-miterlimit:4;stroke-dasharray:none;stroke-opacity:1" />
  <path
     id="path70"
     d="m 38.392857,49.580364 h 7.358631 v 4.7981 h -7.358631 v -4.7981"
     style="fill:none;stroke:#ffffff;stroke-width:0.15997024px;stroke-linecap:round;stroke-linejoin:round;stroke-miterlimit:4;stroke-dasharray:none;stroke-opacity:1" />
  <path
     id="path72"
     d="m 28.314732,46.701504 h -0.479911 -0.31994 l -0.15997,0.159937 -0.319941,0.159936 -0.15997,0.159937 v 0.159937 l -0.15997,0.159936 v 0.319874 0.159936 l 0.15997,0.159937 v 0.159937 l 0.15997,0.319873 h 0.319941 l 0.15997,0.159937 h 0.31994 0.479911 0.319941 0.31994 l 0.15997,-0.159937 0.319941,-0.159937 0.15997,-0.159936 v -0.159937 l 0.15997,-0.159937 v -0.159936 -0.319874 l -0.15997,-0.159936 v -0.159937 l -0.15997,-0.159937 -0.319941,-0.159936 -0.15997,-0.159937 h -0.31994 -0.319941 v 0"
     style="fill:none;stroke:#ffffff;stroke-width:0.15997024px;stroke-linecap:round;stroke-linejoin:round;stroke-miterlimit:4;stroke-dasharray:none;stroke-opacity:1" />
  <path
     id="path74"
     d="m 28.314732,45.581947 h 0.479911 l 0.31994,0.159937 0.479911,0.159937 0.479911,0.159936 0.31994,0.319874 0.319941,0.47981 0.15997,0.47981 v 0.47981 0.47981 l -0.15997,0.47981 -0.319941,0.319873 -0.31994,0.319873 -0.159971,0.159937 -0.31994,0.159937 -0.31994,0.159936 h -0.319941 -0.15997 v 0 1.43943 h 0.639881 0.799851 l 1.759673,-0.159937 v 1.119557 l -1.599703,0.159937 -1.759672,0.159936 H 27.674851 26.71503 25.595238 24.475446 v -1.279493 h 3.199405 v -1.43943 0 h -0.15997 -0.319941 l -0.31994,-0.159936 -0.479911,-0.319874 -0.31994,-0.319873 -0.319941,-0.319873 -0.15997,-0.47981 v -0.47981 -0.639747 l 0.15997,-0.319873 0.319941,-0.47981 0.31994,-0.319874 0.479911,-0.159936 0.479911,-0.159937 0.47991,-0.159937 h 0.479911 v 0"
     style="fill:none;stroke:#ffffff;stroke-width:0.15997024px;stroke-linecap:round;stroke-linejoin:round;stroke-miterlimit:4;stroke-dasharray:none;stroke-opacity:1" />
  <path
     id="path76"
     d="m 14.077381,45.422011 v 1.91924 h 3.199405 v -1.91924 h -3.199405"
     style="fill:none;stroke:#ffffff;stroke-width:0.15997024px;stroke-linecap:round;stroke-linejoin:round;stroke-miterlimit:4;stroke-dasharray:none;stroke-opacity:1" />
  <path
     id="path78"
     d="m 25.115327,43.982581 h 6.23884 v 1.119556 h -6.23884 v -1.119556"
     style="fill:none;stroke:#ffffff;stroke-width:0.15997024px;stroke-linecap:round;stroke-linejoin:round;stroke-miterlimit:4;stroke-dasharray:none;stroke-opacity:1" />
  <path
     id="path80"
     d="m 48.950893,42.863024 h 5.918899 v 1.279493 h -2.399554 v 0.95962 l 0.15997,0.95962 v 0.799684 l 0.319941,0.799683 0.15997,0.639747 0.479911,0.799683 0.31994,0.639747 0.639881,0.479809 0.639881,0.639747 -0.639881,0.95962 -0.479911,-0.319873 -0.47991,-0.47981 -0.319941,-0.47981 -0.47991,-0.47981 -0.319941,-0.639747 -0.31994,-0.47981 -0.159971,-0.639746 -0.15997,-0.639747 v 0.47981 l -0.15997,0.639747 -0.319941,0.639746 -0.31994,0.47981 -0.479911,0.639747 -0.479911,0.639746 -0.47991,0.47981 -0.639881,0.47981 -0.639881,-0.799683 0.799851,-0.799683 0.639881,-0.639747 0.479911,-0.639746 0.31994,-0.799684 0.319941,-0.799683 0.15997,-0.799683 0.15997,-0.95962 v -0.799684 -0.95962 h -2.239583 v -1.279493"
     style="fill:none;stroke:#ffffff;stroke-width:0.15997024px;stroke-linecap:round;stroke-linejoin:round;stroke-miterlimit:4;stroke-dasharray:none;stroke-opacity:1" />
  <path
     id="path82"
     d="m 37.273065,42.383214 h 5.598959 v 1.119557 h -4.319197 v 1.279493 h 4.159227 v 1.119557 h -4.159227 v 1.279493 h 0.479911 0.639881 1.279762 l 1.279762,-0.159937 h 0.639881 l 0.799851,-0.159936 v 1.119556 l -0.639881,0.159937 -0.799851,0.159937 -1.599703,0.159936 h -1.599702 -1.759673 v -6.077593"
     style="fill:none;stroke:#ffffff;stroke-width:0.15997024px;stroke-linecap:round;stroke-linejoin:round;stroke-miterlimit:4;stroke-dasharray:none;stroke-opacity:1" />
  <path
     id="path84"
     d="m 12.957589,42.223278 h 1.119792 v 2.079176 h 3.199405 v -2.079176 h 1.119791 v 6.397466 h -5.438988 v -6.397466"
     style="fill:none;stroke:#ffffff;stroke-width:0.15997024px;stroke-linecap:round;stroke-linejoin:round;stroke-miterlimit:4;stroke-dasharray:none;stroke-opacity:1" />
  <path
     id="path86"
     d="m 26.555059,41.903404 h 3.359375 v 1.279493 h -3.359375 v -1.279493"
     style="fill:none;stroke:#ffffff;stroke-width:0.15997024px;stroke-linecap:round;stroke-linejoin:round;stroke-miterlimit:4;stroke-dasharray:none;stroke-opacity:1" />
  <path
     id="path88"
     d="m 56.469494,41.583531 h 1.119792 V 54.5384 H 56.469494 V 41.583531"
     style="fill:none;stroke:#ffffff;stroke-width:0.15997024px;stroke-linecap:round;stroke-linejoin:round;stroke-miterlimit:4;stroke-dasharray:none;stroke-opacity:1" />
  <path
     id="path90"
     d="m 44.631696,41.583531 h 1.119792 v 2.87886 h 1.599702 v 1.279493 h -1.599702 v 3.038797 h -1.119792 v -7.19715"
     style="fill:none;stroke:#ffffff;stroke-width:0.15997024px;stroke-linecap:round;stroke-linejoin:round;stroke-miterlimit:4;stroke-dasharray:none;stroke-opacity:1" />
  <path
     id="path92"
     d="m 32.473958,41.583531 h 1.119792 v 5.437846 h 1.759673 v 1.279494 H 33.59375 V 54.5384 H 32.473958 V 41.583531"
     style="fill:none;stroke:#ffffff;stroke-width:0.15997024px;stroke-linecap:round;stroke-linejoin:round;stroke-miterlimit:4;stroke-dasharray:none;stroke-opacity:1" />
  <path
     id="path94"
     d="m 20.636161,41.583531 h 1.119791 v 9.436263 h -1.119791 v -3.678543 h -2.079613 v -1.279494 h 2.079613 v -1.279493 h -2.079613 v -1.279493 h 2.079613 v -1.91924"
     style="fill:none;stroke:#ffffff;stroke-width:0.15997024px;stroke-linecap:round;stroke-linejoin:round;stroke-miterlimit:4;stroke-dasharray:none;stroke-opacity:1" />
</svg>
