<?xml version="1.0" encoding="utf-8"?>
<!-- Generator: Adobe Illustrator 16.0.0, SVG Export Plug-In . SVG Version: 6.00 Build 0)  -->
<!DOCTYPE svg PUBLIC "-//W3C//DTD SVG 1.1//EN" "http://www.w3.org/Graphics/SVG/1.1/DTD/svg11.dtd">
<svg version="1.1" id="Layer_1" xmlns="http://www.w3.org/2000/svg" xmlns:xlink="http://www.w3.org/1999/xlink" x="0px" y="0px"
	 width="70px" height="65px" viewBox="0 0 70 65" enable-background="new 0 0 70 65" xml:space="preserve">
<rect x="-0.3" y="-0.3" fill="#3185C6" width="70.701" height="65.5"/>
<g>
	<rect x="1" y="1" opacity="0.9" fill="#489ED3" enable-background="new    " width="68" height="1.1"/>
	<rect x="1" y="1" opacity="0.9" fill="#489ED3" enable-background="new    " width="1.1" height="63"/>
	<rect x="1" y="62.9" opacity="0.9" fill="#489ED3" enable-background="new    " width="68" height="1.1"/>
	<rect x="68" y="1" opacity="0.9" fill="#489ED3" enable-background="new    " width="1.1" height="63"/>
</g>
<rect x="2.1" y="2.1" fill="#3993CA" width="65.9" height="60.9"/>
<text transform="matrix(0.8506 0 0 1 12.4565 52.0889)" fill="#FFFFFF" font-family="'HUJingo242'" font-size="14.1079">지적통계</text>
<g>
	<g>
		<g>
			<polygon fill="#FFFFFF" points="42.434,6.123 42.434,7.813 45.467,7.813 38.359,14.92 31.19,7.75 21.578,17.363 22.773,18.559 
				31.19,10.142 38.359,17.311 46.662,9.009 46.662,12.041 48.354,12.041 48.354,6.123 			"/>
		</g>
	</g>
	<g>
		<g>
			<rect x="21.33" y="23.877" fill="#FFFFFF" width="5.479" height="9.792"/>
		</g>
	</g>
	<g>
		<g>
			<rect x="28.5" y="15.186" fill="#FFFFFF" width="5.478" height="18.486"/>
		</g>
	</g>
	<g>
		<g>
			<rect x="35.67" y="20.351" fill="#FFFFFF" width="5.477" height="13.321"/>
		</g>
	</g>
	<g>
		<g>
			<rect x="42.895" y="15.186" fill="#FFFFFF" width="5.479" height="18.486"/>
		</g>
	</g>
</g>
</svg>
