<?xml version="1.0" encoding="utf-8"?>
<!-- Generator: Adobe Illustrator 19.0.0, SVG Export Plug-In . SVG Version: 6.00 Build 0)  -->
<svg version="1.1" xmlns="http://www.w3.org/2000/svg" xmlns:xlink="http://www.w3.org/1999/xlink" x="0px" y="0px"
	 viewBox="0 0 70.7 65.5" enable-background="new 0 0 70.7 65.5" xml:space="preserve">
<g id="Layer_1">
</g>
<g id="DEM">
	<g id="nov14_x5F_on">
		<rect x="0" fill="#3084B9" width="70.7" height="65.5"/>
		<g>
			<rect x="1.3" y="1.2" opacity="0.9" fill="#479DC6" enable-background="new    " width="68" height="1.1"/>
			<rect x="1.3" y="1.2" opacity="0.9" fill="#479DC6" enable-background="new    " width="1.1" height="63"/>
			<rect x="1.3" y="63.2" opacity="0.9" fill="#479DC6" enable-background="new    " width="68" height="1.1"/>
			<rect x="68.3" y="1.2" opacity="0.9" fill="#479DC6" enable-background="new    " width="1.1" height="63"/>
		</g>
		<rect x="2.4" y="2.3" opacity="0.9" fill="#3892C2" enable-background="new    " width="65.9" height="60.9"/>
		<text transform="matrix(0.8506 0 0 1 11.8618 52.4765)" fill="#FFFFFF" font-family="'HUJingo242'" font-size="14.1079px">지적원도</text>
		<g>
			<rect x="19" y="10" fill="#FFFFFF" width="32.6" height="24.2"/>
			<path id="지적" fill="#34609F" d="M30.6,11.8h-8.9c-0.4,0-0.7,0.3-0.7,0.7v19.2c0,0.4,0.3,0.7,0.7,0.7H49
				c0.4,0,0.7-0.3,0.7-0.7V12.5c0-0.4-0.3-0.7-0.7-0.7h-8.9 M32.7,31l2.1-2.1l2.5-1.1L37,31H32.7z M29.5,31l-2-5.7l5.1-2.2l1.1,5
				l-3,2.9H29.5z M22.3,20.9l3.1,3.7L22.3,26V20.9z M23.7,20.3l5.5-3.4l2.8,4.8L26.8,24L23.7,20.3z M32.3,13.2L29.7,15l-1-1.8
				 M35.3,13.2l5.8,0l0.6,4.6l-8.4,3.4l-2.9-5 M42.6,23.9l-7.7,3.4l-1.1-4.8l8.1-3.3L42.6,23.9z M38.8,27.2l4.1-1.8l0.8,5.6h-5.2
				L38.8,27.2z M43.3,18.7l5-2v8.6L44,24L43.3,18.7z M48.3,15.2l-5.2,2.1l-0.5-4h5.8V15.2z M31.9,12 M38.8,12 M27.1,13.2l1.5,2.5
				l-5.8,3.5l-0.4-0.5v-5.5H27.1z M22.3,27.5l3.9-1.7l1.8,5.2h-5.7L22.3,27.5z M45,31l-0.7-5.4l4.1,1.2V31H45z"/>
		</g>
	</g>
</g>
</svg>
