<?xml version="1.0" encoding="UTF-8" standalone="no"?>
<svg
   xmlns:dc="http://purl.org/dc/elements/1.1/"
   xmlns:cc="http://creativecommons.org/ns#"
   xmlns:rdf="http://www.w3.org/1999/02/22-rdf-syntax-ns#"
   xmlns:svg="http://www.w3.org/2000/svg"
   xmlns="http://www.w3.org/2000/svg"
   id="svg151"
   height="17.432682mm"
   width="18.623201mm"
   version="1.0">
  <metadata
     id="metadata155">
    <rdf:RDF>
      <cc:Work
         rdf:about="">
        <dc:format>image/svg+xml</dc:format>
        <dc:type
           rdf:resource="http://purl.org/dc/dcmitype/StillImage" />
        <dc:title></dc:title>
      </cc:Work>
    </rdf:RDF>
  </metadata>
  <defs
     id="defs103">
    <pattern
       y="0"
       x="0"
       height="6"
       width="6"
       patternUnits="userSpaceOnUse"
       id="WMFhbasepattern" />
  </defs>
  <path
     id="path105"
     d="M 0,0 V 65.887301 H 70.386905 V 0 Z"
     style="fill:#3185c6;fill-opacity:1;fill-rule:evenodd;stroke:none" />
  <path
     id="path107"
     d="M 1.4397321,1.2793651 V 2.3988096 H 68.947173 V 1.2793651 Z"
     style="fill:#489ed3;fill-opacity:1;fill-rule:evenodd;stroke:none" />
  <path
     id="path109"
     d="M 1.4397321,1.2793651 V 64.448015 H 2.3995536 V 1.2793651 Z"
     style="fill:#489ed3;fill-opacity:1;fill-rule:evenodd;stroke:none" />
  <path
     id="path111"
     d="m 1.4397321,63.488492 v 0.959523 H 68.947173 v -0.959523 z"
     style="fill:#489ed3;fill-opacity:1;fill-rule:evenodd;stroke:none" />
  <path
     id="path113"
     d="M 67.827381,1.2793651 V 64.448015 h 1.119792 V 1.2793651 Z"
     style="fill:#489ed3;fill-opacity:1;fill-rule:evenodd;stroke:none" />
  <path
     id="path115"
     d="M 2.3995536,2.3988096 V 63.488492 H 67.987351 V 2.3988096 Z"
     style="fill:#3993ca;fill-opacity:1;fill-rule:evenodd;stroke:none" />
  <path
     id="path117"
     d="m 48.470982,23.028571 5.918899,13.593254 v 0.159921 l 0.15997,0.15992 v 0.159921 l -0.15997,0.15992 v 0.159921 l -0.15997,0.159921 H 54.06994 l -0.15997,0.15992 H 53.75 16.476934 16.316964 l -0.15997,-0.15992 h -0.15997 l -0.15997,-0.159921 v -0.159921 -0.15992 -0.159921 -0.15992 -0.159921 l 5.918898,-13.593254 h 0.159971 V 22.86865 l 0.15997,-0.15992 h 0.15997 0.15997 5.119048 0.15997 l 0.15997,0.15992 h 0.159971 l 0.47991,0.799604 0.479911,0.639682 0.639881,0.479762 0.479911,0.639682 h -6.078869 -0.159971 l -0.15997,0.159921 h -0.15997 v 0.159921 l -0.15997,0.15992 -3.839286,8.955556 H 50.870536 L 46.87128,25.907142 v -0.15992 l -0.159971,-0.159921 h -0.15997 l -0.15997,-0.159921 h -0.15997 -6.078869 l 0.47991,-0.639682 0.639881,-0.479762 0.479911,-0.639682 0.479911,-0.799604 h 0.15997 l 0.15997,-0.15992 h 0.159971 5.119047 0.15997 0.159971 l 0.15997,0.15992 v 0.159921 z m -4.639137,-9.275397 v 0.479762 0.639683 0.639682 l -0.15997,0.479762 -0.15997,0.639683 v 0.479761 l -0.319941,0.799604 -0.47991,0.959523 -0.479911,0.959524 -0.479911,0.799603 -0.639881,0.799604 -0.959821,1.279365 -1.119792,1.279365 -0.639881,0.799603 -0.639881,0.959524 -0.639881,0.959524 -0.639881,1.119444 -0.47991,1.279365 -0.319941,0.639683 v 0.15992 l -0.15997,0.159921 h -0.15997 L 35.193452,30.225 h -0.15997 l -0.15997,-0.159921 h -0.15997 l -0.159971,-0.159921 v -0.15992 L 34.233631,29.105555 33.75372,27.986111 33.273809,27.026587 32.633929,26.067063 32.154018,25.26746 31.514137,24.467857 30.554315,23.188492 29.434524,21.749206 28.474702,20.629761 27.994792,19.990079 27.514881,19.190476 27.19494,18.230952 26.875,17.271428 26.555059,16.311904 v -0.479762 l -0.15997,-0.479762 v -1.119444 -0.959524 l 0.15997,-1.119444 0.159971,-0.959524 0.31994,-0.959524 0.319941,-0.9595231 0.47991,-0.7996032 0.479911,-0.7996032 0.639881,-0.7996032 0.639881,-0.6396825 0.799851,-0.6396825 0.799851,-0.4797619 0.799852,-0.3198413 0.799851,-0.3198413 0.959821,-0.3198413 h 0.479911 0.479911 0.959821 0.959821 l 0.959822,0.3198413 0.799851,0.3198413 0.799851,0.4797619 0.799851,0.4797619 0.639881,0.4797619 0.799852,0.7996032 0.47991,0.6396825 0.639881,0.7996032 0.319941,0.9595238 0.47991,0.7996025 0.159971,0.959524 0.31994,1.119444 v 0.959524 z m -4.159226,0 v -0.15992 -0.639683 -0.479762 l -0.15997,-0.479762 -0.15997,-0.479762 -0.319941,-0.319841 -0.15997,-0.479762 L 38.552827,10.394841 38.232887,10.075 37.912946,9.7551585 37.593006,9.4353175 37.113095,9.1154762 36.633184,8.9555556 36.313244,8.795635 h -0.479911 l -0.47991,-0.1599207 h -0.159971 -0.31994 L 34.393601,8.795635 H 33.91369 l -0.31994,0.1599206 -0.479911,0.1599206 -0.31994,0.3198413 -0.479911,0.319841 -0.31994,0.3198415 -0.319941,0.319841 -0.31994,0.319841 -0.159971,0.479762 -0.31994,0.319841 -0.15997,0.479762 -0.159971,0.479762 v 0.479762 0.639683 0.15992 0.319841 0.479762 0.479762 l 0.159971,0.479762 0.15997,0.479762 0.31994,0.479762 0.159971,0.479762 0.31994,0.319841 0.319941,0.319841 0.31994,0.319842 0.479911,0.319841 0.31994,0.159921 0.479911,0.319841 h 0.31994 l 0.479911,0.15992 h 0.479911 0.31994 0.159971 0.47991 l 0.479911,-0.15992 h 0.31994 l 0.479911,-0.319841 0.479911,-0.159921 0.31994,-0.319841 0.319941,-0.319842 0.31994,-0.319841 0.319941,-0.319841 0.15997,-0.479762 0.319941,-0.479762 0.15997,-0.479762 0.15997,-0.479762 v -0.479762 -0.479762 z"
     style="fill:#ffffff;fill-opacity:1;fill-rule:evenodd;stroke:none" />
  <path
     id="path119"
     d="m 39.512649,50.854761 v 2.558731 h 5.119047 V 50.854761 Z M 14.077381,50.055158 h 1.119792 v 3.198413 h 6.71875 v 1.119444 h -7.838542 z m 24.315476,-0.319841 h 7.358631 v 4.797619 H 38.392857 Z M 28.314732,46.856746 h -0.479911 -0.31994 l -0.15997,0.15992 -0.319941,0.159921 -0.15997,0.15992 v 0.159921 l -0.15997,0.159921 v 0.319841 0.159921 l 0.15997,0.15992 v 0.159921 l 0.15997,0.319841 h 0.319941 l 0.15997,0.159921 h 0.31994 0.479911 0.319941 0.31994 l 0.15997,-0.159921 0.319941,-0.15992 0.15997,-0.159921 v -0.159921 l 0.15997,-0.15992 V 47.97619 47.656349 l -0.15997,-0.159921 v -0.159921 l -0.15997,-0.15992 -0.319941,-0.159921 -0.15997,-0.15992 h -0.31994 z m 0,-1.119445 h 0.479911 l 0.31994,0.159921 0.479911,0.15992 0.479911,0.159921 0.31994,0.319841 0.319941,0.479762 0.15997,0.479762 v 0.479762 0.479762 l -0.15997,0.479762 -0.319941,0.319841 -0.31994,0.319841 -0.159971,0.159921 -0.31994,0.159921 -0.31994,0.15992 h -0.319941 -0.15997 v 0 1.439286 h 0.639881 0.799851 l 1.759673,-0.159921 v 1.119445 l -1.599703,0.15992 -1.759672,0.159921 H 27.674851 26.71503 25.595238 24.475446 v -1.279365 h 3.199405 v -1.439286 0 h -0.15997 -0.319941 l -0.31994,-0.15992 -0.479911,-0.319842 -0.31994,-0.319841 -0.319941,-0.319841 -0.15997,-0.479762 V 47.97619 47.336507 l 0.15997,-0.319841 0.319941,-0.479762 0.31994,-0.319841 0.479911,-0.159921 0.479911,-0.15992 0.47991,-0.159921 z M 14.077381,45.57738 v 1.919048 h 3.199405 V 45.57738 Z m 11.037946,-1.439285 h 6.23884 v 1.119444 h -6.23884 z M 48.950893,43.01865 h 5.918899 v 1.279365 h -2.399554 v 0.959524 l 0.15997,0.959524 v 0.799603 l 0.319941,0.799603 0.15997,0.639683 0.479911,0.799603 0.31994,0.639683 0.639881,0.479762 0.639881,0.639682 -0.639881,0.959524 -0.479911,-0.319841 -0.47991,-0.479762 -0.319941,-0.479762 -0.47991,-0.479762 -0.319941,-0.639683 -0.31994,-0.479762 -0.159971,-0.639682 -0.15997,-0.639683 v 0.479762 l -0.15997,0.639683 -0.319941,0.639682 -0.31994,0.479762 -0.479911,0.639683 -0.479911,0.639682 -0.47991,0.479762 -0.639881,0.479762 -0.639881,-0.799603 0.799851,-0.799603 0.639881,-0.639683 0.479911,-0.639682 0.31994,-0.799603 0.319941,-0.799604 0.15997,-0.799603 0.15997,-0.959524 V 45.257539 44.298015 H 48.950893 Z M 37.273065,42.538888 h 5.598959 v 1.119445 h -4.319197 v 1.279365 h 4.159227 v 1.119444 h -4.159227 v 1.279365 h 0.479911 0.639881 1.279762 l 1.279762,-0.15992 h 0.639881 l 0.799851,-0.159921 v 1.119445 l -0.639881,0.15992 -0.799851,0.159921 -1.599703,0.159921 h -1.599702 -1.759673 z m -24.315476,-0.15992 h 1.119792 v 2.078968 h 3.199405 v -2.078968 h 1.119791 v 6.396825 h -5.438988 z m 13.59747,-0.319841 h 3.359375 v 1.279365 h -3.359375 z m 29.914435,-0.319842 h 1.119792 v 12.953572 h -1.119792 z m -11.837798,0 h 1.119792 v 2.878572 h 1.599702 v 1.279365 h -1.599702 v 3.038492 h -1.119792 z m -12.157738,0 h 1.119792 v 5.437302 h 1.759673 v 1.279365 H 33.59375 v 6.236905 h -1.119792 z m -11.837797,0 h 1.119791 v 9.435318 h -1.119791 v -3.678175 h -2.079613 v -1.279365 h 2.079613 v -1.279365 h -2.079613 v -1.279365 h 2.079613 z"
     style="fill:#ffffff;fill-opacity:1;fill-rule:evenodd;stroke:none" />
  <path
     id="path121"
     d="m 39.512649,50.854761 v 2.558731 h 5.119047 v -2.558731 h -5.119047"
     style="fill:none;stroke:#ffffff;stroke-width:0.15997024px;stroke-linecap:round;stroke-linejoin:round;stroke-miterlimit:4;stroke-dasharray:none;stroke-opacity:1" />
  <path
     id="path123"
     d="m 14.077381,50.055158 h 1.119792 v 3.198413 h 6.71875 v 1.119444 h -7.838542 v -4.317857"
     style="fill:none;stroke:#ffffff;stroke-width:0.15997024px;stroke-linecap:round;stroke-linejoin:round;stroke-miterlimit:4;stroke-dasharray:none;stroke-opacity:1" />
  <path
     id="path125"
     d="m 38.392857,49.735317 h 7.358631 v 4.797619 h -7.358631 v -4.797619"
     style="fill:none;stroke:#ffffff;stroke-width:0.15997024px;stroke-linecap:round;stroke-linejoin:round;stroke-miterlimit:4;stroke-dasharray:none;stroke-opacity:1" />
  <path
     id="path127"
     d="m 28.314732,46.856746 h -0.479911 -0.31994 l -0.15997,0.15992 -0.319941,0.159921 -0.15997,0.15992 v 0.159921 l -0.15997,0.159921 v 0.319841 0.159921 l 0.15997,0.15992 v 0.159921 l 0.15997,0.319841 h 0.319941 l 0.15997,0.159921 h 0.31994 0.479911 0.319941 0.31994 l 0.15997,-0.159921 0.319941,-0.15992 0.15997,-0.159921 v -0.159921 l 0.15997,-0.15992 V 47.97619 47.656349 l -0.15997,-0.159921 v -0.159921 l -0.15997,-0.15992 -0.319941,-0.159921 -0.15997,-0.15992 h -0.31994 -0.319941 v 0"
     style="fill:none;stroke:#ffffff;stroke-width:0.15997024px;stroke-linecap:round;stroke-linejoin:round;stroke-miterlimit:4;stroke-dasharray:none;stroke-opacity:1" />
  <path
     id="path129"
     d="m 28.314732,45.737301 h 0.479911 l 0.31994,0.159921 0.479911,0.15992 0.479911,0.159921 0.31994,0.319841 0.319941,0.479762 0.15997,0.479762 v 0.479762 0.479762 l -0.15997,0.479762 -0.319941,0.319841 -0.31994,0.319841 -0.159971,0.159921 -0.31994,0.159921 -0.31994,0.15992 h -0.319941 -0.15997 v 0 1.439286 h 0.639881 0.799851 l 1.759673,-0.159921 v 1.119445 l -1.599703,0.15992 -1.759672,0.159921 H 27.674851 26.71503 25.595238 24.475446 v -1.279365 h 3.199405 v -1.439286 0 h -0.15997 -0.319941 l -0.31994,-0.15992 -0.479911,-0.319842 -0.31994,-0.319841 -0.319941,-0.319841 -0.15997,-0.479762 V 47.97619 47.336507 l 0.15997,-0.319841 0.319941,-0.479762 0.31994,-0.319841 0.479911,-0.159921 0.479911,-0.15992 0.47991,-0.159921 h 0.479911 v 0"
     style="fill:none;stroke:#ffffff;stroke-width:0.15997024px;stroke-linecap:round;stroke-linejoin:round;stroke-miterlimit:4;stroke-dasharray:none;stroke-opacity:1" />
  <path
     id="path131"
     d="m 14.077381,45.57738 v 1.919048 h 3.199405 V 45.57738 h -3.199405"
     style="fill:none;stroke:#ffffff;stroke-width:0.15997024px;stroke-linecap:round;stroke-linejoin:round;stroke-miterlimit:4;stroke-dasharray:none;stroke-opacity:1" />
  <path
     id="path133"
     d="m 25.115327,44.138095 h 6.23884 v 1.119444 h -6.23884 v -1.119444"
     style="fill:none;stroke:#ffffff;stroke-width:0.15997024px;stroke-linecap:round;stroke-linejoin:round;stroke-miterlimit:4;stroke-dasharray:none;stroke-opacity:1" />
  <path
     id="path135"
     d="m 48.950893,43.01865 h 5.918899 v 1.279365 h -2.399554 v 0.959524 l 0.15997,0.959524 v 0.799603 l 0.319941,0.799603 0.15997,0.639683 0.479911,0.799603 0.31994,0.639683 0.639881,0.479762 0.639881,0.639682 -0.639881,0.959524 -0.479911,-0.319841 -0.47991,-0.479762 -0.319941,-0.479762 -0.47991,-0.479762 -0.319941,-0.639683 -0.31994,-0.479762 -0.159971,-0.639682 -0.15997,-0.639683 v 0.479762 l -0.15997,0.639683 -0.319941,0.639682 -0.31994,0.479762 -0.479911,0.639683 -0.479911,0.639682 -0.47991,0.479762 -0.639881,0.479762 -0.639881,-0.799603 0.799851,-0.799603 0.639881,-0.639683 0.479911,-0.639682 0.31994,-0.799603 0.319941,-0.799604 0.15997,-0.799603 0.15997,-0.959524 V 45.257539 44.298015 H 48.950893 V 43.01865"
     style="fill:none;stroke:#ffffff;stroke-width:0.15997024px;stroke-linecap:round;stroke-linejoin:round;stroke-miterlimit:4;stroke-dasharray:none;stroke-opacity:1" />
  <path
     id="path137"
     d="m 37.273065,42.538888 h 5.598959 v 1.119445 h -4.319197 v 1.279365 h 4.159227 v 1.119444 h -4.159227 v 1.279365 h 0.479911 0.639881 1.279762 l 1.279762,-0.15992 h 0.639881 l 0.799851,-0.159921 v 1.119445 l -0.639881,0.15992 -0.799851,0.159921 -1.599703,0.159921 h -1.599702 -1.759673 v -6.076985"
     style="fill:none;stroke:#ffffff;stroke-width:0.15997024px;stroke-linecap:round;stroke-linejoin:round;stroke-miterlimit:4;stroke-dasharray:none;stroke-opacity:1" />
  <path
     id="path139"
     d="m 12.957589,42.378968 h 1.119792 v 2.078968 h 3.199405 v -2.078968 h 1.119791 v 6.396825 h -5.438988 v -6.396825"
     style="fill:none;stroke:#ffffff;stroke-width:0.15997024px;stroke-linecap:round;stroke-linejoin:round;stroke-miterlimit:4;stroke-dasharray:none;stroke-opacity:1" />
  <path
     id="path141"
     d="m 26.555059,42.059127 h 3.359375 v 1.279365 h -3.359375 v -1.279365"
     style="fill:none;stroke:#ffffff;stroke-width:0.15997024px;stroke-linecap:round;stroke-linejoin:round;stroke-miterlimit:4;stroke-dasharray:none;stroke-opacity:1" />
  <path
     id="path143"
     d="m 56.469494,41.739285 h 1.119792 V 54.692857 H 56.469494 V 41.739285"
     style="fill:none;stroke:#ffffff;stroke-width:0.15997024px;stroke-linecap:round;stroke-linejoin:round;stroke-miterlimit:4;stroke-dasharray:none;stroke-opacity:1" />
  <path
     id="path145"
     d="m 44.631696,41.739285 h 1.119792 v 2.878572 h 1.599702 v 1.279365 h -1.599702 v 3.038492 h -1.119792 v -7.196429"
     style="fill:none;stroke:#ffffff;stroke-width:0.15997024px;stroke-linecap:round;stroke-linejoin:round;stroke-miterlimit:4;stroke-dasharray:none;stroke-opacity:1" />
  <path
     id="path147"
     d="m 32.473958,41.739285 h 1.119792 v 5.437302 h 1.759673 v 1.279365 H 33.59375 v 6.236905 H 32.473958 V 41.739285"
     style="fill:none;stroke:#ffffff;stroke-width:0.15997024px;stroke-linecap:round;stroke-linejoin:round;stroke-miterlimit:4;stroke-dasharray:none;stroke-opacity:1" />
  <path
     id="path149"
     d="m 20.636161,41.739285 h 1.119791 v 9.435318 h -1.119791 v -3.678175 h -2.079613 v -1.279365 h 2.079613 v -1.279365 h -2.079613 v -1.279365 h 2.079613 v -1.919048"
     style="fill:none;stroke:#ffffff;stroke-width:0.15997024px;stroke-linecap:round;stroke-linejoin:round;stroke-miterlimit:4;stroke-dasharray:none;stroke-opacity:1" />
</svg>
