<?xml version="1.0" encoding="UTF-8" standalone="no"?>
<svg
   xmlns:dc="http://purl.org/dc/elements/1.1/"
   xmlns:cc="http://creativecommons.org/ns#"
   xmlns:rdf="http://www.w3.org/1999/02/22-rdf-syntax-ns#"
   xmlns:svg="http://www.w3.org/2000/svg"
   xmlns="http://www.w3.org/2000/svg"
   id="svg134"
   height="17.434429mm"
   width="18.623201mm"
   version="1.0">
  <metadata
     id="metadata138">
    <rdf:RDF>
      <cc:Work
         rdf:about="">
        <dc:format>image/svg+xml</dc:format>
        <dc:type
           rdf:resource="http://purl.org/dc/dcmitype/StillImage" />
        <dc:title></dc:title>
      </cc:Work>
    </rdf:RDF>
  </metadata>
  <defs
     id="defs78">
    <pattern
       y="0"
       x="0"
       height="6"
       width="6"
       patternUnits="userSpaceOnUse"
       id="WMFhbasepattern" />
  </defs>
  <path
     id="path80"
     d="M 0,0 V 65.893903 H 70.386905 V 0 Z"
     style="fill:#767676;fill-opacity:1;fill-rule:evenodd;stroke:none" />
  <path
     id="path82"
     d="M 0.31994048,0.31987332 V 1.43943 H 70.226934 V 0.31987332 Z"
     style="fill:#7a7b7b;fill-opacity:1;fill-rule:evenodd;stroke:none" />
  <path
     id="path84"
     d="M 69.107143,0.31987332 V 65.733966 h 0.959821 V 0.31987332 Z"
     style="fill:#7a7b7b;fill-opacity:1;fill-rule:evenodd;stroke:none" />
  <path
     id="path86"
     d="M 2.3995536,2.3990499 V 63.814726 H 67.987351 V 2.3990499 Z"
     style="fill:#767676;fill-opacity:1;fill-rule:evenodd;stroke:none" />
  <path
     id="path88"
     d="m 22.715774,11.675376 v -0.639747 l 0.15997,-0.47981 0.31994,-0.47981 0.319941,-0.4798096 0.479911,-0.3198732 0.47991,-0.3198733 0.479911,-0.1599366 h 0.639881 19.036458 0.639881 l 0.479911,0.1599366 0.639881,0.3198733 0.31994,0.3198732 0.319941,0.4798096 0.31994,0.47981 0.159971,0.47981 0.15997,0.639747 v 22.551069 l -0.15997,0.639746 -0.159971,0.47981 -0.31994,0.639747 -0.319941,0.319873 -0.31994,0.319873 -0.639881,0.319874 -0.479911,0.159936 -0.639881,0.159937 H 25.595238 l -0.639881,-0.159937 -0.479911,-0.159936 -0.47991,-0.319874 -0.479911,-0.319873 -0.319941,-0.319873 -0.31994,-0.639747 -0.15997,-0.47981 v -0.639746 z"
     style="fill:#4d9ed6;fill-opacity:1;fill-rule:evenodd;stroke:none" />
  <path
     id="path90"
     d="m 40.63244,24.950118 h -10.718006 -0.31994 l -0.31994,0.159937 -0.319941,0.319873 -0.15997,0.319874 v 0.319873 6.557403 0.319873 l 0.15997,0.319874 0.319941,0.319873 0.31994,0.319873 h 0.31994 10.718006 0.159971 l 0.47991,-0.319873 0.319941,-0.319873 0.15997,-0.319874 v -0.319873 -6.557403 -0.319873 l -0.15997,-0.319874 -0.319941,-0.319873 -0.47991,-0.159937 z"
     style="fill:#767676;fill-opacity:1;fill-rule:evenodd;stroke:none" />
  <path
     id="path92"
     d="m 24.795387,17.273159 v 2.39905 h 2.239583 v -2.39905 z"
     style="fill:#767676;fill-opacity:1;fill-rule:evenodd;stroke:none" />
  <path
     id="path94"
     d="m 24.795387,12.634996 v 2.39905 h 2.239583 v -2.39905 z"
     style="fill:#767676;fill-opacity:1;fill-rule:evenodd;stroke:none" />
  <path
     id="path96"
     d="m 24.795387,31.187648 v 2.558987 h 2.239583 v -2.558987 z"
     style="fill:#767676;fill-opacity:1;fill-rule:evenodd;stroke:none" />
  <path
     id="path98"
     d="m 24.795387,26.549485 v 2.558987 h 2.239583 v -2.558987 z"
     style="fill:#767676;fill-opacity:1;fill-rule:evenodd;stroke:none" />
  <path
     id="path100"
     d="m 24.795387,21.911322 v 2.558986 h 2.239583 v -2.558986 z"
     style="fill:#767676;fill-opacity:1;fill-rule:evenodd;stroke:none" />
  <path
     id="path102"
     d="m 40.63244,12.315122 h -10.718006 -0.31994 l -0.31994,0.159937 -0.319941,0.319873 -0.15997,0.319874 v 0.319873 6.557403 0.319873 l 0.15997,0.319874 0.319941,0.319873 0.31994,0.319873 h 0.31994 10.718006 0.159971 l 0.47991,-0.319873 0.319941,-0.319873 0.15997,-0.319874 v -0.319873 -6.557403 -0.319873 l -0.15997,-0.319874 -0.319941,-0.319873 -0.47991,-0.159937 z"
     style="fill:#767676;fill-opacity:1;fill-rule:evenodd;stroke:none" />
  <path
     id="path104"
     d="m 43.511905,12.634996 v 2.39905 h 2.239583 v -2.39905 z"
     style="fill:#767676;fill-opacity:1;fill-rule:evenodd;stroke:none" />
  <path
     id="path106"
     d="m 43.511905,31.187648 v 2.558987 h 2.239583 v -2.558987 z"
     style="fill:#767676;fill-opacity:1;fill-rule:evenodd;stroke:none" />
  <path
     id="path108"
     d="m 43.511905,17.273159 v 2.39905 h 2.239583 v -2.39905 z"
     style="fill:#767676;fill-opacity:1;fill-rule:evenodd;stroke:none" />
  <path
     id="path110"
     d="m 43.511905,26.549485 v 2.558987 h 2.239583 v -2.558987 z"
     style="fill:#767676;fill-opacity:1;fill-rule:evenodd;stroke:none" />
  <path
     id="path112"
     d="m 43.511905,21.911322 v 2.558986 h 2.239583 v -2.558986 z"
     style="fill:#767676;fill-opacity:1;fill-rule:evenodd;stroke:none" />
  <path
     id="path114"
     d="M 40.792411,50.859857 H 40.3125 39.672619 l -0.479911,0.159937 -0.31994,0.159936 -0.479911,0.159937 -0.15997,0.319873 -0.15997,0.319874 -0.159971,0.319873 0.159971,0.47981 0.15997,0.319873 0.31994,0.159937 0.319941,0.319873 0.479911,0.159937 0.47991,0.159937 h 0.479911 0.479911 0.31994 0.479911 l 0.479911,-0.159937 0.47991,-0.159937 0.479911,-0.319873 0.31994,-0.159937 0.159971,-0.319873 v -0.47981 -0.319873 l -0.159971,-0.319874 -0.31994,-0.319873 -0.31994,-0.159937 -0.479911,-0.159936 -0.479911,-0.159937 h -0.479911 z m -11.197917,0 h -0.479911 -0.47991 l -0.479911,0.159937 -0.479911,0.159936 -0.31994,0.159937 -0.319941,0.319873 -0.15997,0.319874 v 0.319873 0.47981 l 0.15997,0.319873 0.319941,0.159937 0.31994,0.319873 0.479911,0.159937 0.479911,0.159937 h 0.47991 0.479911 0.479911 0.47991 l 0.479911,-0.159937 0.479911,-0.159937 0.31994,-0.319873 0.319941,-0.159937 0.15997,-0.319873 0.15997,-0.47981 -0.15997,-0.319873 -0.15997,-0.319874 -0.319941,-0.319873 -0.31994,-0.159937 -0.479911,-0.159936 -0.479911,-0.159937 h -0.47991 z m 11.197917,-1.279493 0.799851,0.159937 0.799851,0.159936 0.639881,0.159937 0.639881,0.319873 0.479911,0.47981 0.31994,0.319873 0.15997,0.639747 0.159971,0.47981 -0.159971,0.639747 -0.15997,0.47981 -0.31994,0.47981 -0.479911,0.47981 -0.479911,0.159936 -0.799851,0.319874 -0.799851,0.159936 h -0.799851 -0.959822 l -0.799851,-0.159936 -0.799851,-0.319874 -0.479911,-0.159936 -0.479911,-0.47981 -0.31994,-0.47981 -0.15997,-0.47981 v -0.639747 -0.47981 l 0.15997,-0.639747 0.31994,-0.47981 0.479911,-0.319873 0.639881,-0.319873 0.639881,-0.159937 0.799851,-0.159936 z m -11.197917,0 0.959821,0.159937 0.799852,0.159936 0.639881,0.159937 0.639881,0.319873 0.31994,0.47981 0.31994,0.319873 0.319941,0.639747 v 0.47981 0.639747 l -0.319941,0.47981 -0.31994,0.47981 -0.31994,0.47981 -0.639881,0.159936 -0.639881,0.319874 -0.799852,0.159936 H 29.594494 28.634673 L 27.834821,54.858274 27.19494,54.5384 l -0.639881,-0.159936 -0.31994,-0.47981 -0.31994,-0.47981 -0.319941,-0.47981 v -0.639747 -0.47981 l 0.319941,-0.639747 0.31994,-0.47981 0.479911,-0.319873 0.47991,-0.319873 0.639881,-0.159937 0.799852,-0.159936 z M 27.354911,43.662707 H 26.875 l -0.319941,0.159937 -0.31994,0.159937 -0.15997,0.159936 -0.319941,0.319874 -0.15997,0.319873 v 0.319873 0.47981 0.319874 0.319873 l 0.15997,0.319873 0.319941,0.319874 0.15997,0.319873 0.31994,0.159937 H 26.875 l 0.479911,0.159936 0.31994,-0.159936 h 0.319941 l 0.31994,-0.159937 0.319941,-0.319873 0.15997,-0.319874 0.15997,-0.319873 0.15997,-0.319873 v -0.319874 -0.47981 l -0.15997,-0.319873 -0.15997,-0.319873 -0.15997,-0.319874 -0.319941,-0.159936 -0.31994,-0.159937 -0.319941,-0.159937 z m 0,-1.279493 0.47991,0.159937 0.639881,0.159937 0.479911,0.159936 0.479911,0.47981 0.31994,0.319873 0.319941,0.639747 0.15997,0.639747 v 0.639746 0.639747 l -0.15997,0.639747 -0.319941,0.47981 -0.31994,0.319873 -0.479911,0.47981 -0.479911,0.319873 -0.639881,0.159937 h -0.47991 -0.639881 l -0.479911,-0.159937 -0.639881,-0.319873 -0.31994,-0.319873 -0.479911,-0.47981 -0.15997,-0.47981 -0.319941,-0.639747 v -0.639747 -0.639746 l 0.319941,-0.639747 0.15997,-0.47981 0.479911,-0.47981 0.31994,-0.47981 0.479911,-0.159936 0.639881,-0.159937 z m 10.877976,0 h 1.279762 v 0.799683 0.799684 l 0.15997,0.799683 0.31994,0.639747 0.319941,0.639746 0.31994,0.47981 0.479911,0.47981 0.639881,0.319874 0.479911,0.319873 -0.479911,0.95962 -0.639881,-0.159937 -0.31994,-0.319873 -0.479911,-0.319873 -0.319941,-0.319874 -0.47991,-0.47981 -0.319941,-0.47981 -0.15997,-0.319873 -0.15997,-0.47981 -0.15997,0.47981 -0.159971,0.47981 -0.47991,0.47981 -0.319941,0.319873 -0.31994,0.47981 -0.479911,0.319874 -0.479911,0.319873 -0.47991,0.319873 -0.639881,-0.799683 0.47991,-0.47981 0.639881,-0.47981 0.479911,-0.47981 0.479911,-0.47981 0.31994,-0.639747 0.15997,-0.639746 0.319941,-0.799684 v -0.799683 z m 5.119047,-0.47981 h 1.279762 v 3.198733 h 1.599703 v 1.119557 h -1.599703 v 3.198733 h -1.279762 z m -11.037946,0 h 1.119792 v 7.517023 h -1.119792 v -1.759303 h -2.079613 v -1.279493 h 2.079613 v -1.279494 h -2.079613 v -1.279493 h 2.079613 z"
     style="fill:#4d9ed6;fill-opacity:1;fill-rule:evenodd;stroke:none" />
  <path
     id="path116"
     d="M 40.792411,50.859857 H 40.3125 39.672619 l -0.479911,0.159937 -0.31994,0.159936 -0.479911,0.159937 -0.15997,0.319873 -0.15997,0.319874 -0.159971,0.319873 0.159971,0.47981 0.15997,0.319873 0.31994,0.159937 0.319941,0.319873 0.479911,0.159937 0.47991,0.159937 h 0.479911 0.479911 0.31994 0.479911 l 0.479911,-0.159937 0.47991,-0.159937 0.479911,-0.319873 0.31994,-0.159937 0.159971,-0.319873 v -0.47981 -0.319873 l -0.159971,-0.319874 -0.31994,-0.319873 -0.31994,-0.159937 -0.479911,-0.159936 -0.479911,-0.159937 h -0.479911 -0.47991 v 0"
     style="fill:none;stroke:#4d9ed6;stroke-width:0.15997024px;stroke-linecap:round;stroke-linejoin:round;stroke-miterlimit:4;stroke-dasharray:none;stroke-opacity:1" />
  <path
     id="path118"
     d="m 29.594494,50.859857 h -0.479911 -0.47991 l -0.479911,0.159937 -0.479911,0.159936 -0.31994,0.159937 -0.319941,0.319873 -0.15997,0.319874 v 0.319873 0.47981 l 0.15997,0.319873 0.319941,0.159937 0.31994,0.319873 0.479911,0.159937 0.479911,0.159937 h 0.47991 0.479911 0.479911 0.47991 l 0.479911,-0.159937 0.479911,-0.159937 0.31994,-0.319873 0.319941,-0.159937 0.15997,-0.319873 0.15997,-0.47981 -0.15997,-0.319873 -0.15997,-0.319874 -0.319941,-0.319873 -0.31994,-0.159937 -0.479911,-0.159936 -0.479911,-0.159937 h -0.47991 -0.479911 v 0"
     style="fill:none;stroke:#4d9ed6;stroke-width:0.15997024px;stroke-linecap:round;stroke-linejoin:round;stroke-miterlimit:4;stroke-dasharray:none;stroke-opacity:1" />
  <path
     id="path120"
     d="m 40.792411,49.580364 0.799851,0.159937 0.799851,0.159936 0.639881,0.159937 0.639881,0.319873 0.479911,0.47981 0.31994,0.319873 0.15997,0.639747 0.159971,0.47981 -0.159971,0.639747 -0.15997,0.47981 -0.31994,0.47981 -0.479911,0.47981 -0.479911,0.159936 -0.799851,0.319874 -0.799851,0.159936 h -0.799851 -0.959822 l -0.799851,-0.159936 -0.799851,-0.319874 -0.479911,-0.159936 -0.479911,-0.47981 -0.31994,-0.47981 -0.15997,-0.47981 v -0.639747 -0.47981 l 0.15997,-0.639747 0.31994,-0.47981 0.479911,-0.319873 0.639881,-0.319873 0.639881,-0.159937 0.799851,-0.159936 0.959822,-0.159937 v 0"
     style="fill:none;stroke:#4d9ed6;stroke-width:0.15997024px;stroke-linecap:round;stroke-linejoin:round;stroke-miterlimit:4;stroke-dasharray:none;stroke-opacity:1" />
  <path
     id="path122"
     d="m 29.594494,49.580364 0.959821,0.159937 0.799852,0.159936 0.639881,0.159937 0.639881,0.319873 0.31994,0.47981 0.31994,0.319873 0.319941,0.639747 v 0.47981 0.639747 l -0.319941,0.47981 -0.31994,0.47981 -0.31994,0.47981 -0.639881,0.159936 -0.639881,0.319874 -0.799852,0.159936 H 29.594494 28.634673 L 27.834821,54.858274 27.19494,54.5384 l -0.639881,-0.159936 -0.31994,-0.47981 -0.31994,-0.47981 -0.319941,-0.47981 v -0.639747 -0.47981 l 0.319941,-0.639747 0.31994,-0.47981 0.479911,-0.319873 0.47991,-0.319873 0.639881,-0.159937 0.799852,-0.159936 0.959821,-0.159937 v 0"
     style="fill:none;stroke:#4d9ed6;stroke-width:0.15997024px;stroke-linecap:round;stroke-linejoin:round;stroke-miterlimit:4;stroke-dasharray:none;stroke-opacity:1" />
  <path
     id="path124"
     d="M 27.354911,43.662707 H 26.875 l -0.319941,0.159937 -0.31994,0.159937 -0.15997,0.159936 -0.319941,0.319874 -0.15997,0.319873 v 0.319873 0.47981 0.319874 0.319873 l 0.15997,0.319873 0.319941,0.319874 0.15997,0.319873 0.31994,0.159937 H 26.875 l 0.479911,0.159936 0.31994,-0.159936 h 0.319941 l 0.31994,-0.159937 0.319941,-0.319873 0.15997,-0.319874 0.15997,-0.319873 0.15997,-0.319873 v -0.319874 -0.47981 l -0.15997,-0.319873 -0.15997,-0.319873 -0.15997,-0.319874 -0.319941,-0.159936 -0.31994,-0.159937 -0.319941,-0.159937 h -0.31994 v 0"
     style="fill:none;stroke:#4d9ed6;stroke-width:0.15997024px;stroke-linecap:round;stroke-linejoin:round;stroke-miterlimit:4;stroke-dasharray:none;stroke-opacity:1" />
  <path
     id="path126"
     d="m 27.354911,42.383214 0.47991,0.159937 0.639881,0.159937 0.479911,0.159936 0.479911,0.47981 0.31994,0.319873 0.319941,0.639747 0.15997,0.639747 v 0.639746 0.639747 l -0.15997,0.639747 -0.319941,0.47981 -0.31994,0.319873 -0.479911,0.47981 -0.479911,0.319873 -0.639881,0.159937 h -0.47991 -0.639881 l -0.479911,-0.159937 -0.639881,-0.319873 -0.31994,-0.319873 -0.479911,-0.47981 -0.15997,-0.47981 -0.319941,-0.639747 v -0.639747 -0.639746 l 0.319941,-0.639747 0.15997,-0.47981 0.479911,-0.47981 0.31994,-0.47981 0.479911,-0.159936 0.639881,-0.159937 0.639881,-0.159937 v 0"
     style="fill:none;stroke:#4d9ed6;stroke-width:0.15997024px;stroke-linecap:round;stroke-linejoin:round;stroke-miterlimit:4;stroke-dasharray:none;stroke-opacity:1" />
  <path
     id="path128"
     d="m 38.232887,42.383214 h 1.279762 v 0.799683 0.799684 l 0.15997,0.799683 0.31994,0.639747 0.319941,0.639746 0.31994,0.47981 0.479911,0.47981 0.639881,0.319874 0.479911,0.319873 -0.479911,0.95962 -0.639881,-0.159937 -0.31994,-0.319873 -0.479911,-0.319873 -0.319941,-0.319874 -0.47991,-0.47981 -0.319941,-0.47981 -0.15997,-0.319873 -0.15997,-0.47981 -0.15997,0.47981 -0.159971,0.47981 -0.47991,0.47981 -0.319941,0.319873 -0.31994,0.47981 -0.479911,0.319874 -0.479911,0.319873 -0.47991,0.319873 -0.639881,-0.799683 0.47991,-0.47981 0.639881,-0.47981 0.479911,-0.47981 0.479911,-0.47981 0.31994,-0.639747 0.15997,-0.639746 0.319941,-0.799684 v -0.799683 -0.95962"
     style="fill:none;stroke:#4d9ed6;stroke-width:0.15997024px;stroke-linecap:round;stroke-linejoin:round;stroke-miterlimit:4;stroke-dasharray:none;stroke-opacity:1" />
  <path
     id="path130"
     d="m 43.351934,41.903404 h 1.279762 v 3.198733 h 1.599703 v 1.119557 h -1.599703 v 3.198733 h -1.279762 v -7.517023"
     style="fill:none;stroke:#4d9ed6;stroke-width:0.15997024px;stroke-linecap:round;stroke-linejoin:round;stroke-miterlimit:4;stroke-dasharray:none;stroke-opacity:1" />
  <path
     id="path132"
     d="m 32.313988,41.903404 h 1.119792 v 7.517023 h -1.119792 v -1.759303 h -2.079613 v -1.279493 h 2.079613 v -1.279494 h -2.079613 v -1.279493 h 2.079613 v -1.91924"
     style="fill:none;stroke:#4d9ed6;stroke-width:0.15997024px;stroke-linecap:round;stroke-linejoin:round;stroke-miterlimit:4;stroke-dasharray:none;stroke-opacity:1" />
</svg>
