<?xml version="1.0" encoding="UTF-8" standalone="no"?>
<svg
   xmlns:dc="http://purl.org/dc/elements/1.1/"
   xmlns:cc="http://creativecommons.org/ns#"
   xmlns:rdf="http://www.w3.org/1999/02/22-rdf-syntax-ns#"
   xmlns:svg="http://www.w3.org/2000/svg"
   xmlns="http://www.w3.org/2000/svg"
   id="svg71"
   height="17.390369mm"
   width="18.623201mm"
   version="1.0">
  <metadata
     id="metadata75">
    <rdf:RDF>
      <cc:Work
         rdf:about="">
        <dc:format>image/svg+xml</dc:format>
        <dc:type
           rdf:resource="http://purl.org/dc/dcmitype/StillImage" />
        <dc:title></dc:title>
      </cc:Work>
    </rdf:RDF>
  </metadata>
  <defs
     id="defs11">
    <pattern
       y="0"
       x="0"
       height="6"
       width="6"
       patternUnits="userSpaceOnUse"
       id="WMFhbasepattern" />
  </defs>
  <path
     id="path13"
     d="M 0,0 V 65.72738 H 70.386905 V 0 Z"
     style="fill:#3185c6;fill-opacity:1;fill-rule:evenodd;stroke:none" />
  <path
     id="path15"
     d="M 1.4397321,1.1194445 V 2.2388889 H 68.947173 V 1.1194445 Z"
     style="fill:#489ed3;fill-opacity:1;fill-rule:evenodd;stroke:none" />
  <path
     id="path17"
     d="M 1.4397321,1.1194445 V 64.448015 H 2.3995536 V 1.1194445 Z"
     style="fill:#489ed3;fill-opacity:1;fill-rule:evenodd;stroke:none" />
  <path
     id="path19"
     d="m 1.4397321,63.488492 v 0.959523 H 68.947173 v -0.959523 z"
     style="fill:#489ed3;fill-opacity:1;fill-rule:evenodd;stroke:none" />
  <path
     id="path21"
     d="M 67.827381,1.1194445 V 64.448015 h 1.119792 V 1.1194445 Z"
     style="fill:#489ed3;fill-opacity:1;fill-rule:evenodd;stroke:none" />
  <path
     id="path23"
     d="M 2.3995536,2.2388889 V 63.488492 H 67.987351 V 2.2388889 Z"
     style="fill:#3993ca;fill-opacity:1;fill-rule:evenodd;stroke:none" />
  <path
     id="path25"
     d="m 22.715774,11.674206 v -0.639683 l 0.15997,-0.479762 0.31994,-0.479761 0.319941,-0.4797615 0.479911,-0.3198416 0.47991,-0.3198413 0.479911,-0.1599206 h 0.639881 19.036458 0.639881 l 0.479911,0.1599206 0.639881,0.3198413 0.31994,0.3198416 0.319941,0.4797615 0.31994,0.479761 0.159971,0.479762 0.15997,0.639683 v 22.548809 l -0.15997,0.639683 -0.159971,0.479762 -0.31994,0.639682 -0.319941,0.319842 -0.31994,0.319841 -0.639881,0.319841 -0.479911,0.159921 -0.639881,0.15992 H 25.595238 l -0.639881,-0.15992 -0.479911,-0.159921 -0.47991,-0.319841 -0.479911,-0.319841 -0.319941,-0.319842 -0.31994,-0.639682 -0.15997,-0.479762 v -0.639683 z"
     style="fill:#ffffff;fill-opacity:1;fill-rule:evenodd;stroke:none" />
  <path
     id="path27"
     d="m 40.47247,25.107539 h -10.558036 -0.31994 l -0.31994,0.159921 -0.319941,0.319841 -0.15997,0.319841 v 0.319842 6.396825 0.319841 l 0.15997,0.319842 0.319941,0.319841 0.31994,0.159921 0.31994,0.15992 H 40.47247 l 0.319941,-0.15992 0.31994,-0.159921 0.319941,-0.319841 0.15997,-0.319842 0.15997,-0.319841 v -6.396825 l -0.15997,-0.319842 -0.15997,-0.319841 -0.319941,-0.319841 -0.31994,-0.159921 z"
     style="fill:#3993ca;fill-opacity:1;fill-rule:evenodd;stroke:none" />
  <path
     id="path29"
     d="m 24.795387,17.271428 v 2.55873 h 2.239583 v -2.55873 z"
     style="fill:#3993ca;fill-opacity:1;fill-rule:evenodd;stroke:none" />
  <path
     id="path31"
     d="m 24.795387,12.63373 v 2.398809 H 27.03497 V 12.63373 Z"
     style="fill:#3993ca;fill-opacity:1;fill-rule:evenodd;stroke:none" />
  <path
     id="path33"
     d="m 24.795387,31.344444 v 2.39881 h 2.239583 v -2.39881 z"
     style="fill:#3993ca;fill-opacity:1;fill-rule:evenodd;stroke:none" />
  <path
     id="path35"
     d="m 24.795387,26.706746 v 2.398809 h 2.239583 v -2.398809 z"
     style="fill:#3993ca;fill-opacity:1;fill-rule:evenodd;stroke:none" />
  <path
     id="path37"
     d="m 24.795387,21.909127 v 2.55873 h 2.239583 v -2.55873 z"
     style="fill:#3993ca;fill-opacity:1;fill-rule:evenodd;stroke:none" />
  <path
     id="path39"
     d="m 40.47247,12.473809 h -10.558036 -0.31994 l -0.31994,0.159921 -0.319941,0.319841 -0.15997,0.319841 v 0.319842 6.396825 0.319841 l 0.15997,0.319841 0.319941,0.319842 0.31994,0.15992 0.31994,0.159921 H 40.47247 l 0.319941,-0.159921 0.31994,-0.15992 0.319941,-0.319842 0.15997,-0.319841 0.15997,-0.319841 v -6.396825 l -0.15997,-0.319842 -0.15997,-0.319841 -0.319941,-0.319841 -0.31994,-0.159921 z"
     style="fill:#3993ca;fill-opacity:1;fill-rule:evenodd;stroke:none" />
  <path
     id="path41"
     d="m 43.511905,12.63373 v 2.398809 h 2.239583 V 12.63373 Z"
     style="fill:#3993ca;fill-opacity:1;fill-rule:evenodd;stroke:none" />
  <path
     id="path43"
     d="m 43.511905,31.344444 v 2.39881 h 2.239583 v -2.39881 z"
     style="fill:#3993ca;fill-opacity:1;fill-rule:evenodd;stroke:none" />
  <path
     id="path45"
     d="m 43.511905,17.271428 v 2.55873 h 2.239583 v -2.55873 z"
     style="fill:#3993ca;fill-opacity:1;fill-rule:evenodd;stroke:none" />
  <path
     id="path47"
     d="m 43.511905,26.706746 v 2.398809 h 2.239583 v -2.398809 z"
     style="fill:#3993ca;fill-opacity:1;fill-rule:evenodd;stroke:none" />
  <path
     id="path49"
     d="m 43.511905,21.909127 v 2.55873 h 2.239583 v -2.55873 z"
     style="fill:#3993ca;fill-opacity:1;fill-rule:evenodd;stroke:none" />
  <path
     id="path51"
     d="M 40.792411,51.014682 H 40.3125 39.672619 l -0.479911,0.159921 -0.31994,0.15992 -0.479911,0.159921 -0.15997,0.319841 -0.319941,0.319842 v 0.319841 l 0.159971,0.479762 0.15997,0.319841 0.31994,0.159921 0.319941,0.319841 0.479911,0.159921 h 0.47991 l 0.479911,0.15992 h 0.479911 0.31994 l 0.479911,-0.15992 h 0.479911 l 0.47991,-0.159921 0.479911,-0.319841 0.31994,-0.159921 0.159971,-0.319841 v -0.479762 -0.319841 l -0.159971,-0.319842 -0.31994,-0.319841 -0.31994,-0.159921 -0.479911,-0.15992 -0.479911,-0.159921 h -0.479911 z m -11.197917,0 h -0.479911 -0.47991 l -0.479911,0.159921 -0.479911,0.15992 -0.31994,0.159921 -0.319941,0.319841 -0.15997,0.319842 v 0.319841 0.479762 l 0.15997,0.319841 0.319941,0.159921 0.31994,0.319841 0.479911,0.159921 h 0.479911 l 0.47991,0.15992 h 0.479911 0.479911 l 0.47991,-0.15992 h 0.479911 l 0.479911,-0.159921 0.31994,-0.319841 0.319941,-0.159921 0.15997,-0.319841 0.15997,-0.479762 -0.15997,-0.319841 -0.15997,-0.319842 -0.319941,-0.319841 -0.31994,-0.159921 -0.479911,-0.15992 -0.479911,-0.159921 h -0.47991 z m 11.197917,-1.279365 0.799851,0.159921 0.799851,0.15992 0.639881,0.159921 0.639881,0.319841 0.479911,0.479762 0.31994,0.319841 0.15997,0.639683 0.159971,0.479762 -0.159971,0.639682 -0.15997,0.479762 -0.31994,0.479762 -0.479911,0.479762 -0.479911,0.159921 -0.799851,0.319841 -0.799851,0.159921 h -0.799851 -0.959822 l -0.799851,-0.159921 -0.799851,-0.319841 -0.479911,-0.159921 -0.479911,-0.479762 -0.31994,-0.479762 -0.15997,-0.479762 -0.159971,-0.639682 0.159971,-0.479762 0.15997,-0.639683 0.31994,-0.479762 0.479911,-0.319841 0.639881,-0.319841 0.639881,-0.159921 0.799851,-0.15992 z m -11.197917,0 0.959821,0.159921 0.799852,0.15992 0.639881,0.159921 0.639881,0.319841 0.31994,0.479762 0.31994,0.319841 0.319941,0.639683 v 0.479762 0.639682 l -0.15997,0.479762 -0.319941,0.479762 -0.47991,0.479762 -0.639881,0.159921 -0.639881,0.319841 -0.799852,0.159921 h -0.959821 -0.959821 l -0.799852,-0.159921 -0.639881,-0.319841 -0.639881,-0.159921 -0.31994,-0.479762 -0.31994,-0.479762 -0.319941,-0.479762 v -0.639682 -0.479762 l 0.319941,-0.639683 0.31994,-0.479762 0.479911,-0.319841 0.47991,-0.319841 0.639881,-0.159921 0.799852,-0.15992 z M 27.354911,43.818254 H 26.875 l -0.319941,0.15992 -0.31994,0.159921 -0.15997,0.15992 -0.319941,0.319842 -0.15997,0.319841 v 0.319841 l -0.15997,0.479762 0.15997,0.319841 v 0.319842 l 0.15997,0.319841 0.319941,0.319841 0.15997,0.319841 0.31994,0.159921 H 26.875 l 0.479911,0.159921 0.31994,-0.159921 h 0.319941 l 0.31994,-0.159921 0.319941,-0.319841 0.15997,-0.319841 0.15997,-0.319841 0.15997,-0.319842 v -0.319841 -0.479762 l -0.15997,-0.319841 -0.15997,-0.319841 -0.15997,-0.319842 -0.319941,-0.15992 -0.31994,-0.159921 -0.319941,-0.15992 z m 0,-1.279366 0.47991,0.159921 0.639881,0.159921 0.479911,0.15992 0.479911,0.479762 0.31994,0.319842 0.319941,0.639682 0.15997,0.639683 v 0.639682 0.639683 l -0.15997,0.639682 -0.319941,0.479762 -0.31994,0.319841 -0.479911,0.479762 -0.479911,0.319842 -0.639881,0.15992 h -0.47991 -0.639881 l -0.479911,-0.15992 -0.639881,-0.319842 -0.31994,-0.319841 -0.479911,-0.479762 -0.15997,-0.479762 -0.319941,-0.639682 v -0.639683 -0.639682 l 0.15997,-0.639683 0.319941,-0.479762 0.31994,-0.479762 0.479911,-0.479762 0.479911,-0.15992 0.639881,-0.159921 z m 10.877976,0 h 1.119792 v 0.799604 l 0.15997,0.799603 0.15997,0.799603 0.31994,0.639682 0.319941,0.639683 0.31994,0.479762 0.479911,0.479762 0.639881,0.319841 0.479911,0.319841 -0.479911,0.959524 -0.639881,-0.15992 -0.31994,-0.319842 -0.479911,-0.319841 -0.319941,-0.319841 -0.47991,-0.479762 -0.319941,-0.479762 -0.15997,-0.319841 -0.15997,-0.479762 -0.15997,0.479762 -0.159971,0.479762 -0.47991,0.479761 -0.319941,0.319842 -0.31994,0.479762 -0.479911,0.319841 -0.479911,0.319841 -0.47991,0.319841 -0.639881,-0.799603 0.47991,-0.479762 0.639881,-0.479762 0.479911,-0.479761 0.479911,-0.479762 0.31994,-0.639683 0.15997,-0.639682 0.319941,-0.799604 v -0.799603 z m 5.119047,-0.479761 h 1.119792 v 3.198412 h 1.759673 v 1.119445 h -1.759673 v 3.198412 h -1.119792 z m -11.037946,0 h 1.119792 v 7.516269 h -1.119792 v -1.759127 h -2.079613 v -1.279365 h 2.079613 v -1.279365 h -2.079613 v -1.279365 h 2.079613 z"
     style="fill:#ffffff;fill-opacity:1;fill-rule:evenodd;stroke:none" />
  <path
     id="path53"
     d="M 40.792411,51.014682 H 40.3125 39.672619 l -0.479911,0.159921 -0.31994,0.15992 -0.479911,0.159921 -0.15997,0.319841 -0.319941,0.319842 v 0.319841 l 0.159971,0.479762 0.15997,0.319841 0.31994,0.159921 0.319941,0.319841 0.479911,0.159921 h 0.47991 l 0.479911,0.15992 h 0.479911 0.31994 l 0.479911,-0.15992 h 0.479911 l 0.47991,-0.159921 0.479911,-0.319841 0.31994,-0.159921 0.159971,-0.319841 v -0.479762 -0.319841 l -0.159971,-0.319842 -0.31994,-0.319841 -0.31994,-0.159921 -0.479911,-0.15992 -0.479911,-0.159921 h -0.479911 -0.47991 v 0"
     style="fill:none;stroke:#ffffff;stroke-width:0.15997024px;stroke-linecap:round;stroke-linejoin:round;stroke-miterlimit:4;stroke-dasharray:none;stroke-opacity:1" />
  <path
     id="path55"
     d="m 29.594494,51.014682 h -0.479911 -0.47991 l -0.479911,0.159921 -0.479911,0.15992 -0.31994,0.159921 -0.319941,0.319841 -0.15997,0.319842 v 0.319841 0.479762 l 0.15997,0.319841 0.319941,0.159921 0.31994,0.319841 0.479911,0.159921 h 0.479911 l 0.47991,0.15992 h 0.479911 0.479911 l 0.47991,-0.15992 h 0.479911 l 0.479911,-0.159921 0.31994,-0.319841 0.319941,-0.159921 0.15997,-0.319841 0.15997,-0.479762 -0.15997,-0.319841 -0.15997,-0.319842 -0.319941,-0.319841 -0.31994,-0.159921 -0.479911,-0.15992 -0.479911,-0.159921 h -0.47991 -0.479911 v 0"
     style="fill:none;stroke:#ffffff;stroke-width:0.15997024px;stroke-linecap:round;stroke-linejoin:round;stroke-miterlimit:4;stroke-dasharray:none;stroke-opacity:1" />
  <path
     id="path57"
     d="m 40.792411,49.735317 0.799851,0.159921 0.799851,0.15992 0.639881,0.159921 0.639881,0.319841 0.479911,0.479762 0.31994,0.319841 0.15997,0.639683 0.159971,0.479762 -0.159971,0.639682 -0.15997,0.479762 -0.31994,0.479762 -0.479911,0.479762 -0.479911,0.159921 -0.799851,0.319841 -0.799851,0.159921 h -0.799851 -0.959822 l -0.799851,-0.159921 -0.799851,-0.319841 -0.479911,-0.159921 -0.479911,-0.479762 -0.31994,-0.479762 -0.15997,-0.479762 -0.159971,-0.639682 0.159971,-0.479762 0.15997,-0.639683 0.31994,-0.479762 0.479911,-0.319841 0.639881,-0.319841 0.639881,-0.159921 0.799851,-0.15992 0.959822,-0.159921 v 0"
     style="fill:none;stroke:#ffffff;stroke-width:0.15997024px;stroke-linecap:round;stroke-linejoin:round;stroke-miterlimit:4;stroke-dasharray:none;stroke-opacity:1" />
  <path
     id="path59"
     d="m 29.594494,49.735317 0.959821,0.159921 0.799852,0.15992 0.639881,0.159921 0.639881,0.319841 0.31994,0.479762 0.31994,0.319841 0.319941,0.639683 v 0.479762 0.639682 l -0.15997,0.479762 -0.319941,0.479762 -0.47991,0.479762 -0.639881,0.159921 -0.639881,0.319841 -0.799852,0.159921 h -0.959821 -0.959821 l -0.799852,-0.159921 -0.639881,-0.319841 -0.639881,-0.159921 -0.31994,-0.479762 -0.31994,-0.479762 -0.319941,-0.479762 v -0.639682 -0.479762 l 0.319941,-0.639683 0.31994,-0.479762 0.479911,-0.319841 0.47991,-0.319841 0.639881,-0.159921 0.799852,-0.15992 0.959821,-0.159921 v 0"
     style="fill:none;stroke:#ffffff;stroke-width:0.15997024px;stroke-linecap:round;stroke-linejoin:round;stroke-miterlimit:4;stroke-dasharray:none;stroke-opacity:1" />
  <path
     id="path61"
     d="M 27.354911,43.818254 H 26.875 l -0.319941,0.15992 -0.31994,0.159921 -0.15997,0.15992 -0.319941,0.319842 -0.15997,0.319841 v 0.319841 l -0.15997,0.479762 0.15997,0.319841 v 0.319842 l 0.15997,0.319841 0.319941,0.319841 0.15997,0.319841 0.31994,0.159921 H 26.875 l 0.479911,0.159921 0.31994,-0.159921 h 0.319941 l 0.31994,-0.159921 0.319941,-0.319841 0.15997,-0.319841 0.15997,-0.319841 0.15997,-0.319842 v -0.319841 -0.479762 l -0.15997,-0.319841 -0.15997,-0.319841 -0.15997,-0.319842 -0.319941,-0.15992 -0.31994,-0.159921 -0.319941,-0.15992 h -0.31994 v 0"
     style="fill:none;stroke:#ffffff;stroke-width:0.15997024px;stroke-linecap:round;stroke-linejoin:round;stroke-miterlimit:4;stroke-dasharray:none;stroke-opacity:1" />
  <path
     id="path63"
     d="m 27.354911,42.538888 0.47991,0.159921 0.639881,0.159921 0.479911,0.15992 0.479911,0.479762 0.31994,0.319842 0.319941,0.639682 0.15997,0.639683 v 0.639682 0.639683 l -0.15997,0.639682 -0.319941,0.479762 -0.31994,0.319841 -0.479911,0.479762 -0.479911,0.319842 -0.639881,0.15992 h -0.47991 -0.639881 l -0.479911,-0.15992 -0.639881,-0.319842 -0.31994,-0.319841 -0.479911,-0.479762 -0.15997,-0.479762 -0.319941,-0.639682 v -0.639683 -0.639682 l 0.15997,-0.639683 0.319941,-0.479762 0.31994,-0.479762 0.479911,-0.479762 0.479911,-0.15992 0.639881,-0.159921 0.639881,-0.159921 v 0"
     style="fill:none;stroke:#ffffff;stroke-width:0.15997024px;stroke-linecap:round;stroke-linejoin:round;stroke-miterlimit:4;stroke-dasharray:none;stroke-opacity:1" />
  <path
     id="path65"
     d="m 38.232887,42.538888 h 1.119792 v 0.799604 l 0.15997,0.799603 0.15997,0.799603 0.31994,0.639682 0.319941,0.639683 0.31994,0.479762 0.479911,0.479762 0.639881,0.319841 0.479911,0.319841 -0.479911,0.959524 -0.639881,-0.15992 -0.31994,-0.319842 -0.479911,-0.319841 -0.319941,-0.319841 -0.47991,-0.479762 -0.319941,-0.479762 -0.15997,-0.319841 -0.15997,-0.479762 -0.15997,0.479762 -0.159971,0.479762 -0.47991,0.479761 -0.319941,0.319842 -0.31994,0.479762 -0.479911,0.319841 -0.479911,0.319841 -0.47991,0.319841 -0.639881,-0.799603 0.47991,-0.479762 0.639881,-0.479762 0.479911,-0.479761 0.479911,-0.479762 0.31994,-0.639683 0.15997,-0.639682 0.319941,-0.799604 v -0.799603 -0.959524"
     style="fill:none;stroke:#ffffff;stroke-width:0.15997024px;stroke-linecap:round;stroke-linejoin:round;stroke-miterlimit:4;stroke-dasharray:none;stroke-opacity:1" />
  <path
     id="path67"
     d="m 43.351934,42.059127 h 1.119792 v 3.198412 h 1.759673 v 1.119445 h -1.759673 v 3.198412 h -1.119792 v -7.516269"
     style="fill:none;stroke:#ffffff;stroke-width:0.15997024px;stroke-linecap:round;stroke-linejoin:round;stroke-miterlimit:4;stroke-dasharray:none;stroke-opacity:1" />
  <path
     id="path69"
     d="m 32.313988,42.059127 h 1.119792 v 7.516269 h -1.119792 v -1.759127 h -2.079613 v -1.279365 h 2.079613 v -1.279365 h -2.079613 v -1.279365 h 2.079613 v -1.919047"
     style="fill:none;stroke:#ffffff;stroke-width:0.15997024px;stroke-linecap:round;stroke-linejoin:round;stroke-miterlimit:4;stroke-dasharray:none;stroke-opacity:1" />
</svg>
