<?xml version="1.0" encoding="utf-8"?>
<!-- Generator: Adobe Illustrator 16.0.0, SVG Export Plug-In . SVG Version: 6.00 Build 0)  -->
<!DOCTYPE svg PUBLIC "-//W3C//DTD SVG 1.1//EN" "http://www.w3.org/Graphics/SVG/1.1/DTD/svg11.dtd">
<svg version="1.1" id="Layer_1" xmlns="http://www.w3.org/2000/svg" xmlns:xlink="http://www.w3.org/1999/xlink" x="0px" y="0px"
	 width="70px" height="65px" viewBox="0 0 70 65" enable-background="new 0 0 70 65" xml:space="preserve">
<rect x="-0.3" y="-0.3" fill="#767676" width="70.7" height="65.5"/>
<g>
	<rect x="-0.1" opacity="0.9" fill="#7A7B7B" enable-background="new    " width="70.3" height="1.1"/>
	<rect x="69.1" opacity="0.9" fill="#7A7B7B" enable-background="new    " width="1.103" height="65"/>
</g>
<rect x="2.1" y="2.1" fill="#767676" width="65.9" height="60.9"/>
<text transform="matrix(0.8506 0 0 1 12.4565 52.2139)" fill="#FFFFFF" font-family="'HUJingo242'" font-size="14.1079">지적통계</text>
<g>
	<g>
		<g>
			<polygon fill="#FFFFFF" points="42.434,6.248 42.434,7.938 45.466,7.938 38.359,15.046 31.19,7.876 21.577,17.489 22.773,18.685 
				31.19,10.268 38.359,17.437 46.662,9.134 46.662,12.166 48.353,12.166 48.353,6.248 			"/>
		</g>
	</g>
	<g>
		<g>
			<rect x="21.33" y="24.003" fill="#FFFFFF" width="5.479" height="9.794"/>
		</g>
	</g>
	<g>
		<g>
			<rect x="28.499" y="15.311" fill="#FFFFFF" width="5.478" height="18.487"/>
		</g>
	</g>
	<g>
		<g>
			<rect x="35.669" y="20.476" fill="#FFFFFF" width="5.478" height="13.322"/>
		</g>
	</g>
	<g>
		<g>
			<rect x="42.894" y="15.311" fill="#FFFFFF" width="5.479" height="18.487"/>
		</g>
	</g>
</g>
</svg>
