<?xml version="1.0" encoding="utf-8"?>
<!-- Generator: Adobe Illustrator 16.0.0, SVG Export Plug-In . SVG Version: 6.00 Build 0)  -->
<!DOCTYPE svg PUBLIC "-//W3C//DTD SVG 1.1//EN" "http://www.w3.org/Graphics/SVG/1.1/DTD/svg11.dtd">
<svg version="1.1" id="Layer_1" xmlns="http://www.w3.org/2000/svg" xmlns:xlink="http://www.w3.org/1999/xlink" x="0px" y="0px"
	 width="70px" height="65px" viewBox="0 0 70 65" enable-background="new 0 0 70 65" xml:space="preserve">
<rect x="-0.3" y="-0.3" fill="#767676" width="70.7" height="65.5"/>
<g>
	<rect x="-0.1" opacity="0.9" fill="#7A7B7B" enable-background="new    " width="70.3" height="1.1"/>
	<rect x="69.1" opacity="0.9" fill="#7A7B7B" enable-background="new    " width="1.103" height="65"/>
</g>
<rect x="2.1" y="2.1" fill="#767676" width="65.9" height="60.9"/>
<g>
	<path fill="#4D9ED6" d="M28.783,11.107l0.082,0.069c0.002-0.029,0.008-0.058,0.008-0.088c0-1.566-1.268-2.84-2.829-2.84
		c-1.56,0-2.829,1.273-2.829,2.84c0,1.567,1.27,2.84,2.829,2.84c0.03,0,0.059-0.006,0.088-0.007l-0.067-0.082
		c-0.644-0.775-0.593-1.898,0.117-2.612C26.895,10.512,28.012,10.462,28.783,11.107z"/>
	<path fill="#4D9ED6" d="M26.043,15.821c0.508,0,0.998-0.084,1.468-0.239l-0.667-0.804c-0.262,0.057-0.528,0.097-0.8,0.097
		c-2.079,0-3.771-1.7-3.771-3.788s1.691-3.786,3.771-3.786c2.081,0,3.772,1.698,3.772,3.786c0,0.272-0.04,0.54-0.097,0.803
		l0.805,0.673c0.155-0.472,0.234-0.967,0.234-1.476c0-2.61-2.114-4.733-4.715-4.733c-2.599,0-4.713,2.124-4.713,4.733
		C21.331,13.697,23.445,15.821,26.043,15.821z"/>
	<path fill="#4D9ED6" d="M43.868,13.92c0.03,0.001,0.058,0.007,0.087,0.007c1.563,0,2.829-1.271,2.829-2.84
		c0-1.566-1.267-2.84-2.829-2.84c-1.561,0-2.826,1.274-2.826,2.84c0,0.031,0.005,0.059,0.006,0.088l0.08-0.068
		c0.773-0.645,1.893-0.594,2.604,0.118c0.711,0.714,0.762,1.838,0.117,2.613L43.868,13.92z"/>
	<path fill="#4D9ED6" d="M29.719,28.271c0.057,0.265,0.097,0.531,0.097,0.804c0,2.089-1.692,3.787-3.772,3.787
		c-2.078,0-3.77-1.698-3.77-3.787c0-2.088,1.691-3.787,3.77-3.787c0.272,0,0.539,0.04,0.8,0.096l0.667-0.803
		c-0.469-0.157-0.959-0.241-1.467-0.241c-2.6,0-4.713,2.125-4.713,4.735c0,2.608,2.114,4.729,4.713,4.729s4.715-2.122,4.715-4.729
		c0-0.511-0.084-1.001-0.239-1.474L29.719,28.271z"/>
	<path fill="#4D9ED6" d="M40.281,11.891c-0.057-0.264-0.096-0.531-0.096-0.804c0-2.088,1.691-3.786,3.77-3.786
		c2.081,0,3.771,1.698,3.771,3.786s-1.69,3.788-3.771,3.788c-0.271,0-0.54-0.033-0.805-0.091l-0.662,0.799
		c0.473,0.155,0.96,0.239,1.467,0.239c2.6,0,4.714-2.124,4.714-4.734c0-2.61-2.114-4.733-4.714-4.733s-4.712,2.124-4.712,4.733
		c0,0.508,0.084,1.001,0.237,1.473L40.281,11.891z"/>
	<path fill="#4D9ED6" d="M42.453,29.507c-0.438,0-0.874-0.15-1.238-0.453l-0.081-0.066c0,0.028-0.006,0.057-0.006,0.087
		c0,1.567,1.269,2.841,2.827,2.841c1.563,0,2.829-1.273,2.829-2.841c0-1.568-1.267-2.841-2.829-2.841
		c-0.03,0-0.059,0.006-0.088,0.008l0.066,0.082c0.646,0.774,0.594,1.897-0.117,2.613C43.439,29.314,42.948,29.507,42.453,29.507z"/>
	<path fill="#4D9ED6" d="M43.15,28.267c0.365-0.365,0.391-0.939,0.063-1.338l-2.652-3.195c-0.851-1.024-1.316-2.32-1.316-3.652
		c0-1.331,0.467-2.627,1.316-3.651l2.652-3.197c0.328-0.397,0.305-0.972-0.063-1.337c-0.362-0.366-0.936-0.391-1.33-0.061
		L38.637,14.5c-1.018,0.853-2.309,1.322-3.636,1.322c-1.325,0-2.617-0.47-3.636-1.322l-3.185-2.664
		c-0.395-0.331-0.968-0.305-1.331,0.061c-0.363,0.366-0.39,0.94-0.061,1.337l2.653,3.197c0.849,1.023,1.316,2.319,1.316,3.651
		s-0.468,2.628-1.316,3.652l-2.653,3.195c-0.329,0.398-0.303,0.973,0.061,1.338c0.364,0.365,0.937,0.391,1.331,0.061l3.185-2.664
		c1.019-0.854,2.31-1.322,3.636-1.322c1.327,0,2.618,0.469,3.636,1.322l3.184,2.664C42.216,28.658,42.788,28.632,43.15,28.267z
		 M35.001,22.448c-1.3,0-2.358-1.063-2.358-2.367c0-1.305,1.059-2.367,2.358-2.367c1.301,0,2.356,1.062,2.356,2.367
		C37.357,21.386,36.302,22.448,35.001,22.448z"/>
	<path fill="#4D9ED6" d="M43.955,24.341c-0.505,0-0.994,0.083-1.467,0.239l0.668,0.805c0.264-0.058,0.527-0.097,0.799-0.097
		c2.081,0,3.771,1.698,3.771,3.787c0,2.088-1.69,3.786-3.771,3.786c-2.077,0-3.77-1.698-3.77-3.786c0-0.271,0.039-0.539,0.096-0.804
		L39.48,27.6c-0.153,0.473-0.237,0.965-0.237,1.474c0,2.609,2.112,4.732,4.712,4.732s4.714-2.125,4.714-4.732
		C48.67,26.465,46.555,24.341,43.955,24.341L43.955,24.341z"/>
	<ellipse fill="#4D9ED6" cx="35.001" cy="20.081" rx="1.413" ry="1.42"/>
	<path fill="#4D9ED6" d="M26.132,26.242c-0.029-0.002-0.058-0.008-0.088-0.008c-1.56,0-2.829,1.273-2.829,2.841
		c0,1.568,1.27,2.841,2.829,2.841c1.561,0,2.829-1.273,2.829-2.841c0-0.03-0.006-0.059-0.008-0.087l-0.082,0.066
		c-0.771,0.646-1.889,0.597-2.602-0.117c-0.711-0.716-0.762-1.839-0.117-2.613L26.132,26.242z"/>
</g>
<text transform="matrix(0.8506 0 0 1 12.4565 52.2207)" fill="#4D9ED6" font-family="'HUJingo242'" font-size="14.1079">드론영상</text>
</svg>
