<?xml version="1.0" encoding="UTF-8" standalone="no"?>
<svg
   xmlns:dc="http://purl.org/dc/elements/1.1/"
   xmlns:cc="http://creativecommons.org/ns#"
   xmlns:rdf="http://www.w3.org/1999/02/22-rdf-syntax-ns#"
   xmlns:svg="http://www.w3.org/2000/svg"
   xmlns="http://www.w3.org/2000/svg"
   id="svg265"
   height="17.434429mm"
   width="18.623201mm"
   version="1.0">
  <metadata
     id="metadata269">
    <rdf:RDF>
      <cc:Work
         rdf:about="">
        <dc:format>image/svg+xml</dc:format>
        <dc:type
           rdf:resource="http://purl.org/dc/dcmitype/StillImage" />
        <dc:title></dc:title>
      </cc:Work>
    </rdf:RDF>
  </metadata>
  <defs
     id="defs209">
    <pattern
       y="0"
       x="0"
       height="6"
       width="6"
       patternUnits="userSpaceOnUse"
       id="WMFhbasepattern" />
  </defs>
  <path
     id="path211"
     d="M 0,0 V 65.893903 H 70.386905 V 0 Z"
     style="fill:#767676;fill-opacity:1;fill-rule:evenodd;stroke:none" />
  <path
     id="path213"
     d="M 0.31994048,0.31987332 V 1.43943 H 70.226934 V 0.31987332 Z"
     style="fill:#7a7b7b;fill-opacity:1;fill-rule:evenodd;stroke:none" />
  <path
     id="path215"
     d="M 69.107143,0.31987332 V 65.733966 h 0.959821 V 0.31987332 Z"
     style="fill:#7a7b7b;fill-opacity:1;fill-rule:evenodd;stroke:none" />
  <path
     id="path217"
     d="M 2.3995536,2.3990499 V 63.814726 H 67.987351 V 2.3990499 Z"
     style="fill:#767676;fill-opacity:1;fill-rule:evenodd;stroke:none" />
  <path
     id="path219"
     d="m 22.715774,11.515439 v -0.639747 l 0.15997,-0.47981 0.31994,-0.4798096 0.319941,-0.479809 0.479911,-0.3198738 0.47991,-0.3198733 0.479911,-0.1599367 h 0.639881 19.036458 0.639881 l 0.479911,0.1599367 0.639881,0.3198733 0.31994,0.3198738 0.319941,0.479809 0.31994,0.4798096 0.159971,0.47981 0.15997,0.639747 v 22.551069 l -0.15997,0.639747 -0.159971,0.47981 -0.31994,0.639746 -0.319941,0.319874 -0.31994,0.319873 -0.639881,0.319873 -0.479911,0.159937 -0.639881,0.159936 H 25.595238 l -0.639881,-0.159936 -0.479911,-0.159937 -0.47991,-0.319873 -0.479911,-0.319873 -0.319941,-0.319874 -0.31994,-0.639746 -0.15997,-0.47981 v -0.639747 z"
     style="fill:#ffffff;fill-opacity:1;fill-rule:evenodd;stroke:none" />
  <path
     id="path221"
     d="m 40.47247,24.950118 h -10.558036 -0.31994 l -0.31994,0.159937 -0.319941,0.319873 -0.15997,0.319874 v 0.319873 6.397466 0.319874 l 0.15997,0.319873 0.319941,0.319873 0.31994,0.159937 0.31994,0.159937 H 40.47247 l 0.319941,-0.159937 0.31994,-0.159937 0.319941,-0.319873 0.15997,-0.319873 0.15997,-0.319874 v -6.397466 l -0.15997,-0.319873 -0.15997,-0.319874 -0.319941,-0.319873 -0.31994,-0.159937 z"
     style="fill:#767676;fill-opacity:1;fill-rule:evenodd;stroke:none" />
  <path
     id="path223"
     d="m 24.795387,17.113222 v 2.558987 h 2.239583 v -2.558987 z"
     style="fill:#767676;fill-opacity:1;fill-rule:evenodd;stroke:none" />
  <path
     id="path225"
     d="m 24.795387,12.475059 v 2.39905 h 2.239583 v -2.39905 z"
     style="fill:#767676;fill-opacity:1;fill-rule:evenodd;stroke:none" />
  <path
     id="path227"
     d="m 24.795387,31.187648 v 2.39905 h 2.239583 v -2.39905 z"
     style="fill:#767676;fill-opacity:1;fill-rule:evenodd;stroke:none" />
  <path
     id="path229"
     d="m 24.795387,26.549485 v 2.39905 h 2.239583 v -2.39905 z"
     style="fill:#767676;fill-opacity:1;fill-rule:evenodd;stroke:none" />
  <path
     id="path231"
     d="m 24.795387,21.751385 v 2.558987 h 2.239583 v -2.558987 z"
     style="fill:#767676;fill-opacity:1;fill-rule:evenodd;stroke:none" />
  <path
     id="path233"
     d="m 40.47247,12.315122 h -10.558036 -0.31994 l -0.31994,0.159937 -0.319941,0.319873 -0.15997,0.319874 v 0.319873 6.397466 0.319874 l 0.15997,0.319873 0.319941,0.319873 0.31994,0.159937 0.31994,0.159937 H 40.47247 l 0.319941,-0.159937 0.31994,-0.159937 0.319941,-0.319873 0.15997,-0.319873 0.15997,-0.319874 v -6.397466 l -0.15997,-0.319873 -0.15997,-0.319874 -0.319941,-0.319873 -0.31994,-0.159937 z"
     style="fill:#767676;fill-opacity:1;fill-rule:evenodd;stroke:none" />
  <path
     id="path235"
     d="m 43.511905,12.475059 v 2.39905 h 2.239583 v -2.39905 z"
     style="fill:#767676;fill-opacity:1;fill-rule:evenodd;stroke:none" />
  <path
     id="path237"
     d="m 43.511905,31.187648 v 2.39905 h 2.239583 v -2.39905 z"
     style="fill:#767676;fill-opacity:1;fill-rule:evenodd;stroke:none" />
  <path
     id="path239"
     d="m 43.511905,17.113222 v 2.558987 h 2.239583 v -2.558987 z"
     style="fill:#767676;fill-opacity:1;fill-rule:evenodd;stroke:none" />
  <path
     id="path241"
     d="m 43.511905,26.549485 v 2.39905 h 2.239583 v -2.39905 z"
     style="fill:#767676;fill-opacity:1;fill-rule:evenodd;stroke:none" />
  <path
     id="path243"
     d="m 43.511905,21.751385 v 2.558987 h 2.239583 v -2.558987 z"
     style="fill:#767676;fill-opacity:1;fill-rule:evenodd;stroke:none" />
  <path
     id="path245"
     d="M 40.792411,50.859857 H 40.3125 39.672619 l -0.479911,0.159937 -0.31994,0.159936 -0.479911,0.159937 -0.15997,0.319873 -0.319941,0.319874 v 0.319873 l 0.159971,0.47981 0.15997,0.319873 0.31994,0.159937 0.319941,0.319873 0.479911,0.159937 h 0.47991 l 0.479911,0.159937 h 0.479911 0.31994 l 0.479911,-0.159937 h 0.479911 l 0.47991,-0.159937 0.479911,-0.319873 0.31994,-0.159937 0.159971,-0.319873 v -0.47981 -0.319873 l -0.159971,-0.319874 -0.31994,-0.319873 -0.31994,-0.159937 -0.479911,-0.159936 -0.479911,-0.159937 h -0.479911 z m -11.197917,0 h -0.479911 -0.47991 l -0.479911,0.159937 -0.479911,0.159936 -0.31994,0.159937 -0.319941,0.319873 -0.15997,0.319874 v 0.319873 0.47981 l 0.15997,0.319873 0.319941,0.159937 0.31994,0.319873 0.479911,0.159937 h 0.479911 l 0.47991,0.159937 h 0.479911 0.479911 l 0.47991,-0.159937 h 0.479911 l 0.479911,-0.159937 0.31994,-0.319873 0.319941,-0.159937 0.15997,-0.319873 0.15997,-0.47981 -0.15997,-0.319873 -0.15997,-0.319874 -0.319941,-0.319873 -0.31994,-0.159937 -0.479911,-0.159936 -0.479911,-0.159937 h -0.47991 z m 11.197917,-1.279493 0.799851,0.159937 0.799851,0.159936 0.639881,0.159937 0.639881,0.319873 0.479911,0.47981 0.31994,0.319873 0.15997,0.639747 0.159971,0.47981 -0.159971,0.639747 -0.15997,0.47981 -0.31994,0.47981 -0.479911,0.47981 -0.479911,0.159936 -0.799851,0.319874 -0.799851,0.159936 h -0.799851 -0.959822 l -0.799851,-0.159936 -0.799851,-0.319874 -0.479911,-0.159936 -0.479911,-0.47981 -0.31994,-0.47981 -0.15997,-0.47981 -0.159971,-0.639747 0.159971,-0.47981 0.15997,-0.639747 0.31994,-0.47981 0.479911,-0.319873 0.639881,-0.319873 0.639881,-0.159937 0.799851,-0.159936 z m -11.197917,0 0.959821,0.159937 0.799852,0.159936 0.639881,0.159937 0.639881,0.319873 0.31994,0.47981 0.31994,0.319873 0.319941,0.639747 v 0.47981 0.639747 l -0.15997,0.47981 -0.319941,0.47981 -0.47991,0.47981 -0.639881,0.159936 -0.639881,0.319874 -0.799852,0.159936 H 29.594494 28.634673 L 27.834821,54.858274 27.19494,54.5384 l -0.639881,-0.159936 -0.31994,-0.47981 -0.31994,-0.47981 -0.319941,-0.47981 v -0.639747 -0.47981 l 0.319941,-0.639747 0.31994,-0.47981 0.479911,-0.319873 0.47991,-0.319873 0.639881,-0.159937 0.799852,-0.159936 z M 27.354911,43.662707 H 26.875 l -0.319941,0.159937 -0.31994,0.159937 -0.15997,0.159936 -0.319941,0.319874 -0.15997,0.319873 v 0.319873 l -0.15997,0.47981 0.15997,0.319874 v 0.319873 l 0.15997,0.319873 0.319941,0.319874 0.15997,0.319873 0.31994,0.159937 H 26.875 l 0.479911,0.159936 0.31994,-0.159936 h 0.319941 l 0.31994,-0.159937 0.319941,-0.319873 0.15997,-0.319874 0.15997,-0.319873 0.15997,-0.319873 v -0.319874 -0.47981 l -0.15997,-0.319873 -0.15997,-0.319873 -0.15997,-0.319874 -0.319941,-0.159936 -0.31994,-0.159937 -0.319941,-0.159937 z m 0,-1.279493 0.47991,0.159937 0.639881,0.159937 0.479911,0.159936 0.479911,0.47981 0.31994,0.319873 0.319941,0.639747 0.15997,0.639747 v 0.639746 0.639747 l -0.15997,0.639747 -0.319941,0.47981 -0.31994,0.319873 -0.479911,0.47981 -0.479911,0.319873 -0.639881,0.159937 h -0.47991 -0.639881 l -0.479911,-0.159937 -0.639881,-0.319873 -0.31994,-0.319873 -0.479911,-0.47981 -0.15997,-0.47981 -0.319941,-0.639747 v -0.639747 -0.639746 l 0.15997,-0.639747 0.319941,-0.47981 0.31994,-0.47981 0.479911,-0.47981 0.479911,-0.159936 0.639881,-0.159937 z m 10.877976,0 h 1.119792 v 0.799683 l 0.15997,0.799684 0.15997,0.799683 0.31994,0.639747 0.319941,0.639746 0.31994,0.47981 0.479911,0.47981 0.639881,0.319874 0.479911,0.319873 -0.479911,0.95962 -0.639881,-0.159937 -0.31994,-0.319873 -0.479911,-0.319873 -0.319941,-0.319874 -0.47991,-0.47981 -0.319941,-0.47981 -0.15997,-0.319873 -0.15997,-0.47981 -0.15997,0.47981 -0.159971,0.47981 -0.47991,0.47981 -0.319941,0.319873 -0.31994,0.47981 -0.479911,0.319874 -0.479911,0.319873 -0.47991,0.319873 -0.639881,-0.799683 0.47991,-0.47981 0.639881,-0.47981 0.479911,-0.47981 0.479911,-0.47981 0.31994,-0.639747 0.15997,-0.639746 0.319941,-0.799684 v -0.799683 z m 5.119047,-0.47981 h 1.119792 v 3.198733 h 1.759673 v 1.119557 h -1.759673 v 3.198733 h -1.119792 z m -11.037946,0 h 1.119792 v 7.517023 h -1.119792 v -1.759303 h -2.079613 v -1.279493 h 2.079613 v -1.279494 h -2.079613 v -1.279493 h 2.079613 z"
     style="fill:#ffffff;fill-opacity:1;fill-rule:evenodd;stroke:none" />
  <path
     id="path247"
     d="M 40.792411,50.859857 H 40.3125 39.672619 l -0.479911,0.159937 -0.31994,0.159936 -0.479911,0.159937 -0.15997,0.319873 -0.319941,0.319874 v 0.319873 l 0.159971,0.47981 0.15997,0.319873 0.31994,0.159937 0.319941,0.319873 0.479911,0.159937 h 0.47991 l 0.479911,0.159937 h 0.479911 0.31994 l 0.479911,-0.159937 h 0.479911 l 0.47991,-0.159937 0.479911,-0.319873 0.31994,-0.159937 0.159971,-0.319873 v -0.47981 -0.319873 l -0.159971,-0.319874 -0.31994,-0.319873 -0.31994,-0.159937 -0.479911,-0.159936 -0.479911,-0.159937 h -0.479911 -0.47991 v 0"
     style="fill:none;stroke:#ffffff;stroke-width:0.15997024px;stroke-linecap:round;stroke-linejoin:round;stroke-miterlimit:4;stroke-dasharray:none;stroke-opacity:1" />
  <path
     id="path249"
     d="m 29.594494,50.859857 h -0.479911 -0.47991 l -0.479911,0.159937 -0.479911,0.159936 -0.31994,0.159937 -0.319941,0.319873 -0.15997,0.319874 v 0.319873 0.47981 l 0.15997,0.319873 0.319941,0.159937 0.31994,0.319873 0.479911,0.159937 h 0.479911 l 0.47991,0.159937 h 0.479911 0.479911 l 0.47991,-0.159937 h 0.479911 l 0.479911,-0.159937 0.31994,-0.319873 0.319941,-0.159937 0.15997,-0.319873 0.15997,-0.47981 -0.15997,-0.319873 -0.15997,-0.319874 -0.319941,-0.319873 -0.31994,-0.159937 -0.479911,-0.159936 -0.479911,-0.159937 h -0.47991 -0.479911 v 0"
     style="fill:none;stroke:#ffffff;stroke-width:0.15997024px;stroke-linecap:round;stroke-linejoin:round;stroke-miterlimit:4;stroke-dasharray:none;stroke-opacity:1" />
  <path
     id="path251"
     d="m 40.792411,49.580364 0.799851,0.159937 0.799851,0.159936 0.639881,0.159937 0.639881,0.319873 0.479911,0.47981 0.31994,0.319873 0.15997,0.639747 0.159971,0.47981 -0.159971,0.639747 -0.15997,0.47981 -0.31994,0.47981 -0.479911,0.47981 -0.479911,0.159936 -0.799851,0.319874 -0.799851,0.159936 h -0.799851 -0.959822 l -0.799851,-0.159936 -0.799851,-0.319874 -0.479911,-0.159936 -0.479911,-0.47981 -0.31994,-0.47981 -0.15997,-0.47981 -0.159971,-0.639747 0.159971,-0.47981 0.15997,-0.639747 0.31994,-0.47981 0.479911,-0.319873 0.639881,-0.319873 0.639881,-0.159937 0.799851,-0.159936 0.959822,-0.159937 v 0"
     style="fill:none;stroke:#ffffff;stroke-width:0.15997024px;stroke-linecap:round;stroke-linejoin:round;stroke-miterlimit:4;stroke-dasharray:none;stroke-opacity:1" />
  <path
     id="path253"
     d="m 29.594494,49.580364 0.959821,0.159937 0.799852,0.159936 0.639881,0.159937 0.639881,0.319873 0.31994,0.47981 0.31994,0.319873 0.319941,0.639747 v 0.47981 0.639747 l -0.15997,0.47981 -0.319941,0.47981 -0.47991,0.47981 -0.639881,0.159936 -0.639881,0.319874 -0.799852,0.159936 H 29.594494 28.634673 L 27.834821,54.858274 27.19494,54.5384 l -0.639881,-0.159936 -0.31994,-0.47981 -0.31994,-0.47981 -0.319941,-0.47981 v -0.639747 -0.47981 l 0.319941,-0.639747 0.31994,-0.47981 0.479911,-0.319873 0.47991,-0.319873 0.639881,-0.159937 0.799852,-0.159936 0.959821,-0.159937 v 0"
     style="fill:none;stroke:#ffffff;stroke-width:0.15997024px;stroke-linecap:round;stroke-linejoin:round;stroke-miterlimit:4;stroke-dasharray:none;stroke-opacity:1" />
  <path
     id="path255"
     d="M 27.354911,43.662707 H 26.875 l -0.319941,0.159937 -0.31994,0.159937 -0.15997,0.159936 -0.319941,0.319874 -0.15997,0.319873 v 0.319873 l -0.15997,0.47981 0.15997,0.319874 v 0.319873 l 0.15997,0.319873 0.319941,0.319874 0.15997,0.319873 0.31994,0.159937 H 26.875 l 0.479911,0.159936 0.31994,-0.159936 h 0.319941 l 0.31994,-0.159937 0.319941,-0.319873 0.15997,-0.319874 0.15997,-0.319873 0.15997,-0.319873 v -0.319874 -0.47981 l -0.15997,-0.319873 -0.15997,-0.319873 -0.15997,-0.319874 -0.319941,-0.159936 -0.31994,-0.159937 -0.319941,-0.159937 h -0.31994 v 0"
     style="fill:none;stroke:#ffffff;stroke-width:0.15997024px;stroke-linecap:round;stroke-linejoin:round;stroke-miterlimit:4;stroke-dasharray:none;stroke-opacity:1" />
  <path
     id="path257"
     d="m 27.354911,42.383214 0.47991,0.159937 0.639881,0.159937 0.479911,0.159936 0.479911,0.47981 0.31994,0.319873 0.319941,0.639747 0.15997,0.639747 v 0.639746 0.639747 l -0.15997,0.639747 -0.319941,0.47981 -0.31994,0.319873 -0.479911,0.47981 -0.479911,0.319873 -0.639881,0.159937 h -0.47991 -0.639881 l -0.479911,-0.159937 -0.639881,-0.319873 -0.31994,-0.319873 -0.479911,-0.47981 -0.15997,-0.47981 -0.319941,-0.639747 v -0.639747 -0.639746 l 0.15997,-0.639747 0.319941,-0.47981 0.31994,-0.47981 0.479911,-0.47981 0.479911,-0.159936 0.639881,-0.159937 0.639881,-0.159937 v 0"
     style="fill:none;stroke:#ffffff;stroke-width:0.15997024px;stroke-linecap:round;stroke-linejoin:round;stroke-miterlimit:4;stroke-dasharray:none;stroke-opacity:1" />
  <path
     id="path259"
     d="m 38.232887,42.383214 h 1.119792 v 0.799683 l 0.15997,0.799684 0.15997,0.799683 0.31994,0.639747 0.319941,0.639746 0.31994,0.47981 0.479911,0.47981 0.639881,0.319874 0.479911,0.319873 -0.479911,0.95962 -0.639881,-0.159937 -0.31994,-0.319873 -0.479911,-0.319873 -0.319941,-0.319874 -0.47991,-0.47981 -0.319941,-0.47981 -0.15997,-0.319873 -0.15997,-0.47981 -0.15997,0.47981 -0.159971,0.47981 -0.47991,0.47981 -0.319941,0.319873 -0.31994,0.47981 -0.479911,0.319874 -0.479911,0.319873 -0.47991,0.319873 -0.639881,-0.799683 0.47991,-0.47981 0.639881,-0.47981 0.479911,-0.47981 0.479911,-0.47981 0.31994,-0.639747 0.15997,-0.639746 0.319941,-0.799684 v -0.799683 -0.95962"
     style="fill:none;stroke:#ffffff;stroke-width:0.15997024px;stroke-linecap:round;stroke-linejoin:round;stroke-miterlimit:4;stroke-dasharray:none;stroke-opacity:1" />
  <path
     id="path261"
     d="m 43.351934,41.903404 h 1.119792 v 3.198733 h 1.759673 v 1.119557 h -1.759673 v 3.198733 h -1.119792 v -7.517023"
     style="fill:none;stroke:#ffffff;stroke-width:0.15997024px;stroke-linecap:round;stroke-linejoin:round;stroke-miterlimit:4;stroke-dasharray:none;stroke-opacity:1" />
  <path
     id="path263"
     d="m 32.313988,41.903404 h 1.119792 v 7.517023 h -1.119792 v -1.759303 h -2.079613 v -1.279493 h 2.079613 v -1.279494 h -2.079613 v -1.279493 h 2.079613 v -1.91924"
     style="fill:none;stroke:#ffffff;stroke-width:0.15997024px;stroke-linecap:round;stroke-linejoin:round;stroke-miterlimit:4;stroke-dasharray:none;stroke-opacity:1" />
</svg>
