<?xml version="1.0" encoding="utf-8"?>
<!-- Generator: Adobe Illustrator 19.0.0, SVG Export Plug-In . SVG Version: 6.00 Build 0)  -->
<svg version="1.1" xmlns="http://www.w3.org/2000/svg" xmlns:xlink="http://www.w3.org/1999/xlink" x="0px" y="0px"
	 viewBox="0 0 70.6 65.5" enable-background="new 0 0 70.6 65.5" xml:space="preserve">
<g id="Layer_1">
</g>
<g id="DEM">
	<g id="nov14_x5F_ov">
		<rect x="0.1" y="0.1" fill="#767676" width="70.5" height="65.5"/>
		<g>
			<rect x="0.1" y="0.4" opacity="0.9" fill="#7A7B7B" enable-background="new    " width="70.3" height="1.1"/>
			<rect x="69.4" y="0.4" opacity="0.9" fill="#7A7B7B" enable-background="new    " width="1.1" height="65"/>
		</g>
		<rect x="2.4" y="2.4" fill="#767676" width="65.9" height="60.9"/>
		
			<text id="활용" transform="matrix(0.8506 0 0 1 10.8783 52.5917)" fill="#4C9DC7" font-family="'HUJingo242'" font-size="14.1079px">지적원도</text>
		<g>
			<rect x="18.1" y="10.2" fill="#4C9DC7" width="32.6" height="24.2"/>
			<path id="지적_2_" fill="#665D5B" d="M29.7,11.9h-8.9c-0.4,0-0.7,0.3-0.7,0.7v19.2c0,0.4,0.3,0.7,0.7,0.7h27.4
				c0.4,0,0.7-0.3,0.7-0.7V12.6c0-0.4-0.3-0.7-0.7-0.7h-8.9 M31.8,31.1l2.1-2.1l2.5-1.1l-0.3,3.2H31.8z M28.6,31.1l-2-5.7l5.1-2.2
				l1.1,5l-3,2.9H28.6z M21.4,21l3.1,3.7l-3.1,1.4V21z M22.8,20.4l5.5-3.4l2.8,4.8l-5.3,2.3L22.8,20.4z M31.4,13.4l-2.6,1.8l-1-1.8
				 M34.4,13.4l5.8,0l0.6,4.6l-8.4,3.4l-2.9-5 M41.7,24L34,27.4L33,22.7l8.1-3.3L41.7,24z M37.8,27.3l4.1-1.8l0.8,5.6h-5.2
				L37.8,27.3z M42.4,18.9l5-2v8.6l-4.3-1.3L42.4,18.9z M47.4,15.3l-5.2,2.1l-0.5-4h5.8V15.3z M31,12.1 M37.9,12.1 M26.1,13.4
				l1.5,2.5l-5.8,3.5l-0.4-0.5v-5.5H26.1z M21.4,27.6l3.9-1.7l1.8,5.2h-5.7L21.4,27.6z M44,31.1l-0.7-5.4l4.1,1.2v4.2H44z"/>
		</g>
	</g>
</g>
</svg>
