<?xml version="1.0" encoding="utf-8"?>
<!-- Generator: Adobe Illustrator 19.0.0, SVG Export Plug-In . SVG Version: 6.00 Build 0)  -->
<svg version="1.1" id="Layer_5" xmlns="http://www.w3.org/2000/svg" xmlns:xlink="http://www.w3.org/1999/xlink" x="0px" y="0px"
	 viewBox="0 0 70 65" enable-background="new 0 0 70 65" xml:space="preserve">
<g>
	<rect x="-0.3" y="-0.3" fill="#767676" width="70.7" height="65.5"/>
	<g opacity="0.9" enable-background="new    ">
		<rect x="1" y="1" opacity="0.9" fill="#7A7B7B" enable-background="new    " width="68" height="1.1"/>
		<rect x="1" y="1" opacity="0.9" fill="#7A7B7B" enable-background="new    " width="1.1" height="63"/>
		<rect x="1" y="62.9" opacity="0.9" fill="#7A7B7B" enable-background="new    " width="68" height="1.1"/>
		<rect x="68" y="1" opacity="0.9" fill="#7A7B7B" enable-background="new    " width="1.1" height="63"/>
	</g>
	<rect x="2.1" y="2.1" fill="#767676" width="65.9" height="60.9"/>
	<g>
		<path fill="#FFFFFF" d="M12.17,41.738h6.51v1.315h-2.453v1.093c0,1.241,0.245,2.338,0.735,3.29c0.49,0.951,1.273,1.745,2.352,2.38
			l-1.078,1.078c-0.647-0.43-1.222-0.929-1.725-1.498c-0.503-0.569-0.867-1.157-1.092-1.765c-0.234,0.663-0.618,1.312-1.152,1.946
			s-1.103,1.176-1.705,1.624l-1.253-1.05c0.998-0.616,1.795-1.424,2.393-2.422c0.597-0.999,0.896-2.217,0.896-3.654v-1.022H12.17
			V41.738z M20.257,53.54V41.01h1.523v12.53H20.257z"/>
		<path fill="#FFFFFF" d="M24.003,41.542h5.998v1.33h-2.197v0.532c0,0.41,0.069,0.798,0.208,1.162
			c0.139,0.363,0.339,0.695,0.6,0.994c0.251,0.298,0.552,0.562,0.903,0.79c0.351,0.229,0.732,0.409,1.146,0.539l-0.943,1.148
			c-0.566-0.252-1.101-0.583-1.604-0.994c-0.503-0.41-0.876-0.83-1.119-1.26c-0.099,0.233-0.245,0.469-0.438,0.707
			s-0.416,0.469-0.667,0.692c-0.261,0.233-0.537,0.451-0.829,0.651c-0.292,0.201-0.586,0.376-0.883,0.525l-1.119-1.064
			c0.979-0.42,1.743-0.964,2.292-1.631c0.548-0.667,0.822-1.435,0.822-2.303v-0.49h-2.17V41.542z M33.169,49.103
			c0.135,0,0.231,0.03,0.29,0.091s0.087,0.161,0.087,0.301v4.13h-1.523v-3.206h-6.766v-1.315H33.169z M29.799,43.768h2.237V41.01
			h1.523v7.561h-1.523V45.14h-2.237V43.768z"/>
		<path fill="#FFFFFF" d="M35.285,44.23c0-0.43,0.074-0.833,0.223-1.211c0.147-0.379,0.361-0.707,0.64-0.987
			c0.27-0.28,0.598-0.504,0.983-0.672c0.387-0.168,0.813-0.252,1.281-0.252c0.835,0,1.524,0.24,2.068,0.721s0.883,1.076,1.018,1.785
			h2.035V41.01h1.51v6.679h-1.51v-2.73h-2.062c-0.145,0.7-0.488,1.274-1.031,1.722c-0.544,0.448-1.22,0.673-2.028,0.673
			c-0.468,0-0.895-0.08-1.281-0.238c-0.386-0.159-0.714-0.378-0.983-0.658c-0.278-0.28-0.492-0.609-0.64-0.987
			C35.359,45.091,35.285,44.678,35.285,44.23z M38.412,46.036c0.512,0,0.907-0.18,1.186-0.539s0.418-0.781,0.418-1.267
			c0-0.495-0.14-0.917-0.418-1.268c-0.278-0.35-0.674-0.524-1.186-0.524c-0.521,0-0.919,0.173-1.193,0.518
			c-0.274,0.346-0.411,0.77-0.411,1.274c0,0.485,0.137,0.907,0.411,1.267S37.891,46.036,38.412,46.036z M36.956,53.022v-4.858h1.496
			v1.33h5.081v-1.33h1.496v4.858c0,0.148-0.029,0.252-0.088,0.308c-0.058,0.056-0.154,0.084-0.289,0.084h-7.318
			c-0.145,0-0.243-0.028-0.297-0.084S36.956,53.171,36.956,53.022z M43.533,52.14v-1.372h-5.081v1.372H43.533z"/>
		<path fill="#FFFFFF" d="M51.445,53.54v-4.228h-4.812v-1.33h11.119v1.33h-4.758v4.228H51.445z M48.386,41.388h7.602
			c0.135,0,0.231,0.031,0.29,0.092c0.058,0.061,0.087,0.16,0.087,0.301v4.228c0,0.149-0.029,0.252-0.087,0.309
			c-0.059,0.056-0.155,0.084-0.29,0.084h-7.615c-0.144,0-0.24-0.026-0.29-0.077c-0.049-0.052-0.074-0.151-0.074-0.301V41.78
			c0-0.141,0.027-0.24,0.081-0.301S48.242,41.388,48.386,41.388z M54.855,45.07v-2.366h-5.324v2.366H54.855z"/>
	</g>
	<g id="XMLID_37_">
		<path id="XMLID_96_" fill="#FFFFFF" d="M54.592,17.004c-5.616-2.866-11.231-5.733-16.847-8.599
			c-0.717-0.366-1.428-0.756-2.156-1.1c-0.752-0.356-1.712,0.369-2.383,0.712c-3.263,1.666-6.526,3.331-9.789,4.997
			c-2.606,1.33-5.212,2.661-7.818,3.991c-0.626,0.319-0.615,1.354,0,1.676c5.596,2.935,11.192,5.87,16.787,8.806
			c0.737,0.386,1.465,0.802,2.215,1.162c0.754,0.362,1.706-0.377,2.372-0.726c3.246-1.703,6.492-3.405,9.738-5.108
			c2.627-1.378,5.254-2.756,7.881-4.134c0.365-0.192,0.499-0.507,0.476-0.821C55.106,17.534,54.976,17.2,54.592,17.004z
			 M52.012,17.854c-1.458,0.765-2.916,1.53-4.374,2.294c-1.391-0.727-2.782-1.454-4.174-2.181c0.814-0.421,1.629-0.843,2.444-1.265
			c0.637-0.33,1.274-0.659,1.911-0.989c1.163,0.594,2.327,1.188,3.49,1.782C51.544,17.615,51.778,17.734,52.012,17.854z
			 M41.351,23.446c-1.393-0.741-2.785-1.482-4.178-2.223c1.399-0.724,2.799-1.448,4.198-2.173c1.155,0.604,2.311,1.207,3.466,1.811
			c0.24,0.126,0.481,0.251,0.722,0.377C44.156,21.975,42.753,22.711,41.351,23.446z M28.76,23.404
			c-1.376-0.722-2.751-1.443-4.127-2.165c1.423-0.743,2.845-1.487,4.267-2.23c1.373,0.73,2.745,1.461,4.118,2.191
			c-0.785,0.406-1.569,0.812-2.354,1.218C30.03,22.747,29.395,23.076,28.76,23.404z M30.974,17.926
			c1.374-0.718,2.748-1.436,4.121-2.154c1.395,0.729,2.79,1.458,4.186,2.187c-1.393,0.721-2.786,1.442-4.179,2.163
			C33.726,19.39,32.35,18.658,30.974,17.926z M28.751,12.457c1.42,0.742,2.84,1.484,4.26,2.226
			c-1.368,0.715-2.735,1.429-4.103,2.144c-1.182-0.629-2.364-1.258-3.545-1.886c-0.241-0.128-0.483-0.257-0.724-0.385
			C26.01,13.856,27.381,13.157,28.751,12.457z M41.44,12.457c1.422,0.726,2.844,1.452,4.266,2.177
			c-1.444,0.747-2.887,1.494-4.331,2.241c-1.398-0.731-2.797-1.462-4.196-2.192c0.804-0.42,1.608-0.84,2.412-1.26
			C40.208,13.101,40.824,12.779,41.44,12.457z M33.253,10.159c0.614-0.313,1.228-0.627,1.842-0.94
			c1.412,0.721,2.824,1.442,4.236,2.162c-1.412,0.738-2.824,1.476-4.236,2.214c-1.179-0.616-2.358-1.232-3.536-1.848
			c-0.233-0.122-0.467-0.244-0.7-0.366C31.657,10.974,32.455,10.566,33.253,10.159z M18.179,17.854
			c1.454-0.742,2.909-1.485,4.363-2.227c1.431,0.761,2.862,1.523,4.293,2.284c-0.814,0.425-1.627,0.85-2.441,1.275
			c-0.614,0.321-1.228,0.642-1.842,0.962c-1.204-0.631-2.407-1.263-3.611-1.894C18.687,18.121,18.433,17.987,18.179,17.854z
			 M35.096,26.727c-1.417-0.743-2.833-1.486-4.25-2.229c1.415-0.732,2.829-1.464,4.244-2.196c1.065,0.567,2.131,1.134,3.196,1.7
			c0.332,0.177,0.664,0.353,0.996,0.53c-0.761,0.399-1.522,0.798-2.283,1.197C36.364,26.062,35.73,26.395,35.096,26.727z"/>
		<path id="XMLID_5_" fill="#FFFFFF" d="M54.532,25.468c-1.485-0.758-2.97-1.516-4.455-2.274c-0.698,0.366-1.395,0.732-2.093,1.098
			c1.089,0.556,2.178,1.112,3.266,1.667c0.234,0.12,0.468,0.239,0.702,0.359c-1.498,0.785-2.995,1.571-4.493,2.357
			c-1.305-0.685-2.61-1.369-3.916-2.054c-0.693,0.363-1.385,0.727-2.078,1.09c1.001,0.525,2.001,1.05,3.002,1.574
			c0.305,0.16,0.609,0.32,0.914,0.479c-2.815,1.476-5.629,2.953-8.444,4.429c-0.634,0.333-1.269,0.665-1.903,0.998
			c-2.78-1.458-5.56-2.916-8.34-4.375c1.325-0.695,2.65-1.39,3.975-2.085c-0.693-0.363-1.385-0.726-2.078-1.09
			c-0.686,0.36-1.372,0.72-2.058,1.079c-0.639,0.335-1.278,0.671-1.918,1.006c-1.912-1.003-3.824-2.006-5.736-3.009
			c-0.254-0.133-0.509-0.267-0.763-0.4c1.343-0.686,2.686-1.371,4.029-2.057c-0.698-0.366-1.395-0.732-2.093-1.098
			c-1.505,0.768-3.011,1.537-4.516,2.305c-0.626,0.319-0.615,1.354,0,1.676c5.596,2.935,11.192,5.87,16.787,8.806
			c0.737,0.386,1.465,0.802,2.215,1.162c0.754,0.362,1.706-0.377,2.372-0.726c3.246-1.703,6.492-3.405,9.738-5.108
			c2.627-1.378,5.254-2.756,7.881-4.134c0.365-0.192,0.499-0.507,0.476-0.821C55.047,25.997,54.916,25.664,54.532,25.468z"/>
	</g>
</g>
</svg>
