<?xml version="1.0" encoding="UTF-8" standalone="no"?>
<svg
   xmlns:dc="http://purl.org/dc/elements/1.1/"
   xmlns:cc="http://creativecommons.org/ns#"
   xmlns:rdf="http://www.w3.org/1999/02/22-rdf-syntax-ns#"
   xmlns:svg="http://www.w3.org/2000/svg"
   xmlns="http://www.w3.org/2000/svg"
   id="svg90"
   height="17.432682mm"
   width="18.623201mm"
   version="1.0">
  <metadata
     id="metadata94">
    <rdf:RDF>
      <cc:Work
         rdf:about="">
        <dc:format>image/svg+xml</dc:format>
        <dc:type
           rdf:resource="http://purl.org/dc/dcmitype/StillImage" />
        <dc:title></dc:title>
      </cc:Work>
    </rdf:RDF>
  </metadata>
  <defs
     id="defs52">
    <pattern
       y="0"
       x="0"
       height="6"
       width="6"
       patternUnits="userSpaceOnUse"
       id="WMFhbasepattern" />
  </defs>
  <path
     id="path54"
     d="M 0,0 V 65.887301 H 70.386905 V 0 Z"
     style="fill:#3185c6;fill-opacity:1;fill-rule:evenodd;stroke:none" />
  <path
     id="path56"
     d="M 1.4397321,1.2793651 V 2.3988096 H 68.947173 V 1.2793651 Z"
     style="fill:#489ed3;fill-opacity:1;fill-rule:evenodd;stroke:none" />
  <path
     id="path58"
     d="M 1.4397321,1.2793651 V 64.448015 H 2.3995536 V 1.2793651 Z"
     style="fill:#489ed3;fill-opacity:1;fill-rule:evenodd;stroke:none" />
  <path
     id="path60"
     d="m 1.4397321,63.488492 v 0.959523 H 68.947173 v -0.959523 z"
     style="fill:#489ed3;fill-opacity:1;fill-rule:evenodd;stroke:none" />
  <path
     id="path62"
     d="M 67.827381,1.2793651 V 64.448015 h 1.119792 V 1.2793651 Z"
     style="fill:#489ed3;fill-opacity:1;fill-rule:evenodd;stroke:none" />
  <path
     id="path64"
     d="M 2.3995536,2.3988096 V 63.488492 H 67.987351 V 2.3988096 Z"
     style="fill:#3993ca;fill-opacity:1;fill-rule:evenodd;stroke:none" />
  <path
     id="path66"
     d="M 32.953869,18.390873 V 30.225 h 9.438244 v -2.078969 h -6.87872 v -9.755158 z"
     style="fill:#ffffff;fill-opacity:1;fill-rule:evenodd;stroke:none" />
  <path
     id="path68"
     d="m 50.550595,25.26746 v -0.479762 l -0.15997,-0.639683 v -0.799603 l -0.15997,-0.799603 -0.159971,-0.639682 -0.15997,-0.639683 -0.15997,-0.799603 -0.31994,-0.639683 -0.319941,-0.639682 -0.31994,-0.639683 -0.319941,-0.639682 -0.31994,-0.639683 -0.319941,-0.639682 -0.479911,-0.479762 -0.47991,-0.639683 -0.479911,-0.479762 -0.479911,-0.479762 -0.47991,-0.479762 -0.639881,-0.479761 -0.479911,-0.319842 -0.639881,-0.479762 -0.639881,-0.319841 -0.639881,-0.319841 -0.639881,-0.319841 -0.639881,-0.319842 -0.639881,-0.319841 -0.639881,-0.159921 -0.799851,-0.15992 -0.639881,-0.159921 -0.799851,-0.159921 h -0.799851 -0.639881 -0.479911 -0.31994 -0.639881 -0.639881 l -0.639881,0.159921 h -0.639881 l -0.639881,0.159921 -0.639881,0.319841 -0.639881,0.159921 -0.639881,0.15992 -0.639881,0.319842 -0.479911,0.319841 -0.639881,0.15992 -0.47991,0.319842 -0.639881,0.479762 -0.479911,0.319841 -0.479911,0.319841 -0.47991,0.479762 -0.479911,0.479762 -0.479911,0.479762 -0.31994,0.479762 -0.479911,0.479762 -0.319941,0.479762 -0.47991,0.479761 -0.319941,0.479762 -0.31994,0.639683 -0.319941,0.479762 -0.15997,0.639682 -0.31994,0.639683 -0.159971,0.639682 -0.15997,0.479762 -0.15997,0.639683 -0.15997,0.639682 -0.159971,0.319842 h -2.239583 l 3.999256,7.036508 4.159226,-7.036508 h -2.399553 l 0.15997,-0.479762 0.31994,-0.799603 0.319941,-0.959524 0.479911,-0.799603 0.47991,-0.799604 0.479911,-0.799603 0.639881,-0.639682 0.639881,-0.639683 0.799851,-0.639682 0.799851,-0.479762 0.799851,-0.479762 0.799852,-0.479762 0.959821,-0.319841 0.959821,-0.159921 0.959822,-0.319841 h 0.959821 0.479911 0.319941 0.63988 0.479911 l 0.639881,0.15992 0.479911,0.159921 0.639881,0.159921 0.479911,0.15992 0.47991,0.159921 0.479911,0.159921 0.639881,0.319841 0.479911,0.15992 0.47991,0.319842 0.319941,0.319841 0.479911,0.319841 0.47991,0.319842 0.319941,0.319841 0.47991,0.479762 0.319941,0.319841 0.31994,0.479762 0.319941,0.479762 0.31994,0.479762 0.319941,0.319841 0.15997,0.639683 0.319941,0.479761 0.15997,0.479762 0.15997,0.479762 0.31994,0.479762 v 0.639683 l 0.159971,0.479762 0.15997,0.639682 v 0.479762 0.639683 0.319841 0.479762 0.959524 l -0.15997,0.959523 -0.319941,0.959524 -0.31994,0.959524 -0.479911,0.799603 -0.479911,0.799603 -0.47991,0.799604 -0.639881,0.799603 -0.639881,0.639682 -0.639881,0.639683 -0.799851,0.479762 -0.799852,0.479762 -0.799851,0.479761 -0.959821,0.319842 -0.799851,0.319841 -0.479911,0.159921 v 3.518254 l 0.31994,-0.159921 0.639881,-0.159921 0.639881,-0.15992 0.639881,-0.159921 0.479911,-0.159921 0.639881,-0.319841 0.639881,-0.15992 0.479911,-0.319842 0.63988,-0.319841 0.479911,-0.319841 0.479911,-0.479762 0.639881,-0.319841 0.479911,-0.479762 0.47991,-0.319842 0.319941,-0.479762 0.47991,-0.479761 0.479911,-0.479762 0.319941,-0.479762 0.31994,-0.479762 0.479911,-0.639683 0.31994,-0.479762 0.319941,-0.639682 0.15997,-0.479762 0.319941,-0.639683 0.15997,-0.639682 0.31994,-0.639683 0.15997,-0.639682 0.159971,-0.639683 v -0.639682 l 0.15997,-0.639683 v -0.639682 l 0.15997,-0.639683 z"
     style="fill:#ffffff;fill-opacity:1;fill-rule:evenodd;stroke:none" />
  <path
     id="path70"
     d="m 14.397321,49.575396 h 7.358631 v 4.797619 h -1.119791 v -3.518254 h -6.23884 z m 1.439733,-6.396825 h -0.319941 l -0.31994,0.159921 -0.319941,0.15992 -0.31994,0.319842 -0.159971,0.15992 -0.15997,0.319841 -0.15997,0.479762 v 0.319842 0.479761 l 0.15997,0.319842 0.15997,0.479762 0.159971,0.15992 0.31994,0.319842 0.319941,0.15992 0.31994,0.159921 h 0.319941 0.31994 l 0.31994,-0.159921 0.319941,-0.15992 0.31994,-0.319842 0.159971,-0.15992 0.15997,-0.479762 V 45.57738 l 0.15997,-0.479761 -0.15997,-0.319842 v -0.479762 l -0.15997,-0.319841 -0.159971,-0.319841 -0.31994,-0.159921 -0.319941,-0.15992 -0.31994,-0.159921 z m 21.276041,-0.479762 h 5.758929 v 1.279365 H 40.63244 v 0.959524 0.959524 l 0.159971,0.799603 0.15997,0.799603 0.31994,0.639683 0.319941,0.799603 0.479911,0.639682 0.47991,0.479762 0.639881,0.639683 -0.639881,0.959524 -0.47991,-0.319842 L 41.752232,50.854761 41.272321,50.375 40.952381,49.895238 40.63244,49.255555 40.3125,48.775793 39.992559,48.136111 v -0.639683 0.319841 0.159921 l -0.31994,0.639683 -0.15997,0.639682 -0.319941,0.479762 -0.47991,0.639683 -0.479911,0.639682 -0.479911,0.479762 -0.479911,0.479762 -0.639881,-0.799603 0.639881,-0.799603 0.639881,-0.639683 0.479911,-0.639683 0.319941,-0.799603 0.31994,-0.799603 0.15997,-0.799603 0.159971,-0.959524 v -0.799603 -0.959524 h -2.239584 z m 11.677828,-0.159921 h 7.518601 v 1.279366 h -6.39881 v 3.678174 h 6.39881 v 1.279365 h -3.199405 v 2.718651 h 4.479167 v 1.279365 H 47.35119 v -1.279365 h 4.639137 V 48.775793 H 48.790923 Z M 27.03497,42.378968 h 1.119792 v 1.919047 l 0.15997,1.119445 0.15997,0.959524 0.159971,0.959523 0.31994,0.799604 0.319941,0.799603 0.47991,0.639682 0.639881,0.639683 0.639881,0.639682 -0.15997,0.319842 -0.15997,0.15992 v 0.159921 l -0.319941,0.159921 -0.479911,-0.319842 -0.31994,-0.479762 -0.479911,-0.479761 -0.47991,-0.479762 -0.319941,-0.639683 -0.31994,-0.639682 -0.319941,-0.639683 v -0.479762 l -0.15997,0.479762 -0.15997,0.479762 -0.319941,0.639682 -0.31994,0.639683 -0.479911,0.639683 -0.479911,0.479761 -0.47991,0.479762 -0.479911,0.479762 -0.639881,-0.959524 0.639881,-0.479761 0.639881,-0.639683 0.479911,-0.799603 0.31994,-0.799603 0.31994,-0.799604 0.319941,-0.959523 0.15997,-0.959524 v -1.119445 z m -11.197916,-0.479762 0.47991,0.159921 0.639881,0.15992 0.479911,0.319841 0.31994,0.319842 0.479911,0.479762 0.15997,0.479762 0.159971,0.639682 0.15997,0.639683 -0.15997,0.639682 -0.159971,0.639683 -0.15997,0.639682 -0.31994,0.479762 -0.479911,0.319841 -0.479911,0.319842 -0.479911,0.15992 h -0.63988 -0.639881 L 14.717262,48.136111 14.237351,47.816269 13.75744,47.496428 13.4375,47.016666 13.27753,46.536904 12.957589,45.897222 v -0.799603 -0.639683 l 0.15997,-0.639682 0.319941,-0.479762 0.31994,-0.479762 0.479911,-0.319842 0.479911,-0.319841 0.479911,-0.15992 z m 28.634672,-0.479762 h 1.119792 v 12.953571 h -1.119792 z m -12.317708,0 h 0.959821 v 4.95754 h 1.759673 v 1.279365 h -1.759673 v 6.716666 h -0.959821 z m -11.517857,0 h 1.119791 v 7.356349 h -1.119791 v -1.759127 h -1.919643 v -1.119444 h 1.919643 v -1.439286 h -1.919643 v -1.279365 h 1.919643 z"
     style="fill:#ffffff;fill-opacity:1;fill-rule:evenodd;stroke:none" />
  <path
     id="path72"
     d="m 14.397321,49.575396 h 7.358631 v 4.797619 h -1.119791 v -3.518254 h -6.23884 v -1.279365"
     style="fill:none;stroke:#ffffff;stroke-width:0.15997024px;stroke-linecap:round;stroke-linejoin:round;stroke-miterlimit:4;stroke-dasharray:none;stroke-opacity:1" />
  <path
     id="path74"
     d="m 15.837054,43.178571 h -0.319941 l -0.31994,0.159921 -0.319941,0.15992 -0.31994,0.319842 -0.159971,0.15992 -0.15997,0.319841 -0.15997,0.479762 v 0.319842 0.479761 l 0.15997,0.319842 0.15997,0.479762 0.159971,0.15992 0.31994,0.319842 0.319941,0.15992 0.31994,0.159921 h 0.319941 0.31994 l 0.31994,-0.159921 0.319941,-0.15992 0.31994,-0.319842 0.159971,-0.15992 0.15997,-0.479762 V 45.57738 l 0.15997,-0.479761 -0.15997,-0.319842 v -0.479762 l -0.15997,-0.319841 -0.159971,-0.319841 -0.31994,-0.159921 -0.319941,-0.15992 -0.31994,-0.159921 h -0.31994 v 0"
     style="fill:none;stroke:#ffffff;stroke-width:0.15997024px;stroke-linecap:round;stroke-linejoin:round;stroke-miterlimit:4;stroke-dasharray:none;stroke-opacity:1" />
  <path
     id="path76"
     d="m 37.113095,42.698809 h 5.758929 v 1.279365 H 40.63244 v 0.959524 0.959524 l 0.159971,0.799603 0.15997,0.799603 0.31994,0.639683 0.319941,0.799603 0.479911,0.639682 0.47991,0.479762 0.639881,0.639683 -0.639881,0.959524 -0.47991,-0.319842 L 41.752232,50.854761 41.272321,50.375 40.952381,49.895238 40.63244,49.255555 40.3125,48.775793 39.992559,48.136111 v -0.639683 0.319841 0.159921 l -0.31994,0.639683 -0.15997,0.639682 -0.319941,0.479762 -0.47991,0.639683 -0.479911,0.639682 -0.479911,0.479762 -0.479911,0.479762 -0.639881,-0.799603 0.639881,-0.799603 0.639881,-0.639683 0.479911,-0.639683 0.319941,-0.799603 0.31994,-0.799603 0.15997,-0.799603 0.159971,-0.959524 v -0.799603 -0.959524 h -2.239584 v -1.279365"
     style="fill:none;stroke:#ffffff;stroke-width:0.15997024px;stroke-linecap:round;stroke-linejoin:round;stroke-miterlimit:4;stroke-dasharray:none;stroke-opacity:1" />
  <path
     id="path78"
     d="m 48.790923,42.538888 h 7.518601 v 1.279366 h -6.39881 v 3.678174 h 6.39881 v 1.279365 h -3.199405 v 2.718651 h 4.479167 v 1.279365 H 47.35119 v -1.279365 h 4.639137 v -2.718651 h -3.199404 v -6.236905"
     style="fill:none;stroke:#ffffff;stroke-width:0.15997024px;stroke-linecap:round;stroke-linejoin:round;stroke-miterlimit:4;stroke-dasharray:none;stroke-opacity:1" />
  <path
     id="path80"
     d="m 27.03497,42.378968 h 1.119792 v 1.919047 l 0.15997,1.119445 0.15997,0.959524 0.159971,0.959523 0.31994,0.799604 0.319941,0.799603 0.47991,0.639682 0.639881,0.639683 0.639881,0.639682 -0.15997,0.319842 -0.15997,0.15992 v 0.159921 l -0.319941,0.159921 -0.479911,-0.319842 -0.31994,-0.479762 -0.479911,-0.479761 -0.47991,-0.479762 -0.319941,-0.639683 -0.31994,-0.639682 -0.319941,-0.639683 v -0.479762 l -0.15997,0.479762 -0.15997,0.479762 -0.319941,0.639682 -0.31994,0.639683 -0.479911,0.639683 -0.479911,0.479761 -0.47991,0.479762 -0.479911,0.479762 -0.639881,-0.959524 0.639881,-0.479761 0.639881,-0.639683 0.479911,-0.799603 0.31994,-0.799603 0.31994,-0.799604 0.319941,-0.959523 0.15997,-0.959524 v -1.119445 -1.919047"
     style="fill:none;stroke:#ffffff;stroke-width:0.15997024px;stroke-linecap:round;stroke-linejoin:round;stroke-miterlimit:4;stroke-dasharray:none;stroke-opacity:1" />
  <path
     id="path82"
     d="m 15.837054,41.899206 0.47991,0.159921 0.639881,0.15992 0.479911,0.319841 0.31994,0.319842 0.479911,0.479762 0.15997,0.479762 0.159971,0.639682 0.15997,0.639683 -0.15997,0.639682 -0.159971,0.639683 -0.15997,0.639682 -0.31994,0.479762 -0.479911,0.319841 -0.479911,0.319842 -0.479911,0.15992 h -0.63988 -0.639881 L 14.717262,48.136111 14.237351,47.816269 13.75744,47.496428 13.4375,47.016666 13.27753,46.536904 12.957589,45.897222 v -0.799603 -0.639683 l 0.15997,-0.639682 0.319941,-0.479762 0.31994,-0.479762 0.479911,-0.319842 0.479911,-0.319841 0.479911,-0.15992 0.639881,-0.159921 v 0"
     style="fill:none;stroke:#ffffff;stroke-width:0.15997024px;stroke-linecap:round;stroke-linejoin:round;stroke-miterlimit:4;stroke-dasharray:none;stroke-opacity:1" />
  <path
     id="path84"
     d="m 44.471726,41.419444 h 1.119792 V 54.373015 H 44.471726 V 41.419444"
     style="fill:none;stroke:#ffffff;stroke-width:0.15997024px;stroke-linecap:round;stroke-linejoin:round;stroke-miterlimit:4;stroke-dasharray:none;stroke-opacity:1" />
  <path
     id="path86"
     d="m 32.154018,41.419444 h 0.959821 v 4.95754 h 1.759673 v 1.279365 h -1.759673 v 6.716666 H 32.154018 V 41.419444"
     style="fill:none;stroke:#ffffff;stroke-width:0.15997024px;stroke-linecap:round;stroke-linejoin:round;stroke-miterlimit:4;stroke-dasharray:none;stroke-opacity:1" />
  <path
     id="path88"
     d="m 20.636161,41.419444 h 1.119791 v 7.356349 h -1.119791 v -1.759127 h -1.919643 v -1.119444 h 1.919643 v -1.439286 h -1.919643 v -1.279365 h 1.919643 v -1.759127"
     style="fill:none;stroke:#ffffff;stroke-width:0.15997024px;stroke-linecap:round;stroke-linejoin:round;stroke-miterlimit:4;stroke-dasharray:none;stroke-opacity:1" />
</svg>
