<?xml version="1.0" encoding="UTF-8" standalone="no"?>
<svg
   xmlns:dc="http://purl.org/dc/elements/1.1/"
   xmlns:cc="http://creativecommons.org/ns#"
   xmlns:rdf="http://www.w3.org/1999/02/22-rdf-syntax-ns#"
   xmlns:svg="http://www.w3.org/2000/svg"
   xmlns="http://www.w3.org/2000/svg"
   id="svg45"
   height="17.476746mm"
   width="18.623201mm"
   version="1.0">
  <metadata
     id="metadata49">
    <rdf:RDF>
      <cc:Work
         rdf:about="">
        <dc:format>image/svg+xml</dc:format>
        <dc:type
           rdf:resource="http://purl.org/dc/dcmitype/StillImage" />
        <dc:title></dc:title>
      </cc:Work>
    </rdf:RDF>
  </metadata>
  <defs
     id="defs11">
    <pattern
       y="0"
       x="0"
       height="6"
       width="6"
       patternUnits="userSpaceOnUse"
       id="WMFhbasepattern" />
  </defs>
  <path
     id="path13"
     d="M 0,0 V 66.05384 H 70.386905 V 0 Z"
     style="fill:#767676;fill-opacity:1;fill-rule:evenodd;stroke:none" />
  <path
     id="path15"
     d="M 0.31994048,0.31987332 V 1.5993666 H 70.226934 V 0.31987332 Z"
     style="fill:#7a7b7b;fill-opacity:1;fill-rule:evenodd;stroke:none" />
  <path
     id="path17"
     d="M 69.107143,0.31987332 V 65.893903 h 0.959821 V 0.31987332 Z"
     style="fill:#7a7b7b;fill-opacity:1;fill-rule:evenodd;stroke:none" />
  <path
     id="path19"
     d="M 2.3995536,2.5589866 V 63.814726 H 67.987351 V 2.5589866 Z"
     style="fill:#767676;fill-opacity:1;fill-rule:evenodd;stroke:none" />
  <path
     id="path21"
     d="m 32.793899,17.273159 v 11.835313 h 9.438244 v -2.079177 h -6.87872 v -9.756136 z"
     style="fill:#ffffff;fill-opacity:1;fill-rule:evenodd;stroke:none" />
  <path
     id="path23"
     d="m 50.390625,24.150435 v -0.47981 l -0.15997,-0.639747 v -0.799683 l -0.159971,-0.799683 -0.15997,-0.639747 -0.15997,-0.639746 -0.15997,-0.799684 -0.319941,-0.639746 -0.31994,-0.639747 -0.319941,-0.639747 -0.31994,-0.639746 -0.319941,-0.639747 -0.31994,-0.639746 -0.479911,-0.47981 -0.479911,-0.639747 -0.47991,-0.47981 -0.479911,-0.47981 -0.479911,-0.47981 -0.639881,-0.47981 -0.47991,-0.319873 -0.639881,-0.47981 L 42.872024,11.355502 42.232143,11.035629 41.592262,10.715756 40.952381,10.395882 40.3125,10.076009 39.672619,9.9160724 38.872768,9.7561364 38.232887,9.5961994 37.433036,9.4362634 h -0.799852 -0.63988 -0.479911 -0.319941 -0.639881 -0.639881 l -0.639881,0.159936 h -0.63988 l -0.639881,0.159937 -0.639881,0.3198726 -0.639881,0.159937 -0.639881,0.159936 -0.639881,0.319874 -0.479911,0.319873 -0.639881,0.159937 -0.479911,0.319873 -0.639881,0.47981 -0.47991,0.319873 -0.479911,0.319874 -0.479911,0.47981 -0.47991,0.47981 -0.479911,0.47981 -0.319941,0.47981 -0.47991,0.47981 -0.319941,0.47981 -0.479911,0.47981 -0.31994,0.479809 -0.31994,0.639747 -0.319941,0.47981 -0.15997,0.639747 -0.319941,0.639746 -0.15997,0.639747 -0.15997,0.47981 -0.15997,0.639747 -0.159971,0.639746 -0.15997,0.319874 h -2.239583 l 3.999256,7.037213 4.159226,-7.037213 h -2.399554 l 0.159971,-0.47981 0.31994,-0.799684 0.319941,-0.95962 0.47991,-0.799683 0.479911,-0.799683 0.479911,-0.799684 0.639881,-0.639746 0.639881,-0.639747 0.799851,-0.639746 0.799851,-0.47981 0.799851,-0.47981 0.799851,-0.47981 0.959822,-0.319874 0.959821,-0.159936 0.959822,-0.319874 h 0.959821 0.479911 0.31994 0.639881 0.479911 l 0.639881,0.159937 0.479911,0.159937 0.639881,0.159936 0.47991,0.159937 0.479911,0.159937 0.479911,0.159936 0.639881,0.319874 0.47991,0.159936 0.479911,0.319874 0.319941,0.319873 0.47991,0.319873 0.479911,0.319874 0.31994,0.319873 0.479911,0.47981 0.319941,0.319873 0.31994,0.47981 0.319941,0.47981 0.31994,0.47981 0.319941,0.319873 0.15997,0.639747 0.31994,0.47981 0.159971,0.47981 0.15997,0.47981 0.31994,0.47981 v 0.639747 l 0.15997,0.47981 0.159971,0.639746 v 0.47981 0.639747 0.319873 0.47981 0.95962 l -0.159971,0.95962 -0.31994,0.95962 -0.31994,0.95962 -0.479911,0.799683 -0.479911,0.799683 -0.479911,0.799684 -0.639881,0.799683 -0.639881,0.639747 -0.63988,0.639746 -0.799852,0.47981 -0.799851,0.47981 -0.799851,0.47981 -0.959821,0.319874 -0.799852,0.319873 -0.47991,0.159937 v 3.518606 l 0.31994,-0.159937 0.639881,-0.159936 0.639881,-0.159937 0.639881,-0.159937 0.479911,-0.159936 0.639881,-0.319874 0.639881,-0.159936 0.47991,-0.319874 0.639881,-0.319873 0.479911,-0.319873 0.479911,-0.47981 0.639881,-0.319873 0.47991,-0.47981 0.479911,-0.319874 0.319941,-0.47981 0.47991,-0.47981 0.479911,-0.47981 0.31994,-0.47981 0.319941,-0.47981 0.479911,-0.639746 0.31994,-0.47981 0.319941,-0.639747 0.15997,-0.47981 0.31994,-0.639746 0.159971,-0.639747 0.31994,-0.639747 0.15997,-0.639746 0.15997,-0.639747 v -0.639747 l 0.159971,-0.639746 v -0.639747 l 0.15997,-0.639747 z"
     style="fill:#ffffff;fill-opacity:1;fill-rule:evenodd;stroke:none" />
  <path
     id="path25"
     d="m 14.397321,49.420427 h 7.358631 v 4.7981 H 20.636161 V 50.69992 h -6.23884 z m 1.439733,-6.397466 h -0.319941 l -0.31994,0.159936 -0.319941,0.159937 -0.31994,0.319873 -0.159971,0.159937 -0.15997,0.319873 -0.15997,0.47981 v 0.319874 0.47981 l 0.15997,0.319873 0.15997,0.47981 0.159971,0.159937 0.31994,0.319873 0.319941,0.159937 0.31994,0.159936 h 0.319941 0.31994 l 0.31994,-0.159936 0.319941,-0.159937 0.31994,-0.319873 0.159971,-0.159937 0.15997,-0.47981 v -0.319873 l 0.15997,-0.47981 -0.15997,-0.319874 v -0.47981 l -0.15997,-0.319873 -0.159971,-0.319873 -0.31994,-0.159937 -0.319941,-0.159937 -0.31994,-0.159936 z m 21.276041,-0.47981 h 5.758929 v 1.279493 H 40.63244 v 0.95962 0.95962 l 0.159971,0.799683 0.15997,0.799684 0.31994,0.639746 0.319941,0.799684 0.479911,0.639746 0.47991,0.47981 0.639881,0.639747 -0.639881,0.95962 -0.47991,-0.319874 -0.319941,-0.47981 -0.479911,-0.47981 -0.31994,-0.479809 -0.319941,-0.639747 -0.31994,-0.47981 -0.319941,-0.639747 v -0.639746 0.319873 0.159937 l -0.31994,0.639746 -0.15997,0.639747 -0.319941,0.47981 -0.47991,0.639746 -0.479911,0.639747 -0.479911,0.47981 -0.479911,0.47981 -0.639881,-0.799683 0.639881,-0.799684 0.639881,-0.639746 0.479911,-0.639747 0.319941,-0.799683 0.31994,-0.799683 0.15997,-0.799684 0.159971,-0.95962 v -0.799683 -0.95962 h -2.239584 z m 11.677828,-0.159937 h 7.518601 v 1.279493 h -6.39881 v 3.678544 h 6.39881 v 1.279493 h -3.199405 v 2.718923 h 4.479167 V 52.61916 H 47.35119 v -1.279493 h 4.639137 V 48.620744 H 48.790923 Z M 27.03497,42.223278 h 1.119792 v 1.919239 l 0.15997,1.119557 0.15997,0.95962 0.159971,0.95962 0.31994,0.799683 0.319941,0.799684 0.47991,0.639746 0.639881,0.639747 0.639881,0.639746 -0.15997,0.319874 -0.15997,0.159936 v 0.159937 l -0.319941,0.159937 -0.479911,-0.319874 -0.31994,-0.47981 -0.479911,-0.47981 -0.47991,-0.479809 -0.319941,-0.639747 -0.31994,-0.639747 -0.319941,-0.639746 v -0.47981 l -0.15997,0.47981 -0.15997,0.47981 -0.319941,0.639746 -0.31994,0.639747 -0.479911,0.639746 -0.479911,0.47981 -0.47991,0.47981 -0.479911,0.47981 -0.639881,-0.95962 0.639881,-0.47981 0.639881,-0.639746 0.479911,-0.799683 0.31994,-0.799684 0.31994,-0.799683 0.319941,-0.95962 0.15997,-0.95962 v -1.119557 z m -11.197916,-0.47981 0.47991,0.159936 0.639881,0.159937 0.479911,0.319873 0.31994,0.319874 0.479911,0.479809 0.15997,0.47981 0.159971,0.639747 0.15997,0.639747 -0.15997,0.639746 -0.159971,0.639747 -0.15997,0.639747 -0.31994,0.47981 -0.479911,0.319873 -0.479911,0.319873 -0.479911,0.159937 h -0.63988 -0.639881 l -0.479911,-0.159937 -0.479911,-0.319873 -0.479911,-0.319873 -0.31994,-0.47981 -0.15997,-0.47981 -0.319941,-0.639747 v -0.799683 -0.639747 l 0.15997,-0.639747 0.319941,-0.47981 0.31994,-0.479809 0.479911,-0.319874 0.479911,-0.319873 0.479911,-0.159937 z m 28.634672,-0.47981 h 1.119792 v 12.954869 h -1.119792 z m -12.317708,0 h 0.959821 v 4.958036 h 1.759673 v 1.279493 h -1.759673 v 6.71734 h -0.959821 z m -11.517857,0 h 1.119791 v 7.357086 h -1.119791 v -1.759303 h -1.919643 v -1.119557 h 1.919643 v -1.43943 h -1.919643 v -1.279493 h 1.919643 z"
     style="fill:#ffffff;fill-opacity:1;fill-rule:evenodd;stroke:none" />
  <path
     id="path27"
     d="m 14.397321,49.420427 h 7.358631 v 4.7981 H 20.636161 V 50.69992 h -6.23884 v -1.279493"
     style="fill:none;stroke:#ffffff;stroke-width:0.15997024px;stroke-linecap:round;stroke-linejoin:round;stroke-miterlimit:4;stroke-dasharray:none;stroke-opacity:1" />
  <path
     id="path29"
     d="m 15.837054,43.022961 h -0.319941 l -0.31994,0.159936 -0.319941,0.159937 -0.31994,0.319873 -0.159971,0.159937 -0.15997,0.319873 -0.15997,0.47981 v 0.319874 0.47981 l 0.15997,0.319873 0.15997,0.47981 0.159971,0.159937 0.31994,0.319873 0.319941,0.159937 0.31994,0.159936 h 0.319941 0.31994 l 0.31994,-0.159936 0.319941,-0.159937 0.31994,-0.319873 0.159971,-0.159937 0.15997,-0.47981 v -0.319873 l 0.15997,-0.47981 -0.15997,-0.319874 v -0.47981 l -0.15997,-0.319873 -0.159971,-0.319873 -0.31994,-0.159937 -0.319941,-0.159937 -0.31994,-0.159936 h -0.31994 v 0"
     style="fill:none;stroke:#ffffff;stroke-width:0.15997024px;stroke-linecap:round;stroke-linejoin:round;stroke-miterlimit:4;stroke-dasharray:none;stroke-opacity:1" />
  <path
     id="path31"
     d="m 37.113095,42.543151 h 5.758929 v 1.279493 H 40.63244 v 0.95962 0.95962 l 0.159971,0.799683 0.15997,0.799684 0.31994,0.639746 0.319941,0.799684 0.479911,0.639746 0.47991,0.47981 0.639881,0.639747 -0.639881,0.95962 -0.47991,-0.319874 -0.319941,-0.47981 -0.479911,-0.47981 -0.31994,-0.479809 -0.319941,-0.639747 -0.31994,-0.47981 -0.319941,-0.639747 v -0.639746 0.319873 0.159937 l -0.31994,0.639746 -0.15997,0.639747 -0.319941,0.47981 -0.47991,0.639746 -0.479911,0.639747 -0.479911,0.47981 -0.479911,0.47981 -0.639881,-0.799683 0.639881,-0.799684 0.639881,-0.639746 0.479911,-0.639747 0.319941,-0.799683 0.31994,-0.799683 0.15997,-0.799684 0.159971,-0.95962 v -0.799683 -0.95962 h -2.239584 v -1.279493"
     style="fill:none;stroke:#ffffff;stroke-width:0.15997024px;stroke-linecap:round;stroke-linejoin:round;stroke-miterlimit:4;stroke-dasharray:none;stroke-opacity:1" />
  <path
     id="path33"
     d="m 48.790923,42.383214 h 7.518601 v 1.279493 h -6.39881 v 3.678544 h 6.39881 v 1.279493 h -3.199405 v 2.718923 h 4.479167 V 52.61916 H 47.35119 v -1.279493 h 4.639137 v -2.718923 h -3.199404 v -6.23753"
     style="fill:none;stroke:#ffffff;stroke-width:0.15997024px;stroke-linecap:round;stroke-linejoin:round;stroke-miterlimit:4;stroke-dasharray:none;stroke-opacity:1" />
  <path
     id="path35"
     d="m 27.03497,42.223278 h 1.119792 v 1.919239 l 0.15997,1.119557 0.15997,0.95962 0.159971,0.95962 0.31994,0.799683 0.319941,0.799684 0.47991,0.639746 0.639881,0.639747 0.639881,0.639746 -0.15997,0.319874 -0.15997,0.159936 v 0.159937 l -0.319941,0.159937 -0.479911,-0.319874 -0.31994,-0.47981 -0.479911,-0.47981 -0.47991,-0.479809 -0.319941,-0.639747 -0.31994,-0.639747 -0.319941,-0.639746 v -0.47981 l -0.15997,0.47981 -0.15997,0.47981 -0.319941,0.639746 -0.31994,0.639747 -0.479911,0.639746 -0.479911,0.47981 -0.47991,0.47981 -0.479911,0.47981 -0.639881,-0.95962 0.639881,-0.47981 0.639881,-0.639746 0.479911,-0.799683 0.31994,-0.799684 0.31994,-0.799683 0.319941,-0.95962 0.15997,-0.95962 v -1.119557 -1.919239"
     style="fill:none;stroke:#ffffff;stroke-width:0.15997024px;stroke-linecap:round;stroke-linejoin:round;stroke-miterlimit:4;stroke-dasharray:none;stroke-opacity:1" />
  <path
     id="path37"
     d="m 15.837054,41.743468 0.47991,0.159936 0.639881,0.159937 0.479911,0.319873 0.31994,0.319874 0.479911,0.479809 0.15997,0.47981 0.159971,0.639747 0.15997,0.639747 -0.15997,0.639746 -0.159971,0.639747 -0.15997,0.639747 -0.31994,0.47981 -0.479911,0.319873 -0.479911,0.319873 -0.479911,0.159937 h -0.63988 -0.639881 l -0.479911,-0.159937 -0.479911,-0.319873 -0.479911,-0.319873 -0.31994,-0.47981 -0.15997,-0.47981 -0.319941,-0.639747 v -0.799683 -0.639747 l 0.15997,-0.639747 0.319941,-0.47981 0.31994,-0.479809 0.479911,-0.319874 0.479911,-0.319873 0.479911,-0.159937 0.639881,-0.159936 v 0"
     style="fill:none;stroke:#ffffff;stroke-width:0.15997024px;stroke-linecap:round;stroke-linejoin:round;stroke-miterlimit:4;stroke-dasharray:none;stroke-opacity:1" />
  <path
     id="path39"
     d="m 44.471726,41.263658 h 1.119792 V 54.218527 H 44.471726 V 41.263658"
     style="fill:none;stroke:#ffffff;stroke-width:0.15997024px;stroke-linecap:round;stroke-linejoin:round;stroke-miterlimit:4;stroke-dasharray:none;stroke-opacity:1" />
  <path
     id="path41"
     d="m 32.154018,41.263658 h 0.959821 v 4.958036 h 1.759673 v 1.279493 h -1.759673 v 6.71734 H 32.154018 V 41.263658"
     style="fill:none;stroke:#ffffff;stroke-width:0.15997024px;stroke-linecap:round;stroke-linejoin:round;stroke-miterlimit:4;stroke-dasharray:none;stroke-opacity:1" />
  <path
     id="path43"
     d="m 20.636161,41.263658 h 1.119791 v 7.357086 h -1.119791 v -1.759303 h -1.919643 v -1.119557 h 1.919643 v -1.43943 h -1.919643 v -1.279493 h 1.919643 v -1.759303"
     style="fill:none;stroke:#ffffff;stroke-width:0.15997024px;stroke-linecap:round;stroke-linejoin:round;stroke-miterlimit:4;stroke-dasharray:none;stroke-opacity:1" />
</svg>
