<?xml version="1.0" encoding="utf-8"?>
<!-- Generator: Adobe Illustrator 16.0.0, SVG Export Plug-In . SVG Version: 6.00 Build 0)  -->
<!DOCTYPE svg PUBLIC "-//W3C//DTD SVG 1.1//EN" "http://www.w3.org/Graphics/SVG/1.1/DTD/svg11.dtd">
<svg version="1.1" id="Layer_1" xmlns="http://www.w3.org/2000/svg" xmlns:xlink="http://www.w3.org/1999/xlink" x="0px" y="0px"
	 width="31px" height="31px" viewBox="0 0 31 31" enable-background="new 0 0 31 31" xml:space="preserve">
<g>
	<g>
		<path fill="#8CD4E1" d="M19.798,3.236l3.935,3.332c1.185,1.006,1.533,2.543,0.777,3.438c-0.459,0.538-0.914,1.075-1.373,1.615
			l-4.613,5.447l-0.23,0.268l-5.217,6.16l-0.034,0.043l-0.023-0.025l-8.684,2.842l-0.481-0.264L3.47,25.593l1.373-9.003
			l-0.029-0.021l0.035-0.041l5.223-6.156l0.224-0.271l4.685-5.528l1.304-1.538C17.038,2.144,18.611,2.231,19.798,3.236z
			 M18.973,4.619c-0.516-0.435-1.289-0.374-1.73,0.146l-0.971,1.148l5.396,4.571l0.974-1.146c0.439-0.519,0.375-1.29-0.139-1.731
			L18.973,4.619z M15.217,7.155l-8.096,9.556l5.396,4.571l8.098-9.553L15.217,7.155z M6.413,18.178L5.57,22.893l1.11,0.938
			l4.507-1.605L6.413,18.178z"/>
		<path fill="#8CD4E1" d="M4.325,26.464l-0.55-0.312l-0.41-0.532l0.007-0.042l1.363-8.944l-0.066-0.049l0.105-0.123L16.209,2.97
			c0.354-0.419,0.896-0.649,1.526-0.649c0.722,0,1.497,0.306,2.127,0.839l3.935,3.332c1.224,1.04,1.578,2.645,0.789,3.579
			c-0.313,0.369-0.626,0.736-0.938,1.104L13.047,23.693l-0.059-0.064L4.325,26.464z M3.92,26.015l0.425,0.232l8.674-2.839
			l10.476-12.363c0.313-0.368,0.625-0.736,0.938-1.104c0.718-0.849,0.374-2.329-0.766-3.297l-3.935-3.332
			C19.139,2.809,18.41,2.52,17.735,2.52c-0.57,0-1.059,0.206-1.374,0.579L4.948,16.565l-0.006,0.039l-1.366,8.961L3.92,26.015z
			 M6.66,23.943l-1.198-1.012l0.01-0.057l0.874-4.886l5.039,4.271l-0.164,0.058L6.66,23.943z M5.678,22.854l1.022,0.863l4.289-1.528
			l-4.509-3.822L5.678,22.854z M12.529,21.423l-5.549-4.7l0.065-0.076l8.16-9.632l0.076,0.065l5.475,4.638L12.529,21.423z
			 M7.262,16.699l5.243,4.442l7.969-9.401l-5.246-4.444L7.262,16.699z M21.679,10.625l-5.548-4.7l1.035-1.224
			C17.42,4.401,17.79,4.23,18.182,4.23c0.313,0,0.616,0.111,0.855,0.313l3.529,2.988c0.555,0.476,0.622,1.315,0.15,1.872
			L21.679,10.625z M16.412,5.901l5.243,4.442l0.909-1.07c0.4-0.473,0.343-1.186-0.128-1.59l-3.528-2.987
			c-0.203-0.171-0.461-0.266-0.727-0.266c-0.333,0-0.647,0.146-0.863,0.4L16.412,5.901z"/>
	</g>
	<path fill="#8CD4E1" d="M15.104,9.416c0.089-0.111,0.251-0.122,0.358-0.032l0.787,0.666c0.11,0.094,0.124,0.252,0.034,0.366
		l-5.78,6.818c-0.094,0.109-0.258,0.123-0.362,0.035l-0.786-0.672c-0.111-0.087-0.125-0.252-0.033-0.365L15.104,9.416z"/>
	<path fill="#8CD4E1" d="M17.229,11.215c0.09-0.11,0.258-0.123,0.363-0.033l0.785,0.671c0.109,0.091,0.125,0.253,0.03,0.363
		l-5.778,6.818c-0.094,0.106-0.256,0.125-0.362,0.03l-0.786-0.67c-0.112-0.084-0.124-0.254-0.033-0.357L17.229,11.215z"/>
	<g>
		<path fill="#8CD4E1" d="M3.1,26.869c0-0.131,0.107-0.234,0.236-0.234h24.547c0.131,0,0.232,0.104,0.232,0.234v0.934
			c0,0.129-0.104,0.231-0.232,0.231H3.336c-0.129,0-0.234-0.103-0.234-0.231v-0.934H3.1z"/>
		<path fill="#8CD4E1" d="M27.883,28.134H3.336c-0.184,0-0.334-0.148-0.334-0.331L3,26.869c0-0.185,0.151-0.334,0.336-0.334h24.547
			c0.187,0,0.332,0.146,0.332,0.334v0.934C28.215,27.985,28.066,28.134,27.883,28.134z M3.202,26.849l0,0.021v0.934
			c0,0.072,0.06,0.132,0.134,0.132h24.547c0.074,0,0.133-0.059,0.133-0.132v-0.934c0-0.075-0.059-0.135-0.133-0.135H3.336
			C3.268,26.734,3.211,26.784,3.202,26.849z"/>
	</g>
</g>
</svg>
