<?xml version="1.0" encoding="utf-8"?>
<!-- Generator: Adobe Illustrator 16.0.0, SVG Export Plug-In . SVG Version: 6.00 Build 0)  -->
<!DOCTYPE svg PUBLIC "-//W3C//DTD SVG 1.1//EN" "http://www.w3.org/Graphics/SVG/1.1/DTD/svg11.dtd">
<svg version="1.1" id="Layer_1" xmlns="http://www.w3.org/2000/svg" xmlns:xlink="http://www.w3.org/1999/xlink" x="0px" y="0px"
	 width="31px" height="31px" viewBox="0 0 31 31" enable-background="new 0 0 31 31" xml:space="preserve">
<g>
	<g>
		<path fill="#8CD4E1" d="M15.753,20.023c-5,0-9.199-4.101-9.199-9.101s4.1-9.101,9.199-9.101c5,0,9.101,4.101,9.101,9.101
			C24.952,15.924,20.854,20.023,15.753,20.023z M15.753,3.124c-4.301,0-7.801,3.5-7.801,7.699c0,4.301,3.5,7.7,7.801,7.7
			c4.302,0,7.699-3.5,7.699-7.7C23.555,6.624,20.055,3.124,15.753,3.124z"/>
		<path fill="#8CD4E1" d="M15.753,20.174c-5.067,0-9.349-4.237-9.349-9.251c0-5.101,4.194-9.25,9.349-9.25
			c5.101,0,9.251,4.15,9.251,9.25c0.048,2.423-0.869,4.721-2.581,6.468C20.663,19.185,18.294,20.174,15.753,20.174z M15.753,1.972
			c-4.989,0-9.049,4.015-9.049,8.951c0,4.852,4.144,8.95,9.049,8.95c2.46,0,4.753-0.956,6.455-2.692
			c1.655-1.688,2.542-3.91,2.495-6.255C24.703,5.987,20.688,1.972,15.753,1.972z M15.753,18.674c-4.384,0-7.951-3.522-7.951-7.851
			c0-4.328,3.566-7.849,7.951-7.849c2.157,0,4.173,0.848,5.675,2.387c1.452,1.488,2.224,3.429,2.175,5.465
			C23.603,15.152,20.081,18.674,15.753,18.674z M15.753,3.274c-4.219,0-7.651,3.387-7.651,7.549c0,4.163,3.432,7.55,7.651,7.55
			c4.163,0,7.549-3.387,7.549-7.55C23.35,8.864,22.608,7,21.213,5.571C19.768,4.09,17.828,3.274,15.753,3.274z"/>
	</g>
	<path fill="#8CD4E1" d="M15.753,16.823c-2.699,0-4.9-2.199-4.9-4.899c0-2.7,2.201-4.9,4.9-4.9c2.699,0,4.899,2.2,4.899,4.9
		C20.652,14.624,18.452,16.823,15.753,16.823z M15.753,8.424c-1.9,0-3.5,1.6-3.5,3.5c0,1.899,1.6,3.5,3.5,3.5
		c1.899,0,3.5-1.601,3.5-3.5C19.253,9.924,17.753,8.424,15.753,8.424z"/>
	<g>
		<path fill="#8CD4E1" d="M15.753,28.523c-0.301,0-0.6,0-1-0.101c-3.699-0.601-5.6-4.3-5.699-4.399l-0.102-0.301l2-5.8l1.301,0.5
			l-1.801,5.2c0.5,0.8,2,3,4.5,3.398c2,0.301,4.2-0.699,6.5-2.898l-2-5.9l1.301-0.399l2.302,6.7l-0.302,0.3
			C20.354,27.323,18.055,28.523,15.753,28.523z"/>
		<path fill="#8CD4E1" d="M15.753,28.674c-0.304,0-0.619,0-1.037-0.105c-2.187-0.354-4.22-1.898-5.711-4.344
			c-0.033-0.054-0.054-0.09-0.065-0.105l-0.027-0.048l-0.119-0.349l0.017-0.049l2.05-5.946l1.581,0.607l-1.824,5.27
			c0.838,1.321,2.265,2.936,4.358,3.269c1.907,0.293,4.048-0.656,6.304-2.793l-2.019-5.955l1.587-0.487l2.38,6.926l-0.369,0.366
			C20.441,27.448,18.116,28.674,15.753,28.674z M9.188,23.952c0.015,0.022,0.036,0.056,0.072,0.116
			c1.446,2.37,3.405,3.863,5.516,4.206c0.395,0.099,0.677,0.099,0.976,0.099c2.277,0,4.532-1.195,6.892-3.653l0.237-0.236
			l-2.224-6.475l-1.015,0.312l1.981,5.845l-0.069,0.066c-2.352,2.249-4.594,3.247-6.626,2.938c-2.237-0.356-3.739-2.082-4.604-3.468
			l-0.038-0.061l1.777-5.131l-1.021-0.393l-1.933,5.604L9.188,23.952z"/>
	</g>
	<polygon fill="#8CD4E1" points="13.452,21.124 18.452,21.124 15.952,25.124 	"/>
</g>
</svg>
