<?xml version="1.0" encoding="utf-8"?>
<!-- Generator: Adobe Illustrator 16.0.0, SVG Export Plug-In . SVG Version: 6.00 Build 0)  -->
<!DOCTYPE svg PUBLIC "-//W3C//DTD SVG 1.1//EN" "http://www.w3.org/Graphics/SVG/1.1/DTD/svg11.dtd">
<svg version="1.1" id="Layer_1" xmlns="http://www.w3.org/2000/svg" xmlns:xlink="http://www.w3.org/1999/xlink" x="0px" y="0px"
	 width="31px" height="31px" viewBox="0 0 31 31" enable-background="new 0 0 31 31" xml:space="preserve">
<g>
	<g>
		<path fill="#8CD4E1" d="M19.628,17.99c3-3.6,3-9-0.301-12.6c-3.6-3.899-9.6-4.2-13.6-0.7s-4.199,9.599-0.699,13.601
			c3.398,3.699,9.1,4.199,12.998,1.1c0,0,7.9,8.9,8.103,8.699l1.397-1.299C27.927,26.59,19.628,17.99,19.628,17.99z M17.525,17.59
			c-3.198,2.9-8.1,2.6-10.998-0.5c-2.9-3.2-2.602-8.099,0.5-11c3.199-2.9,8.1-2.6,10.998,0.5
			C20.927,9.79,20.729,14.689,17.525,17.59z"/>
		<g>
			<rect x="8.188" y="10.667" fill="#8CD4E1" width="8.718" height="2.571"/>
			<rect x="11.207" y="7.538" fill="#8CD4E1" width="2.569" height="8.717"/>
		</g>
	</g>
	<g>
		<path fill="#8CD4E1" d="M21.684,20.4l-1.256,1.41l5.125,5.771c0,0,0.24,0.231,0.441,0.041s1.016-0.927,1.311-1.208
			c0.295-0.282,0.068-0.509,0.068-0.509L21.684,20.4z"/>
		<path fill="#8CD4E1" d="M25.815,28.197L25.815,28.197c-0.319,0-0.547-0.196-0.609-0.256l-5.447-6.131l1.898-2.132l6.063,5.867
			c0.061,0.061,0.239,0.264,0.235,0.579c-0.002,0.165-0.057,0.411-0.306,0.65c-0.171,0.163-0.513,0.476-0.813,0.75
			c-0.219,0.2-0.415,0.379-0.5,0.46C26.191,28.124,26.011,28.197,25.815,28.197z M21.097,21.811l4.71,5.304
			c0.098-0.091,0.223-0.205,0.356-0.327c0.254-0.232,0.539-0.493,0.72-0.662l-5.172-5.003L21.097,21.811z"/>
	</g>
</g>
</svg>
