<?xml version="1.0" encoding="utf-8"?>
<!-- Generator: Adobe Illustrator 16.0.0, SVG Export Plug-In . SVG Version: 6.00 Build 0)  -->
<!DOCTYPE svg PUBLIC "-//W3C//DTD SVG 1.1//EN" "http://www.w3.org/Graphics/SVG/1.1/DTD/svg11.dtd">
<svg version="1.1" id="Layer_1" xmlns="http://www.w3.org/2000/svg" xmlns:xlink="http://www.w3.org/1999/xlink" x="0px" y="0px"
	 width="57.346px" height="31px" viewBox="0 0 57.346 31" enable-background="new 0 0 57.346 31" xml:space="preserve">
<g>
	<g>
		<path fill="#8CD4E1" d="M22.204,2.275h2.522c0.302,0,0.535,0.243,0.535,0.544v1.456l0.093,0.023l0.095,0.035l0.046,0.011
			l0.068,0.026l0.013,0.004l0.033,0.014l0.035,0.014l0.174,0.062l0.061,0.03l0.069,0.025l0.175,0.08l0.034,0.017l0.021,0.013
			l0.012,0.008l0.07,0.029l0.035,0.021L26.4,4.733l0.07,0.044l1.035-1.031c0.209-0.213,0.546-0.213,0.767,0l1.78,1.783
			c0.21,0.212,0.21,0.558,0,0.771L29.01,7.34l0.012,0.014l0.046,0.099l0.023,0.032l0.021,0.069l0.016,0.012l0.012,0.033l0.01,0.037
			l0.083,0.167l0.023,0.066l0.035,0.067l0.057,0.174l0.024,0.038l0.012,0.032v0.014l0.021,0.07l0.015,0.037l0.035,0.104l0.021,0.083
			h1.453c0.303,0,0.548,0.244,0.548,0.544v2.521c0,0.301-0.245,0.545-0.548,0.545H29.46l-0.011,0.015l-0.035,0.103L29.4,12.253
			l-0.021,0.07v0.014l-0.012,0.031l-0.024,0.038l-0.058,0.176l-0.034,0.064l-0.023,0.066l-0.083,0.169l-0.01,0.035l-0.012,0.032
			l-0.016,0.013l-0.02,0.069l-0.023,0.032l-0.046,0.099l-0.047,0.074l1.034,1.03c0.21,0.213,0.21,0.558,0,0.77l-1.779,1.783
			c-0.221,0.211-0.559,0.211-0.777,0l-1.034-1.044l-0.014,0.01L26.3,15.83l-0.035,0.02l-0.07,0.031l-0.012,0.006L26.159,15.9
			l-0.034,0.015l-0.175,0.08l-0.069,0.026l-0.061,0.026l-0.174,0.063l-0.035,0.017l-0.033,0.013l-0.013,0.004l-0.067,0.027
			l-0.047,0.01l-0.095,0.035l-0.093,0.021v1.455c0,0.303-0.231,0.545-0.535,0.545h-2.521c-0.305,0-0.547-0.242-0.547-0.545v-1.473
			l-0.014-0.006l-0.104-0.035l-0.037-0.011l-0.07-0.026l-0.012-0.004l-0.035-0.014l-0.035-0.018l-0.175-0.063l-0.068-0.027
			l-0.067-0.024l-0.163-0.08l-0.036-0.015l-0.034-0.013l-0.011-0.006l-0.07-0.031l-0.035-0.019L20.6,15.782l-0.011-0.01
			l-1.047,1.042c-0.21,0.213-0.557,0.213-0.77,0l-1.778-1.781c-0.215-0.212-0.215-0.557,0-0.77l1.027-1.03l-0.044-0.074l-0.047-0.1
			l-0.02-0.032l-0.03-0.069l-0.007-0.013l-0.016-0.032l-0.016-0.035l-0.08-0.169l-0.024-0.066l-0.027-0.064l-0.063-0.175
			l-0.016-0.039l-0.012-0.031l-0.007-0.015l-0.024-0.07l-0.009-0.037l-0.037-0.103l-0.003-0.015h-1.478
			c-0.3,0-0.543-0.244-0.543-0.545v-2.52c0-0.3,0.243-0.544,0.543-0.544h1.456l0.021-0.083l0.037-0.104l0.009-0.037l0.023-0.07
			l0.006-0.014l0.013-0.031l0.016-0.039l0.063-0.174l0.026-0.067l0.03-0.066l0.081-0.167l0.016-0.037l0.016-0.033l0.007-0.012
			l0.03-0.069l0.02-0.032l0.047-0.099L17.99,7.34l-1.044-1.041c-0.211-0.213-0.211-0.558,0-0.771l1.782-1.783
			c0.213-0.213,0.559-0.213,0.771,0l1.035,1.031L20.6,4.732l0.094-0.046l0.035-0.021l0.07-0.029l0.011-0.008l0.034-0.013
			l0.036-0.017l0.163-0.08l0.067-0.025l0.069-0.03l0.175-0.062l0.035-0.014l0.035-0.014l0.01-0.003l0.07-0.026l0.035-0.011
			l0.104-0.035l0.014-0.003V2.819C21.657,2.518,21.903,2.275,22.204,2.275z M22.994,3.258c-0.141,0-0.257,0.115-0.257,0.253V5.16
			l-0.033,0.005c-0.79,0.122-1.515,0.419-2.143,0.853L20.46,6.103L19.293,4.94c-0.05-0.05-0.114-0.077-0.182-0.077
			c-0.063,0-0.13,0.027-0.18,0.077l-0.719,0.719c-0.102,0.1-0.102,0.26,0,0.359l1.157,1.159l-0.036,0.046
			c-0.426,0.584-0.732,1.261-0.882,1.995l-0.037,0.246h-1.628c-0.144,0-0.257,0.115-0.257,0.256v1.018
			c0,0.138,0.113,0.253,0.257,0.253H18.4l0.009,0.066c0.122,0.783,0.422,1.507,0.854,2.132l0.086,0.112l-1.135,1.136
			c-0.102,0.1-0.102,0.261,0,0.359l0.719,0.72c0.101,0.1,0.26,0.1,0.359,0l1.132-1.13l0.047,0.037
			c0.581,0.426,1.256,0.732,1.989,0.883l0.276,0.041v1.598c0,0.14,0.116,0.254,0.257,0.254h1.013c0.14,0,0.256-0.114,0.256-0.254
			v-1.598l0.279-0.041c0.512-0.106,0.986-0.288,1.44-0.533l0.595-0.388l1.13,1.131c0.093,0.1,0.255,0.1,0.356,0l0.724-0.72
			c0.094-0.098,0.094-0.259,0-0.359l-1.142-1.135l0.022-0.024c0.439-0.615,0.757-1.333,0.896-2.109l0.022-0.177H30.2
			c0.142,0,0.258-0.115,0.258-0.253V9.72c0-0.141-0.116-0.256-0.258-0.256h-1.616V9.455c-0.127-0.783-0.419-1.507-0.86-2.131
			L27.62,7.178l1.162-1.161c0.094-0.099,0.094-0.259,0-0.359L28.064,4.94c-0.104-0.1-0.267-0.1-0.356,0l-1.164,1.161l-0.015-0.01
			c-0.58-0.426-1.256-0.731-1.986-0.884l-0.279-0.041V3.511c0-0.138-0.117-0.253-0.256-0.253H22.994z M4.412,4.029H16.71
			l-0.527,0.97l-0.374,1.209H5.542c-0.328,0-0.596,0.267-0.596,0.594v12.807c0,0.326,0.268,0.593,0.596,0.593h22.536
			c0.323,0,0.595-0.267,0.595-0.593v-2.09l0.021-0.004c0.57-0.244,1.105-0.539,1.617-0.883l0.314-0.256v5.047
			c0,0.78-0.644,1.414-1.419,1.414H4.412C3.633,22.839,3,22.205,3,21.425V5.443C3.001,4.662,3.633,4.029,4.412,4.029z M23.495,6.61
			c2.014,0,3.651,1.632,3.651,3.647c0,2.013-1.64,3.646-3.651,3.646c-2.013,0-3.642-1.633-3.642-3.646
			C19.856,8.242,21.484,6.61,23.495,6.61z M23.495,7.575c-1.479,0-2.677,1.2-2.677,2.682c0,1.479,1.198,2.68,2.677,2.68
			s2.688-1.201,2.688-2.68C26.183,8.775,24.973,7.575,23.495,7.575z M23.495,8.995c0.696,0,1.269,0.563,1.269,1.262
			c0,0.696-0.57,1.262-1.269,1.262c-0.697,0-1.258-0.565-1.258-1.262C22.239,9.559,22.798,8.995,23.495,8.995z M25.986,21.003
			c-0.093,0-0.175,0.079-0.175,0.177v0.697c0,0.098,0.082,0.176,0.175,0.176h2.049c0.094,0,0.175-0.078,0.175-0.176V21.18
			c0-0.098-0.081-0.177-0.175-0.177H25.986z M15.373,23.984h3.218v1.031l-0.003,0.002l0.003,0.006v0.023
			c0,0.146,0.058,0.271,0.15,0.366l0.037,0.024l0.104,0.226c0.576,0.612,1.959,1.108,3.728,1.358l2.571,0.17v0.219
			c0,0.376-0.313,0.684-0.688,0.684H9.473c-0.379,0-0.686-0.308-0.686-0.684v-0.219c3.186,0,5.842-0.744,6.456-1.738l0.109-0.363
			l0.021-0.043v-0.014l0.006-0.021l-0.006-0.004V23.984z"/>
	</g>
	<g>
		<path fill="#8CD4E1" d="M38.281,11.396c-0.066-0.007-0.132-0.018-0.198-0.031c-0.296-0.049-0.563-0.137-0.8-0.263
			c-0.237-0.119-0.428-0.275-0.573-0.468c-0.145-0.192-0.217-0.429-0.217-0.709c0-0.273,0.079-0.508,0.237-0.704
			c0.157-0.196,0.358-0.354,0.603-0.473c0.243-0.119,0.512-0.207,0.805-0.263c0.293-0.056,0.574-0.084,0.845-0.084
			c0.27,0,0.552,0.028,0.845,0.084c0.293,0.056,0.562,0.144,0.805,0.263c0.244,0.126,0.445,0.286,0.604,0.478
			c0.157,0.193,0.236,0.426,0.236,0.699c0,0.273-0.074,0.508-0.222,0.704c-0.148,0.196-0.341,0.354-0.578,0.473
			s-0.504,0.207-0.801,0.263c-0.013,0-0.029,0.003-0.049,0.01v0.767c0.185-0.007,0.38-0.016,0.588-0.026
			c0.207-0.01,0.413-0.026,0.617-0.047s0.401-0.042,0.593-0.063s0.362-0.045,0.514-0.073v1.345c-0.415,0.077-0.85,0.128-1.304,0.152
			c-0.455,0.025-0.929,0.044-1.423,0.058c-0.06,0-0.118,0.002-0.178,0.005c-0.06,0.004-0.118,0.005-0.178,0.005l-3.23,0.01v-1.366
			h2.46V11.396z M36.069,8.17V6.909h5.749V8.17H36.069z M37.303,6.678v-1.25h3.261v1.25H37.303z M39.892,9.925
			c0-0.119-0.068-0.221-0.203-0.305s-0.37-0.126-0.706-0.126s-0.571,0.042-0.706,0.126c-0.136,0.084-0.203,0.186-0.203,0.305
			c0,0.126,0.067,0.229,0.203,0.31c0.135,0.081,0.37,0.121,0.706,0.121s0.571-0.041,0.706-0.121S39.892,10.051,39.892,9.925z
			 M42.391,5.165h1.521v3.867h1.383v1.408h-1.383v4.434h-1.521V5.165z"/>
		<path fill="#8CD4E1" d="M51.49,10.503h-5.077V5.774h5.077v0.778h1.216V5.165h1.521v7.156h-1.521V9.683H51.49V10.503z
			 M54.325,14.664h-6.916v-3.615h1.531v2.27h5.385V14.664z M49.968,9.137V7.141h-2.035v1.996H49.968z M51.49,7.855V8.38h1.216V7.855
			H51.49z"/>
		<path fill="#8CD4E1" d="M41.404,22.744c-0.271-0.091-0.525-0.195-0.766-0.314c-0.241-0.119-0.479-0.26-0.717-0.421
			c-0.178-0.119-0.343-0.248-0.494-0.389c-0.151-0.14-0.29-0.28-0.415-0.42c-0.178,0.287-0.431,0.563-0.761,0.83
			c-0.23,0.182-0.48,0.357-0.75,0.525c-0.271,0.168-0.567,0.329-0.89,0.483l-1.047-1.135c0.401-0.154,0.764-0.333,1.087-0.536
			c0.322-0.203,0.599-0.431,0.829-0.684c0.225-0.245,0.398-0.509,0.524-0.793c0.125-0.283,0.188-0.579,0.188-0.888v-0.967h1.57
			v0.967c0,0.525,0.209,1.005,0.628,1.439c0.418,0.435,1.038,0.816,1.862,1.146L41.404,22.744z M44.377,26.128H39.19v-0.389h5.088
			v-2.711h-6.658v1.25h5.088v0.389h-5.088v2.711h6.758V26.128z M44.308,17.774h-1.521v1.471h-1.729v1.355h1.729v2.154h1.521V17.774z
			"/>
		<path fill="#8CD4E1" d="M51.51,23.154c-0.231-0.07-0.475-0.166-0.731-0.289c-0.257-0.122-0.491-0.265-0.701-0.426
			c-0.158-0.119-0.318-0.248-0.479-0.389c-0.161-0.14-0.305-0.28-0.43-0.42c-0.093,0.14-0.212,0.282-0.36,0.426
			s-0.318,0.296-0.509,0.457c-0.251,0.196-0.504,0.373-0.761,0.53s-0.511,0.285-0.761,0.384l-0.969-1.104
			c0.566-0.259,1.031-0.517,1.394-0.772s0.612-0.502,0.751-0.74v0.01c0.204-0.392,0.326-0.763,0.365-1.113h-1.867v-1.366h5.354
			v1.366h-1.867c0.04,0.351,0.165,0.693,0.375,1.029c0.139,0.21,0.377,0.421,0.717,0.631c0.339,0.21,0.782,0.41,1.329,0.599
			L51.51,23.154z M54.197,26.375c-0.151,0.263-0.375,0.488-0.672,0.678c-0.303,0.182-0.677,0.324-1.121,0.426
			s-0.957,0.152-1.536,0.152c-1.159,0-2.043-0.194-2.652-0.584c-0.609-0.389-0.914-0.905-0.914-1.55
			c0-0.321,0.077-0.614,0.232-0.877c0.154-0.263,0.384-0.488,0.687-0.678c0.296-0.189,0.667-0.336,1.111-0.441
			s0.956-0.157,1.536-0.157c0.579,0,1.092,0.052,1.536,0.157s0.818,0.252,1.121,0.441c0.297,0.189,0.521,0.415,0.672,0.678
			s0.228,0.556,0.228,0.877C54.424,25.819,54.348,26.112,54.197,26.375z M52.581,25.066c-0.161-0.111-0.351-0.199-0.568-0.263
			c-0.217-0.056-0.435-0.095-0.651-0.115c-0.218-0.021-0.379-0.031-0.484-0.031c-0.593,0-1.066,0.078-1.423,0.236
			c-0.355,0.157-0.533,0.358-0.533,0.604c0,0.189,0.081,0.34,0.242,0.452s0.351,0.2,0.568,0.263c0.217,0.057,0.435,0.093,0.651,0.11
			c0.218,0.018,0.382,0.026,0.494,0.026c0.119,0,0.288-0.011,0.509-0.031c0.221-0.021,0.437-0.06,0.647-0.116
			c0.21-0.063,0.395-0.148,0.553-0.257s0.237-0.254,0.237-0.437C52.823,25.326,52.742,25.179,52.581,25.066z M51.273,21.326h1.531
			v2.164h1.521v-5.716h-1.521v2.186h-1.531V21.326z"/>
	</g>
</g>
</svg>
