<?xml version="1.0" encoding="utf-8"?>
<!-- Generator: Adobe Illustrator 16.0.0, SVG Export Plug-In . SVG Version: 6.00 Build 0)  -->
<!DOCTYPE svg PUBLIC "-//W3C//DTD SVG 1.1//EN" "http://www.w3.org/Graphics/SVG/1.1/DTD/svg11.dtd">
<svg version="1.1" id="Layer_1" xmlns="http://www.w3.org/2000/svg" xmlns:xlink="http://www.w3.org/1999/xlink" x="0px" y="0px"
	 width="31px" height="31px" viewBox="0 0 31 31" enable-background="new 0 0 31 31" xml:space="preserve">
<g>
	<path fill="#4A4F54" d="M15.195,2.272c5.053,0,9.429,2.909,11.532,7.143l0.586,1.46h-2.129l-0.977-1.806
		c-1.947-2.886-5.259-4.781-9.001-4.781c-3.752,0-7.051,1.895-9,4.781L6.04,9.367H3.713l0.469-0.905
		C6.441,4.752,10.52,2.272,15.195,2.272z M1.117,10.535h5.391v1.318l-3.366,4.765h3.43v1.478H1v-1.297l3.39-4.786H1.117V10.535z
		 M10.441,12.292c0.444,0,0.845,0.072,1.21,0.219c0.36,0.146,0.673,0.348,0.934,0.606c0.248,0.268,0.453,0.581,0.585,0.945
		c0.14,0.363,0.208,0.758,0.208,1.19c0,0.412-0.068,0.799-0.208,1.156c-0.143,0.361-0.353,0.674-0.611,0.939
		c-0.258,0.264-0.558,0.476-0.924,0.633c-0.362,0.155-0.75,0.233-1.194,0.233c-0.428,0-0.831-0.078-1.194-0.233
		c-0.363-0.157-0.662-0.367-0.923-0.633c-0.26-0.267-0.467-0.578-0.609-0.939c-0.144-0.356-0.207-0.744-0.207-1.156
		c0-0.432,0.063-0.828,0.207-1.19c0.143-0.364,0.335-0.677,0.599-0.945c0.26-0.258,0.571-0.461,0.934-0.606
		C9.61,12.363,10.013,12.292,10.441,12.292z M17.414,12.292c0.441,0,0.832,0.072,1.195,0.219c0.365,0.146,0.679,0.348,0.937,0.606
		c0.261,0.268,0.455,0.581,0.599,0.945c0.129,0.363,0.205,0.758,0.205,1.19c0,0.412-0.076,0.799-0.22,1.156
		c-0.144,0.361-0.339,0.674-0.599,0.939c-0.258,0.266-0.569,0.476-0.932,0.633c-0.354,0.155-0.757,0.233-1.187,0.233
		c-0.44,0-0.843-0.078-1.206-0.233c-0.352-0.157-0.662-0.367-0.922-0.633c-0.261-0.267-0.456-0.578-0.611-0.939
		c-0.143-0.356-0.209-0.744-0.209-1.156c0-0.432,0.066-0.828,0.209-1.19c0.143-0.364,0.338-0.677,0.597-0.945
		c0.258-0.258,0.57-0.461,0.936-0.606C16.572,12.363,16.975,12.292,17.414,12.292z M24.066,12.292c0.283,0,0.543,0.053,0.804,0.159
		c0.248,0.107,0.469,0.273,0.663,0.5c0.115-0.122,0.232-0.224,0.376-0.31c0.13-0.087,0.271-0.157,0.416-0.211
		c0.144-0.047,0.271-0.081,0.401-0.103c0.144-0.024,0.258-0.035,0.362-0.035c0.39,0,0.716,0.055,0.989,0.168
		c0.259,0.112,0.492,0.27,0.66,0.468c0.171,0.201,0.287,0.438,0.365,0.713c0.063,0.278,0.103,0.575,0.103,0.895v3.559h-1.634v-3.33
		c0-0.126-0.014-0.255-0.029-0.385c-0.012-0.13-0.037-0.251-0.089-0.365c-0.04-0.106-0.093-0.194-0.17-0.263
		c-0.063-0.069-0.154-0.105-0.271-0.105c-0.171,0-0.326,0.045-0.455,0.136c-0.117,0.088-0.222,0.208-0.313,0.353
		c-0.078,0.153-0.129,0.324-0.169,0.513c-0.038,0.19-0.051,0.383-0.051,0.583v2.862h-1.635v-3.33c0-0.126-0.013-0.255-0.024-0.385
		c-0.027-0.13-0.052-0.251-0.093-0.365c-0.037-0.106-0.09-0.194-0.168-0.263c-0.064-0.069-0.168-0.105-0.273-0.105
		c-0.182,0-0.323,0.045-0.453,0.136c-0.13,0.088-0.236,0.208-0.313,0.353c-0.08,0.153-0.131,0.324-0.168,0.513
		c-0.039,0.19-0.053,0.383-0.053,0.583v2.862h-1.65V12.41h1.586v0.209C23.131,12.4,23.561,12.292,24.066,12.292z M10.441,13.647
		c-0.181,0-0.362,0.047-0.518,0.14c-0.157,0.092-0.288,0.212-0.389,0.359c-0.118,0.153-0.197,0.325-0.25,0.518
		c-0.063,0.194-0.089,0.39-0.089,0.589c0,0.191,0.026,0.385,0.077,0.579c0.052,0.191,0.129,0.363,0.235,0.518
		c0.102,0.152,0.23,0.275,0.386,0.368c0.156,0.095,0.34,0.142,0.546,0.142c0.221,0,0.405-0.047,0.56-0.142
		c0.156-0.093,0.286-0.216,0.388-0.368c0.092-0.154,0.169-0.326,0.222-0.518c0.052-0.194,0.078-0.388,0.078-0.579
		c0-0.2-0.026-0.396-0.091-0.589c-0.052-0.192-0.129-0.365-0.247-0.518c-0.104-0.147-0.232-0.267-0.387-0.359
		C10.818,13.694,10.637,13.647,10.441,13.647z M17.414,13.647c-0.193,0-0.376,0.047-0.531,0.14c-0.154,0.092-0.285,0.212-0.39,0.359
		c-0.104,0.153-0.183,0.325-0.247,0.518c-0.053,0.194-0.077,0.39-0.077,0.589c0,0.191,0.024,0.385,0.063,0.579
		c0.052,0.191,0.131,0.363,0.232,0.518c0.105,0.152,0.234,0.275,0.391,0.368c0.158,0.095,0.34,0.142,0.559,0.142
		c0.208,0,0.391-0.047,0.547-0.142c0.154-0.093,0.285-0.216,0.393-0.368c0.102-0.154,0.168-0.326,0.22-0.518
		c0.051-0.194,0.077-0.388,0.077-0.579c0-0.2-0.026-0.396-0.077-0.589c-0.065-0.192-0.146-0.365-0.247-0.518
		c-0.105-0.147-0.233-0.267-0.391-0.359C17.777,13.694,17.609,13.647,17.414,13.647z M25.195,19.365h2.129l-0.598,1.479
		c-2.104,4.232-6.479,7.145-11.532,7.145c-5.065,0-9.429-2.911-11.534-7.145l-0.597-1.479h2.144l0.998,1.826
		c1.95,2.883,5.249,4.777,9,4.777c3.743,0,7.054-1.896,9.001-4.777L25.195,19.365z M27.986,19.695v7.037
		c0,0.692-0.56,1.254-1.245,1.254h-7.054l0.78-0.242c3.272-1.383,5.896-3.998,7.271-7.264L27.986,19.695z"/>
</g>
</svg>
