<?xml version="1.0" encoding="utf-8"?>
<!-- Generator: Adobe Illustrator 16.0.0, SVG Export Plug-In . SVG Version: 6.00 Build 0)  -->
<!DOCTYPE svg PUBLIC "-//W3C//DTD SVG 1.1//EN" "http://www.w3.org/Graphics/SVG/1.1/DTD/svg11.dtd">
<svg version="1.1" id="Layer_1" xmlns="http://www.w3.org/2000/svg" xmlns:xlink="http://www.w3.org/1999/xlink" x="0px" y="0px"
	 width="31px" height="31px" viewBox="0 0 31 31" enable-background="new 0 0 31 31" xml:space="preserve">
<g>
	<rect x="7.127" y="15.2" fill="#F2F2F3" width="0.799" height="4.588"/>
	<rect x="10.823" y="15.195" fill="#F2F2F3" width="1.298" height="5.854"/>
	<rect x="14.918" y="15.188" fill="#F2F2F3" width="0.799" height="4.591"/>
	<rect x="18.611" y="15.184" fill="#F2F2F3" width="1.3" height="5.854"/>
	<rect x="22.809" y="15.179" fill="#F2F2F3" width="0.797" height="4.592"/>
	<rect x="2.963" y="2.346" fill="#F2F2F3" width="1.299" height="6.196"/>
	<rect x="27.332" y="2.528" fill="#F2F2F3" width="1.297" height="6.193"/>
	<polygon fill="#F2F2F3" points="25.576,5.873 5.004,5.836 5.009,4.98 25.582,5.018 	"/>
	<g>
		<path fill="#F2F2F3" d="M20.84,5.208l0.001,0.319L6.858,5.546l2.3,2.241L9.058,8L4.163,5.337l4.989-2.464l0.101,0.108L6.858,5.227
			L20.84,5.208z"/>
	</g>
	<g>
		<path fill="#F2F2F3" d="M11.451,5.22l0.001,0.32l13.282-0.019L22.54,7.77l0.099,0.105l4.693-2.569l-4.799-2.558l-0.1,0.106
			l2.301,2.24L11.451,5.114V5.22z"/>
	</g>
	<g>
		<path fill="#F2F2F3" d="M28.514,27.909L2.648,27.945l-0.02-13.888l25.866-0.033L28.514,27.909z M4.044,26.223l23.069-0.033
			L27.098,15.52L4.03,15.55L4.044,26.223z"/>
		<path fill="#F2F2F3" d="M2.398,28.195L2.377,13.808l26.367-0.034l0.02,14.386h-0.25L2.398,28.195z M2.878,14.307l0.019,13.389
			l25.366-0.036l-0.02-13.385L2.878,14.307z M3.794,26.473L3.779,15.3l23.568-0.031l0.016,11.17h-0.25L3.794,26.473z M4.28,15.799
			l0.013,10.173l22.57-0.033l-0.016-10.169L4.28,15.799z"/>
	</g>
</g>
</svg>
