<?xml version="1.0" encoding="utf-8"?>
<!-- Generator: Adobe Illustrator 19.0.0, SVG Export Plug-In . SVG Version: 6.00 Build 0)  -->
<svg version="1.1" xmlns="http://www.w3.org/2000/svg" xmlns:xlink="http://www.w3.org/1999/xlink" x="0px" y="0px"
	 viewBox="-15.5 0 52.667 31" enable-background="new -15.5 0 52.667 31" xml:space="preserve">
<g id="Layer_4" display="none">
	<rect x="-129.25" y="-0.001" display="inline" fill="#FFFFFF" width="295" height="31"/>
	<path display="inline" fill="#4A4F54" d="M42.823,2.555L63.18,14.773l-7.515,2.271l6.57,7.227l-4.382,4.172l-6.191-7.809
		l-4.682,6.118L42.823,2.555z M45.928,7.246l2.506,14.542l3.171-4.133l6.556,7.945l1.374-1.438l-6.84-7.563l5.489-2.013
		L45.928,7.246z"/>
	<g display="inline">
		<path fill="#4A4F54" d="M-39.023,19.996v6.92c0,0.681-0.556,1.232-1.235,1.232h-6.939l0.774-0.239
			c3.219-1.357,5.798-3.932,7.16-7.142L-39.023,19.996z"/>
		<path fill="#4A4F54" d="M-51.618,2.851c4.97,0,9.267,2.86,11.341,7.025l0.66,1.653h-2.89l-0.606-1.184
			c-1.744-2.869-4.898-4.787-8.505-4.787c-3.432,0-6.459,1.739-8.247,4.384l-0.057,0.103h-3.084l0.565-1.105
			C-60.222,5.291-56.204,2.851-51.618,2.851z M-63.475,19.881h2.956l0.396,0.771c1.744,2.869,4.9,4.787,8.504,4.787
			c2.574,0,4.919-0.978,6.688-2.584l0.933-1.075h3.304l-0.431,0.79c-2.274,3.365-6.125,5.577-10.493,5.577
			c-5.242,0-9.738-3.186-11.66-7.725L-63.475,19.881z"/>
		<path fill="#4A4F54" d="M-65.601,11.252h2.011l1.618,2.325c0.275-0.391,0.542-0.781,0.806-1.163
			c0.26-0.381,0.528-0.771,0.805-1.162h1.953l-2.513,3.569c0.447,0.634,0.901,1.279,1.366,1.939
			c0.464,0.655,0.917,1.299,1.363,1.926h-2.073l-1.806-2.601c-0.286,0.432-0.579,0.865-0.874,1.301
			c-0.292,0.436-0.583,0.869-0.872,1.3h-2.01l2.727-3.853c-0.412-0.584-0.831-1.182-1.256-1.792
			C-64.781,12.43-65.196,11.834-65.601,11.252z M-55.785,11.252h2.068c0.387,0,0.765,0.022,1.128,0.069
			c0.369,0.046,0.696,0.144,0.984,0.292c0.281,0.152,0.507,0.369,0.68,0.655c0.176,0.284,0.261,0.662,0.261,1.131
			c0,0.411-0.098,0.757-0.296,1.036c-0.194,0.276-0.464,0.489-0.803,0.64c0.054,0.06,0.104,0.131,0.158,0.21
			c0.05,0.083,0.104,0.169,0.158,0.261l1.489,3.14h-1.845l-1.128-2.542c-0.112-0.208-0.242-0.342-0.389-0.406
			c-0.147-0.06-0.316-0.092-0.505-0.092h-0.292v3.041h-1.668V11.252z M-54.116,12.704v1.492h0.537c0.369,0,0.657-0.068,0.871-0.202
			c0.213-0.135,0.317-0.325,0.317-0.574c0-0.229-0.093-0.405-0.279-0.528c-0.188-0.125-0.454-0.188-0.798-0.188H-54.116z
			 M-46.378,12.978c0.851,0,1.454,0.195,1.815,0.591c0.359,0.391,0.537,0.984,0.537,1.772v2.068c0,0.258,0.008,0.479,0.021,0.664
			c0.011,0.185,0.046,0.391,0.098,0.613h-1.629v-0.215c-0.158,0.09-0.338,0.169-0.545,0.234c-0.208,0.064-0.434,0.096-0.682,0.096
			c-0.319,0-0.615-0.032-0.883-0.102c-0.269-0.068-0.498-0.178-0.688-0.328c-0.189-0.149-0.337-0.344-0.448-0.58
			c-0.104-0.233-0.162-0.516-0.162-0.844c0-0.365,0.092-0.672,0.267-0.918c0.176-0.25,0.401-0.451,0.668-0.6
			c0.264-0.151,0.549-0.259,0.86-0.325c0.309-0.063,0.602-0.098,0.875-0.098l0.629,0.021c-0.037-0.235-0.125-0.414-0.26-0.533
			c-0.136-0.125-0.341-0.183-0.623-0.183c-0.109,0-0.24,0.025-0.389,0.072c-0.147,0.051-0.302,0.112-0.467,0.193
			c-0.163,0.084-0.33,0.186-0.504,0.299c-0.174,0.114-0.338,0.236-0.496,0.366l-0.088-1.597c0.296-0.204,0.625-0.366,0.992-0.486
			C-47.109,13.038-46.744,12.978-46.378,12.978z M-43.006,13.095h1.736l1.101,3.336l1.108-3.336h1.658l-1.973,5.493
			c-0.092,0.25-0.195,0.506-0.315,0.775c-0.117,0.268-0.259,0.512-0.431,0.733c-0.18,0.226-0.388,0.405-0.632,0.552
			c-0.248,0.143-0.54,0.217-0.882,0.217c-0.144,0-0.302-0.013-0.474-0.031c-0.175-0.02-0.344-0.064-0.509-0.14l0.11-1.382
			c0.163,0.06,0.316,0.109,0.455,0.15c0.143,0.045,0.234,0.066,0.281,0.066c0.143,0,0.261-0.031,0.356-0.101
			c0.095-0.065,0.171-0.148,0.229-0.245c0.059-0.098,0.103-0.199,0.127-0.311c0.027-0.105,0.041-0.203,0.041-0.287L-43.006,13.095z
			 M-58.714,14.455h2.089v1.206h-2.089V14.455z M-45.82,16.273c-0.137,0-0.289,0.011-0.459,0.03
			c-0.17,0.021-0.328,0.052-0.473,0.099c-0.15,0.052-0.273,0.123-0.372,0.21c-0.099,0.09-0.148,0.201-0.148,0.338
			c0,0.088,0.021,0.161,0.054,0.229c0.036,0.063,0.085,0.119,0.142,0.154c0.061,0.047,0.126,0.08,0.193,0.105
			c0.068,0.022,0.135,0.033,0.203,0.033c0.346,0,0.605-0.093,0.781-0.287c0.178-0.192,0.268-0.439,0.268-0.731v-0.178L-45.82,16.273
			L-45.82,16.273z"/>
	</g>
	<g display="inline">
		<polygon fill="#4A4F54" points="82.853,4.244 91.725,14.526 85.103,19.271 85.418,18.245 85.525,17.189 89.766,14.211 
			82.603,6.029 80.211,7.79 81.434,10.669 80.619,10.419 79.523,7.832 74.265,6.516 75.158,11.229 75.039,11.293 74.578,11.674 
			73.602,6.536 69.229,8.551 70.511,19.856 72.401,18.89 72.594,19.513 72.847,19.974 69.324,21.731 67.818,7.363 73.515,4.804 
			79.367,6.625 		"/>
		<path fill="#4A4F54" d="M78.742,10.874c3.271,0,5.924,2.651,5.924,5.918c0,1.228-0.375,2.365-1.012,3.31l-0.008,0.007h0.006
			c0.102-0.005,0.207,0.031,0.285,0.109l4.92,4.677c0.162,0.155,0.168,0.408,0.014,0.569l-1.109,1.166
			c-0.154,0.16-0.406,0.167-0.568,0.014l-4.92-4.677c-0.08-0.077-0.121-0.181-0.127-0.281l0.037-0.093l-0.129,0.109
			c-0.945,0.635-2.088,1.008-3.313,1.008c-3.271,0-5.925-2.649-5.925-5.918C72.817,13.525,75.471,10.874,78.742,10.874z
			 M78.742,13.009c-2.093,0-3.789,1.695-3.789,3.783c0,2.089,1.695,3.781,3.789,3.781c2.09,0,3.783-1.692,3.783-3.781
			C82.525,14.704,80.832,13.009,78.742,13.009z"/>
	</g>
	<g display="inline">
		<path fill="#8FD5E1" d="M104.496,20.018c-5,0-9.199-4.1-9.199-9.1s4.1-9.101,9.199-9.101c5,0,9.1,4.101,9.1,9.101
			C113.695,15.918,109.596,20.018,104.496,20.018z M104.496,3.118c-4.3,0-7.8,3.5-7.8,7.699c0,4.301,3.5,7.7,7.8,7.7
			c4.301,0,7.699-3.5,7.699-7.7C112.297,6.618,108.797,3.118,104.496,3.118z"/>
		<path fill="#8FD5E1" d="M104.496,16.817c-2.699,0-4.9-2.199-4.9-4.899c0-2.7,2.201-4.9,4.9-4.9c2.699,0,4.9,2.2,4.9,4.9
			C109.396,14.618,107.195,16.817,104.496,16.817z M104.496,8.418c-1.9,0-3.5,1.6-3.5,3.5c0,1.899,1.6,3.5,3.5,3.5
			c1.9,0,3.5-1.601,3.5-3.5C107.996,9.918,106.496,8.418,104.496,8.418z"/>
		<path fill="#8FD5E1" d="M104.496,28.518c-0.3,0-0.6,0-1-0.1c-3.699-0.601-5.6-4.3-5.699-4.4l-0.101-0.3l2-5.8l1.3,0.5l-1.8,5.2
			c0.5,0.8,2,3,4.5,3.399c1.999,0.3,4.2-0.7,6.499-2.899l-2-5.9l1.301-0.4l2.301,6.7l-0.301,0.3
			C109.096,27.317,106.797,28.518,104.496,28.518z"/>
		<polygon fill="#8FD5E1" points="102.196,21.118 107.195,21.118 104.696,25.118 		"/>
	</g>
	<g display="inline">
		<path fill="#F2F2F3" d="M-26.854,50.348h0.186h1.65h0.188c0.889,0.32,0.997,1.6,1.092,1.922h-1.28h-1.65h-1.279
			C-27.852,51.947-27.742,50.668-26.854,50.348z"/>
		<path fill="#F2F2F3" d="M-28.481,52.632h6.4l-1.182,0.976l-0.29,0.351h-4.295c-0.511,0-0.923,0.413-0.923,0.924v10.164
			c0,0.228,0.18,0.409,0.408,0.409h4.59l0.51,0.615l0.857,0.711h-6.709c-0.589,0-1.065-0.479-1.065-1.067V54.331
			C-30.181,53.395-29.42,52.632-28.481,52.632z M-11.982,52.632h3.084c0.938,0,1.696,0.763,1.696,1.699v11.383
			c0,0.591-0.474,1.067-1.063,1.067h-3.395l0.856-0.711l0.51-0.615h1.275c0.228,0,0.408-0.184,0.408-0.409v-2.758l0.209-0.673
			c0.117-0.572,0.18-1.168,0.18-1.776c0-0.606-0.063-1.202-0.18-1.774l-0.209-0.672v-2.511c0-0.512-0.412-0.924-0.923-0.924h-0.979
			l-0.291-0.351L-11.982,52.632z"/>
		<path fill="#F2F2F3" d="M-23.22,59.887c0,3.438,2.784,6.219,6.218,6.219c3.434,0,6.217-2.781,6.217-6.219
			c0-3.433-2.783-6.215-6.217-6.215C-20.436,53.671-23.22,56.454-23.22,59.887z M-25.088,59.887c0-4.464,3.62-8.086,8.086-8.086
			c4.466,0,8.086,3.623,8.086,8.086c0,4.469-3.62,8.09-8.086,8.09C-21.468,67.977-25.088,64.354-25.088,59.887z"/>
		<path fill="#F2F2F3" d="M-20.024,59.887c0,1.67,1.352,3.024,3.022,3.024c1.67,0,3.023-1.354,3.023-3.024
			c0-1.668-1.354-3.022-3.023-3.022C-18.673,56.863-20.024,58.219-20.024,59.887z M-21.418,59.887c0-2.437,1.977-4.414,4.417-4.414
			c2.438,0,4.416,1.979,4.416,4.414c0,2.44-1.978,4.418-4.416,4.418C-19.441,64.305-21.418,62.327-21.418,59.887z"/>
		<path fill="#F2F2F3" d="M-22.468,41.997L-5.125,48.8l-1.634,4.169l-0.843-0.74l1.039-2.649l-15.381-6.036l-2.398,6.111
			l-0.232,0.005c-0.4,0.005-0.535,0.009-0.728-0.005l-0.164-0.014L-22.468,41.997z"/>
	</g>
</g>
<g id="Layer_5">
	<g display="none">
		<path display="inline" fill="#8CD4E1" d="M-4.439,5.568h-6.744V4.404h6.744V5.568z M-7.775,9.204c-0.44,0-0.84-0.038-1.2-0.114
			c-0.36-0.076-0.668-0.186-0.924-0.33c-0.256-0.136-0.454-0.306-0.594-0.51c-0.14-0.204-0.21-0.434-0.21-0.69
			c0-0.256,0.07-0.486,0.21-0.69c0.14-0.204,0.338-0.378,0.594-0.522c0.256-0.144,0.564-0.254,0.924-0.33
			c0.36-0.076,0.76-0.114,1.2-0.114c0.432,0,0.828,0.038,1.188,0.114c0.36,0.076,0.668,0.186,0.924,0.33
			c0.256,0.144,0.454,0.318,0.594,0.522s0.21,0.434,0.21,0.69c0,0.256-0.07,0.486-0.21,0.69s-0.338,0.374-0.594,0.51
			c-0.256,0.144-0.564,0.254-0.924,0.33C-6.947,9.166-7.343,9.204-7.775,9.204z M-1.871,11.676c0,0.664-0.346,1.192-1.038,1.584
			c-0.692,0.392-1.718,0.588-3.078,0.588c-1.344,0-2.37-0.196-3.078-0.588c-0.708-0.392-1.062-0.92-1.062-1.584
			c0-0.656,0.354-1.18,1.062-1.572c0.708-0.392,1.734-0.588,3.078-0.588c1.36,0,2.386,0.196,3.078,0.588
			C-2.217,10.496-1.871,11.02-1.871,11.676z M-5.927,3.876h-3.444v-1.02h3.444V3.876z M-6.359,7.56c0-0.2-0.116-0.36-0.348-0.48
			C-6.939,6.96-7.295,6.9-7.775,6.9c-0.488,0-0.848,0.06-1.08,0.18C-9.087,7.2-9.203,7.36-9.203,7.56
			c0,0.192,0.116,0.348,0.348,0.468c0.232,0.12,0.592,0.18,1.08,0.18c0.48,0,0.836-0.06,1.068-0.18
			C-6.475,7.908-6.359,7.752-6.359,7.56z M-3.395,11.688c0-0.16-0.062-0.304-0.186-0.432c-0.124-0.127-0.298-0.24-0.522-0.336
			c-0.232-0.088-0.508-0.156-0.828-0.204c-0.32-0.048-0.672-0.072-1.056-0.072c-0.4,0-0.76,0.026-1.08,0.078
			c-0.32,0.052-0.608,0.126-0.864,0.222c-0.464,0.192-0.696,0.44-0.696,0.744c0,0.312,0.232,0.556,0.696,0.732
			c0.512,0.208,1.16,0.312,1.944,0.312s1.42-0.104,1.908-0.312C-3.623,12.244-3.395,12-3.395,11.688z M-0.395,6.984h-1.68V9.48
			h-1.428V2.94h1.428v2.832h1.68V6.984z"/>
		<path display="inline" fill="#8CD4E1" d="M0.252,8.688V7.5h4.08V5.58h1.477V7.5h5.232v1.188H0.252z M9.961,11.568
			c0,0.336-0.094,0.646-0.283,0.93c-0.188,0.284-0.465,0.526-0.834,0.726c-0.367,0.2-0.816,0.356-1.35,0.468
			C6.963,13.804,6.35,13.86,5.652,13.86c-0.688,0-1.299-0.056-1.836-0.168c-0.535-0.112-0.988-0.268-1.355-0.468
			c-0.369-0.2-0.648-0.442-0.84-0.726c-0.193-0.284-0.289-0.594-0.289-0.93c0-0.672,0.385-1.22,1.152-1.644
			C3.236,9.508,4.289,9.3,5.641,9.3c1.375,0,2.432,0.208,3.168,0.624C9.576,10.34,9.961,10.888,9.961,11.568z M9.865,3.348
			c0,0.232-0.006,0.492-0.02,0.78C9.834,4.416,9.809,4.752,9.77,5.136C9.729,5.52,9.672,5.858,9.602,6.15
			c-0.072,0.292-0.16,0.563-0.266,0.81H7.896c0.137-0.408,0.24-0.824,0.313-1.248C8.281,5.288,8.316,4.904,8.316,4.56H1.5V3.348
			H9.865z M5.652,10.488c-0.424,0-0.807,0.026-1.146,0.078c-0.34,0.052-0.641,0.126-0.904,0.222
			c-0.488,0.192-0.732,0.448-0.732,0.768c0,0.368,0.244,0.64,0.732,0.816c0.535,0.208,1.219,0.312,2.051,0.312
			c0.816,0,1.492-0.104,2.029-0.312c0.494-0.184,0.742-0.456,0.742-0.816c0-0.32-0.248-0.576-0.742-0.768
			c-0.266-0.096-0.564-0.17-0.9-0.222C6.445,10.514,6.068,10.488,5.652,10.488z"/>
		<path display="inline" fill="#8CD4E1" d="M18.181,4.524h2.268V2.94h1.429v6.24h-1.429V7.8h-2.567
			c-0.032,0.032-0.064,0.06-0.097,0.084c-0.28,0.24-0.607,0.424-0.983,0.552s-0.776,0.192-1.2,0.192c-0.4,0-0.786-0.06-1.158-0.18
			c-0.372-0.12-0.702-0.296-0.99-0.528c-0.288-0.224-0.518-0.5-0.689-0.828s-0.258-0.696-0.258-1.104c0-0.4,0.086-0.762,0.258-1.086
			c0.172-0.324,0.401-0.602,0.689-0.834c0.288-0.224,0.618-0.397,0.99-0.522C14.814,3.422,15.2,3.36,15.601,3.36
			c0.424,0,0.824,0.066,1.2,0.198s0.703,0.314,0.983,0.546C17.937,4.232,18.068,4.372,18.181,4.524z M21.996,11.58
			c0,0.688-0.344,1.238-1.031,1.65c-0.688,0.412-1.712,0.618-3.072,0.618c-1.344,0-2.368-0.206-3.072-0.618s-1.056-0.962-1.056-1.65
			c0-0.68,0.352-1.23,1.056-1.65s1.729-0.63,3.072-0.63c1.352,0,2.374,0.21,3.066,0.63C21.65,10.35,21.996,10.9,21.996,11.58z
			 M17.209,5.988c0-0.408-0.141-0.748-0.421-1.02c-0.279-0.272-0.676-0.408-1.188-0.408c-0.504,0-0.902,0.136-1.194,0.408
			s-0.438,0.612-0.438,1.02c0,0.208,0.038,0.398,0.113,0.57c0.076,0.172,0.187,0.322,0.33,0.45c0.145,0.136,0.316,0.24,0.517,0.312
			c0.199,0.072,0.424,0.108,0.672,0.108c0.512,0,0.908-0.138,1.188-0.414C17.068,6.738,17.209,6.396,17.209,5.988z M20.473,11.592
			c0-0.32-0.225-0.588-0.672-0.804c-0.496-0.224-1.128-0.336-1.896-0.336c-0.392,0-0.748,0.028-1.067,0.084
			c-0.32,0.056-0.593,0.132-0.816,0.228c-0.224,0.104-0.398,0.224-0.522,0.36c-0.124,0.136-0.186,0.288-0.186,0.456
			c0,0.32,0.224,0.588,0.672,0.804c0.48,0.232,1.12,0.348,1.92,0.348c0.776,0,1.408-0.116,1.896-0.348
			C20.248,12.168,20.473,11.904,20.473,11.592z M18.576,6.66h1.872V5.664h-1.8c0.016,0.104,0.024,0.212,0.024,0.324
			C18.673,6.22,18.641,6.444,18.576,6.66z"/>
		<path display="inline" fill="#8CD4E1" d="M30.181,8.724c-0.32-0.136-0.626-0.288-0.918-0.456s-0.574-0.356-0.846-0.564
			c-0.488-0.376-0.849-0.744-1.08-1.104c-0.232,0.448-0.596,0.872-1.092,1.272c-0.28,0.224-0.559,0.426-0.834,0.606
			c-0.276,0.18-0.555,0.342-0.834,0.486l-1.032-0.936c0.92-0.4,1.66-0.916,2.22-1.548c0.544-0.616,0.816-1.384,0.816-2.304v-0.9
			h1.487v0.9c0,0.904,0.265,1.624,0.792,2.16c0.28,0.28,0.599,0.528,0.954,0.744c0.356,0.216,0.758,0.404,1.206,0.564L30.181,8.724z
			 M33.313,11.58c0,0.688-0.344,1.238-1.031,1.65c-0.688,0.412-1.713,0.618-3.072,0.618c-1.344,0-2.368-0.206-3.072-0.618
			s-1.056-0.962-1.056-1.65c0-0.68,0.352-1.23,1.056-1.65s1.729-0.63,3.072-0.63c1.352,0,2.374,0.21,3.065,0.63
			C32.967,10.35,33.313,10.9,33.313,11.58z M31.789,11.592c0-0.32-0.225-0.588-0.672-0.804c-0.496-0.224-1.128-0.336-1.896-0.336
			c-0.392,0-0.748,0.028-1.067,0.084c-0.32,0.056-0.593,0.132-0.816,0.228c-0.225,0.104-0.398,0.224-0.522,0.36
			c-0.124,0.136-0.186,0.288-0.186,0.456c0,0.32,0.224,0.588,0.672,0.804c0.48,0.232,1.12,0.348,1.92,0.348
			c0.776,0,1.408-0.116,1.896-0.348C31.564,12.168,31.789,11.904,31.789,11.592z M34.813,6.696h-1.68V9.18h-1.428V2.94h1.428v2.544
			h1.68V6.696z"/>
		<path display="inline" fill="#8CD4E1" d="M-3.455,24.036c-0.248,0.056-0.512,0.102-0.792,0.138
			c-0.28,0.036-0.556,0.063-0.828,0.078c-0.28,0.024-0.554,0.04-0.822,0.048c-0.269,0.008-0.514,0.012-0.738,0.012v3.517h-1.428
			v-3.492h-3.18V23.1c1.32,0,2.404,0,3.252,0s1.44-0.008,1.776-0.023c0.232-0.008,0.456-0.019,0.672-0.03
			c0.216-0.012,0.432-0.03,0.648-0.054c0.216-0.017,0.44-0.04,0.672-0.072s0.488-0.072,0.768-0.12V24.036z M-7.439,17.556
			c0.424,0,0.812,0.064,1.164,0.192s0.656,0.304,0.912,0.528c0.256,0.224,0.456,0.485,0.6,0.785
			c0.144,0.301,0.216,0.623,0.216,0.967c0,0.352-0.072,0.68-0.216,0.983c-0.144,0.305-0.344,0.564-0.6,0.78
			c-0.264,0.224-0.572,0.4-0.924,0.528s-0.736,0.191-1.152,0.191c-0.424,0-0.814-0.063-1.17-0.191s-0.662-0.305-0.918-0.528
			c-0.256-0.224-0.456-0.488-0.6-0.792c-0.144-0.304-0.216-0.628-0.216-0.972c0-0.336,0.07-0.654,0.21-0.954
			s0.338-0.563,0.594-0.786c0.256-0.224,0.562-0.402,0.918-0.534S-7.871,17.556-7.439,17.556z M-7.439,18.72
			c-0.232,0-0.438,0.036-0.618,0.108s-0.33,0.168-0.45,0.288c-0.128,0.128-0.224,0.27-0.288,0.426s-0.096,0.318-0.096,0.486
			s0.032,0.332,0.096,0.491c0.064,0.16,0.16,0.301,0.288,0.421c0.12,0.128,0.27,0.228,0.45,0.3c0.18,0.071,0.386,0.107,0.618,0.107
			c0.224,0,0.426-0.036,0.606-0.107c0.18-0.072,0.334-0.168,0.462-0.288c0.12-0.12,0.212-0.26,0.276-0.42s0.096-0.328,0.096-0.504
			s-0.032-0.343-0.096-0.498c-0.064-0.156-0.156-0.294-0.276-0.414c-0.128-0.12-0.282-0.216-0.462-0.288
			C-7.013,18.756-7.215,18.72-7.439,18.72z M-1.475,28.068h-1.428V17.34h1.428V28.068z"/>
		<path display="inline" fill="#8CD4E1" d="M6.84,26.088c-0.199-0.096-0.422-0.234-0.666-0.414s-0.521-0.401-0.834-0.666
			c-0.256-0.231-0.477-0.458-0.666-0.678c-0.188-0.22-0.338-0.434-0.449-0.642c-0.209,0.479-0.568,0.964-1.08,1.451
			c-0.553,0.528-1.1,0.916-1.645,1.164l-1.067-1.008c0.999-0.416,1.757-0.992,2.269-1.728c0.496-0.729,0.74-1.484,0.732-2.269
			v-0.372h-2.4v-1.235h6.348v1.235h-2.4V21.3c-0.008,0.761,0.219,1.438,0.678,2.034c0.461,0.596,1.162,1.158,2.107,1.686
			L6.84,26.088z M2.354,19.032V17.82h3.707v1.212H2.354z M10.08,28.08H8.652V17.34h1.428V28.08z"/>
		<path display="inline" fill="#8CD4E1" d="M18.732,22.14c0,0.553-0.062,1.07-0.186,1.555c-0.124,0.483-0.314,0.905-0.57,1.266
			c-0.256,0.368-0.58,0.656-0.972,0.864c-0.393,0.208-0.853,0.312-1.381,0.312c-0.527,0-0.987-0.105-1.38-0.317
			c-0.392-0.212-0.716-0.498-0.972-0.858c-0.264-0.36-0.458-0.782-0.582-1.266c-0.124-0.484-0.186-1.002-0.186-1.555
			c0-0.552,0.063-1.069,0.191-1.554c0.128-0.483,0.32-0.906,0.576-1.266c0.256-0.36,0.58-0.645,0.972-0.853
			c0.393-0.208,0.853-0.312,1.38-0.312c0.536,0,0.998,0.104,1.387,0.312c0.388,0.208,0.71,0.492,0.966,0.853
			c0.256,0.359,0.446,0.782,0.57,1.266C18.671,21.07,18.732,21.588,18.732,22.14z M17.328,22.14c0-0.319-0.034-0.644-0.102-0.972
			c-0.068-0.328-0.17-0.624-0.306-0.888c-0.137-0.265-0.309-0.479-0.517-0.643c-0.208-0.163-0.456-0.246-0.744-0.246
			s-0.538,0.083-0.75,0.246c-0.212,0.164-0.386,0.378-0.521,0.643c-0.145,0.264-0.252,0.56-0.324,0.888s-0.108,0.652-0.108,0.972
			c0,0.328,0.036,0.656,0.108,0.984s0.18,0.62,0.324,0.876c0.144,0.264,0.321,0.479,0.534,0.642
			c0.212,0.164,0.458,0.246,0.737,0.246c0.28,0,0.524-0.082,0.732-0.246c0.208-0.163,0.384-0.378,0.528-0.642
			c0.136-0.256,0.237-0.548,0.306-0.876C17.294,22.796,17.328,22.468,17.328,22.14z M21.757,28.08h-1.429V17.34h1.429V28.08z"/>
		<path display="inline" fill="#8CD4E1" d="M23.725,23.532V22.38h4.656v-0.972h-3.276V17.7h8.088v1.188h-6.659v1.332h6.72v1.188
			h-3.396v0.972h4.656v1.152H23.725z M33.433,26.16c0,0.304-0.094,0.586-0.282,0.846c-0.188,0.26-0.466,0.482-0.834,0.666
			c-0.367,0.184-0.817,0.328-1.35,0.432c-0.532,0.104-1.146,0.156-1.842,0.156c-0.688,0-1.302-0.052-1.842-0.156
			c-0.54-0.104-0.994-0.248-1.362-0.432s-0.648-0.406-0.84-0.666c-0.192-0.26-0.288-0.542-0.288-0.846
			c0-0.313,0.096-0.594,0.288-0.846c0.191-0.253,0.472-0.471,0.84-0.654c0.368-0.185,0.822-0.326,1.362-0.426
			c0.54-0.101,1.153-0.15,1.842-0.15c1.392,0,2.458,0.19,3.198,0.57C33.063,25.034,33.433,25.536,33.433,26.16z M29.125,25.176
			c-0.408,0-0.78,0.022-1.116,0.066s-0.624,0.105-0.864,0.186c-0.239,0.089-0.426,0.192-0.558,0.313s-0.198,0.256-0.198,0.408
			c0,0.144,0.066,0.277,0.198,0.401s0.318,0.23,0.558,0.318c0.24,0.08,0.528,0.144,0.864,0.191c0.336,0.049,0.708,0.072,1.116,0.072
			c0.399,0,0.766-0.023,1.098-0.072c0.332-0.048,0.618-0.111,0.858-0.191c0.24-0.088,0.426-0.192,0.558-0.313
			s0.198-0.252,0.198-0.396c0-0.28-0.24-0.512-0.72-0.696C30.613,25.272,29.948,25.176,29.125,25.176z"/>
	</g>
	<g display="none">
		<path display="inline" fill="#F2F2F3" d="M-4.459,5.568h-6.744V4.404h6.744V5.568z M-7.796,9.204c-0.44,0-0.84-0.038-1.2-0.114
			c-0.36-0.076-0.668-0.186-0.924-0.33c-0.256-0.136-0.454-0.306-0.594-0.51c-0.14-0.204-0.21-0.434-0.21-0.69
			c0-0.256,0.07-0.486,0.21-0.69c0.14-0.204,0.338-0.378,0.594-0.522c0.256-0.144,0.564-0.254,0.924-0.33
			c0.36-0.076,0.76-0.114,1.2-0.114c0.432,0,0.828,0.038,1.188,0.114c0.36,0.076,0.668,0.186,0.924,0.33
			C-5.428,6.492-5.23,6.666-5.09,6.87s0.21,0.434,0.21,0.69c0,0.256-0.07,0.486-0.21,0.69s-0.338,0.374-0.594,0.51
			C-5.94,8.904-6.248,9.014-6.608,9.09C-6.968,9.166-7.364,9.204-7.796,9.204z M-1.892,11.676c0,0.664-0.346,1.192-1.038,1.584
			c-0.692,0.392-1.718,0.588-3.078,0.588c-1.344,0-2.37-0.196-3.078-0.588c-0.708-0.392-1.062-0.92-1.062-1.584
			c0-0.656,0.354-1.18,1.062-1.572c0.708-0.392,1.734-0.588,3.078-0.588c1.36,0,2.386,0.196,3.078,0.588
			C-2.238,10.496-1.892,11.02-1.892,11.676z M-5.948,3.876h-3.444v-1.02h3.444V3.876z M-6.38,7.56c0-0.2-0.116-0.36-0.348-0.48
			C-6.96,6.96-7.316,6.9-7.796,6.9c-0.488,0-0.848,0.06-1.08,0.18C-9.108,7.2-9.224,7.36-9.224,7.56
			c0,0.192,0.116,0.348,0.348,0.468c0.232,0.12,0.592,0.18,1.08,0.18c0.48,0,0.836-0.06,1.068-0.18
			C-6.496,7.908-6.38,7.752-6.38,7.56z M-3.416,11.688c0-0.16-0.062-0.304-0.186-0.432c-0.124-0.127-0.298-0.24-0.522-0.336
			c-0.232-0.088-0.508-0.156-0.828-0.204c-0.32-0.048-0.672-0.072-1.056-0.072c-0.4,0-0.76,0.026-1.08,0.078
			c-0.32,0.052-0.608,0.126-0.864,0.222c-0.464,0.192-0.696,0.44-0.696,0.744c0,0.312,0.232,0.556,0.696,0.732
			c0.512,0.208,1.16,0.312,1.944,0.312s1.42-0.104,1.908-0.312C-3.644,12.244-3.416,12-3.416,11.688z M-0.416,6.984h-1.68V9.48
			h-1.428V2.94h1.428v2.832h1.68V6.984z"/>
		<path display="inline" fill="#F2F2F3" d="M0.232,8.688V7.5h4.081V5.58h1.477V7.5h5.23v1.188H0.232z M9.939,11.568
			c0,0.336-0.094,0.646-0.281,0.93s-0.467,0.526-0.834,0.726c-0.367,0.2-0.818,0.356-1.35,0.468
			c-0.533,0.112-1.146,0.168-1.842,0.168c-0.689,0-1.301-0.056-1.836-0.168c-0.537-0.112-0.988-0.268-1.357-0.468
			c-0.367-0.2-0.646-0.442-0.84-0.726c-0.191-0.284-0.287-0.594-0.287-0.93c0-0.672,0.384-1.22,1.152-1.644
			C3.217,9.508,4.268,9.3,5.621,9.3c1.375,0,2.432,0.208,3.168,0.624C9.557,10.34,9.939,10.888,9.939,11.568z M9.844,3.348
			c0,0.232-0.006,0.492-0.018,0.78C9.814,4.416,9.789,4.752,9.748,5.136C9.709,5.52,9.652,5.858,9.58,6.15
			C9.508,6.442,9.42,6.712,9.316,6.96H7.877c0.135-0.408,0.238-0.824,0.311-1.248C8.26,5.288,8.297,4.904,8.297,4.56H1.48V3.348
			H9.844z M5.633,10.488c-0.424,0-0.807,0.026-1.146,0.078c-0.34,0.052-0.643,0.126-0.906,0.222
			c-0.488,0.192-0.732,0.448-0.732,0.768c0,0.368,0.244,0.64,0.732,0.816c0.535,0.208,1.221,0.312,2.053,0.312
			c0.814,0,1.492-0.104,2.027-0.312c0.496-0.184,0.744-0.456,0.744-0.816c0-0.32-0.248-0.576-0.744-0.768
			c-0.264-0.096-0.564-0.17-0.9-0.222C6.424,10.514,6.049,10.488,5.633,10.488z"/>
		<path display="inline" fill="#F2F2F3" d="M18.16,4.524h2.268V2.94h1.429v6.24h-1.429V7.8H17.86
			c-0.032,0.032-0.064,0.06-0.097,0.084c-0.28,0.24-0.607,0.424-0.983,0.552s-0.776,0.192-1.2,0.192c-0.4,0-0.786-0.06-1.158-0.18
			c-0.372-0.12-0.702-0.296-0.99-0.528c-0.288-0.224-0.518-0.5-0.689-0.828s-0.258-0.696-0.258-1.104c0-0.4,0.086-0.762,0.258-1.086
			c0.172-0.324,0.401-0.602,0.689-0.834c0.288-0.224,0.618-0.397,0.99-0.522C14.794,3.422,15.18,3.36,15.58,3.36
			c0.424,0,0.824,0.066,1.2,0.198s0.703,0.314,0.983,0.546C17.916,4.232,18.048,4.372,18.16,4.524z M21.976,11.58
			c0,0.688-0.344,1.238-1.031,1.65c-0.688,0.412-1.712,0.618-3.072,0.618c-1.344,0-2.368-0.206-3.072-0.618s-1.056-0.962-1.056-1.65
			c0-0.68,0.352-1.23,1.056-1.65s1.729-0.63,3.072-0.63c1.352,0,2.374,0.21,3.066,0.63C21.63,10.35,21.976,10.9,21.976,11.58z
			 M17.188,5.988c0-0.408-0.141-0.748-0.421-1.02C16.488,4.696,16.092,4.56,15.58,4.56c-0.504,0-0.902,0.136-1.194,0.408
			s-0.438,0.612-0.438,1.02c0,0.208,0.038,0.398,0.113,0.57c0.076,0.172,0.187,0.322,0.33,0.45c0.145,0.136,0.316,0.24,0.517,0.312
			c0.199,0.072,0.424,0.108,0.672,0.108c0.512,0,0.908-0.138,1.188-0.414C17.048,6.738,17.188,6.396,17.188,5.988z M20.452,11.592
			c0-0.32-0.225-0.588-0.672-0.804c-0.496-0.224-1.128-0.336-1.896-0.336c-0.392,0-0.748,0.028-1.067,0.084
			c-0.32,0.056-0.593,0.132-0.816,0.228c-0.224,0.104-0.398,0.224-0.522,0.36c-0.124,0.136-0.186,0.288-0.186,0.456
			c0,0.32,0.224,0.588,0.672,0.804c0.48,0.232,1.12,0.348,1.92,0.348c0.776,0,1.408-0.116,1.896-0.348
			C20.228,12.168,20.452,11.904,20.452,11.592z M18.556,6.66h1.872V5.664h-1.8c0.016,0.104,0.024,0.212,0.024,0.324
			C18.652,6.22,18.62,6.444,18.556,6.66z"/>
		<path display="inline" fill="#F2F2F3" d="M30.16,8.724c-0.32-0.136-0.626-0.288-0.918-0.456s-0.574-0.356-0.846-0.564
			c-0.488-0.376-0.849-0.744-1.08-1.104c-0.232,0.448-0.596,0.872-1.092,1.272c-0.28,0.224-0.559,0.426-0.834,0.606
			c-0.276,0.18-0.555,0.342-0.834,0.486l-1.032-0.936c0.92-0.4,1.66-0.916,2.22-1.548c0.544-0.616,0.816-1.384,0.816-2.304v-0.9
			h1.487v0.9c0,0.904,0.265,1.624,0.792,2.16c0.28,0.28,0.599,0.528,0.954,0.744C30.15,7.296,30.552,7.484,31,7.644L30.16,8.724z
			 M33.292,11.58c0,0.688-0.344,1.238-1.031,1.65c-0.688,0.412-1.713,0.618-3.072,0.618c-1.344,0-2.368-0.206-3.072-0.618
			s-1.056-0.962-1.056-1.65c0-0.68,0.352-1.23,1.056-1.65s1.729-0.63,3.072-0.63c1.352,0,2.374,0.21,3.065,0.63
			C32.946,10.35,33.292,10.9,33.292,11.58z M31.769,11.592c0-0.32-0.225-0.588-0.672-0.804c-0.496-0.224-1.128-0.336-1.896-0.336
			c-0.392,0-0.748,0.028-1.067,0.084c-0.32,0.056-0.593,0.132-0.816,0.228c-0.225,0.104-0.398,0.224-0.522,0.36
			c-0.124,0.136-0.186,0.288-0.186,0.456c0,0.32,0.224,0.588,0.672,0.804c0.48,0.232,1.12,0.348,1.92,0.348
			c0.776,0,1.408-0.116,1.896-0.348C31.544,12.168,31.769,11.904,31.769,11.592z M34.792,6.696h-1.68V9.18h-1.428V2.94h1.428v2.544
			h1.68V6.696z"/>
		<path display="inline" fill="#F2F2F3" d="M-3.476,24.036c-0.248,0.056-0.512,0.102-0.792,0.138
			c-0.28,0.036-0.556,0.063-0.828,0.078c-0.28,0.024-0.554,0.04-0.822,0.048c-0.269,0.008-0.514,0.012-0.738,0.012v3.517h-1.428
			v-3.492h-3.18V23.1c1.32,0,2.404,0,3.252,0s1.44-0.008,1.776-0.023c0.232-0.008,0.456-0.019,0.672-0.03
			c0.216-0.012,0.432-0.03,0.648-0.054c0.216-0.017,0.44-0.04,0.672-0.072s0.488-0.072,0.768-0.12V24.036z M-7.459,17.556
			c0.424,0,0.812,0.064,1.164,0.192s0.656,0.304,0.912,0.528c0.256,0.224,0.456,0.485,0.6,0.785
			c0.144,0.301,0.216,0.623,0.216,0.967c0,0.352-0.072,0.68-0.216,0.983c-0.144,0.305-0.344,0.564-0.6,0.78
			c-0.264,0.224-0.572,0.4-0.924,0.528s-0.736,0.191-1.152,0.191c-0.424,0-0.814-0.063-1.17-0.191s-0.662-0.305-0.918-0.528
			c-0.256-0.224-0.456-0.488-0.6-0.792c-0.144-0.304-0.216-0.628-0.216-0.972c0-0.336,0.07-0.654,0.21-0.954
			s0.338-0.563,0.594-0.786c0.256-0.224,0.562-0.402,0.918-0.534S-7.892,17.556-7.459,17.556z M-7.459,18.72
			c-0.232,0-0.438,0.036-0.618,0.108s-0.33,0.168-0.45,0.288c-0.128,0.128-0.224,0.27-0.288,0.426s-0.096,0.318-0.096,0.486
			s0.032,0.332,0.096,0.491c0.064,0.16,0.16,0.301,0.288,0.421c0.12,0.128,0.27,0.228,0.45,0.3c0.18,0.071,0.386,0.107,0.618,0.107
			c0.224,0,0.426-0.036,0.606-0.107c0.18-0.072,0.334-0.168,0.462-0.288c0.12-0.12,0.212-0.26,0.276-0.42s0.096-0.328,0.096-0.504
			s-0.032-0.343-0.096-0.498c-0.064-0.156-0.156-0.294-0.276-0.414c-0.128-0.12-0.282-0.216-0.462-0.288
			C-7.034,18.756-7.236,18.72-7.459,18.72z M-1.496,28.068h-1.428V17.34h1.428V28.068z"/>
		<path display="inline" fill="#F2F2F3" d="M6.82,26.088c-0.201-0.096-0.422-0.234-0.666-0.414s-0.521-0.401-0.834-0.666
			c-0.256-0.231-0.479-0.458-0.666-0.678s-0.338-0.434-0.449-0.642c-0.209,0.479-0.568,0.964-1.08,1.451
			c-0.553,0.528-1.102,0.916-1.645,1.164l-1.068-1.008c1-0.416,1.756-0.992,2.268-1.728c0.496-0.729,0.74-1.484,0.732-2.269v-0.372
			h-2.4v-1.235h6.348v1.235H4.961V21.3c-0.01,0.761,0.217,1.438,0.678,2.034c0.459,0.596,1.162,1.158,2.105,1.686L6.82,26.088z
			 M2.332,19.032V17.82h3.709v1.212H2.332z M10.061,28.08H8.633V17.34h1.428V28.08z"/>
		<path display="inline" fill="#F2F2F3" d="M18.712,22.14c0,0.553-0.062,1.07-0.186,1.555c-0.124,0.483-0.314,0.905-0.57,1.266
			c-0.256,0.368-0.58,0.656-0.972,0.864c-0.393,0.208-0.853,0.312-1.381,0.312c-0.527,0-0.987-0.105-1.38-0.317
			c-0.392-0.212-0.716-0.498-0.972-0.858c-0.264-0.36-0.458-0.782-0.582-1.266c-0.124-0.484-0.186-1.002-0.186-1.555
			c0-0.552,0.063-1.069,0.191-1.554c0.128-0.483,0.32-0.906,0.576-1.266c0.256-0.36,0.58-0.645,0.972-0.853
			c0.393-0.208,0.853-0.312,1.38-0.312c0.536,0,0.998,0.104,1.387,0.312c0.388,0.208,0.71,0.492,0.966,0.853
			c0.256,0.359,0.446,0.782,0.57,1.266C18.65,21.07,18.712,21.588,18.712,22.14z M17.308,22.14c0-0.319-0.034-0.644-0.102-0.972
			c-0.068-0.328-0.17-0.624-0.306-0.888c-0.137-0.265-0.309-0.479-0.517-0.643c-0.208-0.163-0.456-0.246-0.744-0.246
			s-0.538,0.083-0.75,0.246c-0.212,0.164-0.386,0.378-0.521,0.643c-0.145,0.264-0.252,0.56-0.324,0.888s-0.108,0.652-0.108,0.972
			c0,0.328,0.036,0.656,0.108,0.984s0.18,0.62,0.324,0.876c0.144,0.264,0.321,0.479,0.534,0.642
			c0.212,0.164,0.458,0.246,0.737,0.246c0.28,0,0.524-0.082,0.732-0.246C16.58,24.479,16.756,24.264,16.9,24
			c0.136-0.256,0.237-0.548,0.306-0.876C17.273,22.796,17.308,22.468,17.308,22.14z M21.736,28.08h-1.429V17.34h1.429V28.08z"/>
		<path display="inline" fill="#F2F2F3" d="M23.704,23.532V22.38h4.656v-0.972h-3.276V17.7h8.088v1.188h-6.659v1.332h6.72v1.188
			h-3.396v0.972h4.656v1.152H23.704z M33.412,26.16c0,0.304-0.094,0.586-0.282,0.846c-0.188,0.26-0.466,0.482-0.834,0.666
			c-0.367,0.184-0.817,0.328-1.35,0.432c-0.532,0.104-1.146,0.156-1.842,0.156c-0.688,0-1.302-0.052-1.842-0.156
			c-0.54-0.104-0.994-0.248-1.362-0.432s-0.648-0.406-0.84-0.666c-0.192-0.26-0.288-0.542-0.288-0.846
			c0-0.313,0.096-0.594,0.288-0.846c0.191-0.253,0.472-0.471,0.84-0.654c0.368-0.185,0.822-0.326,1.362-0.426
			c0.54-0.101,1.153-0.15,1.842-0.15c1.392,0,2.458,0.19,3.198,0.57C33.042,25.034,33.412,25.536,33.412,26.16z M29.104,25.176
			c-0.408,0-0.78,0.022-1.116,0.066s-0.624,0.105-0.864,0.186c-0.239,0.089-0.426,0.192-0.558,0.313s-0.198,0.256-0.198,0.408
			c0,0.144,0.066,0.277,0.198,0.401s0.318,0.23,0.558,0.318c0.24,0.08,0.528,0.144,0.864,0.191c0.336,0.049,0.708,0.072,1.116,0.072
			c0.399,0,0.766-0.023,1.098-0.072c0.332-0.048,0.618-0.111,0.858-0.191c0.24-0.088,0.426-0.192,0.558-0.313
			s0.198-0.252,0.198-0.396c0-0.28-0.24-0.512-0.72-0.696C30.593,25.272,29.928,25.176,29.104,25.176z"/>
	</g>
	<g>
		<path fill="#4A4F54" d="M-4.46,5.568h-6.744V4.404h6.744V5.568z M-7.796,9.204c-0.44,0-0.84-0.038-1.2-0.114
			c-0.36-0.076-0.668-0.186-0.924-0.33c-0.256-0.136-0.454-0.306-0.594-0.51c-0.14-0.204-0.21-0.434-0.21-0.69
			c0-0.256,0.07-0.486,0.21-0.69c0.14-0.204,0.338-0.378,0.594-0.522c0.256-0.144,0.564-0.254,0.924-0.33
			c0.36-0.076,0.76-0.114,1.2-0.114c0.432,0,0.828,0.038,1.188,0.114c0.36,0.076,0.668,0.186,0.924,0.33
			C-5.428,6.492-5.23,6.666-5.09,6.87s0.21,0.434,0.21,0.69c0,0.256-0.07,0.486-0.21,0.69s-0.338,0.374-0.594,0.51
			C-5.94,8.904-6.248,9.014-6.608,9.09C-6.968,9.166-7.364,9.204-7.796,9.204z M-1.892,11.676c0,0.664-0.346,1.192-1.038,1.584
			c-0.692,0.392-1.718,0.588-3.078,0.588c-1.344,0-2.37-0.196-3.078-0.588c-0.708-0.392-1.062-0.92-1.062-1.584
			c0-0.656,0.354-1.18,1.062-1.572c0.708-0.392,1.734-0.588,3.078-0.588c1.36,0,2.386,0.196,3.078,0.588
			C-2.238,10.496-1.892,11.02-1.892,11.676z M-5.948,3.876h-3.444v-1.02h3.444V3.876z M-6.38,7.56c0-0.2-0.116-0.36-0.348-0.48
			C-6.96,6.96-7.316,6.9-7.796,6.9c-0.488,0-0.848,0.06-1.08,0.18C-9.108,7.2-9.224,7.36-9.224,7.56
			c0,0.192,0.116,0.348,0.348,0.468c0.232,0.12,0.592,0.18,1.08,0.18c0.48,0,0.836-0.06,1.068-0.18
			C-6.496,7.908-6.38,7.752-6.38,7.56z M-3.416,11.688c0-0.16-0.062-0.304-0.186-0.432c-0.124-0.127-0.298-0.24-0.522-0.336
			c-0.232-0.088-0.508-0.156-0.828-0.204c-0.32-0.048-0.672-0.072-1.056-0.072c-0.4,0-0.76,0.026-1.08,0.078
			c-0.32,0.052-0.608,0.126-0.864,0.222c-0.464,0.192-0.696,0.44-0.696,0.744c0,0.312,0.232,0.556,0.696,0.732
			c0.512,0.208,1.16,0.312,1.944,0.312s1.42-0.104,1.908-0.312C-3.644,12.244-3.416,12-3.416,11.688z M-0.416,6.984h-1.68V9.48
			h-1.428V2.94h1.428v2.832h1.68V6.984z"/>
		<path fill="#4A4F54" d="M0.231,8.688V7.5h4.081V5.58h1.477V7.5h5.23v1.188H0.231z M9.939,11.568c0,0.336-0.094,0.646-0.281,0.93
			s-0.467,0.526-0.834,0.726c-0.367,0.2-0.818,0.356-1.35,0.468c-0.533,0.112-1.146,0.168-1.842,0.168
			c-0.689,0-1.301-0.056-1.836-0.168c-0.537-0.112-0.988-0.268-1.357-0.468c-0.367-0.2-0.647-0.442-0.839-0.726
			s-0.288-0.594-0.288-0.93c0-0.672,0.384-1.22,1.153-1.644C3.216,9.508,4.267,9.3,5.621,9.3c1.375,0,2.432,0.208,3.168,0.624
			C9.556,10.34,9.939,10.888,9.939,11.568z M9.843,3.348c0,0.232-0.006,0.492-0.018,0.78C9.814,4.416,9.789,4.752,9.748,5.136
			C9.708,5.52,9.652,5.858,9.58,6.15c-0.072,0.292-0.16,0.563-0.264,0.81H7.876c0.135-0.408,0.238-0.824,0.311-1.248
			C8.259,5.288,8.296,4.904,8.296,4.56H1.479V3.348H9.843z M5.632,10.488c-0.424,0-0.807,0.026-1.146,0.078
			c-0.34,0.052-0.643,0.126-0.906,0.222c-0.488,0.192-0.732,0.448-0.732,0.768c0,0.368,0.244,0.64,0.732,0.816
			c0.535,0.208,1.221,0.312,2.053,0.312c0.814,0,1.492-0.104,2.027-0.312c0.496-0.184,0.744-0.456,0.744-0.816
			c0-0.32-0.248-0.576-0.744-0.768c-0.264-0.096-0.564-0.17-0.9-0.222C6.423,10.514,6.048,10.488,5.632,10.488z"/>
		<path fill="#4A4F54" d="M18.159,4.524h2.268V2.94h1.429v6.24h-1.429V7.8h-2.567c-0.032,0.032-0.064,0.06-0.097,0.084
			c-0.28,0.24-0.607,0.424-0.983,0.552s-0.776,0.192-1.2,0.192c-0.4,0-0.786-0.06-1.158-0.18c-0.372-0.12-0.702-0.296-0.99-0.528
			c-0.288-0.224-0.518-0.5-0.689-0.828s-0.258-0.696-0.258-1.104c0-0.4,0.086-0.762,0.258-1.086
			c0.172-0.324,0.401-0.602,0.689-0.834c0.288-0.224,0.618-0.397,0.99-0.522c0.372-0.124,0.758-0.186,1.158-0.186
			c0.423,0,0.824,0.066,1.2,0.198s0.703,0.314,0.983,0.546C17.915,4.232,18.047,4.372,18.159,4.524z M21.975,11.58
			c0,0.688-0.344,1.238-1.031,1.65c-0.688,0.412-1.712,0.618-3.072,0.618c-1.344,0-2.368-0.206-3.072-0.618s-1.056-0.962-1.056-1.65
			c0-0.68,0.352-1.23,1.056-1.65s1.728-0.63,3.072-0.63c1.352,0,2.374,0.21,3.066,0.63C21.629,10.35,21.975,10.9,21.975,11.58z
			 M17.188,5.988c0-0.408-0.141-0.748-0.421-1.02C16.487,4.696,16.091,4.56,15.58,4.56c-0.504,0-0.902,0.136-1.194,0.408
			s-0.438,0.612-0.438,1.02c0,0.208,0.038,0.398,0.113,0.57c0.076,0.172,0.187,0.322,0.33,0.45c0.145,0.136,0.316,0.24,0.517,0.312
			c0.199,0.072,0.424,0.108,0.672,0.108c0.511,0,0.908-0.138,1.187-0.414C17.047,6.738,17.188,6.396,17.188,5.988z M20.451,11.592
			c0-0.32-0.225-0.588-0.672-0.804c-0.496-0.224-1.128-0.336-1.896-0.336c-0.392,0-0.748,0.028-1.067,0.084
			c-0.32,0.056-0.593,0.132-0.816,0.228c-0.224,0.104-0.398,0.224-0.522,0.36c-0.124,0.136-0.186,0.288-0.186,0.456
			c0,0.32,0.224,0.588,0.672,0.804c0.48,0.232,1.12,0.348,1.919,0.348c0.776,0,1.408-0.116,1.896-0.348
			C20.227,12.168,20.451,11.904,20.451,11.592z M18.555,6.66h1.872V5.664h-1.8c0.016,0.104,0.024,0.212,0.024,0.324
			C18.651,6.22,18.619,6.444,18.555,6.66z"/>
		<path fill="#4A4F54" d="M30.159,8.724c-0.32-0.136-0.626-0.288-0.918-0.456s-0.574-0.356-0.846-0.564
			c-0.488-0.376-0.849-0.744-1.08-1.104c-0.232,0.448-0.596,0.872-1.092,1.272c-0.28,0.224-0.559,0.426-0.834,0.606
			c-0.276,0.18-0.555,0.342-0.834,0.486l-1.032-0.936c0.92-0.4,1.66-0.916,2.22-1.548c0.544-0.616,0.816-1.384,0.816-2.304v-0.9
			h1.487v0.9c0,0.904,0.265,1.624,0.792,2.16c0.28,0.28,0.599,0.528,0.954,0.744c0.356,0.216,0.758,0.404,1.206,0.564L30.159,8.724z
			 M33.291,11.58c0,0.688-0.344,1.238-1.031,1.65c-0.688,0.412-1.713,0.618-3.072,0.618c-1.344,0-2.368-0.206-3.072-0.618
			s-1.056-0.962-1.056-1.65c0-0.68,0.352-1.23,1.056-1.65s1.729-0.63,3.072-0.63c1.352,0,2.374,0.21,3.065,0.63
			C32.945,10.35,33.291,10.9,33.291,11.58z M31.768,11.592c0-0.32-0.225-0.588-0.672-0.804c-0.496-0.224-1.128-0.336-1.896-0.336
			c-0.392,0-0.748,0.028-1.067,0.084c-0.32,0.056-0.593,0.132-0.816,0.228c-0.225,0.104-0.398,0.224-0.522,0.36
			c-0.124,0.136-0.186,0.288-0.186,0.456c0,0.32,0.224,0.588,0.672,0.804c0.48,0.232,1.12,0.348,1.92,0.348
			c0.776,0,1.408-0.116,1.896-0.348C31.543,12.168,31.768,11.904,31.768,11.592z M34.791,6.696h-1.68V9.18h-1.428V2.94h1.428v2.544
			h1.68V6.696z"/>
		<path fill="#4A4F54" d="M-3.476,24.036c-0.248,0.056-0.512,0.102-0.792,0.138c-0.28,0.036-0.556,0.063-0.828,0.078
			c-0.28,0.024-0.554,0.04-0.822,0.048c-0.269,0.008-0.514,0.012-0.738,0.012v3.517h-1.428v-3.492h-3.18V23.1
			c1.32,0,2.404,0,3.252,0s1.44-0.008,1.776-0.023c0.232-0.008,0.456-0.019,0.672-0.03c0.216-0.012,0.432-0.03,0.648-0.054
			c0.216-0.017,0.44-0.04,0.672-0.072s0.488-0.072,0.768-0.12V24.036z M-7.46,17.556c0.424,0,0.812,0.064,1.164,0.192
			s0.656,0.304,0.912,0.528c0.256,0.224,0.456,0.485,0.6,0.785c0.144,0.301,0.216,0.623,0.216,0.967c0,0.352-0.072,0.68-0.216,0.983
			c-0.144,0.305-0.344,0.564-0.6,0.78c-0.264,0.224-0.572,0.4-0.924,0.528s-0.736,0.191-1.152,0.191
			c-0.424,0-0.814-0.063-1.17-0.191s-0.662-0.305-0.918-0.528c-0.256-0.224-0.456-0.488-0.6-0.792
			c-0.144-0.304-0.216-0.628-0.216-0.972c0-0.336,0.07-0.654,0.21-0.954s0.338-0.563,0.594-0.786
			c0.256-0.224,0.562-0.402,0.918-0.534S-7.892,17.556-7.46,17.556z M-7.46,18.72c-0.232,0-0.438,0.036-0.618,0.108
			s-0.33,0.168-0.45,0.288c-0.128,0.128-0.224,0.27-0.288,0.426s-0.096,0.318-0.096,0.486s0.032,0.332,0.096,0.491
			c0.064,0.16,0.16,0.301,0.288,0.421c0.12,0.128,0.27,0.228,0.45,0.3c0.18,0.071,0.386,0.107,0.618,0.107
			c0.224,0,0.426-0.036,0.606-0.107c0.18-0.072,0.334-0.168,0.462-0.288c0.12-0.12,0.212-0.26,0.276-0.42s0.096-0.328,0.096-0.504
			s-0.032-0.343-0.096-0.498c-0.064-0.156-0.156-0.294-0.276-0.414c-0.128-0.12-0.282-0.216-0.462-0.288
			C-7.034,18.756-7.236,18.72-7.46,18.72z M-1.496,28.068h-1.428V17.34h1.428V28.068z"/>
		<path fill="#4A4F54" d="M6.82,26.088c-0.201-0.096-0.422-0.234-0.666-0.414s-0.521-0.401-0.834-0.666
			c-0.256-0.231-0.479-0.458-0.666-0.678s-0.338-0.434-0.449-0.642c-0.209,0.479-0.568,0.964-1.08,1.451
			c-0.553,0.528-1.102,0.916-1.645,1.164l-1.068-1.008c1-0.416,1.756-0.992,2.268-1.728c0.496-0.729,0.74-1.484,0.732-2.269v-0.372
			h-2.4v-1.235h6.347v1.235H4.96V21.3c-0.01,0.761,0.217,1.438,0.678,2.034C6.097,23.93,6.8,24.492,7.744,25.02L6.82,26.088z
			 M2.332,19.032V17.82h3.709v1.212H2.332z M10.06,28.08H8.632V17.34h1.428V28.08z"/>
		<path fill="#4A4F54" d="M18.711,22.14c0,0.553-0.062,1.07-0.186,1.555c-0.124,0.483-0.314,0.905-0.57,1.266
			c-0.256,0.368-0.58,0.656-0.972,0.864c-0.393,0.208-0.853,0.312-1.38,0.312c-0.527,0-0.987-0.105-1.38-0.317
			c-0.392-0.212-0.716-0.498-0.972-0.858c-0.264-0.36-0.458-0.782-0.582-1.266c-0.124-0.484-0.186-1.002-0.186-1.555
			c0-0.552,0.063-1.069,0.191-1.554c0.128-0.483,0.32-0.906,0.576-1.266c0.256-0.36,0.58-0.645,0.972-0.853
			c0.393-0.208,0.853-0.312,1.38-0.312c0.536,0,0.998,0.104,1.386,0.312c0.388,0.208,0.71,0.492,0.966,0.853
			c0.256,0.359,0.446,0.782,0.57,1.266C18.649,21.07,18.711,21.588,18.711,22.14z M17.307,22.14c0-0.319-0.034-0.644-0.102-0.972
			c-0.068-0.328-0.17-0.624-0.306-0.888c-0.137-0.265-0.309-0.479-0.517-0.643c-0.208-0.163-0.456-0.246-0.744-0.246
			s-0.538,0.083-0.75,0.246c-0.212,0.164-0.386,0.378-0.521,0.643c-0.145,0.264-0.252,0.56-0.324,0.888s-0.108,0.652-0.108,0.972
			c0,0.328,0.036,0.656,0.108,0.984s0.18,0.62,0.324,0.876c0.144,0.264,0.321,0.479,0.534,0.642
			c0.212,0.164,0.458,0.246,0.737,0.246c0.28,0,0.524-0.082,0.732-0.246c0.208-0.163,0.384-0.378,0.528-0.642
			c0.136-0.256,0.237-0.548,0.306-0.876C17.272,22.796,17.307,22.468,17.307,22.14z M21.735,28.08h-1.429V17.34h1.429V28.08z"/>
		<path fill="#4A4F54" d="M23.703,23.532V22.38h4.656v-0.972h-3.276V17.7h8.088v1.188h-6.659v1.332h6.72v1.188h-3.396v0.972h4.656
			v1.152H23.703z M33.411,26.16c0,0.304-0.094,0.586-0.282,0.846c-0.188,0.26-0.466,0.482-0.834,0.666
			c-0.367,0.184-0.817,0.328-1.35,0.432c-0.532,0.104-1.146,0.156-1.842,0.156c-0.688,0-1.302-0.052-1.842-0.156
			c-0.54-0.104-0.994-0.248-1.362-0.432s-0.648-0.406-0.84-0.666c-0.192-0.26-0.288-0.542-0.288-0.846
			c0-0.313,0.096-0.594,0.288-0.846c0.191-0.253,0.472-0.471,0.84-0.654c0.368-0.185,0.822-0.326,1.362-0.426
			c0.54-0.101,1.153-0.15,1.842-0.15c1.392,0,2.458,0.19,3.198,0.57C33.041,25.034,33.411,25.536,33.411,26.16z M29.104,25.176
			c-0.408,0-0.78,0.022-1.116,0.066s-0.624,0.105-0.864,0.186c-0.239,0.089-0.426,0.192-0.558,0.313s-0.198,0.256-0.198,0.408
			c0,0.144,0.066,0.277,0.198,0.401s0.318,0.23,0.558,0.318c0.24,0.08,0.528,0.144,0.864,0.191c0.336,0.049,0.708,0.072,1.116,0.072
			c0.399,0,0.766-0.023,1.098-0.072c0.332-0.048,0.618-0.111,0.858-0.191c0.24-0.088,0.426-0.192,0.558-0.313
			s0.198-0.252,0.198-0.396c0-0.28-0.24-0.512-0.72-0.696C30.592,25.272,29.927,25.176,29.104,25.176z"/>
	</g>
</g>
<g id="Layer_1" display="none">
	<g>
		<polygon display="inline" fill="#8FD5E1" points="28.162,19.635 22.672,18.477 18.776,20.663 8.046,18.348 2.473,21.417 
			18.776,24.979 		"/>
		<polygon display="inline" fill="#8FD5E1" points="19.611,15.111 3.17,11.548 12.76,6.273 29.065,9.699 		"/>
		<polygon display="inline" fill="#8FD5E1" points="28.162,14.953 22.684,13.795 19.667,15.5 8.91,13.189 2.473,16.733 
			18.776,20.295 		"/>
	</g>
</g>
<g id="Layer_3" display="none">
	<g>
		<path display="inline" fill="#F2F2F3" d="M11.212,9.071c-0.079,1.018,0.862,1.646,1.175,2.509c0.392,1.176-0.156,1.88-1.018,2.665
			c-0.471,0.47-1.177,0.783-1.882,0.549c-0.548-0.157-0.784-0.628-1.175-0.942c-0.236-0.155-0.471-0.392-0.707-0.392
			c-0.392,0.157-0.392,0.785-0.47,1.098c-0.236,0.785-1.02,1.098-1.804,1.02c-0.234-0.058-0.514-0.163-0.706-0.344v7.477h7.587
			c-0.452-0.17-0.688-0.313-0.688-0.313l0.705-0.941c0,0,0.469,0.313,0.626,0.627c0.157,0.315,0.236,0.472,0.236,0.472l0.705-0.079
			c0,0,0.392-0.078,0.549-0.235c0.234-0.078,0.313-0.391,0.313-0.391s-0.47-0.629-0.627-0.471c-0.157,0.156-0.157,0.313-0.157,0.313
			l-0.157,0.391c0,0-0.469-0.233-1.254-1.254c-0.705-1.018,0.235-1.254,0.078-1.803c-0.156-0.548,1.019-0.315,1.491-0.392
			c0.469-0.08-0.079,0.783-0.079,0.783s-0.471,0-0.236,0.471c0.236,0.471,1.333,0.08,1.098-0.077
			c-0.236-0.157-0.157-0.629,0.078-0.707c0.235-0.157,0.235-0.157,0.862-0.313c0.629-0.157,1.333,0,1.333,0s0.079,0.313,0.157,0
			c0.157-0.313,0.861-0.628,1.018-0.785c0.156-0.155,0.156,0.705-0.233,1.176c-0.314,0.393,0.39,0.629,0.626,0.706
			c0.157,0.156,0.315,0.549,0.157,0.783c-0.157,0.235,1.097,0.472,1.411,0.549c0.313,0.079,0.549-0.235,0.158-0.469
			c-0.473-0.157-0.551-0.55-0.158-0.783c0.392-0.157,0.469,0.312,0.627,0.076c0.156-0.233,0.079-0.705,0.315-1.018
			c0.233-0.315-0.707-0.862-1.02-1.02c-0.314-0.155-1.019-0.705-0.784-1.098c0.235-0.392-0.235-1.253-0.392-1.566
			c-0.157-0.393-0.627-0.941-0.551-1.568c0-0.627,1.1-0.549,1.334-0.706c0.235-0.155,0.939-0.313,1.412-0.392
			c0.469-0.078,0.626-0.156,1.019-0.078c0.313,0.078,0.704-0.078,0.704-0.078l0.704-0.549c0,0,0.473-0.549,0.629-0.863
			c0.052-0.207,0.815-0.445,1.332-0.585V8.602H11.364C11.252,8.724,11.212,8.958,11.212,9.071z M7.841,19.497
			c-0.549,0.078-1.333-1.177-1.333-1.177c-0.548-1.097,1.883-1.411,1.883-1.411c1.017-0.234,0.391,1.334,0.391,1.255
			C8.86,18.868,7.841,19.497,7.841,19.497z"/>
		<path display="inline" fill="#F2F2F3" d="M25.088,12.677c-0.394,0.237-0.315,0.784-0.394,1.098
			c-0.078,0.314-0.235,0.706-0.47,0.863c-0.237,0.157-0.156,0.862-0.156,0.862s0.312,1.097,0.233,1.41
			c-0.077,0.235-0.626,0.942-0.941,1.255c-0.234,0.314-1.097,0.704-1.097,0.704s-0.549-0.156-0.549,0.236
			c0,0.393-0.548,0.864-0.548,0.864l-0.078,0.703c0,0-0.157,0.628-0.314,0.863c-0.157,0.233-0.315,0.233-0.549,0.392
			c-0.235,0.156-0.471,0.549-0.705,0.706c-0.09,0.028-0.179,0.053-0.268,0.078h6.303V12.212
			C25.464,12.391,25.349,12.546,25.088,12.677z"/>
		<path display="inline" fill="#F2F2F3" d="M2.511,6.014v18.969h25.555V6.014H2.511z M26.34,23.417H3.921V7.818H26.34V23.417z"/>
	</g>
</g>
<g id="Layer_2" display="none">
	<g>
		<g display="inline">
			<path fill="#8FD5E1" d="M11.722,21.246l0.705-0.941c0,0,0.471,0.314,0.627,0.629c0.157,0.313,0.235,0.469,0.235,0.469
				l0.707-0.079c0,0,0.392-0.077,0.548-0.233c0.235-0.079,0.313-0.392,0.313-0.392s-0.47-0.626-0.627-0.47
				c-0.156,0.157-0.156,0.312-0.156,0.312l-0.157,0.394c0,0-0.471-0.236-1.254-1.256c-0.706-1.019,0.235-1.253,0.078-1.803
				c-0.157-0.548,1.019-0.313,1.49-0.391c0.47-0.08-0.079,0.784-0.079,0.784s-0.47,0-0.235,0.469
				c0.235,0.471,1.333,0.079,1.098-0.079c-0.235-0.156-0.157-0.625,0.079-0.704c0.234-0.157,0.234-0.157,0.862-0.313
				c0.626-0.157,1.332,0,1.332,0s0.079,0.313,0.157,0c0.156-0.315,0.861-0.628,1.019-0.785c0.157-0.157,0.157,0.705-0.235,1.177
				c-0.25,0.31,0.146,0.522,0.436,0.636c0.241-0.813,0.633-1.561,1.144-2.211c-0.221-0.22-0.377-0.483-0.247-0.7
				c0.235-0.39-0.235-1.255-0.392-1.567c-0.157-0.393-0.627-0.941-0.549-1.568c0-0.627,1.098-0.549,1.332-0.706
				c0.235-0.156,0.941-0.313,1.412-0.393c0.47-0.077,0.625-0.155,1.018-0.077c0.315,0.077,0.706-0.078,0.706-0.078l0.706-0.55
				c0,0,0.471-0.548,0.627-0.862c0.053-0.206,0.815-0.446,1.332-0.587V7.449H11.56c-0.11,0.124-0.152,0.358-0.152,0.471
				c-0.078,1.019,0.863,1.645,1.176,2.509c0.393,1.175-0.157,1.881-1.02,2.664c-0.469,0.471-1.176,0.785-1.881,0.549
				c-0.549-0.157-0.783-0.626-1.176-0.94c-0.235-0.155-0.469-0.391-0.705-0.391c-0.392,0.156-0.392,0.782-0.47,1.097
				c-0.235,0.784-1.02,1.096-1.803,1.02c-0.235-0.06-0.514-0.162-0.705-0.342v7.474h7.588
				C11.959,21.389,11.722,21.246,11.722,21.246z M8.038,18.345c-0.55,0.08-1.333-1.174-1.333-1.174
				c-0.548-1.099,1.882-1.413,1.882-1.413c1.018-0.234,0.392,1.333,0.392,1.255C9.057,17.719,8.038,18.345,8.038,18.345z"/>
			<path fill="#8FD5E1" d="M25.754,13.943v-2.884c-0.092,0.18-0.207,0.335-0.471,0.466c-0.391,0.236-0.313,0.786-0.391,1.099
				c-0.079,0.314-0.236,0.706-0.471,0.861c-0.113,0.076-0.153,0.279-0.164,0.468c0.256-0.031,0.518-0.048,0.783-0.048
				C25.281,13.904,25.519,13.919,25.754,13.943z"/>
			<path fill="#8FD5E1" d="M18.615,22.266H4.118v-15.6h22.42v7.411c0.61,0.142,1.19,0.365,1.724,0.664V4.862H2.706v18.972h16.552
				C18.982,23.345,18.764,22.819,18.615,22.266z"/>
		</g>
		<path display="inline" fill="#8FD5E1" d="M25.041,14.97c-3.08,0-5.584,2.506-5.584,5.584s2.504,5.582,5.584,5.582
			c3.078,0,5.582-2.504,5.582-5.582S28.119,14.97,25.041,14.97z M24.904,24.354L21.35,20.6h2.023v-3.731h3.044V20.6h2.043
			L24.904,24.354z"/>
	</g>
</g>
</svg>
