<?xml version="1.0" encoding="utf-8"?>
<!-- Generator: Adobe Illustrator 16.0.0, SVG Export Plug-In . SVG Version: 6.00 Build 0)  -->
<!DOCTYPE svg PUBLIC "-//W3C//DTD SVG 1.1//EN" "http://www.w3.org/Graphics/SVG/1.1/DTD/svg11.dtd">
<svg version="1.1" id="Layer_1" xmlns="http://www.w3.org/2000/svg" xmlns:xlink="http://www.w3.org/1999/xlink" x="0px" y="0px"
	 width="31px" height="31px" viewBox="0 0 31 31" enable-background="new 0 0 31 31" xml:space="preserve">
<g>
	<g>
		<path fill="#8CD4E1" d="M24.454,28.523l-18.6-3.601v-17.8l18.6-5.301V28.523z M7.255,23.823l15.802,3.101V3.823l-15.802,4.5
			V23.823z"/>
		<path fill="#8CD4E1" d="M24.604,28.705l-0.179-0.034L5.704,25.047V7.01l0.109-0.031l18.792-5.355V28.705z M6.004,24.799
			l18.3,3.543V2.021l-18.3,5.215V24.799z M23.207,27.106l-16.102-3.16V8.21l0.109-0.031l15.993-4.555V27.106z M7.405,23.7
			l15.501,3.041V4.022L7.405,8.437V23.7z"/>
	</g>
	<g>
		<rect x="6.556" y="15.124" fill="#8CD4E1" width="17.199" height="1.399"/>
		<path fill="#8CD4E1" d="M23.905,16.674H6.406v-1.7h17.499V16.674z M6.706,16.373h16.898v-1.099H6.706V16.373z"/>
	</g>
	<g>
		<rect x="13.655" y="5.624" fill="#8CD4E1" width="1.4" height="20.5"/>
		<path fill="#8CD4E1" d="M15.205,26.274h-1.7v-20.8h1.7V26.274z M13.805,25.974h1.101v-20.2h-1.101V25.974z"/>
	</g>
</g>
</svg>
