<?xml version="1.0" encoding="utf-8"?>
<!-- Generator: Adobe Illustrator 16.0.0, SVG Export Plug-In . SVG Version: 6.00 Build 0)  -->
<!DOCTYPE svg PUBLIC "-//W3C//DTD SVG 1.1//EN" "http://www.w3.org/Graphics/SVG/1.1/DTD/svg11.dtd">
<svg version="1.1" id="Layer_1" xmlns="http://www.w3.org/2000/svg" xmlns:xlink="http://www.w3.org/1999/xlink" x="0px" y="0px"
	 width="31px" height="31px" viewBox="0 0 31 31" enable-background="new 0 0 31 31" xml:space="preserve">
<g>
	<g>
		<path fill="#F2F2F3" d="M19.628,17.99c3-3.6,3-9-0.301-12.6c-3.6-3.899-9.6-4.2-13.6-0.7s-4.199,9.599-0.699,13.601
			c3.398,3.699,9.1,4.199,12.998,1.1c0,0,7.9,8.9,8.102,8.699l1.398-1.299C27.927,26.59,19.628,17.99,19.628,17.99z M17.526,17.59
			c-3.199,2.9-8.1,2.6-10.998-0.5c-2.9-3.2-2.602-8.099,0.5-11c3.199-2.9,8.1-2.6,10.998,0.5
			C20.927,9.79,20.728,14.689,17.526,17.59z"/>
		<g>
			<rect x="8.188" y="10.667" fill="#F2F2F3" width="8.718" height="2.571"/>
		</g>
	</g>
	<path fill="#F2F2F3" stroke="#F2F2F3" stroke-miterlimit="10" d="M21.684,20.4l-1.256,1.41l5.125,5.771c0,0,0.24,0.232,0.441,0.041
		s1.016-0.926,1.311-1.208s0.068-0.509,0.068-0.509L21.684,20.4z"/>
</g>
</svg>
