<?xml version="1.0" encoding="utf-8"?>
<!-- Generator: Adobe Illustrator 16.0.0, SVG Export Plug-In . SVG Version: 6.00 Build 0)  -->
<!DOCTYPE svg PUBLIC "-//W3C//DTD SVG 1.1//EN" "http://www.w3.org/Graphics/SVG/1.1/DTD/svg11.dtd">
<svg version="1.1" id="Layer_1" xmlns="http://www.w3.org/2000/svg" xmlns:xlink="http://www.w3.org/1999/xlink" x="0px" y="0px"
	 width="31px" height="31px" viewBox="0 0 31 31" enable-background="new 0 0 31 31" xml:space="preserve">
<g>
	<g>
		<polygon fill="#F2F2F3" points="18.936,2.376 28.861,13.884 21.452,19.191 21.805,18.045 21.925,16.863 26.672,13.531 
			18.654,4.374 15.979,6.345 17.7,10.56 16.654,10.149 15.208,6.393 9.324,4.918 10.886,10.872 10.498,11.021 10.167,11.259 
			8.583,4.94 3.688,7.196 5.45,22.447 7.938,20.475 8.3,21.264 8.958,21.834 4.222,25.693 2.108,5.867 8.485,3.002 15.034,5.042 		
			"/>
		<path fill="#F2F2F3" d="M4.103,25.984L1.947,5.775l6.528-2.933l0.054,0.017l6.48,2.018l3.953-2.701l0.087,0.102L29.082,13.91
			l-7.904,5.662l0.483-1.571l0.121-1.221l0.057-0.04l4.61-3.236l-7.817-8.928l-2.47,1.819l1.81,4.432l-1.434-0.564L15.096,6.52
			L9.534,5.125l1.532,5.839l-0.496,0.19l-0.495,0.355L8.481,5.152L3.85,7.287l1.719,14.875l2.426-1.924l0.428,0.934l0.769,0.666
			L4.103,25.984z M2.269,5.959l2.073,19.443l4.383-3.572l-0.562-0.504l-0.282-0.615l-2.549,2.021L3.526,7.105l5.158-2.377
			l1.574,6.28l0.186-0.127l0.263-0.101L9.115,4.711l6.205,1.556l1.451,3.767l0.658,0.258l-1.633-3.999l2.881-2.122l8.218,9.387
			l-4.827,3.388l-0.113,1.114l-0.229,0.751l6.916-4.954L18.909,2.576l-3.85,2.631L14.99,5.185L8.495,3.162L2.269,5.959z"/>
	</g>
	<g>
		<g>
			<path fill="#F2F2F3" d="M20.066,21.063c1.881-2.705,1.553-6.485-0.979-8.807c-2.757-2.512-6.978-2.357-9.565,0.337
				c-2.588,2.695-2.356,6.979,0.335,9.566c2.607,2.384,6.631,2.386,9.17-0.021c0,0,6.076,5.754,6.203,5.6l0.899-0.995
				C26.4,26.578,20.066,21.063,20.066,21.063z M18.273,20.635c-1.902,2.051-5.086,2.131-7.131,0.295
				c-2.05-1.904-2.134-5.086-0.292-7.131c1.902-2.053,5.082-2.134,7.128-0.295C20.029,15.407,20.176,18.581,18.273,20.635z"/>
		</g>
		<g>
			<path fill="#F2F2F3" d="M21.65,22.624l-0.795,1.063l3.942,3.73c0,0,0.183,0.146,0.312,0.003c0.129-0.147,0.656-0.711,0.845-0.928
				c0.19-0.216,0.017-0.361,0.017-0.361L21.65,22.624z"/>
			<path fill="#F2F2F3" d="M24.974,27.984C24.974,27.984,24.974,27.984,24.974,27.984c-0.25,0-0.438-0.135-0.488-0.177l-4.297-4.063
				l1.373-1.837l4.725,3.836c0.059,0.049,0.234,0.216,0.255,0.496c0.011,0.145-0.017,0.362-0.212,0.584
				c-0.105,0.121-0.321,0.355-0.514,0.564c-0.144,0.156-0.274,0.298-0.33,0.361C25.349,27.902,25.168,27.984,24.974,27.984z
				 M21.522,23.63l3.417,3.234c0.044-0.048,0.092-0.1,0.141-0.153c0.117-0.127,0.243-0.264,0.347-0.378l-3.688-2.993L21.522,23.63z"
				/>
		</g>
	</g>
</g>
</svg>
