<?xml version="1.0" encoding="utf-8"?>
<!-- Generator: Adobe Illustrator 16.0.0, SVG Export Plug-In . SVG Version: 6.00 Build 0)  -->
<!DOCTYPE svg PUBLIC "-//W3C//DTD SVG 1.1//EN" "http://www.w3.org/Graphics/SVG/1.1/DTD/svg11.dtd">
<svg version="1.1" id="Layer_1" xmlns="http://www.w3.org/2000/svg" xmlns:xlink="http://www.w3.org/1999/xlink" x="0px" y="0px"
	 width="31px" height="31px" viewBox="0 0 31 31" enable-background="new 0 0 31 31" xml:space="preserve">
<g>
	<g>
		<g>
			<path fill="#F2F2F3" d="M13.208,15.373l-0.6-0.4c0.9-1,1.699-1.599,2.4-2c0.699-0.4,1.299-0.6,1.799-0.6
				c0.301,0,0.5,0.1,0.602,0.199s0.199,0.301,0.199,0.5c0,0.301-0.301,1.3-0.801,3.201c-0.9,3.1-1.4,4.9-1.4,5.6
				c0,0.102,0,0.199,0.102,0.301c0.1,0.102,0.1,0.102,0.199,0.102c0.301,0,1-0.5,2.1-1.602l0.5,0.5
				c-1.199,1.102-2.1,1.801-2.6,2.102s-1,0.5-1.301,0.5c-0.299,0-0.5-0.102-0.699-0.301s-0.301-0.5-0.301-0.801
				c0-1.102,0.701-3.699,2-8c0.102-0.201,0.102-0.4,0.102-0.502c0-0.199-0.102-0.298-0.201-0.298c-0.199,0-0.4,0.1-0.6,0.199
				C14.509,14.172,14.009,14.672,13.208,15.373z M18.409,6.774c0.299,0,0.5,0.1,0.699,0.299c0.199,0.201,0.301,0.4,0.301,0.701
				c0,0.398-0.104,0.699-0.4,1c-0.299,0.299-0.6,0.398-0.9,0.398s-0.5-0.1-0.699-0.299c-0.201-0.201-0.301-0.4-0.301-0.701
				c0-0.398,0.102-0.699,0.4-1C17.708,6.874,18.009,6.774,18.409,6.774z"/>
			<path fill="#F2F2F3" d="M14.407,24.273c-0.414,0-0.75-0.143-1.053-0.445c-0.283-0.285-0.447-0.705-0.447-1.154
				c0-1.064,0.549-3.271,2.021-8.146c0.002-0.004,0.002-0.006,0.004-0.01l0,0c-0.082,0.047-0.365,0.305-0.641,0.555
				c-0.211,0.193-0.465,0.422-0.754,0.676L13.251,16l-1.4-0.934l0.387-0.43c0.82-0.912,1.646-1.597,2.523-2.099
				c0.783-0.449,1.453-0.666,2.047-0.666c0.385,0,0.732,0.125,0.953,0.344c0.211,0.213,0.348,0.547,0.348,0.855
				c0,0.27-0.115,0.715-0.453,1.964l-0.361,1.361c-0.734,2.531-1.273,4.43-1.369,5.25c0.25-0.158,0.723-0.52,1.531-1.33l0.354-0.354
				l1.225,1.223l-0.385,0.355c-1.109,1.016-2.086,1.803-2.682,2.158C15.61,23.916,14.935,24.273,14.407,24.273z M15.317,13.374
				c0.336,0.004,0.691,0.285,0.691,0.798c0,0.125,0,0.418-0.154,0.725c-1.156,3.852-1.947,6.689-1.947,7.777
				c0,0.18,0.061,0.352,0.154,0.445c0.119,0.119,0.197,0.154,0.346,0.154c0.133,0,0.52-0.113,1.043-0.43
				c0.041-0.023,0.082-0.051,0.127-0.078c-0.178-0.023-0.283-0.1-0.422-0.238c-0.248-0.248-0.248-0.523-0.248-0.654
				c0-0.73,0.418-2.289,1.42-5.738l0.363-1.355c0.223-0.83,0.416-1.544,0.418-1.707c0-0.053-0.035-0.125-0.055-0.148
				c-0.014-0.01-0.096-0.051-0.246-0.051C16.411,12.874,15.909,13.042,15.317,13.374z M18.108,9.672
				c-0.414,0-0.748-0.141-1.053-0.445c-0.305-0.307-0.447-0.641-0.447-1.055c0-0.557,0.17-0.975,0.547-1.352
				c0.354-0.547,1.031-0.547,1.254-0.547c0.414,0,0.748,0.141,1.053,0.445s0.447,0.641,0.447,1.055c0,0.557-0.17,0.975-0.547,1.354
				C18.999,9.489,18.577,9.672,18.108,9.672z M18.409,7.274c-0.338,0-0.426,0.088-0.484,0.178c-0.252,0.264-0.316,0.428-0.316,0.721
				c0,0.15,0.033,0.229,0.154,0.348c0.119,0.119,0.195,0.152,0.346,0.152c0.146,0,0.322-0.029,0.547-0.252
				c0.189-0.189,0.254-0.354,0.254-0.646c0-0.15-0.035-0.229-0.154-0.348S18.558,7.274,18.409,7.274z"/>
		</g>
	</g>
	<path fill="#F2F2F3" stroke="#F2F2F3" stroke-width="0.5" stroke-miterlimit="10" d="M16.009,28.373
		c-7.301,0-13.201-5.9-13.201-13.201c0-7.298,5.9-13.199,13.201-13.199c7.299,0,13.199,5.9,13.199,13.199
		C29.208,22.473,23.208,28.373,16.009,28.373z M16.009,3.374c-6.5,0-11.801,5.299-11.801,11.798c0,6.502,5.301,11.801,11.801,11.801
		s11.799-5.299,11.799-11.801C27.808,8.672,22.509,3.374,16.009,3.374z"/>
</g>
</svg>
