<?xml version="1.0" encoding="utf-8"?>
<!-- Generator: Adobe Illustrator 16.0.0, SVG Export Plug-In . SVG Version: 6.00 Build 0)  -->
<!DOCTYPE svg PUBLIC "-//W3C//DTD SVG 1.1//EN" "http://www.w3.org/Graphics/SVG/1.1/DTD/svg11.dtd">
<svg version="1.1" id="Layer_1" xmlns="http://www.w3.org/2000/svg" xmlns:xlink="http://www.w3.org/1999/xlink" x="0px" y="0px"
	 width="31px" height="31px" viewBox="0 0 31 31" enable-background="new 0 0 31 31" xml:space="preserve">
<g>
	<path fill="#F2F2F3" d="M5.083,12.671h6.422l-1.171,0.967l-0.459,0.688H5.954c-0.634,0-1.132,0.495-1.132,1.104v9.806
		c0,0.393,0.324,0.709,0.722,0.709h4.069l0.721,1.078l0.698,0.578H4.226c-0.61,0-1.095-0.479-1.095-1.074V14.58
		C3.131,13.526,4.001,12.671,5.083,12.671z M22.516,12.671h2.848c1.085,0,1.955,0.855,1.955,1.909v11.947
		c0,0.594-0.484,1.074-1.094,1.074h-3.248l0.709-0.58l0.723-1.076h0.496c0.397,0,0.722-0.317,0.722-0.709v-1.111l0.075-0.111
		c0.484-1.133,0.747-2.378,0.747-3.684c0-1.307-0.263-2.553-0.747-3.684l-0.075-0.111V15.43c0-0.608-0.496-1.104-1.131-1.104h-0.349
		l-0.461-0.688L22.516,12.671z"/>
	<path fill="#F2F2F3" d="M10.497,20.285c0,3.602,2.91,6.523,6.519,6.523s6.521-2.923,6.521-6.523c0-3.604-2.911-6.524-6.521-6.524
		C13.407,13.761,10.497,16.682,10.497,20.285z M8.505,20.285c0-4.701,3.809-8.51,8.511-8.51c4.705,0,8.512,3.809,8.512,8.51
		s-3.807,8.51-8.512,8.51C12.313,28.795,8.505,24.986,8.505,20.285z"/>
	<path fill="#F2F2F3" d="M14.093,20.285c0,1.615,1.306,2.926,2.923,2.926c1.618,0,2.926-1.311,2.926-2.926
		c0-1.616-1.308-2.926-2.926-2.926C15.398,17.359,14.093,18.669,14.093,20.285z M12.387,20.285c0-2.557,2.078-4.628,4.628-4.628
		c2.553,0,4.629,2.071,4.629,4.628c0,2.555-2.076,4.629-4.629,4.629C14.465,24.914,12.387,22.84,12.387,20.285z"/>
	<path fill="#F2F2F3" d="M6.639,10.281h0.2h1.692h0.198c0.909,0.349,1.021,1.743,1.12,2.09H8.531H6.839H5.521
		C5.619,12.024,5.73,10.63,6.639,10.281z"/>
	<path fill="#F2F2F3" d="M11.256,1.551L29.458,8.69l-1.72,4.375l-0.869-0.779l1.083-2.781l-16.137-6.33L9.288,9.588L9.054,9.591
		C8.63,9.598,8.493,9.602,8.282,9.588L8.121,9.571L11.256,1.551z"/>
</g>
</svg>
