<?xml version="1.0" encoding="utf-8"?>
<!-- Generator: Adobe Illustrator 16.0.0, SVG Export Plug-In . SVG Version: 6.00 Build 0)  -->
<!DOCTYPE svg PUBLIC "-//W3C//DTD SVG 1.1//EN" "http://www.w3.org/Graphics/SVG/1.1/DTD/svg11.dtd">
<svg version="1.1" id="Layer_1" xmlns="http://www.w3.org/2000/svg" xmlns:xlink="http://www.w3.org/1999/xlink" x="0px" y="0px"
	 width="31px" height="31px" viewBox="0 0 31 31" enable-background="new 0 0 31 31" xml:space="preserve">
<g>
	<path fill-rule="evenodd" clip-rule="evenodd" fill="#4A4F54" d="M7.146,11.347h0.186h1.65H9.17
		c0.889,0.321,0.997,1.601,1.092,1.922h-1.28h-1.65H6.053C6.148,12.947,6.258,11.668,7.146,11.347z"/>
	<path fill-rule="evenodd" clip-rule="evenodd" fill="#4A4F54" d="M5.519,13.632h6.4l-1.182,0.975l-0.29,0.351H6.152
		c-0.511,0-0.923,0.413-0.923,0.924v10.164c0,0.227,0.18,0.409,0.408,0.409h4.59l0.51,0.616l0.857,0.71H4.885
		c-0.589,0-1.065-0.478-1.065-1.067V15.331C3.819,14.394,4.58,13.632,5.519,13.632z M22.018,13.632h3.083
		c0.938,0,1.697,0.762,1.697,1.699v11.383c0,0.59-0.474,1.067-1.063,1.067h-3.395l0.856-0.71l0.509-0.616h1.276
		c0.227,0,0.408-0.183,0.408-0.409v-2.758l0.208-0.673c0.118-0.572,0.18-1.167,0.18-1.776c0-0.607-0.062-1.202-0.18-1.774
		l-0.208-0.673v-2.51c0-0.512-0.412-0.924-0.923-0.924h-0.98l-0.29-0.351L22.018,13.632z"/>
	<path fill-rule="evenodd" clip-rule="evenodd" fill="#4A4F54" d="M10.78,20.887c0,3.437,2.784,6.219,6.218,6.219
		c3.434,0,6.217-2.782,6.217-6.219c0-3.433-2.783-6.215-6.217-6.215C13.564,14.671,10.78,17.454,10.78,20.887z M8.912,20.887
		c0-4.464,3.62-8.086,8.086-8.086c4.466,0,8.086,3.623,8.086,8.086c0,4.468-3.62,8.089-8.086,8.089
		C12.532,28.976,8.912,25.354,8.912,20.887z"/>
	<path fill-rule="evenodd" clip-rule="evenodd" fill="#4A4F54" d="M13.976,20.887c0,1.67,1.352,3.024,3.022,3.024
		c1.67,0,3.023-1.354,3.023-3.024c0-1.668-1.354-3.022-3.023-3.022C15.327,17.864,13.976,19.219,13.976,20.887z M12.582,20.887
		c0-2.437,1.977-4.414,4.417-4.414c2.438,0,4.416,1.978,4.416,4.414c0,2.44-1.978,4.418-4.416,4.418
		C14.559,25.305,12.582,23.327,12.582,20.887z"/>
	<path fill-rule="evenodd" clip-rule="evenodd" fill="#4A4F54" d="M11.532,2.997L28.875,9.8l-1.634,4.169l-0.842-0.741l1.039-2.649
		L12.056,4.543l-2.398,6.112l-0.232,0.004c-0.4,0.005-0.535,0.009-0.728-0.004L8.534,10.64L11.532,2.997z"/>
</g>
</svg>
