<?xml version="1.0" encoding="utf-8"?>
<!-- Generator: Adobe Illustrator 16.0.0, SVG Export Plug-In . SVG Version: 6.00 Build 0)  -->
<!DOCTYPE svg PUBLIC "-//W3C//DTD SVG 1.1//EN" "http://www.w3.org/Graphics/SVG/1.1/DTD/svg11.dtd">
<svg version="1.1" id="Layer_1" xmlns="http://www.w3.org/2000/svg" xmlns:xlink="http://www.w3.org/1999/xlink" x="0px" y="0px"
	 width="31px" height="31px" viewBox="0 0 31 31" enable-background="new 0 0 31 31" xml:space="preserve">
<g>
	<path fill="#F2F2F3" stroke="#F2F2F3" stroke-width="0.3" stroke-miterlimit="10" d="M15.753,20.023c-5,0-9.199-4.1-9.199-9.1
		s4.1-9.101,9.199-9.101c5,0,9.1,4.101,9.1,9.101C24.952,15.924,20.853,20.023,15.753,20.023z M15.753,3.124
		c-4.301,0-7.801,3.5-7.801,7.699c0,4.301,3.5,7.7,7.801,7.7s7.699-3.5,7.699-7.7C23.554,6.624,20.054,3.124,15.753,3.124z"/>
	<path fill="#F2F2F3" d="M15.753,16.823c-2.699,0-4.9-2.199-4.9-4.899s2.201-4.9,4.9-4.9s4.9,2.2,4.9,4.9
		S18.452,16.823,15.753,16.823z M15.753,8.424c-1.9,0-3.5,1.6-3.5,3.5c0,1.899,1.6,3.5,3.5,3.5s3.5-1.601,3.5-3.5
		C19.253,9.924,17.753,8.424,15.753,8.424z"/>
	<path fill="#F2F2F3" stroke="#F2F2F3" stroke-width="0.3" stroke-miterlimit="10" d="M15.753,28.523c-0.301,0-0.6,0-1-0.1
		c-3.699-0.601-5.6-4.3-5.699-4.4l-0.102-0.3l2-5.8l1.301,0.5l-1.801,5.2c0.5,0.8,2,3,4.5,3.399c2,0.3,4.201-0.7,6.5-2.899l-2-5.9
		l1.301-0.4l2.301,6.7l-0.301,0.3C20.353,27.323,18.054,28.523,15.753,28.523z"/>
	<polygon fill="#F2F2F3" points="13.452,21.124 18.452,21.124 15.952,25.124 	"/>
</g>
</svg>
