<?xml version="1.0" encoding="utf-8"?>
<!-- Generator: Adobe Illustrator 16.0.0, SVG Export Plug-In . SVG Version: 6.00 Build 0)  -->
<!DOCTYPE svg PUBLIC "-//W3C//DTD SVG 1.1//EN" "http://www.w3.org/Graphics/SVG/1.1/DTD/svg11.dtd">
<svg version="1.1" id="Layer_1" xmlns="http://www.w3.org/2000/svg" xmlns:xlink="http://www.w3.org/1999/xlink" x="0px" y="0px"
	 width="31px" height="31px" viewBox="0 0 31 31" enable-background="new 0 0 31 31" xml:space="preserve">
<g>
	<path fill-rule="evenodd" clip-rule="evenodd" fill="#F2F2F3" d="M14.983,2.272c5.064,0,9.455,2.91,11.559,7.144l0.678,1.678
		h-2.145l-0.064-0.185c-1.65-3.89-5.521-6.62-10.027-6.62c-3.751,0-7.064,1.895-9.013,4.779L5.685,9.586H3.374l0.57-1.125
		C6.219,4.752,10.309,2.272,14.983,2.272z M0.723,10.806h2.053l1.649,2.364c0.275-0.398,0.546-0.792,0.819-1.183
		c0.271-0.388,0.544-0.782,0.817-1.181h2L5.49,14.438c0.454,0.645,0.921,1.3,1.39,1.969c0.48,0.666,0.948,1.319,1.391,1.96H6.167
		l-1.844-2.643c-0.287,0.439-0.587,0.879-0.884,1.322c-0.313,0.442-0.601,0.882-0.897,1.321H0.49l2.779-3.919
		c-0.413-0.592-0.844-1.199-1.271-1.821C1.555,12.005,1.141,11.398,0.723,10.806z M10.724,10.806h2.119
		c0.387,0,0.778,0.023,1.155,0.07c0.362,0.046,0.699,0.147,0.998,0.298c0.287,0.153,0.521,0.373,0.69,0.665
		c0.182,0.289,0.271,0.672,0.271,1.152c0,0.418-0.104,0.768-0.3,1.05c-0.206,0.283-0.479,0.502-0.829,0.655
		c0.064,0.06,0.116,0.131,0.167,0.214c0.053,0.083,0.104,0.172,0.155,0.263l1.523,3.193h-1.887l-1.141-2.582
		c-0.116-0.214-0.247-0.353-0.403-0.416c-0.143-0.061-0.325-0.094-0.508-0.094h-0.311v3.092h-1.702V10.806z M12.426,12.283v1.515
		h0.559c0.376,0,0.663-0.068,0.882-0.205c0.221-0.135,0.324-0.33,0.324-0.583c0-0.232-0.089-0.411-0.283-0.538
		c-0.196-0.126-0.454-0.188-0.819-0.188H12.426z M20.323,12.563c0.87,0,1.492,0.199,1.855,0.597s0.546,1.002,0.546,1.805v2.103
		c0,0.26,0.012,0.485,0.025,0.676c0.015,0.188,0.039,0.396,0.091,0.623h-1.664v-0.221c-0.155,0.094-0.337,0.173-0.542,0.24
		c-0.21,0.067-0.442,0.099-0.702,0.099c-0.325,0-0.623-0.032-0.896-0.104c-0.272-0.071-0.507-0.181-0.701-0.334
		c-0.194-0.152-0.351-0.35-0.456-0.59c-0.115-0.238-0.167-0.522-0.167-0.855c0-0.373,0.091-0.687,0.272-0.938
		c0.183-0.252,0.403-0.456,0.676-0.61c0.272-0.152,0.559-0.262,0.883-0.327c0.312-0.067,0.608-0.101,0.896-0.101l0.636,0.02
		c-0.038-0.239-0.13-0.419-0.26-0.543c-0.142-0.123-0.353-0.184-0.636-0.184c-0.118,0-0.247,0.026-0.403,0.075
		c-0.143,0.049-0.31,0.115-0.467,0.194c-0.17,0.087-0.338,0.188-0.519,0.305c-0.183,0.117-0.352,0.241-0.509,0.374L18.19,13.24
		c0.301-0.207,0.64-0.371,1.013-0.494C19.581,12.623,19.945,12.563,20.323,12.563z M23.763,12.681h1.767l1.131,3.391l1.131-3.391
		h1.688l-2.013,5.584c-0.092,0.253-0.194,0.516-0.325,0.789c-0.118,0.271-0.26,0.521-0.428,0.747c-0.183,0.228-0.403,0.41-0.65,0.56
		c-0.247,0.145-0.545,0.219-0.897,0.219c-0.143,0-0.311-0.01-0.479-0.03c-0.182-0.02-0.353-0.066-0.518-0.14l0.102-1.406
		c0.168,0.06,0.324,0.112,0.467,0.155c0.144,0.042,0.247,0.063,0.285,0.063c0.143,0,0.272-0.032,0.365-0.099
		c0.104-0.066,0.18-0.15,0.232-0.251c0.066-0.098,0.104-0.203,0.13-0.313c0.026-0.107,0.041-0.206,0.041-0.294L23.763,12.681z
		 M7.749,14.062h2.132v1.225H7.749V14.062z M20.894,15.913c-0.144,0-0.298,0.008-0.469,0.028c-0.168,0.021-0.336,0.053-0.479,0.102
		c-0.153,0.052-0.286,0.125-0.377,0.214c-0.102,0.09-0.155,0.202-0.155,0.345c0,0.086,0.014,0.162,0.054,0.229
		c0.036,0.065,0.089,0.119,0.141,0.16c0.067,0.047,0.131,0.08,0.21,0.104c0.063,0.023,0.128,0.034,0.192,0.034
		c0.363,0,0.625-0.096,0.806-0.294c0.182-0.197,0.273-0.444,0.273-0.743v-0.179H20.894z M2.893,19.584h2.198l0.88,1.606
		c1.948,2.884,5.262,4.779,9.013,4.779c3.015,0,5.729-1.213,7.701-3.177l1.054-1.279h2.388l-0.439,0.804
		c-2.326,3.422-6.248,5.67-10.703,5.67c-5.338,0-9.934-3.238-11.885-7.852L2.893,19.584z M27.815,19.696v7.036
		c0,0.694-0.572,1.255-1.259,1.255H19.49l0.792-0.243c3.272-1.382,5.896-3.998,7.287-7.265L27.815,19.696z"/>
</g>
</svg>
