<?xml version="1.0" encoding="utf-8"?>
<!-- Generator: Adobe Illustrator 16.0.0, SVG Export Plug-In . SVG Version: 6.00 Build 0)  -->
<!DOCTYPE svg PUBLIC "-//W3C//DTD SVG 1.1//EN" "http://www.w3.org/Graphics/SVG/1.1/DTD/svg11.dtd">
<svg version="1.1" id="Layer_1" xmlns="http://www.w3.org/2000/svg" xmlns:xlink="http://www.w3.org/1999/xlink" x="0px" y="0px"
	 width="31px" height="31px" viewBox="0 0 31 31" enable-background="new 0 0 31 31" xml:space="preserve">
<g>
	<path fill="#4A4F54" d="M14.983,2.272c5.064,0,9.455,2.91,11.559,7.144l0.679,1.678h-2.146l-0.063-0.185
		c-1.65-3.89-5.521-6.62-10.028-6.62c-3.751,0-7.064,1.895-9.013,4.779L5.685,9.586H3.374l0.57-1.125
		C6.219,4.752,10.309,2.272,14.983,2.272z M0.723,10.806h2.053l1.649,2.364c0.275-0.398,0.546-0.792,0.819-1.183
		c0.271-0.388,0.544-0.782,0.817-1.181h2L5.49,14.438c0.454,0.645,0.921,1.3,1.39,1.969c0.48,0.666,0.948,1.319,1.391,1.96H6.167
		l-1.844-2.643c-0.287,0.439-0.587,0.879-0.884,1.322c-0.313,0.442-0.601,0.882-0.897,1.321H0.49l2.779-3.919
		c-0.413-0.592-0.844-1.199-1.271-1.821C1.555,12.005,1.141,11.398,0.723,10.806z M10.724,10.806h2.119
		c0.387,0,0.778,0.023,1.155,0.07c0.362,0.046,0.699,0.147,0.998,0.298c0.287,0.153,0.521,0.373,0.69,0.665
		c0.182,0.289,0.271,0.672,0.271,1.152c0,0.418-0.104,0.768-0.3,1.05c-0.206,0.283-0.479,0.502-0.829,0.655
		c0.064,0.06,0.116,0.131,0.167,0.214c0.053,0.083,0.104,0.172,0.155,0.263l1.523,3.193h-1.887l-1.141-2.582
		c-0.116-0.214-0.247-0.353-0.403-0.416c-0.143-0.061-0.325-0.094-0.508-0.094h-0.311v3.092h-1.702v-7.56H10.724z M12.426,12.283
		v1.515h0.559c0.376,0,0.663-0.068,0.882-0.205c0.221-0.135,0.324-0.33,0.324-0.583c0-0.232-0.089-0.411-0.283-0.538
		c-0.196-0.126-0.454-0.188-0.819-0.188L12.426,12.283L12.426,12.283z M20.323,12.563c0.87,0,1.491,0.199,1.854,0.597
		s0.547,1.002,0.547,1.805v2.104c0,0.26,0.012,0.484,0.024,0.676c0.015,0.188,0.039,0.396,0.091,0.623h-1.664v-0.221
		c-0.154,0.094-0.337,0.172-0.542,0.239c-0.21,0.067-0.442,0.099-0.702,0.099c-0.324,0-0.623-0.031-0.896-0.104
		c-0.272-0.07-0.507-0.181-0.701-0.334c-0.194-0.152-0.351-0.35-0.456-0.59c-0.115-0.238-0.167-0.521-0.167-0.855
		c0-0.373,0.091-0.687,0.272-0.938c0.183-0.252,0.402-0.456,0.676-0.61c0.271-0.152,0.559-0.262,0.883-0.327
		c0.313-0.067,0.607-0.101,0.896-0.101l0.636,0.02c-0.038-0.239-0.13-0.419-0.261-0.543c-0.142-0.123-0.353-0.184-0.635-0.184
		c-0.119,0-0.248,0.026-0.404,0.075c-0.143,0.049-0.31,0.115-0.467,0.194c-0.17,0.087-0.338,0.188-0.519,0.305
		c-0.183,0.117-0.353,0.241-0.509,0.374l-0.092-1.627c0.302-0.207,0.641-0.371,1.014-0.494
		C19.581,12.623,19.945,12.563,20.323,12.563z M23.764,12.681h1.766l1.132,3.391l1.131-3.391h1.688l-2.014,5.584
		c-0.092,0.252-0.193,0.516-0.324,0.789c-0.119,0.271-0.261,0.521-0.429,0.746c-0.183,0.229-0.403,0.41-0.649,0.561
		c-0.248,0.145-0.545,0.219-0.897,0.219c-0.144,0-0.312-0.01-0.479-0.03c-0.182-0.02-0.353-0.065-0.518-0.14l0.102-1.406
		c0.168,0.061,0.324,0.112,0.467,0.155c0.145,0.042,0.248,0.063,0.285,0.063c0.144,0,0.272-0.033,0.365-0.1
		c0.104-0.066,0.18-0.15,0.232-0.251c0.066-0.099,0.104-0.203,0.13-0.313c0.026-0.106,0.041-0.205,0.041-0.293L23.764,12.681z
		 M7.749,14.062h2.132v1.225H7.749V14.062z M20.895,15.913c-0.145,0-0.299,0.008-0.47,0.028c-0.168,0.021-0.336,0.053-0.479,0.102
		c-0.152,0.052-0.285,0.125-0.377,0.214c-0.102,0.091-0.154,0.202-0.154,0.345c0,0.086,0.014,0.162,0.054,0.229
		c0.036,0.065,0.089,0.119,0.142,0.16c0.066,0.047,0.131,0.079,0.209,0.104c0.063,0.023,0.129,0.034,0.193,0.034
		c0.362,0,0.625-0.096,0.805-0.294c0.183-0.196,0.273-0.444,0.273-0.743v-0.179H20.895z M2.893,19.584h2.198l0.88,1.605
		c1.948,2.885,5.262,4.779,9.013,4.779c3.015,0,5.729-1.213,7.702-3.177l1.053-1.278h2.389l-0.439,0.803
		c-2.326,3.423-6.248,5.67-10.703,5.67c-5.338,0-9.934-3.237-11.885-7.852L2.893,19.584z M27.814,19.695v7.037
		c0,0.693-0.571,1.254-1.258,1.254H19.49l0.792-0.242c3.272-1.383,5.896-3.998,7.286-7.266L27.814,19.695z"/>
</g>
</svg>
