<?xml version="1.0" encoding="utf-8"?>
<!-- Generator: Adobe Illustrator 16.0.0, SVG Export Plug-In . SVG Version: 6.00 Build 0)  -->
<!DOCTYPE svg PUBLIC "-//W3C//DTD SVG 1.1//EN" "http://www.w3.org/Graphics/SVG/1.1/DTD/svg11.dtd">
<svg version="1.1" id="Layer_1" xmlns="http://www.w3.org/2000/svg" xmlns:xlink="http://www.w3.org/1999/xlink" x="0px" y="0px"
	 width="50px" height="50px" viewBox="0 0 50 50" enable-background="new 0 0 50 50" xml:space="preserve">
<g>
	<path fill="#A9A8A8" d="M50,50.067H0v-50h50V50.067z M0.98,49.087H49.02V1.048H0.98V49.087z"/>
	<g>
		<g>
			<path fill="#5A5A5A" d="M8.784,37.864c-0.147,0.31-0.338,0.585-0.571,0.826c-0.211,0.233-0.487,0.409-0.826,0.525
				c-0.339,0.117-0.712,0.176-1.12,0.176c-0.392,0-0.756-0.059-1.092-0.176C4.839,39.1,4.54,38.924,4.275,38.69
				c-0.234-0.241-0.411-0.51-0.532-0.804s-0.181-0.618-0.181-0.973c0-0.347,0.06-0.677,0.181-0.99
				c0.121-0.313,0.313-0.586,0.577-0.819c0.264-0.234,0.556-0.417,0.876-0.549c0.321-0.132,0.677-0.198,1.069-0.198
				c0.407,0,0.78,0.066,1.12,0.198s0.615,0.314,0.826,0.549c0.233,0.233,0.424,0.507,0.571,0.819c0.147,0.313,0.22,0.644,0.22,0.99
				C9.004,37.238,8.931,37.555,8.784,37.864z M7.811,36.298C7.724,36.12,7.62,35.96,7.5,35.816c-0.173-0.15-0.356-0.27-0.549-0.356
				c-0.192-0.086-0.42-0.13-0.684-0.13c-0.264,0-0.5,0.044-0.707,0.13c-0.208,0.087-0.372,0.206-0.492,0.356
				c-0.174,0.144-0.283,0.304-0.328,0.481c-0.045,0.177-0.068,0.367-0.068,0.571c0,0.241,0.022,0.456,0.068,0.645
				s0.154,0.343,0.328,0.464c0.121,0.15,0.285,0.262,0.492,0.334c0.207,0.071,0.443,0.107,0.707,0.107
				c0.264,0,0.5-0.036,0.707-0.107c0.207-0.072,0.397-0.184,0.571-0.334c0.09-0.121,0.179-0.283,0.266-0.486
				c0.087-0.204,0.13-0.411,0.13-0.622C7.941,36.665,7.897,36.475,7.811,36.298z M12.319,43.758H5.463v-3.133h1.108v2.172h5.747
				V43.758z M9.751,35.376h1.29v-1.335h1.143v7.251h-1.143v-2.964h-1.29V37.4h1.29v-1.098h-1.29V35.376z"/>
			<path fill="#5A5A5A" d="M21.063,39.923c-0.438,0.061-1.003,0.106-1.697,0.136c-0.694,0.03-1.482,0.046-2.364,0.046h-2.647v-0.974
				h2.115v-2.126h1.063v2.126c0.354,0,0.686,0,0.996,0c0.309,0,0.611-0.015,0.905-0.045c0.264,0,0.536-0.015,0.814-0.045
				c0.279-0.03,0.551-0.061,0.815-0.091V39.923z M20.667,34.572c0,0.354-0.015,0.701-0.045,1.041
				c-0.03,0.339-0.061,0.671-0.09,0.995c-0.053,0.324-0.102,0.634-0.147,0.928c-0.045,0.294-0.083,0.559-0.113,0.792h-1.109
				c0.03-0.144,0.068-0.312,0.113-0.504c0.045-0.191,0.068-0.405,0.068-0.639c0.03-0.211,0.06-0.448,0.09-0.713
				c0.03-0.264,0.045-0.573,0.045-0.928h-4.378v-0.973H20.667z M23.235,43.758h-6.72v-2.907h1.063v1.946h5.656V43.758z
				 M24.514,38.204H23.1v3.224h-1.109v-7.387H23.1v3.189h1.414V38.204z"/>
			<path fill="#5A5A5A" d="M31.595,34.572c-0.067,1.327-0.507,2.439-1.317,3.337s-1.967,1.554-3.467,1.969
				c-0.145-0.12-0.269-0.239-0.374-0.356s-0.229-0.221-0.373-0.311c0.648-0.204,1.229-0.431,1.742-0.68
				c0.513-0.248,0.946-0.535,1.301-0.859s0.628-0.663,0.82-1.018s0.318-0.725,0.379-1.109h-3.71v-0.973H31.595z M34.808,43.849
				h-6.674v-3.665h6.674V43.849z M33.62,42.887v-1.73h-4.378v1.73H33.62z M34.808,39.527h-1.143v-1.946H31.72v-0.973h1.945v-2.567
				h1.143V39.527z"/>
			<path fill="#5A5A5A" d="M40.555,35.24c0,0.414,0.059,0.813,0.176,1.193c0.116,0.381,0.28,0.748,0.491,1.103l0.216,0.261
				c0.384,0.535,0.825,0.95,1.323,1.244l-0.747,0.746c-0.558-0.385-1.007-0.797-1.346-1.238c-0.34-0.441-0.569-0.824-0.69-1.148
				c-0.174,0.385-0.436,0.79-0.786,1.216c-0.351,0.427-0.809,0.847-1.374,1.262c-0.091-0.12-0.208-0.231-0.351-0.334
				c-0.144-0.102-0.265-0.209-0.362-0.322c0.264-0.181,0.522-0.411,0.774-0.69c0.253-0.278,0.511-0.595,0.775-0.95
				c0.203-0.324,0.365-0.682,0.486-1.074c0.12-0.393,0.207-0.814,0.26-1.267v-0.838h1.154V35.24z M46.471,43.973h-1.143v-2.454
				h-5.837v-0.974h6.979V43.973z M46.471,39.742h-1.097v-2.297H44.22v2.297h-1.063v-5.565h1.063v2.251h1.154v-2.387h1.097V39.742z"
				/>
		</g>
	</g>
	<g>
		<g>
			<g>
				<path fill="#838484" d="M27.725,29.299H10.672V7.716h17.053V29.299z M12.072,27.898h14.252V9.116H12.072V27.898z"/>
				<rect x="14.261" y="6.735" fill="#838484" width="9.876" height="2.748"/>
				<path fill="#838484" d="M19.198,9.561c-1.158,0-2.1-1.074-2.1-2.394c0-1.32,0.942-2.395,2.1-2.395
					c1.158,0,2.101,1.074,2.101,2.395C21.299,8.487,20.356,9.561,19.198,9.561z M19.198,5.772c-0.606,0-1.1,0.625-1.1,1.395
					c0,0.769,0.493,1.394,1.1,1.394c0.607,0,1.101-0.625,1.101-1.394C20.299,6.398,19.805,5.772,19.198,5.772z"/>
				<rect x="11.816" y="7.167" fill="#838484" width="14.737" height="1.606"/>
				<rect x="11.816" y="27.795" fill="#838484" width="14.737" height="1.607"/>
			</g>
			<path fill="#868586" d="M23.697,24.01H14.6v-8.835h9.098V24.01z M15.391,23.218h7.517v-7.252h-7.517V23.218z"/>
			<g>
				<polygon fill="#868586" points="16.577,18.885 19.479,22.181 25.478,15.984 19.334,20.293 				"/>
				<path fill="#FFFFFF" d="M19.477,22.239l-0.027-0.032l-3.037-3.451l2.919,1.491l6.123-4.295l0.052,0.06L19.477,22.239z
					 M16.745,19.015l2.734,3.107l5.681-5.867l-5.821,4.084L16.745,19.015z"/>
			</g>
		</g>
		<g>
			<g>
				<g>
					<path fill="#5A5A5A" d="M26.311,21.388l-0.974-0.971l0.209,3.712l2.826-0.688l-0.859-0.857c0.42-0.814,1.733-2.747,4.475-1.972
						C31.987,20.611,29.074,17.789,26.311,21.388z"/>
					<path fill="#FFFFFF" d="M25.453,24.254l-0.23-4.093l1.079,1.076c0.935-1.18,1.985-1.778,3.125-1.778
						c1.498,0,2.586,1.037,2.631,1.081l0.285,0.276l-0.382-0.108c-0.413-0.117-0.814-0.176-1.192-0.176
						c-1.82,0-2.777,1.373-3.132,2.033l0.933,0.931L25.453,24.254z M25.452,20.672l0.188,3.331l2.537-0.618l-0.785-0.783
						l0.033-0.065c0.342-0.663,1.353-2.206,3.344-2.206c0.262,0,0.533,0.027,0.813,0.08c-0.425-0.303-1.212-0.753-2.154-0.753
						c-1.103,0-2.124,0.603-3.036,1.79l-0.069,0.09L25.452,20.672z"/>
				</g>
				<g>
					<path fill="#5A5A5A" d="M33.313,23.066l-2.826,0.69l0.859,0.855c-0.419,0.814-1.732,2.748-4.475,1.972
						c0,0,2.913,2.823,5.676-0.775l0.973,0.971L33.313,23.066z"/>
					<path fill="#FFFFFF" d="M29.434,27.737c-1.498,0-2.586-1.037-2.631-1.081l-0.285-0.276l0.382,0.107
						c0.413,0.117,0.815,0.177,1.193,0.177c1.821,0,2.777-1.373,3.131-2.033l-0.934-0.929l3.116-0.761l0.229,4.094l-1.077-1.076
						C31.623,27.139,30.573,27.737,29.434,27.737z M27.279,26.784c0.425,0.303,1.212,0.753,2.154,0.753
						c1.103,0,2.123-0.602,3.035-1.79l0.069-0.09l0.868,0.866l-0.186-3.332l-2.536,0.62l0.784,0.782l-0.033,0.065
						c-0.341,0.663-1.35,2.206-3.343,2.206C27.831,26.864,27.559,26.837,27.279,26.784z"/>
				</g>
			</g>
		</g>
		<g>
			<ellipse fill="#FFFFFF" cx="31.699" cy="11.902" rx="5.635" ry="5.436"/>
			<g>
				<path fill="#5A5A5A" d="M37.477,15.133c0.568-0.99,0.896-2.135,0.896-3.357c0-3.744-3.046-6.789-6.789-6.789
					s-6.789,3.045-6.789,6.789c0,3.743,3.046,6.789,6.789,6.789c0.949,0,1.853-0.197,2.674-0.551l2.965,3.601
					c0,0,3.469,1.261,3.406-2.597L37.477,15.133z M26.97,11.775c0-2.545,2.07-4.614,4.614-4.614c2.545,0,4.614,2.069,4.614,4.614
					s-2.069,4.615-4.614,4.615C29.04,16.391,26.97,14.32,26.97,11.775z"/>
				<path fill="#FFFFFF" d="M38.416,21.911L38.416,21.911c-0.661,0-1.205-0.195-1.228-0.203l-0.025-0.009l-0.018-0.021l-2.917-3.543
					c-0.842,0.352-1.73,0.53-2.645,0.53c-3.799,0-6.889-3.09-6.889-6.889s3.09-6.889,6.889-6.889s6.889,3.09,6.889,6.889
					c0,1.169-0.303,2.325-0.875,3.347l3.131,3.859v0.035c0.018,1.035-0.218,1.807-0.696,2.294
					C39.64,21.709,39.096,21.911,38.416,21.911z M37.282,21.529c0.112,0.037,0.586,0.183,1.134,0.183
					c0.624,0,1.12-0.182,1.474-0.541c0.435-0.442,0.65-1.154,0.64-2.117l-3.174-3.911l0.034-0.06
					c0.578-1.007,0.884-2.15,0.884-3.308c0-3.688-3.001-6.689-6.689-6.689s-6.689,3-6.689,6.689s3,6.689,6.689,6.689
					c0.911,0,1.798-0.183,2.635-0.542l0.068-0.03L37.282,21.529z M31.584,16.491c-2.6,0-4.714-2.115-4.714-4.715
					c0-2.6,2.114-4.714,4.714-4.714s4.714,2.115,4.714,4.714C36.298,14.375,34.184,16.491,31.584,16.491z M31.584,7.261
					c-2.489,0-4.515,2.025-4.515,4.514c0,2.49,2.025,4.515,4.515,4.515s4.515-2.025,4.515-4.515
					C36.099,9.286,34.073,7.261,31.584,7.261z"/>
			</g>
		</g>
	</g>
</g>
</svg>
