<?xml version="1.0" encoding="utf-8"?>
<!-- Generator: Adobe Illustrator 16.0.0, SVG Export Plug-In . SVG Version: 6.00 Build 0)  -->
<!DOCTYPE svg PUBLIC "-//W3C//DTD SVG 1.1//EN" "http://www.w3.org/Graphics/SVG/1.1/DTD/svg11.dtd">
<svg version="1.1" id="Layer_1" xmlns="http://www.w3.org/2000/svg" xmlns:xlink="http://www.w3.org/1999/xlink" x="0px" y="0px"
	 width="50px" height="50px" viewBox="0 0 50 50" enable-background="new 0 0 50 50" xml:space="preserve">
<g>
	<g>
		<g>
			<path fill="#5A5A5A" d="M7.104,35.523c0,0.385,0.081,0.77,0.243,1.158c0.162,0.387,0.391,0.741,0.685,1.059
				c0.264,0.316,0.565,0.609,0.905,0.877s0.671,0.473,0.996,0.615c-0.09,0.121-0.194,0.24-0.311,0.356
				c-0.117,0.117-0.236,0.236-0.356,0.354c-0.438-0.211-0.811-0.434-1.12-0.666c-0.31-0.233-0.555-0.469-0.735-0.702
				c-0.234-0.24-0.424-0.464-0.571-0.666c-0.147-0.205-0.236-0.367-0.266-0.486c-0.06,0.203-0.164,0.408-0.311,0.615
				C6.116,38.247,5.922,38.466,5.68,38.7c-0.256,0.241-0.532,0.479-0.826,0.713s-0.649,0.461-1.063,0.681
				c-0.09-0.13-0.194-0.253-0.311-0.369c-0.117-0.117-0.236-0.234-0.356-0.355c0.354-0.143,0.709-0.357,1.063-0.639
				c0.354-0.283,0.664-0.603,0.928-0.957c0.264-0.324,0.477-0.685,0.639-1.08c0.162-0.396,0.243-0.785,0.243-1.17V34.38h1.108
				L7.104,35.523L7.104,35.523z M12.455,43.689h-6.81v-3.088h1.063v2.127h5.747V43.689z M12.273,41.225h-1.108v-4.197H8.97v-0.973
				h2.195v-2.082h1.108V41.225z"/>
			<path fill="#5A5A5A" d="M19.344,39.551c-0.151,0.045-0.343,0.076-0.577,0.096c-0.233,0.019-0.482,0.027-0.747,0.027
				c-0.264,0.031-0.53,0.045-0.797,0.045s-0.519,0-0.752,0h-1.459v-5.26h3.857v0.973h-2.828v1.154h2.636v0.973h-2.636v1.188h0.95
				c0.475,0,0.913-0.009,1.313-0.021c0.399-0.017,0.747-0.049,1.041-0.103L19.344,39.551L19.344,39.551z M23.496,43.904h-1.143
				v-2.33h-5.928v-0.973h7.07L23.496,43.904L23.496,43.904z M23.496,39.9h-1.063v-2.568h-1.199V39.9h-1.052v-5.746h1.052v2.205
				h1.199v-2.387h1.063V39.9z"/>
			<path fill="#5A5A5A" d="M27.964,35.568h-1.64v-0.973h4.513v0.973h-1.64c0,0.813,0.037,1.504,0.113,2.07
				c0.074,0.563,0.215,1.069,0.418,1.516c0.203,0.467,0.438,0.871,0.707,1.211c0.268,0.338,0.604,0.67,1.013,0.994l-0.792,0.748
				c-0.264-0.174-0.492-0.387-0.686-0.642c-0.191-0.252-0.39-0.51-0.594-0.772c-0.15-0.234-0.3-0.473-0.447-0.713
				c-0.146-0.242-0.25-0.506-0.311-0.793c-0.113,0.287-0.243,0.574-0.391,0.858c-0.146,0.287-0.297,0.563-0.447,0.826
				c-0.233,0.265-0.446,0.517-0.639,0.752c-0.192,0.237-0.406,0.442-0.641,0.617l-0.836-0.714c0.377-0.293,0.708-0.606,0.99-0.938
				c0.281-0.33,0.525-0.723,0.729-1.176c0.204-0.414,0.352-0.899,0.441-1.459s0.15-1.224,0.181-1.992L27.964,35.568z M33.043,43.465
				h-1.018v-4.934H30.43v-1.018h1.596v-3.314h1.019L33.043,43.465L33.043,43.465z M35.158,43.904h-1.098v-9.932h1.098V43.904z"/>
			<path fill="#5A5A5A" d="M42.896,34.596c-0.092,1.855-0.532,3.385-1.323,4.592c-0.771,1.23-1.894,2.248-3.371,3.056l-0.781-0.714
				c1.237-0.616,2.236-1.454,2.998-2.512c0.739-1.033,1.14-2.184,1.199-3.449h-3.632v-0.973H42.896z M46.12,43.904h-1.144v-4.887
				h-2.069V38h2.069v-4.027h1.144V43.904z"/>
		</g>
	</g>
	<g>
		<circle fill="#5A5A5A" cx="37.031" cy="19.697" r="7.156"/>
		<g>
			<g>
				<rect x="32.746" y="18.507" fill="#FFFFFF" width="8.57" height="2.379"/>
			</g>
		</g>
		<g>
			<g>
				<path fill="#838484" d="M21.766,29.813H4.861V8.418h16.904L21.766,29.813L21.766,29.813z M6.262,28.411h14.104V9.819H6.262
					V28.411z"/>
				<rect x="8.423" y="7.455" fill="#838484" width="9.781" height="2.723"/>
				<path fill="#838484" d="M13.313,10.257c-1.149,0-2.085-1.065-2.085-2.375c0-1.311,0.936-2.377,2.085-2.377
					c1.15,0,2.086,1.066,2.086,2.377C15.399,9.192,14.464,10.257,13.313,10.257z M13.313,6.505c-0.598,0-1.085,0.618-1.085,1.377
					c0,0.758,0.487,1.375,1.085,1.375c0.599,0,1.086-0.617,1.086-1.375C14.399,7.123,13.912,6.505,13.313,6.505z"/>
				<rect x="6.002" y="7.882" fill="#838484" width="14.597" height="1.592"/>
				<rect x="6.002" y="28.314" fill="#838484" width="14.597" height="1.592"/>
			</g>
			<path fill="#868586" d="M17.77,24.564H8.759v-8.75h9.011V24.564z M9.542,23.781h7.444v-7.184H9.542V23.781z"/>
			<g>
				<polygon fill="#868586" points="10.718,19.488 13.591,22.753 19.532,16.615 13.448,20.884 				"/>
				<path fill="#FFFFFF" d="M13.589,22.812l-0.027-0.033l-3.008-3.418l2.891,1.477l6.066-4.254l0.05,0.061L13.589,22.812z
					 M10.884,19.617l2.709,3.078l5.626-5.811l-5.767,4.045L10.884,19.617z"/>
			</g>
		</g>
		<g>
			<g>
				<path fill="#535352" d="M29.006,19.685l-5.184-5.605l-1.272,1.377l3.001,3.246l-5.99,0.029v1.914l5.99,0.021l-3.001,3.244
					l1.272,1.377L29.006,19.685z"/>
			</g>
		</g>
	</g>
	<g id="Layer_2">
		<g id="Layer_2_1_">
			<path fill="#5D9BD3" d="M50,50H0V0h50V50z M1.98,48.02H48.02V1.98H1.98V48.02z"/>
		</g>
	</g>
</g>
</svg>
