<?xml version="1.0" standalone="no"?>
<!DOCTYPE svg PUBLIC "-//W3C//DTD SVG 20010904//EN"
 "http://www.w3.org/TR/2001/REC-SVG-20010904/DTD/svg10.dtd">
<svg version="1.0" xmlns="http://www.w3.org/2000/svg"
 width="50.000000pt" height="50.000000pt" viewBox="0 0 50.000000 50.000000"
 preserveAspectRatio="xMidYMid meet">

<g transform="translate(0.000000,50.000000) scale(0.100000,-0.100000)"
fill="#000000" stroke="none">
<path d="M130 315 c0 -42 3 -55 15 -55 8 0 15 9 15 20 0 19 7 20 90 20 83 0
90 -1 90 -20 0 -11 7 -20 15 -20 12 0 15 13 15 55 l0 55 -120 0 -120 0 0 -55z
m210 25 c0 -5 -13 -10 -30 -10 -16 0 -30 5 -30 10 0 6 14 10 30 10 17 0 30 -4
30 -10z"/>
<path d="M47 117 c-5 -13 -1 -16 18 -15 14 1 25 9 25 16 0 11 -3 12 -14 3 -11
-9 -15 -9 -18 1 -3 8 -6 6 -11 -5z"/>
<path d="M110 113 c0 -10 4 -14 8 -8 4 6 11 13 16 18 5 4 2 7 -7 7 -10 0 -17
-8 -17 -17z"/>
<path d="M163 95 c0 -22 2 -30 4 -17 2 12 2 30 0 40 -3 9 -5 -1 -4 -23z"/>
<path d="M220 114 c0 -8 -4 -12 -10 -9 -5 3 -7 0 -4 -9 4 -12 9 -12 18 -3 14
13 17 37 4 37 -4 0 -8 -7 -8 -16z"/>
<path d="M430 115 c-11 -13 -10 -14 4 -9 9 3 16 10 16 15 0 13 -6 11 -20 -6z"/>
<path d="M467 110 c3 -11 7 -20 9 -20 2 0 4 9 4 20 0 11 -4 20 -9 20 -5 0 -7
-9 -4 -20z"/>
<path d="M352 112 c-9 -6 -5 -12 13 -20 15 -7 24 -8 20 -2 -3 5 -1 10 5 10 6
0 8 5 5 10 -7 12 -25 13 -43 2z"/>
<path d="M267 97 c-3 -7 3 -13 13 -13 10 0 16 6 13 13 -3 7 -9 13 -13 13 -4 0
-10 -6 -13 -13z"/>
<path d="M40 83 c0 -5 11 -8 25 -8 14 0 25 3 25 8 0 4 -11 7 -25 7 -14 0 -25
-3 -25 -7z"/>
<path d="M350 69 c0 -5 11 -9 25 -9 14 0 25 2 25 4 0 2 -11 6 -25 8 -14 3 -25
1 -25 -3z"/>
</g>
</svg>
