<?xml version="1.0" encoding="utf-8"?>
<!-- Generator: Adobe Illustrator 16.0.0, SVG Export Plug-In . SVG Version: 6.00 Build 0)  -->
<!DOCTYPE svg PUBLIC "-//W3C//DTD SVG 1.1//EN" "http://www.w3.org/Graphics/SVG/1.1/DTD/svg11.dtd">
<svg version="1.1" id="Layer_1" xmlns="http://www.w3.org/2000/svg" xmlns:xlink="http://www.w3.org/1999/xlink" x="0px" y="0px"
	 width="50px" height="50px" viewBox="0 0 50 50" enable-background="new 0 0 50 50" xml:space="preserve">
<g>
	<g>
		<g>
			<g>
				<path fill="#5A5A5A" d="M13.02,39.99H2.997v-0.973h4.457v-1.152H4.321v-3.531h7.421v3.531H8.563v1.152h4.457V39.99z
					 M11.481,43.904h-1.097v-1.934H4.411v-1.007h7.07V43.904z M10.633,36.891v-1.582h-5.17v1.582H10.633z"/>
				<path fill="#5A5A5A" d="M24.333,40.342H14.31v-0.973h4.412v-0.838h-3.088v-2.613h6.063v-0.836h-6.063v-0.928h7.206V36.8h-6.018
					v0.804h6.29v0.928h-3.235v0.838h4.457L24.333,40.342L24.333,40.342z M22.794,43.904h-1.097v-1.797h-6.018V41.18h7.115V43.904z"
					/>
				<path fill="#5A5A5A" d="M32.953,40.115c-0.204,0.031-0.417,0.061-0.641,0.09c-0.223,0.031-0.465,0.047-0.729,0.047
					c-0.302,0.029-0.598,0.053-0.889,0.066c-0.29,0.016-0.512,0.022-0.661,0.022v3.304h-1.099v-3.304h-2.873v-0.973h3.621
					c0.323,0,0.646,0,0.967,0c0.32,0,0.632-0.017,0.934-0.046c0.294-0.03,0.545-0.061,0.752-0.092
					c0.208-0.028,0.413-0.057,0.617-0.078V40.115z M31.963,37.174c-0.132,0.258-0.304,0.486-0.515,0.691
					c-0.234,0.225-0.513,0.385-0.837,0.48c-0.324,0.094-0.694,0.141-1.109,0.141c-0.438,0-0.818-0.047-1.143-0.141
					c-0.324-0.097-0.604-0.257-0.838-0.48c-0.211-0.205-0.375-0.434-0.49-0.691c-0.117-0.256-0.176-0.527-0.176-0.814
					c0-0.293,0.059-0.571,0.176-0.836c0.115-0.266,0.279-0.498,0.49-0.703c0.234-0.18,0.514-0.336,0.838-0.469
					c0.324-0.131,0.705-0.197,1.143-0.197c0.415,0,0.785,0.066,1.109,0.197c0.324,0.133,0.603,0.289,0.837,0.469
					c0.211,0.205,0.383,0.438,0.515,0.703s0.198,0.543,0.198,0.836C32.161,36.646,32.095,36.918,31.963,37.174z M28.801,35.229
					c-0.203,0.099-0.365,0.195-0.486,0.295c-0.121,0.119-0.217,0.254-0.287,0.4c-0.072,0.146-0.107,0.293-0.107,0.436
					c0,0.121,0.035,0.257,0.107,0.402c0.07,0.146,0.164,0.281,0.277,0.4c0.098,0.113,0.256,0.209,0.475,0.283
					c0.219,0.076,0.46,0.113,0.724,0.113c0.271,0,0.511-0.037,0.713-0.113c0.204-0.074,0.366-0.17,0.486-0.283
					c0.144-0.119,0.245-0.254,0.306-0.4c0.061-0.146,0.092-0.281,0.092-0.402c0-0.143-0.045-0.289-0.131-0.436
					c-0.087-0.146-0.191-0.281-0.312-0.4c-0.091-0.1-0.245-0.196-0.464-0.295c-0.219-0.098-0.449-0.146-0.69-0.146
					C29.238,35.082,29.005,35.131,28.801,35.229z M34.898,43.904H33.79v-9.932h1.108V43.904z"/>
				<path fill="#5A5A5A" d="M37.682,37.209v-0.975h5.701v0.975h-2.342c0,0.588,0.073,1.102,0.221,1.543
					c0.148,0.441,0.354,0.824,0.616,1.148c0.233,0.354,0.521,0.664,0.86,0.928c0.339,0.264,0.713,0.49,1.119,0.68
					c-0.112,0.135-0.229,0.262-0.346,0.379c-0.117,0.115-0.262,0.234-0.436,0.355c-0.415-0.234-0.77-0.461-1.063-0.684
					c-0.295-0.224-0.531-0.451-0.713-0.687c-0.234-0.211-0.417-0.427-0.549-0.646s-0.229-0.418-0.289-0.6
					c-0.09,0.242-0.193,0.471-0.311,0.689s-0.293,0.457-0.526,0.713c-0.233,0.219-0.498,0.438-0.792,0.656
					c-0.294,0.217-0.648,0.434-1.063,0.645c-0.09-0.119-0.201-0.238-0.334-0.355s-0.258-0.236-0.379-0.356
					c0.414-0.173,0.791-0.392,1.131-0.654c0.34-0.267,0.642-0.59,0.905-0.976c0.233-0.354,0.425-0.76,0.571-1.215
					c0.146-0.457,0.221-0.979,0.221-1.565L37.682,37.209L37.682,37.209z M42.061,35.217h-3.226v-0.928h3.226V35.217z M46.166,43.904
					h-1.109v-9.932h1.109V43.904z"/>
			</g>
		</g>
		<g id="Layer_2">
			<g id="Layer_2_1_">
				<path fill="#5D9BD3" d="M50,50H0V0h50V50z M1.98,48.02H48.02V1.98H1.98V48.02z"/>
			</g>
		</g>
	</g>
	<g>
		<g>
			<g>
				<polygon fill="#F2F2F2" points="9.399,17.154 14.234,20.871 10.26,26.398 				"/>
				<polygon fill="#D9D9D9" points="9.296,14.226 15.632,19.06 17.563,16.384 25.187,16.472 30.555,12.07 30.018,11.121 
					23.358,13.796 15.522,11.033 				"/>
				<polygon fill="#BFBFBF" points="13.479,25.87 18.734,18.888 26.236,18.716 27.529,17.681 37.714,19.665 39.218,21.647 
					29.886,25.438 20.342,22.939 				"/>
				<polygon opacity="0.302" fill="#7F7F7F" enable-background="new    " points="15.342,10.912 23.594,13.969 29.898,25.466 
					20.272,22.961 				"/>
				<polygon fill="#BFBFBF" points="32.167,13.587 29.798,15.763 35.393,17.154 32.484,14.195 				"/>
				<path fill="#7F7F7F" d="M9.922,28.134L8.536,13.92l6.701-3.533l8.066,2.943l6.584-2.91l10.254,11.304L29.902,25.84l-9.751-2.5
					L9.922,28.134z M9.554,14.469l1.192,12.218l9.31-4.362l9.781,2.507l8.666-3.485l-8.86-9.769l-6.305,2.786l-8.029-2.929
					L9.554,14.469z"/>
			</g>
		</g>
		<g>
			
				<ellipse transform="matrix(-0.0561 -0.9984 0.9984 -0.0561 17.4777 44.5762)" fill="#FFFFFF" cx="29.81" cy="14.027" rx="6.492" ry="6.727"/>
			<g>
				<path fill="#868586" d="M33.755,17.63l-7.853,0.441l-0.429-7.624l7.853-0.441L33.755,17.63z M26.547,17.35l6.487-0.364
					l-0.353-6.258l-6.488,0.364L26.547,17.35z"/>
				<g>
					<polygon fill="#868586" points="27.361,13.553 30.023,16.257 34.9,10.618 29.809,14.634 					"/>
					<path fill="#FFFFFF" d="M30.025,16.308L30,16.281l-2.789-2.832l2.594,1.146l5.076-4.004l0.046,0.049L30.025,16.308z
						 M27.512,13.657l2.512,2.55l4.617-5.34l-4.826,3.808L27.512,13.657z"/>
				</g>
			</g>
			<g>
				<path fill="#5A5A5A" d="M36.917,17.495c0.61-1.221,0.927-2.607,0.847-4.065c-0.252-4.463-4.089-7.891-8.552-7.64
					c-4.465,0.251-7.891,4.086-7.64,8.549c0.25,4.464,4.085,7.891,8.55,7.641c1.132-0.064,2.194-0.359,3.149-0.836l3.777,4.094
					c0,0,4.221,1.27,3.887-3.325L36.917,17.495z M24.163,14.194c-0.17-3.034,2.16-5.641,5.194-5.812
					c3.033-0.171,5.642,2.159,5.812,5.193c0.17,3.034-2.159,5.641-5.192,5.812C26.941,19.558,24.334,17.228,24.163,14.194z"/>
				<path fill="#FFFFFF" d="M38.259,25.499L38.259,25.499c-0.681,0-1.216-0.158-1.237-0.165l-0.025-0.008l-0.02-0.02l-3.727-4.04
					c-0.98,0.479-2.03,0.752-3.122,0.813c-4.542,0.249-8.404-3.235-8.655-7.735c-0.123-2.185,0.614-4.29,2.077-5.926
					c1.462-1.637,3.472-2.605,5.657-2.728c4.559-0.255,8.402,3.235,8.656,7.734c0.076,1.392-0.209,2.792-0.825,4.054l3.996,4.394
					l0.002,0.034c0.092,1.26-0.147,2.207-0.713,2.814C39.85,25.229,39.135,25.499,38.259,25.499z M37.104,25.149
					c0.112,0.031,0.586,0.149,1.154,0.149l0,0c0.831,0,1.477-0.24,1.917-0.715c0.521-0.56,0.743-1.444,0.662-2.629l-4.041-4.443
					l0.03-0.063c0.624-1.247,0.912-2.635,0.836-4.015c-0.247-4.388-3.992-7.794-8.445-7.545c-2.133,0.12-4.093,1.065-5.52,2.662
					c-1.426,1.596-2.146,3.65-2.026,5.782c0.238,4.239,3.748,7.559,7.99,7.559c0.151,0,0.302-0.004,0.454-0.013
					c1.09-0.062,2.137-0.34,3.111-0.826l0.066-0.034L37.104,25.149z M29.662,19.496c-2.973,0-5.432-2.326-5.599-5.296
					c-0.173-3.089,2.199-5.744,5.289-5.917c0.106-0.006,0.213-0.009,0.318-0.009c2.973,0,5.432,2.326,5.598,5.296
					c0.174,3.088-2.199,5.743-5.287,5.917C29.874,19.493,29.768,19.496,29.662,19.496z M29.671,8.474
					c-0.103,0-0.205,0.003-0.308,0.008c-2.979,0.167-5.267,2.727-5.101,5.707c0.167,2.965,2.706,5.261,5.707,5.099
					c2.979-0.168,5.268-2.728,5.1-5.707C34.909,10.717,32.537,8.474,29.671,8.474z"/>
			</g>
		</g>
	</g>
</g>
</svg>
