<?xml version="1.0" encoding="utf-8"?>
<!-- Generator: Adobe Illustrator 16.0.0, SVG Export Plug-In . SVG Version: 6.00 Build 0)  -->
<!DOCTYPE svg PUBLIC "-//W3C//DTD SVG 1.1//EN" "http://www.w3.org/Graphics/SVG/1.1/DTD/svg11.dtd">
<svg version="1.1" id="Layer_1" xmlns="http://www.w3.org/2000/svg" xmlns:xlink="http://www.w3.org/1999/xlink" x="0px" y="0px"
	 width="50px" height="50px" viewBox="0 0 50 50" enable-background="new 0 0 50 50" xml:space="preserve">
<g>
	<g>
		<g>
			<path fill="#A9A8A8" d="M50,50H0V0h50V50z M0.98,49.02H49.02V0.98H0.98V49.02z"/>
			<g>
				<g>
					<path fill="#5A5A5A" d="M7.896,41.36c-0.354,0.098-0.735,0.158-1.143,0.181c-0.407,0.023-0.878,0.034-1.414,0.034H3.925v-6.844
						h1.143v5.837h0.803c0.407,0,0.765-0.002,1.075-0.006c0.309-0.003,0.626-0.062,0.95-0.175V41.36z M12.228,43.905h-1.063v-5.113
						H9.887v4.673H8.823v-9.266h1.063v3.541h1.278v-3.767h1.063V43.905z"/>
					<path fill="#5A5A5A" d="M15.769,39.551V34.29h1.143v1.629h4.819V34.29h1.109v5.261H19.83v1.81h4.288v0.973h-9.684V41.36h4.288
						v-1.81H15.769z M21.73,38.577v-1.686h-4.819v1.686H21.73z"/>
					<path fill="#5A5A5A" d="M30.521,41.36c-0.354,0.098-0.735,0.158-1.143,0.181c-0.407,0.023-0.879,0.034-1.414,0.034H26.55
						v-6.844h1.143v5.837h0.803c0.407,0,0.766-0.002,1.075-0.006c0.31-0.003,0.626-0.062,0.95-0.175V41.36z M34.854,43.905H33.79
						v-5.113h-1.278v4.673h-1.063v-9.266h1.063v3.541h1.278v-3.767h1.063V43.905z"/>
					<path fill="#5A5A5A" d="M42.907,34.596c-0.037,1.742-0.452,3.262-1.244,4.559c-0.799,1.29-1.953,2.319-3.461,3.089
						l-0.781-0.713c1.268-0.589,2.297-1.426,3.089-2.512c0.708-1.063,1.078-2.213,1.108-3.45h-3.586v-0.973H42.907z M46.166,43.905
						h-1.109v-9.932h1.109V43.905z"/>
				</g>
			</g>
		</g>
	</g>
	<g>
		<g>
			<path fill="#FFFFFF" d="M35.185,26.244c0,0.592-0.514,1.071-1.146,1.071H16.228c-0.633,0-1.146-0.479-1.146-1.071V9.708
				c0-0.591,0.514-1.071,1.146-1.071h17.811c0.633,0,1.146,0.48,1.146,1.071V26.244z"/>
			<path fill="#5A5A5A" d="M34.038,27.716H16.228c-0.853,0-1.546-0.66-1.546-1.472V9.708c0-0.811,0.694-1.471,1.546-1.471h17.811
				c0.853,0,1.547,0.66,1.547,1.471v16.537C35.585,27.056,34.891,27.716,34.038,27.716z M16.228,9.037
				c-0.412,0-0.747,0.301-0.747,0.671v16.537c0,0.37,0.335,0.671,0.747,0.671h17.811c0.411,0,0.746-0.301,0.746-0.671V9.708
				c0-0.37-0.335-0.671-0.746-0.671H16.228z"/>
		</g>
		<g>
			<path fill="#5A5A5A" d="M42.513,14.987l-5.85-4.644v2.041c-6.565,1.353-8.805,6.763-8.805,6.763
				c4.054-2.546,7.835-1.958,8.805-1.747v1.747L42.513,14.987z"/>
			<path fill="#FFFFFF" d="M27.328,19.775l0.299-0.724c0.023-0.055,2.32-5.438,8.786-6.87V9.826l6.516,5.172l-6.516,4.634v-2.027
				c-0.397-0.075-1.054-0.166-1.893-0.166c-1.584,0-4.002,0.333-6.529,1.92L27.328,19.775z M34.521,16.938
				c1.044,0,1.824,0.136,2.196,0.217l0.196,0.043v1.464l5.184-3.687l-5.184-4.115v1.727l-0.199,0.041
				c-4.902,1.01-7.357,4.359-8.236,5.867C30.828,17.222,33.029,16.938,34.521,16.938z"/>
		</g>
		<g>
			<rect x="12.682" y="13.443" fill="#5A5A5A" width="9.103" height="9.5"/>
			<path fill="#FFFFFF" d="M22.034,23.193h-9.603v-10h9.603V23.193z M12.932,22.693h8.603v-9h-8.603V22.693z"/>
		</g>
		<g>
			<circle fill="#5A5A5A" cx="27.276" cy="20.925" r="4.523"/>
			<path fill="#FFFFFF" d="M27.276,25.698c-2.632,0-4.773-2.142-4.773-4.773s2.142-4.773,4.773-4.773s4.773,2.141,4.773,4.773
				S29.908,25.698,27.276,25.698z M27.276,16.652c-2.356,0-4.273,1.917-4.273,4.273c0,2.356,1.917,4.273,4.273,4.273
				s4.273-1.917,4.273-4.273C31.55,18.569,29.633,16.652,27.276,16.652z"/>
		</g>
		<g>
			<polygon fill="#5A5A5A" points="23.058,7.923 17.646,17.567 28.675,17.567 			"/>
			<path fill="#FFFFFF" d="M29.109,17.817H17.219l5.835-10.397L29.109,17.817z M18.072,17.317H28.24l-5.179-8.891L18.072,17.317z"/>
		</g>
	</g>
</g>
</svg>
