<?xml version="1.0" encoding="utf-8"?>
<!-- Generator: Adobe Illustrator 16.0.0, SVG Export Plug-In . SVG Version: 6.00 Build 0)  -->
<!DOCTYPE svg PUBLIC "-//W3C//DTD SVG 1.1//EN" "http://www.w3.org/Graphics/SVG/1.1/DTD/svg11.dtd">
<svg version="1.1" id="Layer_1" xmlns="http://www.w3.org/2000/svg" xmlns:xlink="http://www.w3.org/1999/xlink" x="0px" y="0px"
	 width="50px" height="50px" viewBox="0 0 50 50" enable-background="new 0 0 50 50" xml:space="preserve">
<g>
	<g>
		<path fill="#868586" d="M26.352,12.479c0.07,0.467,0.119,0.942,0.119,1.428c0,0.193-0.018,0.381-0.029,0.572h11.668v13.335H24.271
			v-7.82c-0.576,0.697-1.25,1.311-2,1.829v7.992h17.838V12.479H26.352z"/>
		<g>
			<polygon fill="#868586" points="26.289,19.798 31.818,26.084 43.258,14.269 31.545,22.482 			"/>
			<path fill="#FFFFFF" d="M31.814,26.23l-5.947-6.761l5.669,2.896l11.663-8.18l0.13,0.151L31.814,26.23z M26.71,20.125l5.112,5.811
				l10.634-10.981L31.553,22.6L26.71,20.125z"/>
		</g>
		<g>
			<g>
				<g>
					<g>
						<path fill="#5A5A5A" d="M17.462,22.885h-1.346c-0.683,0-1.239-0.555-1.239-1.237v-1.554c-0.383-0.119-0.754-0.273-1.111-0.461
							l-1.098,1.1c-0.473,0.469-1.284,0.466-1.751,0.002l-0.954-0.956c-0.231-0.228-0.361-0.539-0.363-0.87
							c-0.001-0.333,0.128-0.646,0.363-0.881l1.101-1.101c-0.188-0.356-0.342-0.727-0.46-1.108H9.048
							c-0.683,0-1.239-0.556-1.239-1.239v-1.344c0-0.684,0.556-1.241,1.239-1.241h1.564c0.119-0.38,0.272-0.747,0.46-1.1
							L9.963,9.786C9.729,9.553,9.6,9.241,9.6,8.909c0-0.333,0.129-0.644,0.365-0.878l0.95-0.949c0.468-0.468,1.285-0.468,1.753,0
							l1.115,1.115c0.352-0.187,0.718-0.337,1.094-0.454V6.167c0-0.683,0.556-1.239,1.239-1.239h1.346
							c0.683,0,1.239,0.556,1.239,1.239V7.75c0.375,0.117,0.739,0.269,1.087,0.454l1.122-1.122c0.469-0.468,1.285-0.469,1.753,0.001
							l0.95,0.949c0.234,0.233,0.364,0.544,0.364,0.877c0,0.332-0.129,0.644-0.365,0.878l-1.119,1.12
							c0.185,0.349,0.337,0.713,0.454,1.087h1.581c0.684,0,1.24,0.557,1.24,1.241v1.344c0,0.684-0.557,1.241-1.24,1.241h-1.574
							c-0.116,0.377-0.268,0.743-0.454,1.095l1.113,1.112c0.235,0.235,0.364,0.548,0.363,0.881
							c-0.001,0.332-0.131,0.642-0.367,0.874l-0.947,0.949c-0.471,0.468-1.286,0.466-1.752,0l-1.106-1.105
							c-0.353,0.188-0.721,0.342-1.103,0.461v1.56C18.701,22.33,18.145,22.885,17.462,22.885z M16.277,21.484H17.3v-2.498
							l0.551-0.121c0.603-0.131,1.168-0.368,1.68-0.703l0.476-0.312l1.779,1.777l0.723-0.725l-1.78-1.78l0.306-0.475
							c0.335-0.519,0.568-1.082,0.694-1.674l0.117-0.555h2.521v-1.025h-2.523l-0.12-0.552c-0.128-0.591-0.363-1.152-0.697-1.668
							l-0.307-0.475l1.789-1.79l-0.724-0.723l-1.79,1.79L19.52,9.667c-0.513-0.332-1.075-0.566-1.669-0.697L17.3,8.85V6.328h-1.023
							v2.523l-0.555,0.117c-0.59,0.125-1.154,0.358-1.675,0.693l-0.475,0.305L11.79,8.184l-0.725,0.724l1.78,1.779l-0.309,0.476
							c-0.336,0.517-0.573,1.083-0.704,1.68l-0.121,0.551H9.209v1.023h2.501l0.118,0.554c0.127,0.598,0.363,1.166,0.701,1.688
							l0.306,0.475l-1.768,1.768l0.724,0.726l1.767-1.77l0.476,0.308c0.521,0.337,1.089,0.573,1.69,0.702l0.554,0.119L16.277,21.484
							L16.277,21.484z M16.778,17.611c-2.035,0-3.69-1.657-3.69-3.692s1.656-3.692,3.69-3.692c2.036,0,3.692,1.657,3.692,3.692
							S18.814,17.611,16.778,17.611z M16.778,11.627c-1.263,0-2.29,1.028-2.29,2.292s1.027,2.292,2.29,2.292
							c1.264,0,2.292-1.028,2.292-2.292S18.042,11.627,16.778,11.627z"/>
					</g>
					<circle fill="#5A5A5A" cx="16.789" cy="13.907" r="1.115"/>
				</g>
			</g>
		</g>
	</g>
	<g>
		<g>
			<path fill="#5A5A5A" d="M9.626,36.314H3.348v-0.928h6.279L9.626,36.314L9.626,36.314z M5.361,39.833
				c-0.339-0.075-0.615-0.185-0.826-0.328c-0.234-0.149-0.417-0.321-0.549-0.515c-0.132-0.193-0.198-0.405-0.198-0.639
				c0-0.234,0.058-0.447,0.175-0.642c0.117-0.19,0.307-0.358,0.571-0.503c0.211-0.15,0.486-0.271,0.826-0.355
				c0.34-0.086,0.728-0.129,1.166-0.129c0.415,0,0.784,0.043,1.108,0.129c0.324,0.088,0.615,0.205,0.871,0.355
				c0.241,0.145,0.428,0.313,0.56,0.503c0.132,0.19,0.198,0.405,0.198,0.642c0,0.231-0.066,0.444-0.198,0.639
				c-0.132,0.191-0.319,0.363-0.56,0.515c-0.256,0.144-0.554,0.253-0.894,0.328c-0.34,0.075-0.702,0.112-1.086,0.112
				C6.089,39.945,5.701,39.908,5.361,39.833z M8.122,34.82H4.807v-0.848h3.314L8.122,34.82L8.122,34.82z M11.68,42.988
				c-0.163,0.205-0.391,0.394-0.685,0.566c-0.324,0.149-0.701,0.275-1.131,0.379c-0.43,0.103-0.909,0.151-1.438,0.151
				c-0.558,0-1.058-0.051-1.499-0.151c-0.441-0.104-0.809-0.229-1.103-0.379c-0.324-0.175-0.56-0.369-0.707-0.59
				c-0.147-0.219-0.221-0.443-0.221-0.679c0-0.265,0.081-0.509,0.244-0.729c0.162-0.224,0.39-0.422,0.684-0.595
				c0.294-0.151,0.662-0.271,1.103-0.356c0.441-0.086,0.941-0.131,1.499-0.131c0.558,0,1.044,0.053,1.459,0.153
				c0.415,0.103,0.784,0.235,1.108,0.401c0.294,0.158,0.522,0.354,0.685,0.588c0.162,0.234,0.243,0.472,0.243,0.713
				C11.923,42.566,11.842,42.786,11.68,42.988z M7.658,37.803c-0.279-0.162-0.656-0.242-1.131-0.242
				c-0.528,0-0.918,0.08-1.171,0.242s-0.379,0.346-0.379,0.549c0,0.219,0.126,0.405,0.379,0.562
				c0.252,0.153,0.643,0.231,1.171,0.231c0.475,0,0.852-0.078,1.131-0.231c0.279-0.153,0.419-0.343,0.419-0.562
				C8.077,38.146,7.937,37.965,7.658,37.803z M10.571,41.887c-0.132-0.117-0.315-0.221-0.548-0.312
				c-0.211-0.046-0.457-0.101-0.735-0.164c-0.279-0.063-0.566-0.097-0.86-0.097c-0.294,0-0.588,0.021-0.882,0.066
				s-0.543,0.109-0.747,0.191c-0.211,0.092-0.375,0.193-0.492,0.313c-0.117,0.116-0.175,0.25-0.175,0.401
				c0,0.112,0.058,0.229,0.175,0.353c0.117,0.119,0.281,0.219,0.492,0.293c0.204,0.062,0.452,0.121,0.747,0.182
				c0.294,0.061,0.603,0.091,0.928,0.091c0.264,0,0.535-0.03,0.814-0.091c0.279-0.061,0.524-0.125,0.735-0.191
				c0.233-0.1,0.417-0.199,0.548-0.306c0.131-0.106,0.198-0.216,0.198-0.328C10.769,42.137,10.703,42.003,10.571,41.887z
				 M11.787,33.975v2.521h1.414v0.973h-1.414v2.737h-1.109v-6.244L11.787,33.975z"/>
			<path fill="#5A5A5A" d="M24.333,39.991H14.31v-0.974h4.457v-1.152h-3.133v-3.53h7.421v3.53h-3.179v1.152h4.457V39.991z
				 M22.794,43.904h-1.097v-1.934h-5.973v-1.008h7.07V43.904z M21.946,36.893v-1.584h-5.17v1.584H21.946z"/>
			<path fill="#5A5A5A" d="M29.729,34.912c0,0.377,0.082,0.742,0.244,1.098c0.161,0.355,0.392,0.68,0.686,0.973
				c0.264,0.324,0.564,0.609,0.904,0.854c0.338,0.245,0.67,0.433,0.994,0.56c-0.091,0.121-0.192,0.24-0.311,0.356
				C32.128,38.87,32.01,39,31.891,39.145c-0.438-0.233-0.813-0.461-1.121-0.681c-0.31-0.218-0.555-0.435-0.733-0.646
				c-0.234-0.202-0.427-0.395-0.571-0.57c-0.146-0.178-0.234-0.326-0.267-0.445c-0.203,0.383-0.515,0.775-0.929,1.176
				c-0.414,0.399-1.033,0.817-1.854,1.256c-0.09-0.144-0.193-0.269-0.313-0.373c-0.117-0.104-0.234-0.229-0.355-0.373
				c0.354-0.15,0.708-0.352,1.063-0.6c0.354-0.25,0.664-0.537,0.929-0.861c0.265-0.293,0.478-0.625,0.64-0.993
				c0.162-0.369,0.243-0.743,0.243-1.12v-0.531h1.106V34.912z M35.034,43.781h-6.72v-2.467h5.43v-0.838h-5.43V39.63h6.584v2.522
				h-5.396v0.77h5.532V43.781z M34.898,39.063H33.79v-2.387h-2.161v-0.973h2.161v-1.73h1.108V39.063z"/>
			<path fill="#5A5A5A" d="M41.086,35.479c0,0.354,0.074,0.693,0.221,1.02c0.147,0.322,0.368,0.634,0.662,0.928
				c0.233,0.295,0.521,0.561,0.859,0.799c0.34,0.236,0.684,0.428,1.029,0.569l-0.78,0.713c-0.415-0.181-0.776-0.381-1.086-0.601
				c-0.31-0.219-0.565-0.434-0.771-0.645c-0.181-0.205-0.337-0.395-0.469-0.572c-0.132-0.176-0.214-0.338-0.243-0.479
				c-0.063,0.174-0.156,0.363-0.288,0.57c-0.133,0.207-0.313,0.412-0.55,0.615c-0.181,0.203-0.418,0.41-0.712,0.617
				c-0.295,0.207-0.66,0.412-1.099,0.616l-0.713-0.747c0.386-0.136,0.732-0.324,1.047-0.564c0.313-0.24,0.611-0.51,0.898-0.805
				c0.233-0.293,0.432-0.617,0.594-0.973s0.244-0.709,0.244-1.063h-2.115v-0.975h5.338v0.975H41.086L41.086,35.479z M46.188,42.854
				c-0.188,0.233-0.43,0.438-0.725,0.611c-0.324,0.182-0.701,0.322-1.131,0.424c-0.43,0.104-0.924,0.152-1.48,0.152
				c-0.59,0-1.104-0.051-1.545-0.152c-0.44-0.101-0.81-0.242-1.104-0.424c-0.324-0.174-0.566-0.378-0.729-0.611
				c-0.162-0.231-0.244-0.48-0.244-0.746c0-0.264,0.082-0.521,0.244-0.77c0.161-0.249,0.403-0.464,0.729-0.645
				c0.294-0.174,0.662-0.313,1.104-0.42c0.44-0.104,0.955-0.157,1.545-0.157c0.559,0,1.051,0.053,1.48,0.157s0.807,0.246,1.131,0.42
				c0.295,0.181,0.536,0.396,0.725,0.645c0.189,0.249,0.283,0.506,0.283,0.77S46.377,42.62,46.188,42.854z M45.034,41.711
				c-0.158-0.12-0.339-0.236-0.543-0.352c-0.212-0.09-0.456-0.166-0.735-0.228c-0.279-0.06-0.58-0.09-0.904-0.09
				c-0.295,0-0.595,0.03-0.897,0.09c-0.308,0.062-0.563,0.138-0.774,0.228c-0.212,0.099-0.384,0.211-0.516,0.341
				c-0.132,0.128-0.198,0.264-0.198,0.407c0,0.148,0.066,0.283,0.198,0.399c0.132,0.117,0.304,0.235,0.516,0.356
				c0.211,0.074,0.471,0.143,0.774,0.201c0.305,0.063,0.604,0.092,0.897,0.092c0.324,0,0.625-0.029,0.904-0.092
				c0.279-0.061,0.523-0.127,0.735-0.201c0.204-0.092,0.385-0.202,0.543-0.334c0.157-0.133,0.237-0.26,0.237-0.381
				C45.271,41.979,45.191,41.832,45.034,41.711z M46.302,39.811h-1.063v-2.602h-2.205v-0.975h2.205v-2.262h1.063V39.811z"/>
		</g>
	</g>
</g>
<g id="Layer_2">
	<g id="Layer_2_1_">
		<path fill="#5D9BD3" d="M50,50H0V0h50V50z M1.98,48.02h46.04V1.98H1.98V48.02z"/>
	</g>
</g>
</svg>
