<?xml version="1.0" encoding="utf-8"?>
<!-- Generator: Adobe Illustrator 16.0.0, SVG Export Plug-In . SVG Version: 6.00 Build 0)  -->
<!DOCTYPE svg PUBLIC "-//W3C//DTD SVG 1.1//EN" "http://www.w3.org/Graphics/SVG/1.1/DTD/svg11.dtd">
<svg version="1.1" id="Layer_1" xmlns="http://www.w3.org/2000/svg" xmlns:xlink="http://www.w3.org/1999/xlink" x="0px" y="0px"
	 width="50px" height="50px" viewBox="0 0 50 50" enable-background="new 0 0 50 50" xml:space="preserve">
<g>
	<g>
		<g>
			<g>
				<path fill="#5A5A5A" d="M7.896,41.428c-0.354,0.098-0.735,0.158-1.143,0.182c-0.407,0.022-0.878,0.033-1.414,0.033H3.925v-6.844
					h1.143v5.838h0.803c0.407,0,0.765-0.002,1.075-0.007c0.309-0.003,0.626-0.062,0.95-0.175V41.428z M12.228,43.973h-1.063v-5.113
					H9.887v4.674H8.823v-9.266h1.063v3.541h1.278v-3.768h1.063L12.228,43.973L12.228,43.973z"/>
				<path fill="#5A5A5A" d="M15.769,39.618v-5.261h1.143v1.629h4.819v-1.629h1.109v5.261h-3.01v1.81h4.288V42.4h-9.684v-0.973h4.288
					v-1.811L15.769,39.618L15.769,39.618z M21.73,38.645v-1.686h-4.819v1.686H21.73z"/>
				<path fill="#5A5A5A" d="M30.521,41.428c-0.355,0.098-0.736,0.158-1.144,0.182c-0.408,0.022-0.879,0.033-1.414,0.033H26.55
					v-6.844h1.144v5.838h0.803c0.406,0,0.766-0.002,1.074-0.007c0.311-0.003,0.627-0.062,0.951-0.175V41.428z M34.854,43.973h-1.063
					v-5.113h-1.279v4.674h-1.063v-9.266h1.063v3.541h1.279v-3.768h1.063V43.973z"/>
				<path fill="#5A5A5A" d="M42.908,34.663c-0.037,1.741-0.453,3.262-1.244,4.56c-0.799,1.289-1.953,2.318-3.461,3.088l-0.781-0.713
					c1.268-0.589,2.297-1.426,3.088-2.512c0.709-1.063,1.078-2.213,1.109-3.449h-3.586v-0.974H42.908z M46.166,43.973h-1.109v-9.932
					h1.109V43.973z"/>
			</g>
		</g>
		<g id="Layer_2">
			<g id="Layer_2_1_">
				<path fill="#5D9BD3" d="M50,50H0V0h50V50z M1.98,48.02H48.02V1.98H1.98V48.02z"/>
			</g>
		</g>
	</g>
	<g>
		<g>
			<g>
				<path fill="#838484" d="M32.279,28.62h-16.26V7.941H32.28L32.279,28.62L32.279,28.62z M17.009,27.631h14.28V8.929h-14.28V27.631
					L17.009,27.631z"/>
				<rect x="19.331" y="6.797" fill="#838484" width="9.634" height="2.68"/>
				<path fill="#838484" d="M24.148,9.418c-1.056,0-1.915-0.988-1.915-2.202c0-1.213,0.859-2.201,1.915-2.201
					c1.055,0,1.917,0.987,1.917,2.201C26.064,8.431,25.203,9.418,24.148,9.418z M24.148,5.722c-0.665,0-1.208,0.67-1.208,1.494
					c0,0.824,0.543,1.496,1.208,1.496c0.663,0,1.206-0.671,1.206-1.496C25.354,6.393,24.812,5.722,24.148,5.722z"/>
				<rect x="16.945" y="7.216" fill="#838484" width="14.379" height="1.569"/>
				<rect x="16.945" y="27.341" fill="#838484" width="14.379" height="1.569"/>
			</g>
			<path fill="#868586" d="M28.537,23.648h-8.874v-8.619h8.874V23.648z M20.435,22.876h7.331v-7.074h-7.331V22.876z"/>
			<g>
				<polygon fill="#868586" points="21.593,18.648 24.421,21.864 30.273,15.819 24.279,20.022 				"/>
				<path fill="#FFFFFF" d="M24.419,21.921l-0.027-0.032l-2.963-3.368l2.849,1.455l5.975-4.189l0.049,0.058L24.419,21.921z
					 M21.755,18.776l2.666,3.031l5.542-5.724l-5.678,3.983L21.755,18.776z"/>
			</g>
		</g>
		<g>
			<path fill="#5A5A5A" d="M45.191,11.699l-8.418-6.683v2.937c-9.449,1.948-12.672,9.734-12.672,9.734
				c5.834-3.665,11.277-2.818,12.672-2.515v2.515L45.191,11.699z"/>
			<path fill="#FFFFFF" d="M23.04,18.944l0.6-1.449c0.134-0.323,3.342-7.839,12.633-9.946V3.98l9.75,7.74l-9.75,6.935v-3.073
				c-0.573-0.102-1.465-0.215-2.584-0.215c-2.262,0-5.713,0.476-9.321,2.742L23.04,18.944z M33.689,14.368
				c1.515,0,2.647,0.197,3.189,0.315l0.395,0.086v1.948l7.086-5.041L37.273,6.05v2.309l-0.399,0.083
				c-6.556,1.352-10.054,5.646-11.497,7.947C28.614,14.743,31.622,14.368,33.689,14.368z"/>
		</g>
	</g>
</g>
</svg>
