<?xml version="1.0" encoding="utf-8"?>
<!-- Generator: Adobe Illustrator 16.0.0, SVG Export Plug-In . SVG Version: 6.00 Build 0)  -->
<!DOCTYPE svg PUBLIC "-//W3C//DTD SVG 1.1//EN" "http://www.w3.org/Graphics/SVG/1.1/DTD/svg11.dtd">
<svg version="1.1" id="Layer_1" xmlns="http://www.w3.org/2000/svg" xmlns:xlink="http://www.w3.org/1999/xlink" x="0px" y="0px"
	 width="50px" height="50px" viewBox="0 0 50 50" enable-background="new 0 0 50 50" xml:space="preserve">
<g>
	<path fill="#A9A8A8" d="M50,50H0V0h50V50z M0.98,49.02H49.02V0.98H0.98V49.02z"/>
	<g>
		<g>
			<path fill="#5A5A5A" d="M7.896,41.451c-0.234,0.037-0.447,0.074-0.639,0.113c-0.192,0.037-0.405,0.055-0.639,0.055
				c-0.234,0.031-0.462,0.047-0.685,0.047c-0.222,0-0.496,0-0.82,0H3.879v-7.07h3.213v0.973h-2.07v5.125h0.656
				c0.181,0,0.36,0,0.538,0c0.177,0,0.341-0.016,0.492-0.047c0.204,0,0.394-0.012,0.571-0.039c0.177-0.025,0.383-0.07,0.617-0.131
				V41.451z M12.228,43.904h-1.063v-5.203H9.841v4.717H8.778v-9.219h1.063v3.529h1.324v-3.756h1.063V43.904z"/>
			<path fill="#5A5A5A" d="M18.416,35.477c0,0.355,0.074,0.688,0.221,0.996s0.353,0.611,0.617,0.904
				c0.233,0.295,0.52,0.561,0.859,0.799c0.339,0.236,0.687,0.428,1.041,0.57l-0.747,0.713c-0.392-0.18-0.747-0.381-1.063-0.6
				s-0.581-0.434-0.792-0.645c-0.181-0.203-0.33-0.395-0.447-0.57c-0.117-0.178-0.206-0.338-0.266-0.482
				c-0.061,0.174-0.157,0.365-0.289,0.572c-0.132,0.207-0.315,0.412-0.549,0.617c-0.204,0.219-0.447,0.428-0.729,0.627
				s-0.643,0.412-1.081,0.639l-0.712-0.734c0.384-0.137,0.739-0.332,1.063-0.588c0.324-0.258,0.618-0.533,0.882-0.826
				c0.233-0.295,0.432-0.611,0.594-0.951c0.162-0.338,0.243-0.686,0.243-1.041h-2.115v-0.973h5.305v0.973H18.416z M23.229,42.854
				c-0.177,0.232-0.413,0.438-0.707,0.611c-0.324,0.18-0.7,0.322-1.125,0.424c-0.426,0.102-0.933,0.152-1.521,0.152
				c-0.505,0-0.979-0.051-1.42-0.152c-0.441-0.102-0.809-0.244-1.103-0.424c-0.324-0.174-0.567-0.379-0.729-0.611
				c-0.162-0.234-0.243-0.482-0.243-0.746c0-0.266,0.081-0.521,0.243-0.77c0.162-0.25,0.405-0.465,0.729-0.645
				c0.294-0.174,0.662-0.314,1.103-0.42c0.441-0.105,0.915-0.158,1.42-0.158c0.588,0,1.095,0.053,1.521,0.158
				c0.426,0.105,0.801,0.246,1.125,0.42c0.294,0.18,0.53,0.395,0.707,0.645c0.177,0.248,0.266,0.504,0.266,0.77
				C23.496,42.371,23.407,42.619,23.229,42.854z M22.087,41.699c-0.147-0.129-0.311-0.242-0.492-0.34
				c-0.241-0.09-0.507-0.166-0.797-0.227c-0.291-0.059-0.583-0.09-0.876-0.09c-0.325,0-0.626,0.031-0.905,0.09
				c-0.279,0.061-0.509,0.137-0.69,0.227c-0.264,0.098-0.462,0.211-0.594,0.34c-0.132,0.129-0.198,0.264-0.198,0.408
				c0,0.15,0.066,0.291,0.198,0.424c0.132,0.131,0.33,0.242,0.594,0.334c0.181,0.074,0.411,0.143,0.69,0.203s0.581,0.09,0.905,0.09
				c0.294,0,0.586-0.029,0.876-0.09c0.29-0.061,0.556-0.129,0.797-0.203c0.181-0.121,0.345-0.24,0.492-0.357
				s0.221-0.236,0.221-0.355C22.308,41.979,22.234,41.828,22.087,41.699z M23.19,33.973v2.342h1.459v0.951H23.19v2.59h-1.063v-5.883
				H23.19z"/>
			<path fill="#5A5A5A" d="M35.476,42.332h-9.729v-0.928h4.333v-1.9h1.108v1.9h4.288V42.332z M31.233,35.432
				c0,0.092,0.007,0.184,0.022,0.277c0.015,0.094,0.022,0.18,0.022,0.254c0.083,0.295,0.235,0.598,0.458,0.906s0.496,0.6,0.82,0.871
				c0.324,0.264,0.707,0.512,1.148,0.746s0.854,0.412,1.238,0.531l-0.712,0.748c-0.498-0.205-0.968-0.426-1.409-0.662
				c-0.44-0.238-0.809-0.475-1.103-0.707c-0.294-0.234-0.537-0.463-0.729-0.686s-0.304-0.42-0.334-0.594
				c-0.091,0.174-0.225,0.371-0.401,0.594c-0.178,0.223-0.413,0.451-0.707,0.686c-0.324,0.232-0.692,0.469-1.104,0.707
				c-0.411,0.236-0.896,0.457-1.453,0.662l-0.713-0.748c0.942-0.293,1.772-0.75,2.488-1.369c0.257-0.18,0.459-0.367,0.605-0.559
				c0.147-0.193,0.262-0.375,0.346-0.549c0.067-0.143,0.13-0.311,0.187-0.504c0.057-0.191,0.1-0.395,0.13-0.605h-3.146v-0.973h7.479
				v0.973H31.233z"/>
			<path fill="#5A5A5A" d="M44.05,42.152c-0.444,0.09-0.94,0.15-1.487,0.18c-0.547,0.031-1.155,0.047-1.827,0.047h-3.484v-0.975
				h3.123v-0.928c-0.619-0.059-1.118-0.236-1.499-0.531c-0.381-0.293-0.571-0.648-0.571-1.063c0-0.203,0.061-0.41,0.181-0.617
				c0.121-0.207,0.31-0.383,0.565-0.525c0.234-0.15,0.506-0.268,0.814-0.352c0.31-0.082,0.656-0.123,1.041-0.123
				s0.731,0.041,1.041,0.123c0.309,0.084,0.58,0.201,0.814,0.352c0.211,0.143,0.383,0.318,0.515,0.525s0.198,0.414,0.198,0.617
				s-0.046,0.387-0.136,0.549c-0.091,0.162-0.234,0.318-0.431,0.469c-0.181,0.143-0.383,0.26-0.604,0.352
				c-0.223,0.09-0.492,0.15-0.81,0.18v0.928c0.166,0,0.36,0,0.583,0s0.45-0.014,0.685-0.045c0.211,0,0.434-0.016,0.667-0.045
				c0.234-0.029,0.441-0.061,0.622-0.09V42.152z M43.858,36.789h-6.041v-0.938h6.041V36.789z M42.455,35.172h-3.179v-0.928h3.179
				V35.172z M41.969,38.334c-0.294-0.162-0.648-0.244-1.063-0.244c-0.438,0-0.79,0.082-1.058,0.244s-0.401,0.346-0.401,0.549
				c0,0.234,0.134,0.416,0.401,0.549c0.268,0.131,0.62,0.197,1.058,0.197c0.415,0,0.77-0.066,1.063-0.197
				c0.294-0.133,0.441-0.314,0.441-0.549C42.41,38.68,42.263,38.496,41.969,38.334z M46.12,43.904h-1.143v-9.932h1.143V43.904z"/>
		</g>
	</g>
	<g>
		<g>
			<g>
				<g>
					<g>
						<g>
							<path fill="#838484" d="M32.037,29.893H17.961c-1.204,0-2.182-0.979-2.182-2.182V6.831c0-1.203,0.978-2.184,2.182-2.184
								h10.172l6.087,6.086v16.978C34.22,28.914,33.241,29.893,32.037,29.893z M17.961,5.811c-0.561,0-1.018,0.459-1.018,1.02v20.88
								c0,0.563,0.457,1.018,1.018,1.018h14.076c0.562,0,1.019-0.455,1.019-1.018V11.215l-5.404-5.404H17.961z"/>
						</g>
					</g>
				</g>
			</g>
			<g>
				<g>
					<g>
						<path fill="#838484" d="M27.892,9.375c0,0.885,0.717,1.6,1.602,1.6h4.145l-5.746-5.746V9.375z"/>
					</g>
				</g>
			</g>
		</g>
		<rect x="19.92" y="14.977" fill="#838484" width="10.299" height="1.166"/>
		<rect x="19.92" y="18.536" fill="#838484" width="7.972" height="1.166"/>
		<rect x="19.92" y="22.526" fill="#838484" width="10.846" height="1.166"/>
	</g>
</g>
</svg>
