<?xml version="1.0" encoding="utf-8"?>
<!-- Generator: Adobe Illustrator 16.0.0, SVG Export Plug-In . SVG Version: 6.00 Build 0)  -->
<!DOCTYPE svg PUBLIC "-//W3C//DTD SVG 1.1//EN" "http://www.w3.org/Graphics/SVG/1.1/DTD/svg11.dtd">
<svg version="1.1" id="Layer_1" xmlns="http://www.w3.org/2000/svg" xmlns:xlink="http://www.w3.org/1999/xlink" x="0px" y="0px"
	 width="50px" height="50px" viewBox="0 0 50 50" enable-background="new 0 0 50 50" xml:space="preserve">
<g>
	<path fill="#A9A8A8" d="M50,50H0V0h50V50z M0.98,49.02H49.02V0.98H0.98V49.02z"/>
	<g>
		<g>
			<path fill="#5A5A5A" d="M13.02,40.829H8.563v3.076H7.5v-3.076H2.997v-0.974H13.02V40.829z M11.742,39.279
				c-0.558-0.091-1.05-0.214-1.476-0.368c-0.426-0.154-0.775-0.326-1.046-0.515c-0.294-0.128-0.551-0.284-0.77-0.47
				c-0.219-0.185-0.358-0.367-0.418-0.549c-0.234,0.325-0.66,0.664-1.278,1.019c-0.619,0.354-1.444,0.648-2.478,0.883l-0.622-0.792
				c0.475-0.091,0.931-0.217,1.369-0.379s0.811-0.33,1.12-0.504c0.317-0.181,0.579-0.362,0.786-0.543s0.326-0.354,0.356-0.521H4.23
				v-0.973h7.568v0.973h-3.1c0.053,0.174,0.183,0.35,0.39,0.526s0.473,0.356,0.798,0.537c0.324,0.204,0.699,0.379,1.125,0.526
				c0.426,0.146,0.876,0.266,1.352,0.356L11.742,39.279z M10.022,34.821H5.95v-0.859h4.073V34.821z"/>
			<path fill="#5A5A5A" d="M20.09,34.596c-0.053,0.942-0.19,1.804-0.413,2.585c-0.222,0.78-0.556,1.495-1.001,2.144
				c-0.053,0.091-0.109,0.164-0.169,0.221c-0.061,0.057-0.106,0.13-0.136,0.221c-0.445,0.558-0.924,1.044-1.437,1.459
				s-1.037,0.754-1.572,1.019l-0.747-0.735c1.116-0.513,2.089-1.302,2.918-2.364c0.438-0.589,0.76-1.169,0.967-1.742
				s0.311-1.185,0.311-1.833h-3.665v-0.973H20.09z M22.964,34.199v3.847h1.55v1.018h-1.55v4.842h-1.143v-9.706H22.964z"/>
			<path fill="#5A5A5A" d="M29.729,35.523c0,0.385,0.081,0.771,0.243,1.159s0.391,0.741,0.685,1.058
				c0.264,0.316,0.565,0.609,0.905,0.877c0.339,0.268,0.671,0.474,0.995,0.616c-0.091,0.121-0.194,0.239-0.311,0.356
				c-0.117,0.117-0.236,0.236-0.356,0.356c-0.438-0.211-0.812-0.434-1.12-0.667c-0.31-0.234-0.555-0.468-0.735-0.702
				c-0.234-0.241-0.425-0.464-0.571-0.667c-0.147-0.204-0.236-0.366-0.266-0.486c-0.061,0.203-0.164,0.409-0.312,0.616
				c-0.146,0.208-0.341,0.428-0.582,0.662c-0.257,0.241-0.532,0.479-0.826,0.713c-0.294,0.233-0.649,0.46-1.063,0.679
				c-0.09-0.129-0.194-0.251-0.311-0.368c-0.118-0.117-0.236-0.235-0.357-0.356c0.355-0.143,0.708-0.356,1.064-0.639
				c0.354-0.283,0.663-0.602,0.927-0.956c0.265-0.324,0.478-0.685,0.64-1.08c0.162-0.396,0.243-0.786,0.243-1.171v-1.143h1.108
				V35.523z M35.079,43.69h-6.81v-3.088h1.063v2.127h5.746V43.69z M34.898,41.225H33.79v-4.197h-2.195v-0.973h2.195v-2.081h1.108
				V41.225z"/>
			<path fill="#5A5A5A" d="M41.969,39.551c-0.151,0.045-0.344,0.077-0.577,0.096s-0.482,0.028-0.746,0.028
				c-0.265,0.03-0.53,0.045-0.798,0.045s-0.519,0-0.752,0h-1.46v-5.26h3.857v0.973h-2.828v1.154h2.637v0.973h-2.637v1.188h0.951
				c0.475,0,0.912-0.008,1.312-0.022c0.4-0.015,0.747-0.049,1.041-0.102V39.551z M46.12,43.905h-1.143v-2.33H39.05v-0.973h7.07
				V43.905z M46.12,39.901h-1.063v-2.568h-1.198v2.568h-1.053v-5.747h1.053v2.206h1.198v-2.387h1.063V39.901z"/>
		</g>
	</g>
	<g>
		<g>
			<circle fill="#5A5A5A" cx="37.281" cy="19.814" r="7.156"/>
			<g>
				<g>
					<rect x="32.998" y="18.627" fill="#FFFFFF" width="8.568" height="2.377"/>
				</g>
				<g>
					<rect x="36.094" y="15.531" fill="#FFFFFF" width="2.377" height="8.568"/>
				</g>
			</g>
		</g>
		<g>
			<g>
				<path fill="#838484" d="M21.766,29.812H4.861V8.419h16.904V29.812z M6.262,28.411h14.104V9.819H6.262V28.411z"/>
				<rect x="8.423" y="7.455" fill="#838484" width="9.781" height="2.723"/>
				<path fill="#838484" d="M13.313,10.26c-1.149,0-2.085-1.066-2.085-2.377s0.936-2.377,2.085-2.377
					c1.15,0,2.086,1.066,2.086,2.377S14.464,10.26,13.313,10.26z M13.313,6.506c-0.598,0-1.085,0.618-1.085,1.377
					s0.487,1.377,1.085,1.377c0.599,0,1.086-0.618,1.086-1.377S13.912,6.506,13.313,6.506z"/>
				<rect x="6.002" y="7.883" fill="#838484" width="14.597" height="1.594"/>
				<rect x="6.002" y="28.316" fill="#838484" width="14.597" height="1.592"/>
			</g>
			<path fill="#868586" d="M17.77,24.564H8.759v-8.748h9.011V24.564z M9.542,23.781h7.444V16.6H9.542V23.781z"/>
			<g>
				<polygon fill="#868586" points="10.718,19.49 13.591,22.756 19.532,16.617 13.448,20.885 				"/>
				<path fill="#FFFFFF" d="M13.589,22.813l-0.027-0.033l-3.008-3.418l2.891,1.477l6.066-4.254l0.05,0.061L13.589,22.813z
					 M10.884,19.619l2.709,3.078l5.626-5.813l-5.767,4.045L10.884,19.619z"/>
			</g>
		</g>
		<g>
			<g>
				<path fill="#535352" d="M18.495,20.191l5.604-5.605l1.376,1.377l-3.244,3.244l6.478,0.029v1.914l-6.478,0.023l3.244,3.244
					L24.1,25.795L18.495,20.191z"/>
			</g>
		</g>
	</g>
</g>
</svg>
