<?xml version="1.0" encoding="utf-8"?>
<!-- Generator: Adobe Illustrator 16.0.0, SVG Export Plug-In . SVG Version: 6.00 Build 0)  -->
<!DOCTYPE svg PUBLIC "-//W3C//DTD SVG 1.1//EN" "http://www.w3.org/Graphics/SVG/1.1/DTD/svg11.dtd">
<svg version="1.1" id="Layer_1" xmlns="http://www.w3.org/2000/svg" xmlns:xlink="http://www.w3.org/1999/xlink" x="0px" y="0px"
	 width="50px" height="50px" viewBox="0 0 50 50" enable-background="new 0 0 50 50" xml:space="preserve">
<g>
	<path fill="#A9A8A8" d="M50,50H0V0h50V50z M0.98,49.02H49.02V0.98H0.98V49.02z"/>
	<g>
		<g>
			<path fill="#5A5A5A" d="M6.085,35.568H3.789v-0.973h5.747v0.973H7.194c0,0.77,0.066,1.448,0.198,2.036s0.345,1.105,0.639,1.55
				c0.234,0.468,0.528,0.879,0.882,1.233s0.739,0.663,1.154,0.928L9.31,42.107c-0.468-0.324-0.864-0.656-1.188-0.996
				c-0.324-0.339-0.577-0.656-0.758-0.95c-0.204-0.294-0.372-0.565-0.503-0.814s-0.213-0.464-0.243-0.645
				c-0.061,0.385-0.31,0.901-0.747,1.55c-0.128,0.294-0.368,0.618-0.718,0.973s-0.76,0.694-1.228,1.019
				c-0.09-0.151-0.209-0.293-0.356-0.425s-0.281-0.254-0.401-0.367c0.415-0.271,0.792-0.575,1.131-0.911
				c0.339-0.335,0.641-0.726,0.905-1.171c0.264-0.444,0.469-0.946,0.617-1.504c0.147-0.559,0.235-1.192,0.266-1.901V35.568z
				 M12.364,43.905h-1.063v-9.932h1.063V43.905z"/>
			<path fill="#5A5A5A" d="M15.848,39.233v-4.898h6.991v0.974h-5.882v2.952h6.052v0.973h-3.133v2.127h4.288v0.973h-9.729V41.36
				h4.333v-2.127H15.848z"/>
			<path fill="#5A5A5A" d="M35.476,42.333h-9.684V41.36h3.405v-3.541h1.063v3.541h5.215V42.333z M34.276,34.596v0.667
				c0,0.709-0.028,1.335-0.085,1.878s-0.1,1.007-0.13,1.392c-0.061,0.415-0.105,0.754-0.136,1.019
				c-0.03,0.264-0.046,0.444-0.046,0.543h-1.143c0.083-0.31,0.14-0.596,0.17-0.86c0.03-0.264,0.061-0.558,0.091-0.882
				c0.007-0.295,0.017-0.626,0.028-0.996c0.011-0.369,0.017-0.772,0.017-1.21v-0.577h-6.154v-0.973H34.276z"/>
			<path fill="#5A5A5A" d="M41.086,35.478c0,0.354,0.074,0.694,0.221,1.019c0.147,0.324,0.368,0.634,0.662,0.928
				c0.233,0.294,0.521,0.56,0.859,0.797c0.34,0.238,0.683,0.429,1.03,0.571l-0.781,0.713c-0.415-0.181-0.776-0.381-1.086-0.6
				s-0.565-0.434-0.77-0.645c-0.181-0.204-0.337-0.394-0.469-0.571c-0.132-0.177-0.214-0.338-0.243-0.48
				c-0.061,0.173-0.157,0.363-0.289,0.571c-0.132,0.207-0.314,0.412-0.549,0.616c-0.181,0.203-0.418,0.409-0.712,0.616
				c-0.295,0.208-0.66,0.413-1.098,0.617l-0.713-0.747c0.385-0.136,0.733-0.324,1.047-0.565c0.313-0.241,0.612-0.509,0.899-0.804
				c0.233-0.294,0.432-0.618,0.594-0.973s0.243-0.709,0.243-1.063h-2.115v-0.973h5.339v0.973H41.086z M46.188,42.854
				c-0.188,0.233-0.43,0.438-0.725,0.611c-0.324,0.181-0.701,0.322-1.131,0.424s-0.924,0.152-1.481,0.152
				c-0.589,0-1.104-0.051-1.545-0.152c-0.44-0.102-0.809-0.243-1.103-0.424c-0.324-0.174-0.567-0.378-0.729-0.611
				s-0.243-0.482-0.243-0.746c0-0.265,0.081-0.521,0.243-0.77s0.405-0.464,0.729-0.645c0.294-0.174,0.662-0.313,1.103-0.419
				c0.441-0.105,0.956-0.158,1.545-0.158c0.558,0,1.052,0.053,1.481,0.158s0.807,0.245,1.131,0.419
				c0.295,0.181,0.536,0.396,0.725,0.645s0.282,0.505,0.282,0.77C46.471,42.371,46.377,42.62,46.188,42.854z M45.034,41.711
				c-0.158-0.12-0.339-0.237-0.543-0.351c-0.211-0.091-0.456-0.166-0.735-0.227c-0.279-0.06-0.58-0.09-0.904-0.09
				c-0.295,0-0.595,0.03-0.899,0.09c-0.306,0.061-0.564,0.136-0.775,0.227c-0.211,0.098-0.383,0.211-0.515,0.34
				c-0.132,0.128-0.198,0.264-0.198,0.407c0,0.15,0.066,0.284,0.198,0.401s0.304,0.235,0.515,0.356
				c0.211,0.075,0.47,0.143,0.775,0.203c0.305,0.061,0.604,0.091,0.899,0.091c0.324,0,0.625-0.03,0.904-0.091
				s0.524-0.128,0.735-0.203c0.204-0.091,0.385-0.202,0.543-0.334s0.238-0.259,0.238-0.379
				C45.272,41.979,45.192,41.832,45.034,41.711z M46.302,39.811h-1.063v-2.602h-2.206v-0.974h2.206v-2.262h1.063V39.811z"/>
		</g>
	</g>
	<g>
		<g>
			<polygon fill-rule="evenodd" clip-rule="evenodd" fill="#F2F2F2" points="11.225,18.315 16.06,22.031 12.085,27.559 			"/>
			<polygon fill-rule="evenodd" clip-rule="evenodd" fill="#D9D9D9" points="11.121,15.386 17.457,20.221 19.389,17.545 
				27.012,17.633 32.38,13.231 31.842,12.282 25.184,14.957 17.348,12.194 			"/>
			<polygon fill-rule="evenodd" clip-rule="evenodd" fill="#BFBFBF" points="15.304,27.031 20.56,20.049 28.063,19.876 
				29.354,18.842 39.539,20.826 41.043,22.808 31.711,26.6 22.167,24.1 			"/>
			<polygon opacity="0.302" fill-rule="evenodd" clip-rule="evenodd" fill="#7F7F7F" points="17.167,12.072 25.419,15.129 
				31.724,26.627 22.098,24.122 			"/>
			<polygon fill-rule="evenodd" clip-rule="evenodd" fill="#BFBFBF" points="33.992,14.748 31.623,16.923 37.217,18.315 
				34.31,15.355 			"/>
			<path fill="#7F7F7F" d="M11.748,29.295l-1.387-14.214l6.701-3.533l8.066,2.943l6.584-2.91l10.252,11.303l-10.236,4.117
				l-9.752-2.5L11.748,29.295z M11.379,15.63l1.192,12.22l9.31-4.364l9.781,2.507l8.666-3.485l-8.861-9.769l-6.304,2.786
				l-8.029-2.929L11.379,15.63z"/>
		</g>
		<g>
			<g>
				<g>
					<path fill="#FFFFFF" d="M40.431,10.151c-0.021,0.217-0.132,0.351-0.341,0.406c-0.05,0.01-0.096,0.014-0.143,0.016l-2.203-0.144
						l-0.721,0.631l-2.739-3.124l0.721-0.631l0.142-2.203c0.008-0.012,0.008-0.024,0.008-0.031c0.063-0.27,0.22-0.4,0.477-0.392
						c0.156,0.079,0.309,0.163,0.462,0.255c0.132,0.076,0.261,0.153,0.382,0.229c0.359,0.224,0.695,0.468,1.016,0.731
						c0.468,0.389,0.896,0.819,1.285,1.288c0.506,0.612,0.938,1.299,1.299,2.055c0.108,0.263,0.217,0.53,0.317,0.801
						C40.407,10.075,40.42,10.112,40.431,10.151z M33.76,15.857l-4.661-5.316l0.741-0.648l1.783,0.378l1.025-0.898l2.738,3.123
						l-1.025,0.898l0.14,1.814L33.76,15.857z M33.918,8.26l2.738,3.122l-0.907,0.799l-2.741-3.124L33.918,8.26z"/>
					<path fill="#444444" d="M33.736,16.209l-4.99-5.692l1.023-0.896L31.553,10l1.119-0.98v0l1.261-1.105l-0.001-0.001l0.83-0.727
						l0.165-2.204c0.107-0.374,0.345-0.553,0.682-0.553l0.136,0.027c0.161,0.082,0.319,0.169,0.478,0.264
						c0.131,0.075,0.263,0.154,0.387,0.232c0.357,0.223,0.698,0.468,1.041,0.749c0.478,0.398,0.921,0.842,1.318,1.321
						c0.512,0.62,0.96,1.329,1.332,2.107c0.115,0.278,0.225,0.548,0.326,0.822c0.016,0.035,0.032,0.082,0.046,0.134l0.012,0.044
						l-0.004,0.045c-0.03,0.321-0.217,0.543-0.526,0.625c-0.077,0.016-0.135,0.021-0.193,0.024l-2.129-0.137L37,11.414v0
						l-1.273,1.122l-0.003-0.003l-1.104,0.967l0.14,1.814L33.736,16.209z M29.451,10.564l4.332,4.94l0.459-0.402l-0.14-1.814
						l0.932-0.816l-2.409-2.747l-0.932,0.816l-1.783-0.378L29.451,10.564z M33.36,9.081l2.411,2.748l0.532-0.469l-2.409-2.747
						L33.36,9.081z M34.637,7.96l2.41,2.748l0.61-0.535l2.307,0.151c0.006-0.002,0.04-0.004,0.078-0.012
						c0.078-0.021,0.117-0.058,0.134-0.14c-0.004-0.012-0.009-0.023-0.014-0.034c-0.104-0.28-0.212-0.544-0.319-0.805
						c-0.349-0.729-0.774-1.403-1.26-1.991c-0.378-0.455-0.799-0.877-1.253-1.254c-0.324-0.267-0.647-0.5-0.987-0.711
						c-0.12-0.076-0.246-0.151-0.374-0.225c-0.134-0.081-0.264-0.153-0.396-0.221c-0.081,0.007-0.14,0.042-0.176,0.197l-0.003,0.015
						l-0.146,2.283L34.637,7.96z"/>
				</g>
			</g>
			<polygon fill="#444444" points="27.27,17.755 25.053,18.8 26.375,16.736 30.662,12.98 31.551,13.998 			"/>
		</g>
	</g>
</g>
</svg>
