<?xml version="1.0" encoding="utf-8"?>
<!-- Generator: Adobe Illustrator 16.0.0, SVG Export Plug-In . SVG Version: 6.00 Build 0)  -->
<!DOCTYPE svg PUBLIC "-//W3C//DTD SVG 1.1//EN" "http://www.w3.org/Graphics/SVG/1.1/DTD/svg11.dtd">
<svg version="1.1" id="Layer_1" xmlns="http://www.w3.org/2000/svg" xmlns:xlink="http://www.w3.org/1999/xlink" x="0px" y="0px"
	 width="50px" height="50px" viewBox="0 0 50 50" enable-background="new 0 0 50 50" xml:space="preserve">
<g>
	<g>
		<g>
			<path fill="#5A5A5A" d="M8.784,37.863c-0.147,0.311-0.338,0.586-0.571,0.826c-0.211,0.233-0.487,0.41-0.826,0.525
				c-0.339,0.117-0.712,0.176-1.12,0.176c-0.392,0-0.756-0.059-1.092-0.176c-0.336-0.115-0.635-0.291-0.9-0.525
				c-0.234-0.24-0.411-0.51-0.532-0.803c-0.121-0.295-0.181-0.619-0.181-0.974c0-0.347,0.06-0.677,0.181-0.99
				s0.313-0.586,0.577-0.819c0.264-0.233,0.556-0.416,0.876-0.549c0.321-0.132,0.677-0.197,1.069-0.197
				c0.407,0,0.78,0.065,1.12,0.197c0.34,0.133,0.615,0.314,0.826,0.549c0.233,0.233,0.424,0.508,0.571,0.819
				c0.147,0.313,0.22,0.644,0.22,0.99C9.004,37.238,8.931,37.555,8.784,37.863z M7.811,36.298C7.724,36.12,7.62,35.96,7.5,35.816
				c-0.173-0.15-0.356-0.271-0.549-0.356c-0.192-0.086-0.42-0.13-0.684-0.13s-0.5,0.044-0.707,0.13
				c-0.208,0.087-0.372,0.206-0.492,0.356c-0.174,0.144-0.283,0.304-0.328,0.48c-0.045,0.178-0.068,0.367-0.068,0.571
				c0,0.241,0.022,0.456,0.068,0.646c0.046,0.188,0.154,0.342,0.328,0.463c0.121,0.15,0.285,0.262,0.492,0.334
				c0.207,0.071,0.443,0.107,0.707,0.107s0.5-0.036,0.707-0.107c0.207-0.072,0.397-0.184,0.571-0.334
				c0.09-0.121,0.179-0.283,0.266-0.485c0.087-0.204,0.13-0.411,0.13-0.622C7.941,36.665,7.897,36.475,7.811,36.298z M12.319,43.758
				H5.463v-3.133h1.108v2.172h5.747L12.319,43.758L12.319,43.758z M9.751,35.376h1.29v-1.335h1.143v7.251h-1.143v-2.964h-1.29V37.4
				h1.29v-1.098h-1.29V35.376z"/>
			<path fill="#5A5A5A" d="M21.063,39.923c-0.438,0.062-1.003,0.106-1.697,0.136c-0.694,0.03-1.482,0.047-2.364,0.047h-2.647v-0.975
				h2.115v-2.126h1.063v2.126c0.354,0,0.686,0,0.996,0c0.309,0,0.611-0.015,0.905-0.045c0.264,0,0.536-0.016,0.814-0.045
				c0.279-0.029,0.551-0.061,0.815-0.091V39.923z M20.667,34.572c0,0.354-0.015,0.701-0.045,1.041
				c-0.03,0.339-0.061,0.671-0.09,0.994c-0.053,0.324-0.102,0.635-0.147,0.929c-0.045,0.294-0.083,0.56-0.113,0.792h-1.109
				c0.03-0.145,0.068-0.313,0.113-0.504s0.068-0.405,0.068-0.639c0.03-0.211,0.06-0.449,0.09-0.713
				c0.03-0.265,0.045-0.574,0.045-0.929h-4.378V34.57h5.566V34.572z M23.235,43.758h-6.72v-2.906h1.063v1.945h5.656L23.235,43.758
				L23.235,43.758z M24.514,38.204H23.1v3.224h-1.109v-7.387H23.1v3.189h1.414V38.204z"/>
			<path fill="#5A5A5A" d="M31.595,34.572c-0.067,1.326-0.507,2.439-1.317,3.337c-0.81,0.897-1.967,1.554-3.467,1.969
				c-0.145-0.12-0.269-0.239-0.373-0.356c-0.105-0.117-0.229-0.221-0.373-0.311c0.647-0.204,1.229-0.432,1.742-0.68
				c0.512-0.248,0.945-0.535,1.301-0.859c0.354-0.324,0.627-0.663,0.819-1.018c0.192-0.355,0.318-0.725,0.38-1.109h-3.711v-0.973
				H31.595z M34.809,43.85h-6.675v-3.666h6.675V43.85z M33.62,42.887v-1.73h-4.378v1.73H33.62z M34.809,39.527h-1.144v-1.946H31.72
				v-0.974h1.945v-2.566h1.144V39.527z"/>
			<path fill="#5A5A5A" d="M40.555,35.24c0,0.414,0.06,0.813,0.176,1.193c0.117,0.381,0.28,0.748,0.492,1.103l0.215,0.261
				c0.385,0.535,0.826,0.95,1.323,1.244l-0.747,0.746c-0.558-0.385-1.007-0.797-1.346-1.238c-0.34-0.441-0.568-0.824-0.689-1.148
				c-0.174,0.386-0.437,0.791-0.787,1.217c-0.351,0.427-0.809,0.847-1.373,1.262c-0.092-0.119-0.209-0.23-0.352-0.334
				c-0.144-0.102-0.265-0.209-0.361-0.322c0.264-0.181,0.521-0.41,0.773-0.689c0.253-0.278,0.512-0.596,0.775-0.95
				c0.203-0.323,0.365-0.683,0.486-1.073c0.119-0.394,0.207-0.814,0.26-1.268v-0.838h1.154V35.24L40.555,35.24z M46.471,43.973
				h-1.143V41.52h-5.837v-0.975h6.979L46.471,43.973L46.471,43.973z M46.471,39.742h-1.097v-2.297H44.22v2.297h-1.063v-5.564h1.063
				v2.25h1.154v-2.387h1.097V39.742z"/>
		</g>
	</g>
	<g>
		<g>
			<g>
				<path fill="#838484" d="M27.725,29.299H10.672V7.716h17.053V29.299z M12.072,27.898h14.252V9.116H12.072V27.898z"/>
				<rect x="14.261" y="6.735" fill="#838484" width="9.876" height="2.748"/>
				<path fill="#838484" d="M19.198,9.561c-1.158,0-2.1-1.074-2.1-2.394s0.942-2.395,2.1-2.395c1.158,0,2.101,1.074,2.101,2.395
					C21.299,8.487,20.356,9.561,19.198,9.561z M19.198,5.772c-0.606,0-1.1,0.625-1.1,1.395c0,0.769,0.493,1.394,1.1,1.394
					c0.607,0,1.101-0.625,1.101-1.394S19.805,5.772,19.198,5.772z"/>
				<rect x="11.816" y="7.167" fill="#838484" width="14.737" height="1.606"/>
				<rect x="11.816" y="27.795" fill="#838484" width="14.737" height="1.607"/>
			</g>
			<path fill="#868586" d="M23.697,24.01H14.6v-8.835h9.098L23.697,24.01L23.697,24.01z M15.391,23.218h7.517v-7.252h-7.517V23.218z
				"/>
			<g>
				<polygon fill="#868586" points="16.577,18.885 19.479,22.181 25.478,15.984 19.334,20.293 				"/>
				<path fill="#FFFFFF" d="M19.477,22.239l-0.027-0.032l-3.037-3.451l2.919,1.491l6.123-4.295l0.052,0.06L19.477,22.239z
					 M16.745,19.015l2.734,3.107l5.681-5.867l-5.821,4.084L16.745,19.015z"/>
			</g>
		</g>
		<g>
			<g>
				<g>
					<path fill="#5A5A5A" d="M26.311,21.388l-0.974-0.971l0.209,3.712l2.826-0.688l-0.858-0.857c0.42-0.814,1.732-2.747,4.475-1.972
						C31.986,20.611,29.074,17.789,26.311,21.388z"/>
					<path fill="#FFFFFF" d="M25.453,24.254l-0.23-4.093l1.079,1.076c0.935-1.18,1.985-1.778,3.125-1.778
						c1.498,0,2.587,1.037,2.632,1.081l0.284,0.276l-0.382-0.108c-0.413-0.117-0.814-0.176-1.191-0.176
						c-1.82,0-2.777,1.373-3.133,2.033l0.934,0.931L25.453,24.254z M25.452,20.672l0.188,3.331l2.536-0.618l-0.784-0.783
						l0.032-0.065c0.343-0.663,1.353-2.206,3.345-2.206c0.262,0,0.532,0.027,0.813,0.08c-0.425-0.303-1.212-0.753-2.154-0.753
						c-1.103,0-2.123,0.603-3.035,1.79l-0.069,0.09L25.452,20.672z"/>
				</g>
				<g>
					<path fill="#5A5A5A" d="M33.313,23.066l-2.826,0.69l0.859,0.855c-0.419,0.814-1.731,2.749-4.475,1.972
						c0,0,2.913,2.823,5.676-0.774l0.973,0.971L33.313,23.066z"/>
					<path fill="#FFFFFF" d="M29.434,27.736c-1.498,0-2.586-1.036-2.631-1.08l-0.285-0.276l0.383,0.106
						c0.412,0.117,0.814,0.178,1.192,0.178c1.821,0,2.777-1.373,3.132-2.033l-0.935-0.929l3.116-0.761l0.229,4.094l-1.076-1.076
						C31.623,27.139,30.573,27.736,29.434,27.736z M27.279,26.784c0.425,0.303,1.212,0.753,2.154,0.753
						c1.103,0,2.123-0.602,3.034-1.79l0.069-0.091l0.868,0.867l-0.187-3.333l-2.535,0.62l0.783,0.782l-0.033,0.065
						c-0.341,0.663-1.35,2.205-3.343,2.205C27.831,26.863,27.559,26.837,27.279,26.784z"/>
				</g>
			</g>
		</g>
		<g>
			<ellipse fill="#FFFFFF" cx="31.699" cy="11.902" rx="5.635" ry="5.436"/>
			<g>
				<path fill="#5A5A5A" d="M37.477,15.133c0.568-0.99,0.896-2.135,0.896-3.357c0-3.744-3.046-6.789-6.789-6.789
					s-6.789,3.045-6.789,6.789c0,3.743,3.046,6.789,6.789,6.789c0.949,0,1.854-0.197,2.674-0.551l2.965,3.601
					c0,0,3.469,1.261,3.406-2.597L37.477,15.133z M26.97,11.775c0-2.545,2.07-4.614,4.614-4.614c2.545,0,4.614,2.069,4.614,4.614
					s-2.069,4.615-4.614,4.615C29.04,16.391,26.97,14.32,26.97,11.775z"/>
				<path fill="#FFFFFF" d="M38.416,21.911L38.416,21.911c-0.661,0-1.205-0.195-1.229-0.203l-0.024-0.009l-0.019-0.021l-2.916-3.543
					c-0.843,0.352-1.73,0.53-2.646,0.53c-3.799,0-6.889-3.09-6.889-6.889c0-3.799,3.09-6.889,6.889-6.889s6.89,3.09,6.89,6.889
					c0,1.169-0.304,2.325-0.875,3.347l3.131,3.859v0.035c0.018,1.035-0.219,1.807-0.696,2.294
					C39.641,21.709,39.096,21.911,38.416,21.911z M37.282,21.529c0.112,0.037,0.586,0.183,1.134,0.183
					c0.624,0,1.12-0.182,1.475-0.541c0.435-0.442,0.649-1.154,0.64-2.117l-3.175-3.911l0.035-0.06
					c0.577-1.007,0.883-2.15,0.883-3.308c0-3.688-3-6.689-6.688-6.689s-6.689,3-6.689,6.689s3,6.689,6.689,6.689
					c0.911,0,1.798-0.183,2.635-0.542l0.068-0.03L37.282,21.529z M31.584,16.491c-2.6,0-4.714-2.115-4.714-4.715
					c0-2.6,2.114-4.714,4.714-4.714s4.714,2.115,4.714,4.714C36.298,14.375,34.184,16.491,31.584,16.491z M31.584,7.261
					c-2.489,0-4.516,2.025-4.516,4.514c0,2.49,2.025,4.515,4.516,4.515s4.516-2.025,4.516-4.515
					C36.1,9.286,34.073,7.261,31.584,7.261z"/>
			</g>
		</g>
	</g>
	<g id="Layer_2">
		<g id="Layer_2_1_">
			<path fill="#5D9BD3" d="M50,50H0V0h50V50z M1.981,48.02H48.02V1.98H1.981V48.02z"/>
		</g>
	</g>
</g>
</svg>
