<?xml version="1.0" encoding="utf-8"?>
<!-- Generator: Adobe Illustrator 16.0.0, SVG Export Plug-In . SVG Version: 6.00 Build 0)  -->
<!DOCTYPE svg PUBLIC "-//W3C//DTD SVG 1.1//EN" "http://www.w3.org/Graphics/SVG/1.1/DTD/svg11.dtd">
<svg version="1.1" id="Layer_1" xmlns="http://www.w3.org/2000/svg" xmlns:xlink="http://www.w3.org/1999/xlink" x="0px" y="0px"
	 width="50px" height="50px" viewBox="0 0 50 50" enable-background="new 0 0 50 50" xml:space="preserve">
<g>
	<g>
		<g>
			<g>
				<g>
					<path fill="#5A5A5A" d="M7.896,41.359c-0.354,0.099-0.735,0.158-1.143,0.182c-0.407,0.023-0.878,0.034-1.414,0.034H3.925V34.73
						h1.143v5.838h0.803c0.407,0,0.765-0.002,1.075-0.006c0.309-0.004,0.626-0.063,0.95-0.176V41.359z M12.228,43.904h-1.063v-5.112
						H9.887v4.673H8.823v-9.266h1.063v3.541h1.278v-3.768h1.063L12.228,43.904L12.228,43.904z"/>
					<path fill="#5A5A5A" d="M15.769,39.551V34.29h1.143v1.629h4.819V34.29h1.109v5.261h-3.01v1.811h4.288v0.973h-9.684v-0.975
						h4.288v-1.81L15.769,39.551L15.769,39.551z M21.73,38.577v-1.687h-4.819v1.687H21.73z"/>
					<path fill="#5A5A5A" d="M30.521,41.359c-0.354,0.099-0.735,0.158-1.144,0.182c-0.407,0.023-0.879,0.034-1.414,0.034H26.55
						V34.73h1.144v5.838h0.803c0.406,0,0.766-0.002,1.074-0.006c0.311-0.004,0.627-0.063,0.951-0.176V41.359z M34.854,43.904H33.79
						v-5.112h-1.278v4.673h-1.063v-9.266h1.063v3.541h1.278v-3.768h1.063V43.904L34.854,43.904z"/>
					<path fill="#5A5A5A" d="M42.907,34.596c-0.037,1.742-0.452,3.262-1.244,4.559c-0.799,1.291-1.953,2.32-3.461,3.09l-0.781-0.713
						c1.269-0.59,2.297-1.426,3.089-2.512c0.708-1.063,1.078-2.213,1.108-3.451h-3.586v-0.973H42.907z M46.166,43.904h-1.109v-9.932
						h1.109V43.904z"/>
				</g>
			</g>
			<g id="Layer_2">
				<g id="Layer_2_1_">
					<path fill="#5D9BD3" d="M50,50H0V0h50V50z M1.98,48.02H48.02V1.98H1.98V48.02z"/>
				</g>
			</g>
		</g>
	</g>
	<g>
		<g>
			<path fill="#FFFFFF" d="M35.186,26.244c0,0.592-0.515,1.07-1.146,1.07H16.228c-0.633,0-1.146-0.479-1.146-1.07V9.708
				c0-0.591,0.514-1.071,1.146-1.071h17.811c0.633,0,1.146,0.48,1.146,1.071V26.244z"/>
			<path fill="#5A5A5A" d="M34.038,27.716h-17.81c-0.853,0-1.546-0.659-1.546-1.472V9.708c0-0.811,0.694-1.471,1.546-1.471h17.811
				c0.854,0,1.547,0.66,1.547,1.471v16.537C35.585,27.057,34.891,27.716,34.038,27.716z M16.228,9.037
				c-0.412,0-0.747,0.301-0.747,0.671v16.537c0,0.37,0.335,0.671,0.747,0.671h17.811c0.411,0,0.746-0.301,0.746-0.671V9.708
				c0-0.37-0.335-0.671-0.746-0.671H16.228z"/>
		</g>
		<g>
			<path fill="#5A5A5A" d="M42.514,14.987l-5.851-4.644v2.041c-6.565,1.353-8.806,6.763-8.806,6.763
				c4.055-2.546,7.836-1.958,8.806-1.747v1.747L42.514,14.987z"/>
			<path fill="#FFFFFF" d="M27.328,19.775l0.299-0.724c0.023-0.055,2.32-5.438,8.786-6.87V9.826l6.517,5.172l-6.517,4.634v-2.027
				c-0.397-0.075-1.054-0.166-1.894-0.166c-1.584,0-4.002,0.333-6.528,1.92L27.328,19.775z M34.521,16.938
				c1.043,0,1.823,0.136,2.195,0.217l0.196,0.043v1.464l5.185-3.687l-5.185-4.115v1.727l-0.199,0.041
				c-4.901,1.01-7.356,4.359-8.235,5.867C30.828,17.222,33.029,16.938,34.521,16.938z"/>
		</g>
		<g>
			<rect x="12.682" y="13.443" fill="#5A5A5A" width="9.103" height="9.5"/>
			<path fill="#FFFFFF" d="M22.034,23.193h-9.603v-10h9.603V23.193z M12.932,22.693h8.603v-9h-8.603V22.693z"/>
		</g>
		<g>
			<circle fill="#5A5A5A" cx="27.275" cy="20.925" r="4.523"/>
			<path fill="#FFFFFF" d="M27.275,25.697c-2.631,0-4.772-2.141-4.772-4.772c0-2.631,2.142-4.773,4.772-4.773
				c2.632,0,4.773,2.141,4.773,4.773C32.049,23.557,29.908,25.697,27.275,25.697z M27.275,16.652c-2.355,0-4.272,1.917-4.272,4.273
				s1.917,4.273,4.272,4.273c2.356,0,4.273-1.917,4.273-4.273C31.55,18.569,29.633,16.652,27.275,16.652z"/>
		</g>
		<g>
			<polygon fill="#5A5A5A" points="23.058,7.923 17.646,17.567 28.675,17.567 			"/>
			<path fill="#FFFFFF" d="M29.109,17.817H17.219L23.054,7.42L29.109,17.817z M18.072,17.317H28.24l-5.179-8.891L18.072,17.317z"/>
		</g>
	</g>
</g>
</svg>
