<?xml version="1.0" encoding="utf-8"?>
<!-- Generator: Adobe Illustrator 16.0.0, SVG Export Plug-In . SVG Version: 6.00 Build 0)  -->
<!DOCTYPE svg PUBLIC "-//W3C//DTD SVG 1.1//EN" "http://www.w3.org/Graphics/SVG/1.1/DTD/svg11.dtd">
<svg version="1.1" id="Layer_1" xmlns="http://www.w3.org/2000/svg" xmlns:xlink="http://www.w3.org/1999/xlink" x="0px" y="0px"
	 width="50px" height="50px" viewBox="0 0 50 50" enable-background="new 0 0 50 50" xml:space="preserve">
<g>
	<g>
		<g>
			<path fill="#5A5A5A" d="M12.85,42.333H3.121v-0.929h4.333v-1.899h1.109v1.899h4.288L12.85,42.333L12.85,42.333z M8.608,35.434
				c0,0.09,0.007,0.182,0.022,0.276c0.015,0.095,0.022,0.179,0.022,0.254c0.083,0.295,0.236,0.597,0.458,0.905
				c0.222,0.311,0.496,0.6,0.82,0.871c0.324,0.265,0.707,0.513,1.148,0.746c0.441,0.234,0.854,0.412,1.239,0.531l-0.713,0.748
				c-0.498-0.205-0.967-0.426-1.408-0.662c-0.441-0.237-0.809-0.475-1.103-0.707c-0.294-0.233-0.538-0.463-0.73-0.686
				c-0.192-0.223-0.303-0.42-0.333-0.594c-0.09,0.174-0.225,0.371-0.401,0.594c-0.178,0.223-0.413,0.451-0.707,0.686
				c-0.325,0.232-0.692,0.47-1.103,0.707c-0.411,0.236-0.896,0.457-1.454,0.662l-0.713-0.748c0.943-0.293,1.772-0.75,2.489-1.369
				c0.256-0.18,0.458-0.367,0.605-0.56s0.262-0.375,0.345-0.549c0.068-0.144,0.13-0.312,0.187-0.503
				c0.057-0.191,0.1-0.395,0.13-0.605H4.264V34.46h7.478v0.974H8.608z"/>
			<path fill="#5A5A5A" d="M20.316,34.505c-0.03,1.298-0.456,2.464-1.278,3.496c-0.799,1.003-2.025,1.769-3.676,2.296l-0.735-0.679
				c1.259-0.431,2.3-1.015,3.122-1.753c0.799-0.717,1.229-1.514,1.29-2.389h-3.755v-0.973L20.316,34.505L20.316,34.505z
				 M23.676,43.689h-6.855v-3.088h1.108v2.127h5.747V43.689z M23.495,41.18h-1.143v-3.225h-1.946v-0.973h1.946v-3.01h1.143V41.18z"
				/>
			<path fill="#5A5A5A" d="M31.594,34.505c-0.066,1.327-0.506,2.438-1.316,3.337c-0.81,0.898-1.967,1.555-3.467,1.969
				c-0.145-0.119-0.27-0.238-0.375-0.355c-0.104-0.117-0.229-0.221-0.373-0.311c0.648-0.205,1.229-0.432,1.742-0.681
				c0.514-0.248,0.947-0.534,1.301-0.858c0.355-0.324,0.629-0.664,0.82-1.019c0.193-0.354,0.318-0.726,0.379-1.108h-3.71v-0.974
				H31.594z M34.807,43.781h-6.674v-3.666h6.674V43.781z M33.619,42.818v-1.729h-4.377v1.729H33.619z M34.807,39.46h-1.143v-1.946
				h-1.945v-0.973h1.945v-2.566h1.143V39.46z"/>
			<path fill="#5A5A5A" d="M40.555,35.173c0,0.414,0.06,0.813,0.176,1.193c0.115,0.381,0.279,0.747,0.49,1.103l0.217,0.262
				c0.383,0.535,0.824,0.949,1.322,1.244l-0.746,0.746c-0.559-0.386-1.008-0.798-1.346-1.238c-0.34-0.441-0.57-0.824-0.691-1.148
				c-0.174,0.385-0.436,0.79-0.785,1.216c-0.352,0.427-0.809,0.847-1.375,1.263c-0.09-0.121-0.207-0.231-0.35-0.334
				c-0.145-0.103-0.266-0.209-0.363-0.322c0.265-0.182,0.523-0.411,0.775-0.69c0.252-0.278,0.51-0.595,0.775-0.95
				c0.203-0.324,0.365-0.682,0.486-1.074c0.118-0.393,0.207-0.813,0.26-1.267v-0.838h1.154V35.173L40.555,35.173z M46.471,43.904
				h-1.143v-2.453H39.49v-0.975h6.979L46.471,43.904L46.471,43.904z M46.471,39.675h-1.098v-2.297h-1.154v2.297h-1.063v-5.565h1.063
				v2.252h1.154v-2.387h1.098V39.675z"/>
		</g>
	</g>
	<g>
		<g>
			<path fill="#5A5A5A" d="M20.384,30.615c-6.301,0-12.905-1.459-13.702-4.249L6.585,26.27V11.21h1.4
				c0,1.424,4.717,3.41,12.398,3.41c7.553,0,12.035-1.892,12.365-3.258l0.13-0.536h1.251l0.053,0.7L34.18,25.896
				C34.048,28.995,27.175,30.615,20.384,30.615z M7.986,25.634l0.03,0.022l-0.005,0.242c0.211,1.355,4.739,3.316,12.374,3.316
				c7.59,0,12.286-1.938,12.396-3.357l-0.03-0.354l0.032-0.04V13.416c-2.396,1.716-7.528,2.605-12.398,2.605
				c-4.991,0-10.027-0.876-12.398-2.57L7.986,25.634L7.986,25.634z"/>
			<path fill="#5A5A5A" d="M20.384,16.021c-6.857,0-13.799-1.652-13.799-4.811c0-3.157,6.942-4.81,13.799-4.81
				c6.857,0,13.798,1.652,13.798,4.81C34.184,14.368,27.241,16.021,20.384,16.021z M20.384,7.801
				c-7.682,0-12.398,1.985-12.398,3.409s4.717,3.41,12.398,3.41s12.398-1.986,12.398-3.41S28.064,7.801,20.384,7.801z"/>
		</g>
		<g>
			<ellipse fill="#FFFFFF" cx="31.352" cy="14.096" rx="7.762" ry="7.487"/>
			<g>
				<path fill="#5A5A5A" d="M39.311,18.548c0.781-1.365,1.236-2.941,1.236-4.626c0-5.155-4.195-9.351-9.352-9.351
					c-5.157,0-9.352,4.195-9.352,9.351c0,5.157,4.195,9.352,9.352,9.352c1.309,0,2.553-0.271,3.682-0.759l4.086,4.959
					c0,0,4.777,1.735,4.691-3.579L39.311,18.548z M24.839,13.922c0-3.504,2.851-6.356,6.356-6.356c3.504,0,6.354,2.853,6.354,6.356
					c0,3.505-2.852,6.356-6.354,6.356C27.689,20.278,24.839,17.427,24.839,13.922z"/>
				<path fill="#FFFFFF" d="M40.605,27.846L40.605,27.846c-0.903,0-1.646-0.267-1.678-0.277l-0.025-0.01l-0.018-0.021l-4.037-4.901
					c-1.158,0.489-2.386,0.737-3.652,0.737c-5.211,0-9.451-4.24-9.451-9.452c0-5.211,4.24-9.451,9.451-9.451
					c5.212,0,9.451,4.24,9.451,9.451c0,1.607-0.42,3.202-1.215,4.616l4.321,5.322v0.035c0.022,1.417-0.296,2.471-0.948,3.134
					C42.271,27.57,41.532,27.846,40.605,27.846z M39.021,27.389c0.137,0.045,0.808,0.256,1.584,0.256l0,0
					c0.871,0,1.563-0.254,2.057-0.756c0.607-0.619,0.908-1.614,0.893-2.957l-4.365-5.374l0.035-0.06
					c0.799-1.398,1.224-2.98,1.224-4.576c0-5.101-4.15-9.25-9.253-9.25c-5.1,0-9.25,4.15-9.25,9.25c0,5.102,4.151,9.251,9.25,9.251
					c1.266,0,2.49-0.252,3.643-0.75l0.069-0.03L39.021,27.389z M31.195,20.378c-3.561,0-6.456-2.896-6.456-6.457
					s2.896-6.457,6.456-6.457c3.56,0,6.455,2.896,6.455,6.457S34.755,20.378,31.195,20.378z M31.195,7.666
					c-3.449,0-6.256,2.807-6.256,6.256c0,3.449,2.807,6.256,6.256,6.256s6.256-2.807,6.256-6.256
					C37.451,10.473,34.645,7.666,31.195,7.666z"/>
			</g>
		</g>
		<path fill="#868586" d="M19.693,26.564H9.974v-9.438h9.719V26.564z M10.819,25.719h8.028v-7.746h-8.028V25.719z"/>
		<g>
			<polygon fill="#868586" points="12.086,21.09 15.185,24.61 21.593,17.993 15.033,22.595 			"/>
			<path fill="#FFFFFF" d="M15.183,24.673l-3.274-3.721l3.12,1.593l6.541-4.588l0.055,0.064L15.183,24.673z M12.264,21.229
				l2.922,3.32l6.069-6.269l-6.22,4.363L12.264,21.229z"/>
		</g>
	</g>
	<g id="Layer_2">
		<g id="Layer_2_1_">
			<path fill="#5D9BD3" d="M50,50H0V0h50V50z M1.98,48.02H48.02V1.98H1.98V48.02z"/>
		</g>
	</g>
</g>
</svg>
