<?xml version="1.0" encoding="utf-8"?>
<!-- Generator: Adobe Illustrator 16.0.0, SVG Export Plug-In . SVG Version: 6.00 Build 0)  -->
<!DOCTYPE svg PUBLIC "-//W3C//DTD SVG 1.1//EN" "http://www.w3.org/Graphics/SVG/1.1/DTD/svg11.dtd">
<svg version="1.1" id="Layer_1" xmlns="http://www.w3.org/2000/svg" xmlns:xlink="http://www.w3.org/1999/xlink" x="0px" y="0px"
	 width="50px" height="50px" viewBox="0 0 50 50" enable-background="new 0 0 50 50" xml:space="preserve">
<g>
	<g>
		<g>
			<path fill="#5A5A5A" d="M6.085,35.568H3.789v-0.973h5.747v0.973H7.194c0,0.77,0.066,1.447,0.198,2.035
				c0.132,0.588,0.345,1.105,0.639,1.551c0.234,0.468,0.528,0.879,0.882,1.232c0.354,0.354,0.739,0.663,1.154,0.928L9.31,42.107
				c-0.468-0.324-0.864-0.656-1.188-0.996c-0.324-0.34-0.577-0.656-0.758-0.95c-0.204-0.294-0.372-0.565-0.503-0.813
				c-0.131-0.25-0.213-0.465-0.243-0.646c-0.061,0.385-0.31,0.901-0.747,1.55c-0.128,0.294-0.368,0.618-0.718,0.973
				c-0.35,0.355-0.76,0.694-1.228,1.02c-0.09-0.15-0.209-0.293-0.356-0.426c-0.147-0.131-0.281-0.254-0.401-0.366
				c0.415-0.271,0.792-0.575,1.131-0.911c0.339-0.335,0.641-0.727,0.905-1.171c0.264-0.444,0.469-0.946,0.617-1.505
				c0.147-0.559,0.235-1.191,0.266-1.9v-0.396H6.085z M12.364,43.904h-1.063v-9.932h1.063V43.904z"/>
			<path fill="#5A5A5A" d="M15.848,39.232v-4.897h6.991v0.974h-5.882v2.953h6.052v0.973h-3.133v2.127h4.288v0.973h-9.729v-0.975
				h4.333v-2.127H15.848z"/>
			<path fill="#5A5A5A" d="M35.477,42.333h-9.685v-0.974h3.405v-3.541h1.063v3.541h5.215v0.974H35.477z M34.275,34.596v0.668
				c0,0.709-0.027,1.334-0.084,1.877c-0.058,0.543-0.101,1.008-0.131,1.393c-0.061,0.414-0.104,0.754-0.136,1.02
				c-0.03,0.264-0.046,0.443-0.046,0.543h-1.143c0.082-0.311,0.14-0.597,0.17-0.861c0.029-0.264,0.061-0.557,0.091-0.881
				c0.007-0.295,0.017-0.627,0.028-0.996c0.011-0.369,0.017-0.772,0.017-1.211V35.57h-6.153v-0.973h7.387V34.596z"/>
			<path fill="#5A5A5A" d="M41.086,35.479c0,0.354,0.074,0.693,0.221,1.019c0.147,0.323,0.368,0.634,0.662,0.928
				c0.233,0.294,0.521,0.56,0.859,0.798c0.34,0.237,0.683,0.428,1.029,0.57l-0.78,0.713c-0.415-0.181-0.776-0.381-1.086-0.6
				s-0.565-0.434-0.771-0.645c-0.181-0.205-0.337-0.395-0.469-0.572c-0.132-0.176-0.214-0.338-0.243-0.479
				c-0.061,0.173-0.157,0.362-0.289,0.571c-0.132,0.207-0.313,0.412-0.549,0.615c-0.181,0.203-0.418,0.41-0.712,0.617
				c-0.295,0.207-0.66,0.412-1.098,0.616l-0.713-0.747c0.385-0.136,0.732-0.324,1.047-0.564c0.313-0.241,0.611-0.51,0.898-0.805
				c0.233-0.293,0.432-0.617,0.594-0.973s0.244-0.709,0.244-1.063h-2.115v-0.974h5.338v0.974H41.086z M46.188,42.854
				c-0.188,0.233-0.43,0.438-0.725,0.611c-0.324,0.182-0.701,0.322-1.131,0.424c-0.43,0.103-0.924,0.152-1.48,0.152
				c-0.59,0-1.104-0.051-1.545-0.152s-0.81-0.242-1.104-0.424c-0.324-0.174-0.567-0.378-0.729-0.611
				c-0.162-0.232-0.244-0.481-0.244-0.746c0-0.264,0.082-0.521,0.244-0.77c0.161-0.249,0.404-0.464,0.729-0.645
				c0.294-0.174,0.662-0.313,1.104-0.42c0.44-0.104,0.955-0.157,1.545-0.157c0.558,0,1.051,0.053,1.48,0.157
				c0.429,0.105,0.807,0.246,1.131,0.42c0.295,0.181,0.536,0.396,0.725,0.645c0.189,0.249,0.282,0.506,0.282,0.77
				C46.471,42.371,46.377,42.62,46.188,42.854z M45.034,41.711c-0.158-0.12-0.339-0.236-0.543-0.352
				c-0.211-0.09-0.456-0.166-0.735-0.227s-0.58-0.09-0.904-0.09c-0.295,0-0.595,0.029-0.898,0.09
				c-0.307,0.061-0.564,0.137-0.775,0.227c-0.211,0.099-0.383,0.211-0.515,0.341c-0.132,0.128-0.198,0.264-0.198,0.407
				c0,0.149,0.066,0.283,0.198,0.4s0.304,0.235,0.515,0.355c0.211,0.076,0.471,0.144,0.775,0.203
				c0.305,0.062,0.604,0.092,0.898,0.092c0.324,0,0.625-0.03,0.904-0.092c0.279-0.061,0.524-0.127,0.735-0.203
				c0.204-0.09,0.385-0.201,0.543-0.334c0.157-0.131,0.237-0.258,0.237-0.379C45.271,41.979,45.191,41.832,45.034,41.711z
				 M46.302,39.811h-1.063v-2.602h-2.206v-0.975h2.206v-2.262h1.063V39.811z"/>
		</g>
	</g>
	<g>
		<g>
			<polygon fill="#F2F2F2" points="11.225,18.315 16.06,22.031 12.085,27.559 			"/>
			<polygon fill="#D9D9D9" points="11.121,15.386 17.457,20.221 19.389,17.545 27.012,17.633 32.38,13.231 31.842,12.282 
				25.184,14.957 17.348,12.194 			"/>
			<polygon fill="#BFBFBF" points="15.304,27.031 20.56,20.049 28.063,19.876 29.354,18.842 39.539,20.826 41.043,22.808 
				31.711,26.6 22.167,24.1 			"/>
			<polygon opacity="0.302" fill="#7F7F7F" enable-background="new    " points="17.167,12.072 25.419,15.129 31.725,26.627 
				22.098,24.122 			"/>
			<polygon fill="#BFBFBF" points="33.992,14.748 31.623,16.923 37.217,18.315 34.311,15.355 			"/>
			<path fill="#7F7F7F" d="M11.748,29.295l-1.387-14.214l6.701-3.533l8.066,2.943l6.584-2.91l10.252,11.303l-10.235,4.117
				l-9.752-2.5L11.748,29.295z M11.379,15.63l1.192,12.22l9.31-4.364l9.781,2.507l8.666-3.485l-8.861-9.769l-6.304,2.786
				l-8.029-2.929L11.379,15.63z"/>
		</g>
		<g>
			<g>
				<g>
					<path fill="#FFFFFF" d="M40.432,10.151c-0.021,0.217-0.133,0.351-0.342,0.406c-0.05,0.01-0.096,0.014-0.143,0.016l-2.203-0.144
						l-0.721,0.631l-2.739-3.124l0.721-0.631l0.142-2.203c0.009-0.012,0.009-0.024,0.009-0.031c0.063-0.27,0.22-0.4,0.477-0.392
						c0.156,0.079,0.31,0.163,0.462,0.255c0.133,0.076,0.262,0.153,0.383,0.229c0.358,0.224,0.694,0.468,1.016,0.731
						c0.468,0.389,0.896,0.819,1.285,1.288c0.506,0.612,0.938,1.299,1.299,2.055c0.107,0.263,0.217,0.53,0.316,0.801
						C40.407,10.075,40.42,10.112,40.432,10.151z M33.76,15.857l-4.66-5.316l0.74-0.648l1.783,0.378l1.025-0.898l2.737,3.123
						l-1.024,0.898l0.14,1.814L33.76,15.857z M33.918,8.26l2.738,3.122l-0.907,0.799l-2.741-3.124L33.918,8.26z"/>
					<path fill="#444444" d="M33.736,16.209l-4.99-5.692l1.023-0.896L31.553,10l1.119-0.98l0,0l1.262-1.105l-0.002-0.001l0.83-0.727
						l0.165-2.204c0.107-0.374,0.345-0.553,0.683-0.553l0.136,0.027c0.161,0.082,0.319,0.169,0.478,0.264
						c0.131,0.075,0.264,0.154,0.387,0.232c0.357,0.223,0.699,0.468,1.041,0.749c0.479,0.398,0.922,0.842,1.318,1.321
						c0.512,0.62,0.961,1.329,1.332,2.107c0.115,0.278,0.225,0.548,0.326,0.822c0.016,0.035,0.032,0.082,0.046,0.134l0.013,0.044
						l-0.004,0.045c-0.031,0.321-0.218,0.543-0.526,0.625c-0.077,0.016-0.136,0.021-0.193,0.024l-2.129-0.137L37,11.414l0,0
						l-1.273,1.122l-0.002-0.003L34.62,13.5l0.14,1.814L33.736,16.209z M29.451,10.564l4.332,4.94l0.459-0.402l-0.141-1.814
						l0.933-0.816l-2.409-2.747l-0.932,0.816l-1.783-0.378L29.451,10.564z M33.359,9.081l2.412,2.748l0.531-0.469l-2.408-2.747
						L33.359,9.081z M34.637,7.96l2.41,2.748l0.61-0.535l2.307,0.151c0.006-0.002,0.04-0.004,0.078-0.012
						c0.078-0.021,0.117-0.058,0.134-0.14c-0.004-0.012-0.009-0.023-0.014-0.034c-0.104-0.28-0.212-0.544-0.319-0.805
						c-0.349-0.729-0.774-1.403-1.26-1.991c-0.378-0.455-0.799-0.877-1.253-1.254c-0.324-0.267-0.646-0.5-0.987-0.711
						c-0.12-0.076-0.245-0.151-0.374-0.225c-0.134-0.081-0.264-0.153-0.396-0.221c-0.081,0.007-0.14,0.042-0.177,0.197l-0.002,0.015
						l-0.146,2.283L34.637,7.96z"/>
				</g>
			</g>
			<polygon fill="#444444" points="27.27,17.755 25.053,18.8 26.375,16.736 30.662,12.98 31.551,13.998 			"/>
		</g>
	</g>
	<g id="Layer_2">
		<g id="Layer_2_1_">
			<path fill="#5D9BD3" d="M50,50H0V0h50V50z M1.98,48.02H48.02V1.98H1.98V48.02z"/>
		</g>
	</g>
</g>
</svg>
