<?xml version="1.0" encoding="utf-8"?>
<!-- Generator: Adobe Illustrator 16.0.0, SVG Export Plug-In . SVG Version: 6.00 Build 0)  -->
<!DOCTYPE svg PUBLIC "-//W3C//DTD SVG 1.1//EN" "http://www.w3.org/Graphics/SVG/1.1/DTD/svg11.dtd">
<svg version="1.1" id="Layer_1" xmlns="http://www.w3.org/2000/svg" xmlns:xlink="http://www.w3.org/1999/xlink" x="0px" y="0px"
	 width="50px" height="50px" viewBox="0 0 50 50" enable-background="new 0 0 50 50" xml:space="preserve">
<g>
	<g>
		<g>
			<path fill="#535352" d="M21.668,21.189H3.9v-4.365l10.286,0.001L3.967,6.512l3.034-3.034l10.304,10.231L17.303,3.421l4.365,0
				V21.189z"/>
		</g>
	</g>
	<g>
		<g>
			<path fill="#535352" d="M28.509,21.189V3.421h4.363v10.287L43.186,3.489l3.035,3.033L35.988,16.825l10.287-0.001l0.002,4.365
				H28.509z"/>
		</g>
	</g>
	<g>
		<g>
			<path fill="#535352" d="M28.508,28.721h17.769v4.363H35.989l10.219,10.313l-3.033,3.034L32.873,36.2v10.287l-4.365,0.001V28.721z
				"/>
		</g>
	</g>
	<g>
		<g>
			<path fill="#535352" d="M21.667,28.721v17.768h-4.363V36.202L6.991,46.421l-3.035-3.033l10.231-10.303H3.901l-0.002-4.364H21.667
				z"/>
		</g>
	</g>
	<path fill="#A9A8A8" d="M50,50H0V0h50V50z M0.98,49.02H49.02V0.98H0.98V49.02z"/>
</g>
</svg>
