<?xml version="1.0" encoding="utf-8"?>
<!-- Generator: Adobe Illustrator 16.0.0, SVG Export Plug-In . SVG Version: 6.00 Build 0)  -->
<!DOCTYPE svg PUBLIC "-//W3C//DTD SVG 1.1//EN" "http://www.w3.org/Graphics/SVG/1.1/DTD/svg11.dtd">
<svg version="1.1" id="Layer_1" xmlns="http://www.w3.org/2000/svg" xmlns:xlink="http://www.w3.org/1999/xlink" x="0px" y="0px"
	 width="50px" height="50px" viewBox="0 0 50 50" enable-background="new 0 0 50 50" xml:space="preserve">
<g>
	<g>
		<path fill="#535352" d="M4.479,4h17.768v4.365L11.96,8.364l10.22,10.314l-3.034,3.034L8.842,11.48l0.002,10.288l-4.365,0V4z"/>
	</g>
</g>
<g>
	<g>
		<path fill="#535352" d="M45.697,4v17.768h-4.363V11.481L31.021,21.701l-3.035-3.033L38.219,8.364L27.932,8.365L27.93,4H45.697z"/>
	</g>
</g>
<g>
	<g>
		<path fill="#535352" d="M45.697,45.91H27.93v-4.363h10.287L27.998,31.233l3.033-3.034l10.301,10.231V28.144l4.365-0.001V45.91z"/>
	</g>
</g>
<g>
	<g>
		<path fill="#535352" d="M4.479,45.91V28.143h4.363v10.286L19.155,28.21l3.035,3.033L11.958,41.546h10.286l0.002,4.364H4.479z"/>
	</g>
</g>
<path fill="#A9A8A8" d="M50,50H0V0h50V50z M0.98,49.02h48.04V0.98H0.98V49.02z"/>
</svg>
