<?xml version="1.0" encoding="utf-8"?>
<!-- Generator: Adobe Illustrator 16.0.0, SVG Export Plug-In . SVG Version: 6.00 Build 0)  -->
<!DOCTYPE svg PUBLIC "-//W3C//DTD SVG 1.1//EN" "http://www.w3.org/Graphics/SVG/1.1/DTD/svg11.dtd">
<svg version="1.1" id="Layer_1" xmlns="http://www.w3.org/2000/svg" xmlns:xlink="http://www.w3.org/1999/xlink" x="0px" y="0px"
	 width="50px" height="50px" viewBox="0 0 50 50" enable-background="new 0 0 50 50" xml:space="preserve">
<g>
	<g>
		<path fill="#FFFFFF" d="M3,50h44c1.656,0,3-1.344,3-3v-3.711V3V0h-3H3H0v3v40.289V47C0,48.656,1.342,50,3,50z"/>
		<path fill="#9B9A9A" d="M3,48.98c-1.103,0-2-0.916-2-2.041v-3.787V2.041V0h2h44h2v2.041v41.111v3.787c0,1.125-0.896,2.041-2,2.041
			H3 M3,50h44c1.656,0,3-1.344,3-3v-3.711V3l0,0V0H0v3v40.289V47C0,48.656,1.342,50,3,50L3,50z"/>
	</g>
	<g>
		<g>
			<rect x="10.963" y="23.816" fill="#454545" width="28.074" height="2.369"/>
		</g>
	</g>
</g>
</svg>
