<?xml version="1.0" encoding="utf-8"?>
<!-- Generator: Adobe Illustrator 16.0.0, SVG Export Plug-In . SVG Version: 6.00 Build 0)  -->
<!DOCTYPE svg PUBLIC "-//W3C//DTD SVG 1.1//EN" "http://www.w3.org/Graphics/SVG/1.1/DTD/svg11.dtd">
<svg version="1.1" id="Layer_1" xmlns="http://www.w3.org/2000/svg" xmlns:xlink="http://www.w3.org/1999/xlink" x="0px" y="0px"
	 width="50px" height="50px" viewBox="0 0 50 50" enable-background="new 0 0 50 50" xml:space="preserve">
<g>
	<g>
		<path fill="#FFFFFF" d="M47.146,0h-44c-1.656,0-3,1.343-3,3v3.711V47v3h3h44h3v-3V6.711V3C50.146,1.343,48.805,0,47.146,0z"/>
		<path fill="#9B9A9A" d="M47.146,1.021c1.103,0,2,0.915,2,2.041v3.788v41.11V50h-2h-44h-2v-2.041V6.849V3.061
			c0-1.125,0.896-2.041,2-2.041H47.146 M47.146,0h-44c-1.656,0-3,1.343-3,3v3.711V47l0,0v3h50v-3V6.711V3
			C50.146,1.343,48.805,0,47.146,0L47.146,0z"/>
	</g>
	<g>
		<g>
			<g>
				<rect x="11.109" y="23.815" fill="#454545" width="28.074" height="2.369"/>
			</g>
		</g>
		<g>
			<g>
				<rect x="23.962" y="10.963" fill="#454545" width="2.37" height="28.074"/>
			</g>
		</g>
	</g>
</g>
</svg>
