<?xml version="1.0" encoding="utf-8"?>
<!-- Generator: Adobe Illustrator 16.0.0, SVG Export Plug-In . SVG Version: 6.00 Build 0)  -->
<!DOCTYPE svg PUBLIC "-//W3C//DTD SVG 1.1//EN" "http://www.w3.org/Graphics/SVG/1.1/DTD/svg11.dtd">
<svg version="1.1" id="Layer_1" xmlns="http://www.w3.org/2000/svg" xmlns:xlink="http://www.w3.org/1999/xlink" x="0px" y="0px"
	 width="50px" height="50px" viewBox="0 0 50 50" enable-background="new 0 0 50 50" xml:space="preserve">
<g>
	<g>
		<path fill="#FFFFFF" d="M50,47V3c0-1.656-1.344-3-3-3h-3.711H3H0v3v44v3h3h40.289H47C48.656,50,50,48.658,50,47z"/>
		<path fill="#9B9A9A" d="M48.979,47c0,1.103-0.915,2-2.04,2h-3.788H2.041H0v-2V3V1h2.041h41.11h3.788c1.125,0,2.04,0.896,2.04,2V47
			 M50,47V3c0-1.656-1.344-3-3-3h-3.711H3l0,0H0v50h3h40.289H47C48.656,50,50,48.658,50,47L50,47z"/>
	</g>
	<polygon fill="#454545" points="8.145,30.269 23.978,30.269 23.978,36.373 41.855,24.914 23.978,13.627 23.978,19.733 
		8.145,19.733 	"/>
</g>
</svg>
