<?xml version="1.0" encoding="utf-8"?>
<!-- Generator: Adobe Illustrator 16.0.0, SVG Export Plug-In . SVG Version: 6.00 Build 0)  -->
<!DOCTYPE svg PUBLIC "-//W3C//DTD SVG 1.1//EN" "http://www.w3.org/Graphics/SVG/1.1/DTD/svg11.dtd">
<svg version="1.1" id="Layer_1" xmlns="http://www.w3.org/2000/svg" xmlns:xlink="http://www.w3.org/1999/xlink" x="0px" y="0px"
	 width="50px" height="50px" viewBox="0 0 50 50" enable-background="new 0 0 50 50" xml:space="preserve">
<g>
	<g>
		<path fill="#FFFFFF" d="M0,3v44c0,1.656,1.344,3,3,3h3.711H47h3v-3V3V0h-3H6.711H3C1.344,0,0,1.342,0,3z"/>
		<path fill="#9B9A9A" d="M1.021,3c0-1.103,0.915-2,2.04-2h3.788h41.11H50v2v44v2h-2.041H6.849H3.061c-1.125,0-2.04-0.896-2.04-2V3
			 M0,3v44c0,1.656,1.344,3,3,3h3.711H47l0,0h3V0h-3H6.711H3C1.344,0,0,1.342,0,3L0,3z"/>
	</g>
	<polygon fill="#454545" points="41.798,19.748 26.018,19.748 26.018,13.665 8.202,25.085 26.018,36.335 26.018,30.249 
		41.798,30.249 	"/>
</g>
</svg>
