<?xml version="1.0" encoding="utf-8"?>
<!-- Generator: Adobe Illustrator 16.0.0, SVG Export Plug-In . SVG Version: 6.00 Build 0)  -->
<!DOCTYPE svg PUBLIC "-//W3C//DTD SVG 1.1//EN" "http://www.w3.org/Graphics/SVG/1.1/DTD/svg11.dtd">
<svg version="1.1" id="Layer_1" xmlns="http://www.w3.org/2000/svg" xmlns:xlink="http://www.w3.org/1999/xlink" x="0px" y="0px"
	 width="50px" height="50px" viewBox="0 0 50 50" enable-background="new 0 0 50 50" xml:space="preserve">
<g>
	<g>
		<path fill="#A9A8A8" d="M50,50H0V0h50V50z M0.981,49.02H49.02V0.98H0.981V49.02z"/>
		<g>
			<g>
				<path fill="#5A5A5A" d="M13.688,41.575c-0.324,0.091-0.745,0.158-1.261,0.204c-0.517,0.045-1.039,0.067-1.567,0.067H9.355V37.74
					h2.443v-1.945H9.355v-1.019h3.541v3.926h-2.478v2.127h0.917c0.422,0,0.839-0.016,1.25-0.046s0.779-0.09,1.103-0.181V41.575z
					 M15.77,43.419h-1.063v-4.717h-1.199v-0.973h1.199v-3.53h1.063V43.419z M17.885,43.905h-1.063v-9.932h1.063V43.905z"/>
				<path fill="#5A5A5A" d="M25.25,41.338c-0.483,0.663-1.139,0.995-1.969,0.995c-0.415,0-0.782-0.081-1.103-0.243
					c-0.321-0.162-0.602-0.42-0.843-0.774c-0.211-0.324-0.375-0.73-0.492-1.217c-0.117-0.486-0.175-1.038-0.175-1.657
					c0-0.648,0.058-1.216,0.175-1.702c0.117-0.486,0.281-0.907,0.492-1.262c0.241-0.324,0.522-0.574,0.843-0.752
					c0.32-0.177,0.688-0.266,1.103-0.266c0.83,0,1.486,0.339,1.969,1.018c0.482,0.679,0.724,1.667,0.724,2.964
					C25.973,39.709,25.732,40.674,25.25,41.338z M24.514,36.326c-0.294-0.565-0.706-0.849-1.233-0.849
					c-0.475,0-0.859,0.283-1.154,0.849c-0.287,0.559-0.43,1.248-0.43,2.07c0,0.853,0.143,1.572,0.43,2.161
					c0.294,0.505,0.679,0.758,1.154,0.758c0.528,0,0.939-0.253,1.233-0.758c0.294-0.559,0.441-1.278,0.441-2.161
					C24.955,37.544,24.808,36.854,24.514,36.326z M29.152,43.905H28.01v-9.932h1.143V43.905z"/>
				<path fill="#5A5A5A" d="M36.42,41.338c-0.486,0.663-1.152,0.995-1.996,0.995c-0.393,0-0.75-0.081-1.074-0.243
					s-0.604-0.42-0.838-0.774c-0.264-0.324-0.454-0.73-0.57-1.217c-0.117-0.486-0.176-1.038-0.176-1.657
					c0-0.648,0.059-1.216,0.176-1.702c0.116-0.486,0.307-0.907,0.57-1.262c0.234-0.324,0.514-0.574,0.838-0.752
					c0.324-0.177,0.682-0.266,1.074-0.266c0.844,0,1.51,0.339,1.996,1.018s0.73,1.667,0.73,2.964
					C37.15,39.709,36.906,40.674,36.42,41.338z M35.963,37.248c-0.084-0.351-0.189-0.657-0.316-0.922
					c-0.174-0.271-0.35-0.48-0.527-0.628c-0.178-0.146-0.408-0.221-0.695-0.221c-0.242,0-0.459,0.074-0.65,0.221
					c-0.191,0.147-0.363,0.356-0.514,0.628c-0.166,0.265-0.273,0.571-0.324,0.922c-0.049,0.351-0.072,0.733-0.072,1.148
					c0,0.445,0.023,0.843,0.072,1.193c0.051,0.351,0.158,0.646,0.324,0.888c0.15,0.265,0.314,0.47,0.49,0.617
					c0.178,0.146,0.402,0.221,0.674,0.221c0.287,0,0.525-0.074,0.719-0.221c0.191-0.147,0.375-0.353,0.549-0.617
					c0.098-0.241,0.188-0.537,0.271-0.888c0.082-0.351,0.123-0.748,0.123-1.193C36.086,37.981,36.045,37.599,35.963,37.248z
					 M37.771,37.819h1.369v-3.846h1.109v9.932h-1.109v-5.067h-1.369V37.819z"/>
			</g>
		</g>
	</g>
	<g>
		<g>
			<g>
				<g>
					<polygon fill="#C0BFBF" points="29.15,29.972 6.769,25.122 19.825,17.942 42.02,22.604 					"/>
					<path fill="#858585" d="M29.232,30.501L5.357,25.328l14.389-7.913l23.662,4.971L29.232,30.501z M8.181,24.917l20.888,4.526
						l11.563-6.619l-20.727-4.354L8.181,24.917z"/>
				</g>
			</g>
		</g>
		<g>
			<g>
				<g>
					<polygon fill="#D9D9D8" points="29.15,24.003 6.769,19.061 19.825,11.973 42.02,16.636 					"/>
					<path fill="#858585" d="M29.231,24.533L5.354,19.261l14.395-7.815l23.66,4.971L29.231,24.533z M8.185,18.861l20.885,4.612
						l11.562-6.618L19.902,12.5L8.185,18.861z"/>
				</g>
			</g>
		</g>
		<g>
			<g>
				<g>
					<polygon fill="#FFFFFF" points="30.363,17.382 7.981,12.533 21.037,5.352 43.232,10.015 					"/>
					<path fill="#858585" d="M30.445,17.912L6.57,12.739l14.389-7.914l23.663,4.971L30.445,17.912z M9.393,12.328l20.888,4.525
						l11.563-6.619L21.116,5.879L9.393,12.328z"/>
				</g>
			</g>
		</g>
	</g>
</g>
</svg>
