<?xml version="1.0" encoding="utf-8"?>
<!-- Generator: Adobe Illustrator 16.0.0, SVG Export Plug-In . SVG Version: 6.00 Build 0)  -->
<!DOCTYPE svg PUBLIC "-//W3C//DTD SVG 1.1//EN" "http://www.w3.org/Graphics/SVG/1.1/DTD/svg11.dtd">
<svg version="1.1" xmlns="http://www.w3.org/2000/svg" xmlns:xlink="http://www.w3.org/1999/xlink" x="0px" y="0px" width="50px"
	 height="50px" viewBox="0 0 50 50" enable-background="new 0 0 50 50" xml:space="preserve">
<g id="Layer_1">
	<rect fill="#FFFFFF" width="50" height="50"/>
	<path fill="#A9A8A8" d="M50,50H0V0h50V50z M0.98,49.02h48.04V0.98H0.98V49.02z"/>
	<g>
		<g>
			<g>
				<path fill="#5A5B5B" d="M26.453,44.25H23.35c-0.469,0-0.911-0.183-1.241-0.514c-0.331-0.331-0.514-0.77-0.514-1.239V38.08
					c-0.684-0.169-1.355-0.39-2.004-0.659c-0.632-0.264-1.25-0.579-1.842-0.938l-3.124,3.129c-0.668,0.659-1.825,0.657-2.486,0
					l-2.196-2.199c-0.332-0.327-0.514-0.768-0.514-1.239c0-0.469,0.182-0.91,0.514-1.244l3.128-3.129
					c-0.357-0.59-0.67-1.21-0.936-1.839c-0.269-0.65-0.491-1.321-0.658-2.001H7.056c-0.47,0-0.911-0.183-1.243-0.516
					C5.482,27.113,5.3,26.673,5.3,26.203v-3.097c0-0.471,0.182-0.913,0.514-1.245c0.33-0.333,0.772-0.518,1.243-0.518h4.437
					c0.169-0.677,0.392-1.345,0.663-1.989c0.266-0.629,0.578-1.242,0.936-1.83l-3.149-3.147c-0.332-0.332-0.514-0.773-0.514-1.244
					c0-0.472,0.182-0.915,0.515-1.246l2.193-2.19c0.661-0.662,1.822-0.664,2.487,0l3.161,3.16c0.586-0.353,1.199-0.662,1.826-0.924
					c0.644-0.268,1.309-0.487,1.984-0.652v-4.47c0-0.47,0.183-0.912,0.514-1.243c0.33-0.331,0.772-0.514,1.241-0.514h3.104
					c0.471,0,0.911,0.183,1.242,0.513c0.334,0.332,0.516,0.773,0.516,1.244v4.482c0.674,0.168,1.335,0.389,1.975,0.656
					c0.625,0.261,1.231,0.572,1.816,0.925l3.177-3.177c0.665-0.664,1.824-0.663,2.486,0.001l2.189,2.19
					c0.333,0.329,0.518,0.772,0.518,1.245c0,0.471-0.185,0.913-0.518,1.245l-3.172,3.175c0.354,0.582,0.664,1.192,0.926,1.817
					c0.269,0.639,0.49,1.301,0.657,1.973h4.477c0.469,0,0.912,0.185,1.246,0.517c0.33,0.333,0.515,0.776,0.515,1.246v3.097
					c0,0.47-0.185,0.91-0.515,1.244c-0.334,0.335-0.777,0.518-1.246,0.518h-4.464c-0.164,0.676-0.384,1.341-0.651,1.985
					c-0.26,0.626-0.572,1.239-0.926,1.826l3.153,3.153c0.333,0.332,0.518,0.775,0.518,1.244c0,0.472-0.187,0.912-0.521,1.243
					l-2.187,2.195c-0.666,0.659-1.827,0.657-2.486,0l-3.143-3.142c-0.585,0.355-1.2,0.671-1.832,0.937
					c-0.645,0.271-1.312,0.494-1.993,0.664v4.426c0,0.47-0.182,0.908-0.516,1.239C27.364,44.067,26.924,44.25,26.453,44.25z
					 M17.604,35.172l0.349,0.227c0.646,0.418,1.33,0.777,2.034,1.072c0.717,0.3,1.467,0.532,2.23,0.698l0.406,0.086v5.242
					c0,0.192,0.075,0.376,0.211,0.513c0.137,0.136,0.318,0.211,0.514,0.211h3.104c0.196,0,0.379-0.075,0.518-0.213
					c0.135-0.135,0.209-0.318,0.209-0.511v-5.25l0.406-0.086c0.759-0.168,1.506-0.402,2.219-0.702
					c0.703-0.297,1.384-0.658,2.021-1.075l0.351-0.229l3.73,3.729c0.271,0.271,0.755,0.271,1.029-0.002l2.191-2.195
					c0.139-0.139,0.213-0.319,0.213-0.512c0-0.194-0.074-0.379-0.213-0.516l-3.739-3.737l0.226-0.349
					c0.414-0.643,0.772-1.321,1.063-2.02c0.297-0.712,0.529-1.457,0.69-2.209l0.087-0.408h5.288c0.193,0,0.378-0.074,0.516-0.215
					c0.14-0.137,0.214-0.323,0.214-0.518v-3.097c0-0.196-0.074-0.38-0.214-0.518c-0.136-0.138-0.32-0.214-0.516-0.214h-5.298
					l-0.089-0.406c-0.164-0.751-0.397-1.491-0.696-2.201c-0.291-0.695-0.649-1.372-1.063-2.01l-0.226-0.349l3.757-3.759
					c0.139-0.138,0.213-0.32,0.213-0.516c0-0.195-0.074-0.379-0.213-0.516l-2.191-2.192c-0.276-0.275-0.755-0.274-1.029,0
					l-3.761,3.762l-0.35-0.226c-0.639-0.413-1.313-0.771-2.011-1.063c-0.709-0.297-1.448-0.53-2.2-0.695l-0.406-0.087V6.812
					c0-0.195-0.074-0.378-0.211-0.515c-0.137-0.138-0.319-0.213-0.516-0.213H23.35c-0.194,0-0.377,0.075-0.514,0.213
					c-0.137,0.136-0.211,0.319-0.211,0.515v5.299l-0.409,0.085c-0.75,0.16-1.493,0.392-2.209,0.689
					c-0.696,0.291-1.375,0.647-2.017,1.06l-0.349,0.224l-3.744-3.742c-0.274-0.274-0.755-0.275-1.031,0l-2.192,2.192
					c-0.139,0.136-0.214,0.319-0.214,0.516c0,0.196,0.077,0.379,0.214,0.516l3.734,3.733l-0.228,0.349
					c-0.418,0.642-0.779,1.321-1.073,2.021c-0.3,0.715-0.536,1.46-0.701,2.216l-0.088,0.406h-5.26c-0.194,0-0.376,0.075-0.514,0.213
					c-0.139,0.138-0.211,0.323-0.211,0.519v3.097c0,0.194,0.073,0.379,0.211,0.514c0.137,0.141,0.319,0.215,0.514,0.215h5.249
					l0.085,0.408c0.161,0.756,0.396,1.505,0.696,2.224c0.293,0.702,0.652,1.386,1.07,2.036l0.224,0.348l-3.709,3.709
					c-0.137,0.139-0.214,0.321-0.214,0.518c0,0.194,0.075,0.375,0.212,0.51l2.194,2.199c0.273,0.27,0.757,0.271,1.033-0.002
					L17.604,35.172z M24.877,32.094c-1.98,0-3.841-0.771-5.24-2.17s-2.169-3.261-2.169-5.242c0-1.98,0.771-3.842,2.169-5.242
					c1.399-1.398,3.26-2.169,5.24-2.169s3.842,0.771,5.242,2.169c1.399,1.401,2.17,3.262,2.17,5.242c0,1.981-0.771,3.844-2.17,5.242
					C28.719,31.322,26.857,32.094,24.877,32.094z M24.877,18.3c-1.705,0-3.307,0.664-4.511,1.869
					c-1.205,1.204-1.868,2.807-1.868,4.513s0.663,3.311,1.868,4.513c1.204,1.206,2.806,1.87,4.511,1.87
					c1.706,0,3.309-0.664,4.514-1.87c1.204-1.202,1.868-2.807,1.868-4.513c0-1.706-0.664-3.309-1.868-4.513
					C28.186,18.963,26.583,18.3,24.877,18.3z"/>
			</g>
			<path fill="#5A5B5B" d="M27.472,24.654c0,0.71-0.288,1.353-0.753,1.818c-0.464,0.465-1.107,0.754-1.817,0.754
				s-1.352-0.289-1.817-0.754c-0.465-0.466-0.753-1.108-0.753-1.818c0-0.71,0.289-1.354,0.753-1.82
				c0.465-0.466,1.107-0.755,1.817-0.755s1.354,0.29,1.817,0.755C27.184,23.3,27.472,23.944,27.472,24.654z"/>
		</g>
	</g>
</g>
<g id="Layer_2">
	<g id="Layer_2_1_">
		<path fill="#5D9BD3" d="M50,50H0V0h50V50z M1.98,48.02h46.04V1.98H1.98V48.02z"/>
	</g>
</g>
</svg>
