<?xml version="1.0" encoding="utf-8"?>
<!-- Generator: Adobe Illustrator 16.0.0, SVG Export Plug-In . SVG Version: 6.00 Build 0)  -->
<!DOCTYPE svg PUBLIC "-//W3C//DTD SVG 1.1//EN" "http://www.w3.org/Graphics/SVG/1.1/DTD/svg11.dtd">
<svg version="1.1" xmlns="http://www.w3.org/2000/svg" xmlns:xlink="http://www.w3.org/1999/xlink" x="0px" y="0px" width="50px"
	 height="50px" viewBox="0 0 50 50" enable-background="new 0 0 50 50" xml:space="preserve">
<g id="Layer_1">
	<rect fill="#FFFFFF" width="50" height="50"/>
	<path fill="#A9A8A8" d="M50,50H0V0h50V50z M0.98,49.02h48.04V0.98H0.98V49.02z"/>
	<g>
		<path fill="#575757" d="M19.085,40.672v-1.066c2.639,0,4.807-0.212,4.807-2.338V13.611c0-1.786-0.85-2.467-3.572-2.467
			c-5.489,0-7.702,3.276-9.572,6.296l-0.596-0.339l2.466-7.021h25.228l2.514,7.317l-0.725,0.298
			c-2.043-3.403-3.531-6.552-8.805-6.552c-2.938,0-4.299,0.681-4.299,2.467v23.656c0,2.126,1.703,2.338,4.807,2.338v1.066H19.085z"
			/>
	</g>
</g>
<g id="Layer_2">
	<g id="Layer_2_1_">
		<path fill="#5D9BD3" d="M50,50H0V0h50V50z M1.98,48.02h46.04V1.98H1.98V48.02z"/>
	</g>
</g>
</svg>
