<?xml version="1.0" encoding="utf-8"?>
<!-- Generator: Adobe Illustrator 16.0.0, SVG Export Plug-In . SVG Version: 6.00 Build 0)  -->
<!DOCTYPE svg PUBLIC "-//W3C//DTD SVG 1.1//EN" "http://www.w3.org/Graphics/SVG/1.1/DTD/svg11.dtd">
<svg version="1.1" xmlns="http://www.w3.org/2000/svg" xmlns:xlink="http://www.w3.org/1999/xlink" x="0px" y="0px" width="50px"
	 height="50px" viewBox="0 0 50 50" enable-background="new 0 0 50 50" xml:space="preserve">
<g id="Layer_1">
	<g id="Layer_1_1_">
		<rect fill="#FFFFFF" width="50" height="50"/>
		<path fill="#A9A8A8" d="M50,50H0V0h50V50z M0.98,49.02h48.04V0.98H0.98V49.02z"/>
	</g>
	<g>
		<path fill="#5C5D5D" d="M36.027,7.948H8.523v33.097h33.095V14.231L36.027,7.948z M14.187,9.679h21.767v11.034H14.187V9.679z
			 M37.858,39.857H12.282V22.84h25.576V39.857z"/>
		<rect x="27.989" y="11.165" fill="#5C5D5D" width="4.947" height="7.718"/>
		<rect x="15.077" y="26.154" fill="#5C5D5D" width="20.035" height="1.879"/>
		<rect x="15.077" y="30.506" fill="#5C5D5D" width="20.035" height="1.881"/>
		<rect x="15.077" y="34.861" fill="#5C5D5D" width="20.035" height="1.881"/>
	</g>
</g>
<g id="Layer_2_2_">
	<path fill="#A9A8A8" d="M50,50H0V0h50V50z M0.98,49.02h48.04V0.98H0.98V49.02z"/>
</g>
<g id="Layer_3" display="none">
	<g id="Layer_2" display="inline">
		<g id="Layer_2_1_">
			<path fill="#5D9BD3" d="M50,50H0V0h50V50z M1.98,48.02h46.04V1.98H1.98V48.02z"/>
		</g>
	</g>
</g>
</svg>
