<?xml version="1.0" encoding="utf-8"?>
<!-- Generator: Adobe Illustrator 16.0.0, SVG Export Plug-In . SVG Version: 6.00 Build 0)  -->
<!DOCTYPE svg PUBLIC "-//W3C//DTD SVG 1.1//EN" "http://www.w3.org/Graphics/SVG/1.1/DTD/svg11.dtd">
<svg version="1.1" xmlns="http://www.w3.org/2000/svg" xmlns:xlink="http://www.w3.org/1999/xlink" x="0px" y="0px" width="50px"
	 height="50px" viewBox="0 0 50 50" enable-background="new 0 0 50 50" xml:space="preserve">
<g id="Layer_1">
	<rect fill="#FFFFFF" width="50" height="50"/>
	<path fill="#A9A8A8" d="M50,50H0V0h50V50z M0.98,49.02h48.04V0.98H0.98V49.02z"/>
	<g>
		<path fill="#5A5B5B" d="M39.946,39.718H6.954V13.272L23.54,7.878l0.22,0.154c3.372,2.359,6.903,4.953,10.21,7.5
			c3.598,2.771,6.8,5.381,9.512,7.757l0.249,0.217L39.946,39.718z M8.039,38.625h31.047L42.523,23.9
			c-2.644-2.303-5.742-4.825-9.212-7.499c-3.223-2.482-6.658-5.009-9.951-7.317L8.039,14.069V38.625z"/>
		<path fill="#5A5B5B" d="M26.149,11.636h-5.52V5.477h5.52V11.636z M21.714,10.541h3.35V6.569h-3.35V10.541z"/>
		<g>
			<polygon fill="#FFFFFF" points="21.172,11.088 23.391,11.088 25.606,11.088 25.606,8.556 25.606,6.023 23.391,6.023 
				21.172,6.023 21.172,8.556 			"/>
			<path fill="#5A5B5B" d="M26.149,11.636h-5.52V5.477h5.52V11.636z M21.714,10.541h3.35V6.569h-3.35V10.541z"/>
		</g>
		<path fill="#5A5B5B" d="M9.886,16.701h-5.52V10.69h5.52V16.701z M5.451,15.607h3.35v-3.823h-3.35V15.607z"/>
		<g>
			<polygon fill="#FFFFFF" points="4.91,16.154 7.126,16.154 9.343,16.154 9.343,13.695 9.343,11.237 7.126,11.237 4.91,11.237 
				4.91,13.695 			"/>
			<path fill="#5A5B5B" d="M9.886,16.701h-5.52V10.69h5.52V16.701z M5.451,15.607h3.35v-3.823h-3.35V15.607z"/>
		</g>
		<path fill="#5A5B5B" d="M10.478,41.729H4.959v-6.158h5.518V41.729z M6.042,40.637h3.35v-3.974h-3.35V40.637z"/>
		<g>
			<polygon fill="#FFFFFF" points="5.501,41.183 7.718,41.183 9.936,41.183 9.936,38.65 9.936,36.117 7.718,36.117 5.501,36.117 
				5.501,38.65 			"/>
			<path fill="#5A5B5B" d="M10.478,41.729H4.959v-6.158h5.518V41.729z M6.042,40.637h3.35v-3.974h-3.35V40.637z"/>
		</g>
		<path fill="#5A5B5B" d="M41.23,42.178h-5.521v-6.159h5.521V42.178z M36.796,41.083h3.35v-3.972h-3.35V41.083z"/>
		<g>
			<polygon fill="#FFFFFF" points="36.251,41.631 38.469,41.631 40.687,41.631 40.687,39.099 40.687,36.563 38.469,36.563 
				36.251,36.563 36.251,39.099 			"/>
			<path fill="#5A5B5B" d="M41.23,42.178h-5.521v-6.159h5.521V42.178z M36.796,41.083h3.35v-3.972h-3.35V41.083z"/>
		</g>
		<path fill="#5A5B5B" d="M45.96,26.979h-5.521v-6.158h5.521V26.979z M41.526,25.888h3.35v-3.973h-3.35V25.888z"/>
		<g>
			<polygon fill="#FFFFFF" points="40.982,26.434 43.2,26.434 45.417,26.434 45.417,23.901 45.417,21.369 43.2,21.369 
				40.982,21.369 40.982,23.901 			"/>
			<path fill="#5A5B5B" d="M45.96,26.979h-5.521v-6.158h5.521V26.979z M41.526,25.888h3.35v-3.973h-3.35V25.888z"/>
		</g>
	</g>
</g>
<g id="Layer_2">
	<g id="Layer_2_1_">
		<path fill="#5D9BD3" d="M50,50H0V0h50V50z M1.98,48.02h46.04V1.98H1.98V48.02z"/>
	</g>
</g>
</svg>
