<?xml version="1.0" encoding="utf-8"?>
<!-- Generator: Adobe Illustrator 16.0.0, SVG Export Plug-In . SVG Version: 6.00 Build 0)  -->
<!DOCTYPE svg PUBLIC "-//W3C//DTD SVG 1.1//EN" "http://www.w3.org/Graphics/SVG/1.1/DTD/svg11.dtd">
<svg version="1.1" xmlns="http://www.w3.org/2000/svg" xmlns:xlink="http://www.w3.org/1999/xlink" x="0px" y="0px" width="50px"
	 height="50px" viewBox="0 0 50 50" enable-background="new 0 0 50 50" xml:space="preserve">
<g id="Layer_1">
	<rect fill="#FFFFFF" width="50" height="50"/>
	<path fill="#A9A8A8" d="M50,50H0V0h50V50z M0.98,49.02h48.04V0.98H0.98V49.02z"/>
	<path fill="#5A5B5B" d="M40.611,40.35H6.215V12.878l17.299-5.604l0.231,0.161c3.519,2.456,7.197,5.149,10.638,7.791
		c3.76,2.886,7.096,5.598,9.918,8.06l0.256,0.224L40.611,40.35z M7.347,39.217h32.365l3.586-15.3
		c-2.747-2.386-5.979-5.007-9.606-7.791c-3.352-2.573-6.93-5.197-10.365-7.599L7.347,13.703V39.217z"/>
</g>
<g id="Layer_2" display="none">
	<g id="Layer_2_1_" display="inline">
		<path fill="#5D9BD3" d="M50,50H0V0h50V50z M1.98,48.02h46.04V1.98H1.98V48.02z"/>
	</g>
</g>
</svg>
