<?xml version="1.0" encoding="utf-8"?>
<!-- Generator: Adobe Illustrator 16.0.0, SVG Export Plug-In . SVG Version: 6.00 Build 0)  -->
<!DOCTYPE svg PUBLIC "-//W3C//DTD SVG 1.1//EN" "http://www.w3.org/Graphics/SVG/1.1/DTD/svg11.dtd">
<svg version="1.1" xmlns="http://www.w3.org/2000/svg" xmlns:xlink="http://www.w3.org/1999/xlink" x="0px" y="0px" width="50px"
	 height="50px" viewBox="0 0 50 50" enable-background="new 0 0 50 50" xml:space="preserve">
<g id="Layer_1">
	<g id="Layer_1_1_">
		<rect fill="#FFFFFF" width="50" height="50"/>
		<path fill="#A9A8A8" d="M50,50H0V0h50V50z M0.98,49.02h48.04V0.98H0.98V49.02z"/>
	</g>
</g>
<g id="Layer_2_2_">
	<path fill="#A9A8A8" d="M50,50H0V0h50V50z M0.98,49.02h48.04V0.98H0.98V49.02z"/>
</g>
<g id="Layer_3">
	<g id="Layer_2">
		<g id="Layer_2_1_">
			<path fill="#5D9BD3" d="M50,50H0V0h50V50z M1.98,48.02h46.04V1.98H1.98V48.02z"/>
		</g>
	</g>
	<path fill="#5C5D5D" d="M38.974,13.52h-4.979c0.008-0.101,0.031-0.196,0.031-0.3V9.657c0-1.997-1.617-3.612-3.611-3.612H19.776
		c-1.996,0-3.614,1.615-3.614,3.612v3.563c0,0.104,0.025,0.199,0.035,0.3h-4.981c-1.038,0-1.877,0.877-1.877,1.959
		c0,1.081,0.84,1.957,1.877,1.957h1.311c-0.112,0.278-0.177,0.581-0.177,0.902v21.377c0,1.331,1.078,2.409,2.408,2.409h20.676
		c1.331,0,2.409-1.078,2.409-2.409V18.338c0-0.321-0.065-0.624-0.179-0.902h1.311c1.038,0,1.879-0.876,1.879-1.957
		C40.853,14.396,40.012,13.52,38.974,13.52z M19.574,11.111c0-0.666,0.539-1.205,1.204-1.205h8.481c0.666,0,1.205,0.539,1.205,1.205
		v2.309c0,0.036-0.017,0.066-0.021,0.1H19.594c-0.002-0.033-0.02-0.063-0.02-0.1V11.111z M19.826,37.182
		c0,0.845-0.685,1.53-1.531,1.53c-0.845,0-1.531-0.686-1.531-1.53V18.613c0-0.845,0.686-1.531,1.531-1.531
		c0.846,0,1.531,0.687,1.531,1.531V37.182z M26.55,37.182c0,0.845-0.685,1.53-1.529,1.53c-0.846,0-1.531-0.686-1.531-1.53V18.613
		c0-0.845,0.686-1.531,1.531-1.531c0.845,0,1.529,0.687,1.529,1.531V37.182z M33.274,37.182c0,0.845-0.685,1.53-1.53,1.53
		s-1.53-0.686-1.53-1.53V18.613c0-0.845,0.685-1.531,1.53-1.531s1.53,0.687,1.53,1.531V37.182z"/>
</g>
</svg>
