<?xml version="1.0" encoding="utf-8"?>
<!-- Generator: Adobe Illustrator 16.0.0, SVG Export Plug-In . SVG Version: 6.00 Build 0)  -->
<!DOCTYPE svg PUBLIC "-//W3C//DTD SVG 1.1//EN" "http://www.w3.org/Graphics/SVG/1.1/DTD/svg11.dtd">
<svg version="1.1" xmlns="http://www.w3.org/2000/svg" xmlns:xlink="http://www.w3.org/1999/xlink" x="0px" y="0px" width="50px"
	 height="50px" viewBox="0 0 50 50" enable-background="new 0 0 50 50" xml:space="preserve">
<g id="Layer_1">
	<rect fill="#FFFFFF" width="50" height="50"/>
	<path fill="#A9A8A8" d="M50,50H0V0h50V50z M0.98,49.02h48.04V0.98H0.98V49.02z"/>
	<g>
		<path fill="#5A5B5B" d="M12.248,39.504h-0.056c-0.729,0-1.414-0.298-1.928-0.843c-0.515-0.541-0.798-1.263-0.798-2.032
			l-0.021-0.066c-0.013-0.048-0.024-0.096-0.033-0.138c-0.25-1.174-0.5-2.354-0.751-3.531c-0.536-2.51-1.073-5.02-1.587-7.532
			C6.188,21.046,5.529,17.505,5,14.222l-0.007-0.087c0-0.252,0.08-0.538,0.235-0.845c0.152-0.298,0.38-0.626,0.68-0.975l0.117-0.139
			l11.665-1.8c0.29,0,0.613,0.187,1.253,1.1c0.269,0.382,0.555,0.843,0.78,1.249l16.227-2.348c0.731,0,1.477,0.23,2.042,0.631
			c0.673,0.477,1.047,1.153,1.059,1.912l2.051,16.147c0,0.742-0.357,1.723-0.936,2.562c-0.637,0.92-1.4,1.46-2.102,1.489
			L12.248,39.504z M5.976,14.105c0.527,3.252,1.18,6.761,2.056,11.038c0.515,2.51,1.049,5.016,1.584,7.524
			c0.251,1.177,0.503,2.357,0.753,3.537l0.035,0.132c0.02,0.077,0.043,0.181,0.043,0.293c0,0.49,0.182,0.953,0.511,1.301
			c0.316,0.335,0.733,0.525,1.18,0.537l25.862-6.38c0.392,0,0.916-0.411,1.37-1.07c0.438-0.635,0.735-1.398,0.747-1.92l-2.05-16.141
			c0-0.535-0.339-0.888-0.624-1.089c-0.394-0.279-0.938-0.447-1.461-0.455l-16.796,2.436l-0.161-0.319
			c-0.21-0.415-0.561-0.994-0.872-1.437c-0.288-0.409-0.458-0.589-0.538-0.662L6.522,13.147c-0.189,0.232-0.333,0.446-0.429,0.634
			C6.008,13.95,5.983,14.055,5.976,14.105z"/>
		<g>
			<g>
				<path fill="#FFFFFF" d="M45.362,16.256c0.067-0.806-0.327-1.088-0.741-1.168c-0.414-0.081-0.845,0.039-0.845,0.039
					l-14.114,2.481l-14.117,2.479c-0.616,0-1.175,0.264-1.581,0.691c-0.404,0.426-0.654,1.016-0.654,1.667l-1.456,7.771l-1.455,7.77
					c0,0.65,0.419,0.891,0.991,0.97c0.574,0.076,1.303-0.006,1.92-0.006l13.137-3.193l13.138-3.192l0.884-0.345l0.886-0.344
					c0.5-0.195,0.823-0.471,1.046-0.832c0.224-0.36,0.347-0.806,0.446-1.33c0.015-0.083,0.644-3.446,1.27-6.791
					C44.742,19.579,45.362,16.256,45.362,16.256z"/>
				<path fill="#5A5B5B" d="M11.97,39.506c-0.249,0-0.457-0.013-0.641-0.038c-1.237-0.169-1.422-1.001-1.422-1.482l0.01-0.099
					l2.902-15.494c0.013-0.75,0.296-1.45,0.799-1.98c0.505-0.533,1.174-0.83,1.885-0.841l28.193-4.955h-0.003
					c-0.011,0,0.583-0.121,1.016-0.039c0.791,0.157,1.218,0.8,1.141,1.725l-0.007,0.054l-2.516,13.455
					c-0.092,0.485-0.224,1.044-0.516,1.515c-0.294,0.474-0.715,0.813-1.289,1.034l-1.829,0.706l-26.384,6.399
					c-0.203,0-0.418,0.01-0.636,0.02C12.438,39.495,12.2,39.506,11.97,39.506z M10.891,38.033c0.003,0.17,0.048,0.339,0.564,0.408
					c0.289,0.039,0.745,0.027,1.178,0.009c0.212-0.009,0.421-0.02,0.619-0.02l26.191-6.363l1.741-0.679
					c0.377-0.147,0.626-0.339,0.805-0.629c0.158-0.257,0.271-0.601,0.374-1.149l2.511-13.426c0.033-0.474-0.144-0.548-0.345-0.588
					c-0.305-0.062-0.629,0.03-0.63,0.031l-28.355,4.978c-0.465,0-0.903,0.191-1.233,0.54c-0.329,0.348-0.511,0.808-0.511,1.3
					l-0.008,0.1L10.891,38.033z"/>
			</g>
		</g>
	</g>
</g>
<g id="Layer_2" display="none">
	<g id="Layer_2_1_" display="inline">
		<path fill="#5D9BD3" d="M50,50H0V0h50V50z M1.98,48.02h46.04V1.98H1.98V48.02z"/>
	</g>
</g>
</svg>
