<?xml version="1.0" encoding="utf-8"?>
<!-- Generator: Adobe Illustrator 16.0.0, SVG Export Plug-In . SVG Version: 6.00 Build 0)  -->
<!DOCTYPE svg PUBLIC "-//W3C//DTD SVG 1.1//EN" "http://www.w3.org/Graphics/SVG/1.1/DTD/svg11.dtd">
<svg version="1.1" xmlns="http://www.w3.org/2000/svg" xmlns:xlink="http://www.w3.org/1999/xlink" x="0px" y="0px" width="50px"
	 height="50px" viewBox="0 0 50 50" enable-background="new 0 0 50 50" xml:space="preserve">
<g id="Layer_1">
	<rect fill="#FFFFFF" width="50" height="50"/>
	<path fill="#A9A8A8" d="M50,50H0V0h50V50z M0.98,49.02h48.04V0.98H0.98V49.02z"/>
	<g>
		<rect x="9.041" y="24.009" fill="#595959" width="31.918" height="1.158"/>
		<rect x="24.406" y="8.644" fill="#595959" width="1.158" height="31.917"/>
		<g>
			<path fill="#575757" d="M20.871,24.931c0-1.136,0.461-2.163,1.207-2.909c0.742-0.745,1.771-1.205,2.908-1.205
				c1.135,0,2.164,0.46,2.908,1.205c0.744,0.746,1.207,1.773,1.207,2.909c0,1.137-0.463,2.164-1.207,2.909s-1.773,1.205-2.908,1.205
				c-1.137,0-2.166-0.46-2.908-1.205C21.332,27.095,20.871,26.067,20.871,24.931z"/>
			<path fill="#404040" d="M24.986,29.624c-1.254,0-2.434-0.487-3.318-1.375c-0.887-0.887-1.375-2.065-1.375-3.318
				s0.488-2.431,1.375-3.318c0.885-0.887,2.064-1.376,3.318-1.376s2.432,0.489,3.318,1.376c0.887,0.888,1.375,2.065,1.375,3.318
				s-0.488,2.432-1.375,3.318C27.418,29.137,26.24,29.624,24.986,29.624z M24.986,21.396c-0.945,0-1.832,0.367-2.5,1.036
				c-0.668,0.668-1.035,1.556-1.035,2.499s0.367,1.832,1.035,2.5s1.555,1.035,2.5,1.035c0.943,0,1.83-0.367,2.498-1.035
				s1.037-1.557,1.037-2.5s-0.369-1.831-1.037-2.499C26.816,21.763,25.93,21.396,24.986,21.396z"/>
		</g>
	</g>
</g>
<g id="Layer_2">
	<g id="Layer_2_1_">
		<path fill="#5D9BD3" d="M50,50H0V0h50V50z M1.98,48.02h46.04V1.98H1.98V48.02z"/>
	</g>
</g>
</svg>
