<?xml version="1.0" encoding="utf-8"?>
<!-- Generator: Adobe Illustrator 16.0.0, SVG Export Plug-In . SVG Version: 6.00 Build 0)  -->
<!DOCTYPE svg PUBLIC "-//W3C//DTD SVG 1.1//EN" "http://www.w3.org/Graphics/SVG/1.1/DTD/svg11.dtd">
<svg version="1.1" xmlns="http://www.w3.org/2000/svg" xmlns:xlink="http://www.w3.org/1999/xlink" x="0px" y="0px" width="50px"
	 height="50px" viewBox="0 0 50 50" enable-background="new 0 0 50 50" xml:space="preserve">
<g id="Layer_1">
	<g id="Layer_1_1_">
		<rect fill="#FFFFFF" width="50" height="50"/>
		<path fill="#A9A8A8" d="M50,50H0V0h50V50z M0.98,49.02h48.04V0.98H0.98V49.02z"/>
	</g>
	<g>
		<path fill="#5A5B5B" d="M37.07,26.375v12.404c0,0.639-0.521,1.16-1.163,1.16H10.95c-0.64,0-1.163-0.521-1.163-1.16V13.745
			c0-0.641,0.523-1.161,1.163-1.161h15.049c0.135-0.382,0.289-0.752,0.463-1.111H10.95c-1.252,0-2.272,1.019-2.272,2.272v25.035
			c0,1.254,1.021,2.273,2.272,2.273h24.958c1.254,0,2.274-1.02,2.274-2.273V26.142C37.819,26.239,37.447,26.315,37.07,26.375z"/>
		<g>
			<g>
				<rect x="6.753" y="19.407" fill="#5A5C5C" width="15.292" height="13.235"/>
				<path fill="#FFFFFF" d="M22.601,33.197H6.197V18.851h16.404V33.197z M7.309,32.086h14.182V19.962H7.309V32.086z"/>
			</g>
			<g>
				<path fill="#5A5C5C" d="M19.835,30.345c0-4.141,3.186-7.5,7.106-7.5c3.927,0,7.109,3.359,7.109,7.5c0,4.14-3.183,7.5-7.109,7.5
					C23.021,37.845,19.835,34.484,19.835,30.345z"/>
				<path fill="#FFFFFF" d="M26.941,38.401c-4.223,0-7.662-3.613-7.662-8.057c0-4.442,3.439-8.056,7.662-8.056
					c4.229,0,7.668,3.614,7.668,8.056C34.609,34.788,31.17,38.401,26.941,38.401z M26.941,23.402c-3.611,0-6.549,3.114-6.549,6.943
					c0,3.828,2.938,6.943,6.549,6.943c3.615,0,6.555-3.115,6.555-6.943C33.496,26.516,30.557,23.402,26.941,23.402z"/>
			</g>
			<g>
				<polygon fill="#5A5C5C" points="10.577,26.073 19.153,11.267 27.73,26.073 				"/>
				<path fill="#FFFFFF" d="M28.698,26.629H9.61l9.543-16.471L28.698,26.629z M11.542,25.519h15.226l-7.615-13.142L11.542,25.519z"
					/>
			</g>
		</g>
		<g>
			<path fill="#5A5B5B" d="M36.714,25.428h-2.75c-0.635,0-1.152-0.513-1.152-1.147v-1.215l-0.496-0.206l-0.861,0.857
				c-0.427,0.431-1.184,0.434-1.621,0.002l-1.941-1.946c-0.217-0.213-0.334-0.501-0.334-0.809c-0.002-0.308,0.115-0.599,0.336-0.816
				l0.925-0.925l-0.105,0.049l-0.225-0.537h-1.213c-0.633,0-1.147-0.515-1.147-1.149V14.84c0-0.632,0.515-1.148,1.147-1.148
				l1.194-0.023l0.229-0.555l-0.859-0.857c-0.446-0.447-0.446-1.177,0-1.625l1.94-1.942c0.433-0.436,1.192-0.436,1.627,0.001
				l0.928,0.924l-0.039-0.11l0.517-0.217V8.072c0-0.635,0.518-1.147,1.152-1.147h2.75c0.631,0,1.138,0.512,1.138,1.147v1.182
				l0.657,0.273l0.841-0.84c0.417-0.426,1.169-0.437,1.615-0.006l1.947,1.949c0.442,0.45,0.442,1.178,0.002,1.624l-0.866,0.86
				l0.247,0.577h1.174c0.636,0,1.153,0.516,1.153,1.148v2.747c0,0.634-0.518,1.149-1.153,1.149l-1.211,0.004l-0.235,0.574
				l0.838,0.835c0.447,0.451,0.445,1.178,0,1.625l-1.939,1.944c-0.457,0.439-1.184,0.431-1.625,0.007l-0.858-0.864l-0.586,0.238
				v1.183C37.852,24.915,37.345,25.428,36.714,25.428z M32.727,21.823l0.813,0.323l0.372,0.131l0.014,0.398v1.606l2.789,0.033
				c0.024,0,0.028-0.021,0.028-0.033v-2.035l0.74-0.194l0.747-0.326l0.32-0.306l0.396,0.375l1.131,1.137l0.451,0.392l-0.394-0.392
				l1.94-1.943l-1.445-1.495l0.538-1.004l0.245-0.622l0.166-0.227l0.294-0.018h1.597c0.022,0,0.041-0.016,0.041-0.037V14.84
				l-2.05-0.035l-0.354-1.085l-0.189-0.401l-0.28-0.338l0.351-0.377l1.138-1.134c0.011-0.011,0.011-0.04-0.002-0.056l-1.938-1.938
				l-1.487,1.432l-1.014-0.532l-0.526-0.177l-0.415-0.109V8.072l-2.778-0.036l-0.039,2.015l-1.219,0.486v-0.001l-0.274,0.142
				l-0.375,0.23l-1.438-1.433l-1.993,1.941l1.421,1.475l-0.645,1.489l-0.104,0.424h-2.022l-0.035,2.782l2.098,0.037l0.169,0.661
				l0.209,0.513l-0.469,0.31l0.491-0.257l0.146,0.279l0.226,0.371l-1.43,1.434l1.939,1.996l1.563-1.513l0.387,0.338l0.144,0.067
				l-0.168,0.303l-0.065,0.2L32.727,21.823z"/>
			<path fill="#5A5B5B" d="M35.37,20.706c-2.493,0-4.521-2.031-4.521-4.528c0-2.499,2.027-4.532,4.521-4.532
				c2.501,0,4.534,2.033,4.534,4.532C39.904,18.674,37.871,20.706,35.37,20.706z M35.37,12.756c-1.879,0-3.411,1.535-3.411,3.421
				c0,1.885,1.532,3.417,3.411,3.417c1.888,0,3.425-1.532,3.425-3.417C38.795,14.291,37.258,12.756,35.37,12.756z"/>
			<path fill="#5A5B5B" d="M35.37,18.108c-1.062,0-1.926-0.867-1.926-1.931c0-1.065,0.864-1.93,1.926-1.93
				c1.067,0,1.938,0.865,1.938,1.93C37.308,17.241,36.438,18.108,35.37,18.108z M35.37,15.359c-0.455,0-0.813,0.36-0.813,0.818
				c0,0.451,0.365,0.817,0.813,0.817c0.455,0,0.826-0.366,0.826-0.817C36.196,15.726,35.825,15.359,35.37,15.359z"/>
		</g>
	</g>
</g>
<g id="Layer_2_2_">
	<path fill="#A9A8A8" d="M50,50H0V0h50V50z M0.98,49.02h48.04V0.98H0.98V49.02z"/>
</g>
<g id="Layer_3">
	<g id="Layer_2">
		<g id="Layer_2_1_">
			<path fill="#5D9BD3" d="M50,50H0V0h50V50z M1.98,48.02h46.04V1.98H1.98V48.02z"/>
		</g>
	</g>
</g>
</svg>
