<?xml version="1.0" encoding="utf-8"?>
<!-- Generator: Adobe Illustrator 16.0.0, SVG Export Plug-In . SVG Version: 6.00 Build 0)  -->
<!DOCTYPE svg PUBLIC "-//W3C//DTD SVG 1.1//EN" "http://www.w3.org/Graphics/SVG/1.1/DTD/svg11.dtd">
<svg version="1.1" xmlns="http://www.w3.org/2000/svg" xmlns:xlink="http://www.w3.org/1999/xlink" x="0px" y="0px" width="50px"
	 height="50px" viewBox="0 0 50 50" enable-background="new 0 0 50 50" xml:space="preserve">
<g id="Layer_1">
	<rect fill="#FFFFFF" width="50" height="50"/>
	<path fill="#A9A8A8" d="M50,50H0V0h50V50z M0.98,49.02h48.04V0.98H0.98V49.02z"/>
	<path fill="#5A5B5B" d="M25.281,41.877c-4.383,0-8.5-1.789-11.595-5.034c-3.086-3.24-4.787-7.547-4.787-12.125
		c0-4.579,1.701-8.883,4.787-12.123c3.096-3.246,7.212-5.034,11.595-5.034c4.381,0,8.497,1.788,11.591,5.035
		c3.089,3.239,4.787,7.542,4.787,12.122c0,4.579-1.698,8.885-4.787,12.124C33.778,40.088,29.662,41.877,25.281,41.877z
		 M25.281,8.701c-4.068,0-7.892,1.662-10.771,4.682c-2.882,3.024-4.471,7.05-4.471,11.334c0,4.287,1.589,8.313,4.471,11.339
		c2.879,3.017,6.703,4.679,10.771,4.679c4.066,0,7.891-1.662,10.767-4.679c2.885-3.026,4.472-7.055,4.472-11.339
		c0-4.284-1.587-8.309-4.472-11.335C33.172,10.363,29.348,8.701,25.281,8.701z"/>
</g>
<g id="Layer_2">
	<g id="Layer_2_1_">
		<path fill="#5D9BD3" d="M50,50H0V0h50V50z M1.98,48.02h46.04V1.98H1.98V48.02z"/>
	</g>
</g>
</svg>
