<?xml version="1.0" encoding="utf-8"?>
<!-- Generator: Adobe Illustrator 16.0.0, SVG Export Plug-In . SVG Version: 6.00 Build 0)  -->
<!DOCTYPE svg PUBLIC "-//W3C//DTD SVG 1.1//EN" "http://www.w3.org/Graphics/SVG/1.1/DTD/svg11.dtd">
<svg version="1.1" xmlns="http://www.w3.org/2000/svg" xmlns:xlink="http://www.w3.org/1999/xlink" x="0px" y="0px" width="50px"
	 height="50px" viewBox="0 0 50 50" enable-background="new 0 0 50 50" xml:space="preserve">
<g id="Layer_1">
	<g id="Layer_1_1_">
		<rect fill="#FFFFFF" width="50" height="50"/>
		<path fill="#A9A8A8" d="M50,50H0V0h50V50z M0.98,49.02h48.04V0.98H0.98V49.02z"/>
	</g>
	<g>
		<path fill="#5A5B5B" d="M36.677,30.57h-22.17V11.163h22.17V30.57z M15.67,29.408h19.842V12.327H15.67V29.408z"/>
		<path fill="#5A5B5B" d="M18.127,40.108c-5.046,0-9.151-4.323-9.151-9.635c0-5.313,4.105-9.636,9.151-9.636
			c5.045,0,9.151,4.323,9.151,9.636C27.278,35.785,23.173,40.108,18.127,40.108z M18.127,22.002c-4.404,0-7.986,3.8-7.986,8.472
			c0,4.67,3.582,8.471,7.986,8.471c4.404,0,7.987-3.801,7.987-8.471C26.114,25.802,22.531,22.002,18.127,22.002z"/>
		
			<rect x="17.477" y="0.957" transform="matrix(0.4851 0.8745 -0.8745 0.4851 21.3913 -8.6702)" fill="#5A5B5B" width="1.163" height="25.745"/>
		<polygon fill-rule="evenodd" clip-rule="evenodd" fill="#5A5B5B" points="27.317,22.457 43.488,32.109 37.522,33.905 
			42.74,39.617 39.251,42.911 34.343,36.737 30.624,41.575 		"/>
	</g>
</g>
<g id="Layer_2_2_">
	<path fill="#A9A8A8" d="M50,50H0V0h50V50z M0.98,49.02h48.04V0.98H0.98V49.02z"/>
</g>
<g id="Layer_3">
	<g id="Layer_2">
		<g id="Layer_2_1_">
			<path fill="#5D9BD3" d="M50,50H0V0h50V50z M1.98,48.02h46.04V1.98H1.98V48.02z"/>
		</g>
	</g>
</g>
</svg>
