<?xml version="1.0" encoding="utf-8"?>
<!-- Generator: Adobe Illustrator 16.0.0, SVG Export Plug-In . SVG Version: 6.00 Build 0)  -->
<!DOCTYPE svg PUBLIC "-//W3C//DTD SVG 1.1//EN" "http://www.w3.org/Graphics/SVG/1.1/DTD/svg11.dtd">
<svg version="1.1" id="Layer_1" xmlns="http://www.w3.org/2000/svg" xmlns:xlink="http://www.w3.org/1999/xlink" x="0px" y="0px"
	 width="50px" height="50px" viewBox="0 0 50 50" enable-background="new 0 0 50 50" xml:space="preserve">
<g>
	<g>
		<g>
			
				<rect x="5.569" y="11.57" transform="matrix(0.7071 0.7071 -0.7071 0.7071 13.0592 -5.3964)" fill="#787878" width="14.95" height="2.992"/>
			<polygon fill="#787878" points="10.233,23.078 23.412,23.078 23.412,9.909 			"/>
		</g>
		<g>
			
				<rect x="29.117" y="11.394" transform="matrix(-0.7071 0.7071 -0.7071 -0.7071 71.5802 -3.8707)" fill="#787878" width="14.95" height="2.993"/>
			<polygon fill="#787878" points="26.584,10.079 26.584,23.257 39.752,23.257 			"/>
		</g>
		<g>
			
				<rect x="29.475" y="35.263" transform="matrix(-0.707 -0.7072 0.7072 -0.707 37.0824 88.8796)" fill="#787878" width="14.953" height="2.991"/>
			<polygon fill="#787878" points="39.766,26.75 26.584,26.75 26.584,39.916 			"/>
		</g>
		<g>
			
				<rect x="5.569" y="35.623" transform="matrix(0.707 -0.7072 0.7072 0.707 -22.4289 20.1015)" fill="#787878" width="14.952" height="2.991"/>
			<polygon fill="#787878" points="23.052,39.928 23.052,26.75 9.885,26.75 			"/>
		</g>
	</g>
	<path fill="#5D9BD3" d="M50,50H0V0h50V50z M3.429,46.572h43.143V3.43H3.429V46.572z"/>
</g>
</svg>
